<svg width="24" height="24" viewBox="0 0 24 24" fill="#1A4FC8" xmlns="http://www.w3.org/2000/svg">
<path d="M12 2C9.79368 2 8 3.79557 8 6.00422C8 8.17071 9.69263 9.92413 11.8989 10C11.9663 9.99157 12.0337 9.99157 12.0842 10C12.1011 10 12.1095 10 12.1263 10C12.1347 10 12.1347 10 12.1432 10C14.2989 9.92413 15.9916 8.17071 16 6.00422C16 3.79557 14.2063 2 12 2Z"/>
<path d="M13.1292 21.4671C12.6089 22.1776 11.3911 22.1776 10.8708 21.4671L5.20259 13.7254C4.65188 12.9732 5.28881 12 6.33178 12L17.6682 12C18.7112 12 19.3481 12.9732 18.7974 13.7254L13.1292 21.4671Z"/>
</svg>
