<svg width="24" height="24" viewBox="0 0 24 24" fill="#D413C0" xmlns="http://www.w3.org/2000/svg">
<path d="M12 2C9.79368 2 8 3.79557 8 6.00422C8 8.17071 9.69263 9.92413 11.8989 10C11.9663 9.99157 12.0337 9.99157 12.0842 10C12.1011 10 12.1095 10 12.1263 10C12.1347 10 12.1347 10 12.1432 10C14.2989 9.92413 15.9916 8.17071 16 6.00422C16 3.79557 14.2063 2 12 2Z"/>
<path d="M10.8708 12.5329C11.3911 11.8224 12.6089 11.8224 13.1292 12.5329L18.7974 20.2746C19.3481 21.0268 18.7112 22 17.6682 22H6.33178C5.28881 22 4.65188 21.0268 5.20259 20.2746L10.8708 12.5329Z"/>
</svg>
