<svg xmlns="http://www.w3.org/2000/svg" width="348" height="348" viewBox="0 0 348 348"><path fill="#fff" d="M0 0h348v348H0z"/><path fill="none" d="M60 180h12v12H60zm84 12h12v12h-12zm60 60h12v-36h-12v-60h-12v24h-24v-12h-12v24h24v12h-12v24h36v12h-36v12h24v12h12v-12zm36-120h12v12h-12zm48 144h12v12h-12zm-72-144v48h12v12h12v12h12v-24h-12v-12h-12v-48h-12v12zm24 168h12v-12h-24v12h12zM108 180H96v12h24v-12h-12z"/><path fill="none" d="M144 180v-12h12v-12h12v-12h-24v12h-24v12h12v24h12v-12zm72 24v12h24v-12h-24zm-60 24h12v12h-12zm-60-72h12v12H96zm-12 0H72v24h24v-12H84v-12zm72-36h12v12h-12zm156 36h-12v-12h-12v24h-12v-24h-12v12h-24v12h24v36h12v-12h12v12h12v-24h12v-24zM84 192h12v12H84zm168.6-96.6h58.8V36.6h-58.8ZM264 48h36v36h-36ZM95.4 36.6H36.6v58.8h58.8ZM84 84H48V48h36Zm216 180h12v12h-12zm-48-36h-24v36h36v-36Zm0 24h-12v-12h12ZM156 96h12v12h-12zM36.6 311.4h58.8v-58.8H36.6ZM48 264h36v36H48Zm240-48v-12h-12v36h12v-24z"/><path d="M156 24h-12v12h24V24h-12zm-24 24V36h-12v36h12V60h12V48h-12zm60 0h12V36h12v24h-12v12h24V24h-36v12h-24v12h12v12h12V48zm-12 24V60h-36v12h24v12h12V72zm-24 12h12v12h-12zm12 12h12v12h-12zm-72 24h12v12H96zm-48 12H36v-12H24v24h36v-12H48zm264 0v-12h-36v12h-24v12h-12v-12h12v-12h-24v48h12v-12h24v-12h12v24h12v-24h12v12h12v24h12v-36h-12v-12z"/><path d="M144 156v-12h24v12h-12v12h12v12h24v-24h12v60h12v-12h24v-12h-12v-12h-12v-60h12V84h-12v24h-12V96h-12v24h12v24h-12v-12h-12v-12h-12v12h-12v-12h12v-12h-12V96h-12v24h-12V96h-12v36h12v12h-12v12h24zm-72 24v-24h12v12h12v-12h12v-12H96v-12H84v12H60v12H48v12H24v60h12v-36h24v-12h12z"/><path d="M132 168h-12v-12h-12v12H96v12h24v12h12v-24zm12 12v12h12v-24h-12v12zm156 12v12h12v12h12v-24h-12v-12h-12v12zm-216 0h12v-12H72v12H60v36h12v-12h12v12h24v-12H96v-12H84v-12z"/><path d="M96 192v12h24v-12H96zm36 0h12v12h-12zm144 0h12v12h-12zm12 24v24h12v-36h-12v12zm-108 24h24v-12h-36v12h12z"/><path d="M276 228v-24h-12v-36h-24v12h12v24h-12v12h-24v36h-12v12h-12v24h12v-12h24v12h24v12h-24v-12h-12v24h-12v-12h-12v12h-12v12h48v-12h12v12h12v-12h24v-12h-12v-24h12v12h12v-12h12v-12h-24v-12h12v-12h-12Zm-12 24v12h-36v-36h36v24Zm-108-12v-12h12v-24h12v-12h-24v12h-12v24h-12v-12h-12v24h12v12h36v-12h-12z"/><path d="M240 240h12v12h-12zm-60 12h-12v24h12v-12h12v-12h-12zm132 24h-12v12h12v36h12v-84h-12v12h-12v12h12v12zm-168 0v-12h-12v36h12v-24z"/><path d="M180 288h-24v12h-12v12h-24v12h36v-12h12v-12h12v-12zm108 0h12v12h-12zm-12 24h12v12h-12zM95.4 108H108V24H24v84h71.4ZM36.6 36.6h58.8v58.8H36.6ZM311.4 24H240v84h84V24Zm0 71.4h-58.8V36.6h58.8ZM36.6 240H24v84h84v-84H36.6Zm58.8 71.4H36.6v-58.8h58.8Z"/><path d="M48 48h36v36H48zm216 0h36v36h-36zM48 264h36v36H48z"/></svg>