<svg xmlns="http://www.w3.org/2000/svg" viewBox="0 0 185.4 65.68"><path d="M32.06,40.62a5.49,5.49,0,0,1-1.75-.34c-.32-.2-.49-1-.49-2.3V36.16l.07-1.64a3.11,3.11,0,0,0,0-.61C30,32,30,30.13,30,28.27c0-3.36-.14-6.65-.41-9.89-.24-2.63-1.93-4.67-5.1-6.13a18.68,18.68,0,0,0-8-1.63,10.32,10.32,0,0,1-1.11.06,17.83,17.83,0,0,0-8.92,2.48,8.67,8.67,0,0,0-4.6,7.41,1.53,1.53,0,0,0,.58,1.35A2.37,2.37,0,0,0,4,22.53,2.12,2.12,0,0,0,5.54,22a2,2,0,0,0,.73-1.3A5.16,5.16,0,0,1,9,16.28a13.78,13.78,0,0,1,6.66-1.82h.9a14,14,0,0,1,5.79,1.09c1.81.81,2.77,1.86,2.86,3.16.19,2.1.28,3.62.28,4.55-.28.56-1.14,1-2.58,1.42a93,93,0,0,1-10.77,1.38,30.18,30.18,0,0,0-5.86,1.27Q1.36,29,.45,32.73A11,11,0,0,0,0,35.58a7.81,7.81,0,0,0,2.51,5.7,13.74,13.74,0,0,0,8.92,3.65,10.93,10.93,0,0,0,1.4.06,20.33,20.33,0,0,0,9-2.07,18.27,18.27,0,0,0,3.84-2.36A4,4,0,0,0,28,43.41a11.59,11.59,0,0,0,3.84,1,2.4,2.4,0,0,0,1.6-.43,1.76,1.76,0,0,0,.8-1.27,1.68,1.68,0,0,0-.45-1.4A2.55,2.55,0,0,0,32.06,40.62Zm-6.62-6.16a12.19,12.19,0,0,1-5.65,5.16,16.31,16.31,0,0,1-6.9,1.57H12A9.53,9.53,0,0,1,5.89,39a4.92,4.92,0,0,1-1.38-3.64,5.44,5.44,0,0,1,.21-1.88C5,32.36,6,31.5,7.65,30.91s5.58-1.18,11.71-1.79a29.44,29.44,0,0,0,6.3-1.26q0,2.67-.15,5.87Z" transform="translate(-0.04 0)" fill="#fff"/><path d="M45.36,0a2.22,2.22,0,0,0-1.57.58,1.79,1.79,0,0,0-.63,1.36c0,4.73,0,9.2-.07,13.41S43,21.76,43,22V42.1a1.76,1.76,0,0,0,.63,1.4,2.32,2.32,0,0,0,1.57.55,2.22,2.22,0,0,0,1.57-.58,1.79,1.79,0,0,0,.63-1.37V28.27c0-4.41,0-6.69.07-6.85V1.94a1.85,1.85,0,0,0-.6-1.36A2,2,0,0,0,45.36,0Z" transform="translate(-0.04 0)" fill="#fff"/><path d="M61,.06a3.26,3.26,0,0,0-2.3.85,2.62,2.62,0,0,0-1,2,2.5,2.5,0,0,0,1,2,3.35,3.35,0,0,0,2.3.82,3.4,3.4,0,0,0,2.3-.82,2.49,2.49,0,0,0,.94-2,2.62,2.62,0,0,0-.94-2A3.3,3.3,0,0,0,61,.06Z" transform="translate(-0.04 0)" fill="#fff"/><path d="M62.61,12.74a2.52,2.52,0,0,0-3.14,0,1.7,1.7,0,0,0-.63,1.33C59,16.91,59,20,59,23.36v18.8a1.76,1.76,0,0,0,.63,1.4,2.27,2.27,0,0,0,1.53.55,2.24,2.24,0,0,0,1.54-.58,1.75,1.75,0,0,0,.62-1.37V22.57q0-4.3-.07-8.56A1.62,1.62,0,0,0,62.61,12.74Z" transform="translate(-0.04 0)" fill="#fff"/><path d="M101.44,14.89a14.61,14.61,0,0,0-4.67-3.12,12,12,0,0,0-5-1,16.65,16.65,0,0,0-2,.12,15.78,15.78,0,0,0-7.26,2.79,17.24,17.24,0,0,0-3.86,3.67V14.26A2.39,2.39,0,0,0,78,12.38a2.35,2.35,0,0,0-1.54-.55,2.32,2.32,0,0,0-1.53.55,1.63,1.63,0,0,0-.68,1.33q.15,8.43.21,16.2c-.07.77-.07,1.39-.07,1.85a3.69,3.69,0,0,0,.07.88c0,2.65.07,5.88.07,9.65a1.72,1.72,0,0,0,.67,1.39,2.36,2.36,0,0,0,1.56.58,2.15,2.15,0,0,0,1.54-.58,1.79,1.79,0,0,0,.63-1.4Q78.82,35,78.82,30a23.31,23.31,0,0,1,2-8A12.77,12.77,0,0,1,85,16.77a12.08,12.08,0,0,1,5.3-2.15,10.93,10.93,0,0,1,1.4-.06,8,8,0,0,1,3.35.67,9.58,9.58,0,0,1,3.07,2q1.88,2,1.88,7.7L99.6,42.29a1.72,1.72,0,0,0,.6,1.3,2.33,2.33,0,0,0,3.07,0,1.72,1.72,0,0,0,.62-1.3l.34-17.42a24.72,24.72,0,0,0-.59-5.88A9.26,9.26,0,0,0,101.44,14.89Z" transform="translate(-0.04 0)" fill="#fff"/><path d="M128.76,10.74a13.48,13.48,0,0,0-1.54-.06,15.38,15.38,0,0,0-10.42,4q-5.1,4.39-5.44,13v1.18a15.81,15.81,0,0,0,3.21,10,16.33,16.33,0,0,0,9.13,5.94,18.16,18.16,0,0,0,4.4.55A17.86,17.86,0,0,0,134.79,44a16.87,16.87,0,0,0,8.51-7.53,1.47,1.47,0,0,0,.11-1.42,2,2,0,0,0-1.12-1.1,2.52,2.52,0,0,0-1.67-.09,2.14,2.14,0,0,0-1.29.91A12.58,12.58,0,0,1,133,40.56a13.18,13.18,0,0,1-4.88,1,12.05,12.05,0,0,1-3.21-.43A11.59,11.59,0,0,1,118.43,37a13.26,13.26,0,0,1-2.72-7.43q8.17,0,17.72-.07c2.09-.06,3.86-.06,5.3-.06h3.35a2.91,2.91,0,0,0,1.5-.54,1.69,1.69,0,0,0,.73-1.22,11.12,11.12,0,0,0,.07-1.51A13.89,13.89,0,0,0,140.26,16,17.74,17.74,0,0,0,128.76,10.74Zm9.42,15h-4.81l-8.48.06h-9a13.84,13.84,0,0,1,4.2-8.65,10.9,10.9,0,0,1,7.32-2.61,10.51,10.51,0,0,1,1.12.06,12.27,12.27,0,0,1,8.05,3.55,10.8,10.8,0,0,1,3.31,7.55Z" transform="translate(-0.04 0)" fill="#fff"/><path d="M185,41.31a2.55,2.55,0,0,0-1.74-.69,5.49,5.49,0,0,1-1.75-.34c-.32-.2-.49-1-.49-2.3V36.16l.07-1.64a3.12,3.12,0,0,0,.11-.61c.14-1.9.14-3.78.14-5.64,0-3.36-.14-6.65-.42-9.89-.27-2.63-2-4.7-5.15-6.13a18.68,18.68,0,0,0-8-1.63,10.32,10.32,0,0,1-1.11.06,17.78,17.78,0,0,0-8.93,2.47,8.63,8.63,0,0,0-4.6,7.41,1.53,1.53,0,0,0,.59,1.36,2.34,2.34,0,0,0,1.53.61,2.12,2.12,0,0,0,1.54-.55,2,2,0,0,0,.73-1.3,5.17,5.17,0,0,1,2.74-4.4,13.78,13.78,0,0,1,6.66-1.82h.92a14,14,0,0,1,5.79,1.09c1.86.81,2.77,1.86,2.86,3.16.19,2.1.28,3.62.28,4.55-.28.56-1.14,1-2.58,1.42a93.85,93.85,0,0,1-10.82,1.38,30.18,30.18,0,0,0-5.86,1.27q-4.95,1.7-5.86,5.4a10.62,10.62,0,0,0-.42,2.85,7.92,7.92,0,0,0,2.51,5.7,13.79,13.79,0,0,0,8.93,3.65A10.93,10.93,0,0,0,164,45a20.33,20.33,0,0,0,9-2.07,18.27,18.27,0,0,0,3.84-2.36,4,4,0,0,0,2.3,2.85,11.59,11.59,0,0,0,3.84,1,2.4,2.4,0,0,0,1.6-.43,1.76,1.76,0,0,0,.8-1.27A1.68,1.68,0,0,0,185,41.31Zm-8.22-7.58-.07.73A12.19,12.19,0,0,1,171,39.62a16.31,16.31,0,0,1-6.9,1.57h-.91A9.53,9.53,0,0,1,157.15,39a4.92,4.92,0,0,1-1.46-3.64,5.44,5.44,0,0,1,.21-1.88c.28-1.13,1.25-2,2.93-2.58s5.58-1.18,11.71-1.79a29.79,29.79,0,0,0,6.35-1.27Q176.89,30.52,176.75,33.73Z" transform="translate(-0.04 0)" fill="#fff"/><path d="M15,58.92a6.5,6.5,0,0,1,2-4.75,6.7,6.7,0,0,1,9.47-.08.6.6,0,0,1,.08.08A6.74,6.74,0,1,1,17,63.68,6.51,6.51,0,0,1,15,58.92Z" transform="translate(-0.04 0)" fill="#444c5a"/><path d="M34.74,58.92a6.79,6.79,0,0,1,6.76-6.75,6.45,6.45,0,0,1,4.77,2,6.74,6.74,0,1,1-11.53,4.75Z" transform="translate(-0.04 0)" fill="#878c91"/><path d="M54.5,58.92a6.79,6.79,0,1,1,2,4.78A6.53,6.53,0,0,1,54.5,58.92Z" transform="translate(-0.04 0)" fill="#fff"/></svg>