<svg xmlns="http://www.w3.org/2000/svg" viewBox="0 0 143.11 34.11"><path d="M136.9.2h5.2V10.6h-5.2Zm-9,5.2-.3.1s1.8,1.5,1.8,1.6.2.1.1.4l-.2.6s1.6-.3,1.8-.4.3,0,.3.2-.1,1.9-.1,1.9h.5s-.1-1.8-.1-1.9.1-.2.3-.2,1.8.4,1.8.4a3.93,3.93,0,0,0-.2-.6c-.1-.3,0-.3.1-.4s1.8-1.6,1.8-1.6l-.3-.1c-.2-.1-.1-.2-.1-.3s.3-1.1.3-1.1-.8.2-.9.2-.2,0-.2-.1a2.57,2.57,0,0,0-.2-.5l-1,1.1c-.2.2-.4,0-.3-.2s.5-2.3.5-2.3-.5.3-.7.4-.3.1-.3-.1-.7-1.3-.7-1.4l-.7,1.4c-.1.2-.2.2-.3.1s-.7-.4-.7-.4.5,2.1.5,2.3-.1.3-.3.2l-1-1.1a1.42,1.42,0,0,1-.2.4c0,.1-.1.2-.2.1a8.66,8.66,0,0,1-1-.2,7.6,7.6,0,0,0,.4,1.1A.4.4,0,0,1,127.9,5.4ZM121.2.2h5.2V10.6h-5.2Z" transform="translate(-0.9 0.01)" fill="#fff"/><path d="M143.2,31.4a1.93,1.93,0,0,1-1.7,1.2c-.6,0-2.4-.1-2.4-4.8V17.7c0-3.1-2.4-5.6-8.6-5.6-6.7,0-6.8,3.3-6.8,4.1s.4,1.9,2.1,1.9c1.5,0,1.9-1.7,2.1-2.3s.3-2.7,3-2.7c2.3,0,3.7,2,3.8,4.9v1.6h0v.1a2.4,2.4,0,0,1-1.6,1.9,29.72,29.72,0,0,1-5.1,1.2c-1.4.3-5.3,1.3-5.2,5.4s4.1,5.4,6.9,5.3a8,8,0,0,0,5-1.8c.4-.3.4-.3.7.1s1.7,1.7,4.8,1.7,3.6-1.5,3.8-2C144.1,31.2,143.4,30.9,143.2,31.4Zm-12.5,1.1a3.36,3.36,0,0,1-3.5-3.5,6.05,6.05,0,0,1,3.4-5,27.32,27.32,0,0,1,3.8-1.8h.2a.35.35,0,0,1,.1.2h0v.1h0v.1h0v4.2C134.7,30.1,133.1,32.5,130.7,32.5Zm-9.2-.1c-.4-.1-2.9.2-2.9-7.4V1.1c0-.3,0-1.1-.9-1.1s-6.9.3-7.3.4-.7.5,0,.5,3.9.3,3.9,5.6v7.3c0,.2,0,.3-.1.4v.1h0c-.1.1-.2,0-.5-.2a10.23,10.23,0,0,0-5.7-1.8c-4.7,0-10.5,3.4-10.5,10.4,0,7.5,5.3,11.1,10.8,11.1a10.2,10.2,0,0,0,5.3-1.6c.8-.5.7-.4.8.3.1.5,0,1.5,1.4,1.4s5.1-.6,5.8-.7C122.3,32.9,122.1,32.5,121.5,32.4Zm-12.4.3c-4.4,0-6.7-5.2-6.7-10.2,0-5.5,3.1-9.2,6.4-9,4.3.3,5.4,3.7,5.5,9.8v1.3C114.2,30.6,111.7,32.7,109.1,32.7ZM97.4,31.4a1.93,1.93,0,0,1-1.7,1.2c-.6,0-2.4-.1-2.4-4.8V17.7c0-3.1-2.4-5.6-8.6-5.6-6.7,0-6.8,3.3-6.8,4.1s.4,1.9,2.1,1.9c1.5,0,1.9-1.7,2.1-2.3s.3-2.7,3-2.7c2.3,0,3.8,2,3.8,5v1a2.54,2.54,0,0,1-1.7,2.6,29.72,29.72,0,0,1-5.1,1.2c-1.4.3-5.3,1.3-5.2,5.4s4.1,5.4,6.9,5.3a8,8,0,0,0,5-1.8c.4-.3.4-.3.7.1s1.7,1.7,4.8,1.7,3.6-1.5,3.8-2S97.7,30.9,97.4,31.4ZM85,32.5A3.36,3.36,0,0,1,81.5,29a6.05,6.05,0,0,1,3.4-5,27.32,27.32,0,0,1,3.8-1.8h.2v.1h0v4.6C88.9,30.1,87.3,32.5,85,32.5Zm-9.6-.1c-.8-.2-2.2-1.1-2.2-5.5v-8c0-1.9.2-6.8-7.3-6.8a10.15,10.15,0,0,0-6.3,2.1c-.3.3-.5.4-.6-.1s-.3-1-.4-1.4-.3-.6-1-.5-5.1.8-5.9,1-.5.5,0,.6,2.9.3,2.9,4.4v8.6c0,5-1,5.4-1.9,5.7-1.2.3-.6.7-.1.7h9.1c.6,0,.9-.6-.3-.8s-2.3-.9-2.3-4.8V22.1c0-2.1-.5-8.5,5.3-8.6,4.1-.1,4.5,3.3,4.5,5.5v8.5c0,3.5-1,4.6-2.2,4.8s-.9.7-.3.7h9.3C76.2,33.2,76.7,32.7,75.4,32.4Zm-24.3-1a1.93,1.93,0,0,1-1.7,1.2c-.6,0-2.4-.1-2.4-4.8V17.7c0-3.1-2.4-5.6-8.6-5.6-6.7,0-6.8,3.3-6.8,4.1s.4,1.9,2.1,1.9c1.5,0,1.9-1.7,2.1-2.3s.3-2.7,3-2.7c2.3,0,3.7,2,3.8,4.9v1.1a.75.75,0,0,1-.1.5v.1h0a2.4,2.4,0,0,1-1.6,1.9,29.72,29.72,0,0,1-5.1,1.2c-1.4.3-5.3,1.3-5.2,5.4s4.1,5.4,6.9,5.3a8,8,0,0,0,5-1.8c.4-.3.4-.3.7.1s1.7,1.7,4.8,1.7,3.6-1.5,3.8-2C52,31.2,51.3,30.9,51.1,31.4ZM38.6,32.5A3.36,3.36,0,0,1,35.1,29c0-1.2.6-3.4,3.4-5a27.32,27.32,0,0,1,3.8-1.8h.2a.35.35,0,0,1,.1.2h0v.2h0v.1h0v4.2C42.6,30.1,41,32.5,38.6,32.5ZM29,23.8c-1,3.2-2.9,8.4-9.8,8.6C12,32.5,7.7,27.6,7.5,18.5,7.2,8.8,11.4,1.4,17.9,1.2c7.3-.1,9.9,8.6,10,9.9a.7.7,0,1,0,1.4-.1c0-.5-.6-9.1-.8-10.1s-1-.6-1.2-.2.1-.3-.3.6-1.5.4-1.9.3A15.42,15.42,0,0,0,17.9,0C9.4.2.7,6.5.9,17.5A16.55,16.55,0,0,0,17.7,34.1c7.3-.1,11.4-4.7,12.6-10C30.7,22.8,29.4,22.5,29,23.8Z" transform="translate(-0.9 0.01)" fill="#fff"/></svg>