<svg xmlns="http://www.w3.org/2000/svg" viewBox="0 0 1132.06 247.66"><path fill="#fff" fill-opacity=".5" d="m123.83 123.84.42.09-.43-.09Zm0 0h.15Zm0 0 .26.16Zm0 0h.07-.06Zm0 0 .23.44Zm0 0 .12.56-.13-.56Zm-.17.53.16-.52Zm.16-.52-.26.41Zm0 0-.06.06.07-.06Zm-.23.12.23-.12-.22.12Zm.22-.13h-.11Zm0 0-.05-.06Zm0 0-.09-.14Zm-.29-.71.29.71Zm.3.71.15-.67Zm.12-.28-.12.29Zm-.11.28.05-.06Zm0 0 .66-.42Zm0 0-.28.12Zm0 0-.7-.29.7.28Zm0 0 109.77-6.71-4.68.29a14.17 14.17 0 0 0 4.1-3.13s-4.35-4-12.77-3.24l-5.29.7c6.18-1.69 8.75-5.52 8.75-5.52s-4.33-3.31-12-2l-4.36 1c5.58-2.07 7.64-5.82 7.64-5.82s-4.28-2.72-11.31-.84l-3.72 1.18a13.79 13.79 0 0 0 6.63-6s-3.77-1.95-9.58-.18c5.26-2.83 6.64-6.91 6.64-6.91s-3.63-1.49-8.93.41l3.44-1.79c6.18-3.57 7.41-8.59 7.41-8.59s-4-1.25-9.49 1.27l3.74-2.38c6.3-4.4 7.13-9.9 7.13-9.9s-4.41-1-10 2.25l4.18-3.21c6.36-5.33 6.74-11.32 6.74-11.32a13.44 13.44 0 0 0-5.07.65l3.47-3.07a17.74 17.74 0 0 0 5.19-14.69 17.34 17.34 0 0 0-14.68 5.19l-3.19 3.53a14.34 14.34 0 0 0 .69-5.12s-5.89.26-11.32 6.74l-3.24 4.22c3.17-5.56 2.28-10.08 2.28-10.08s-5.4.71-9.9 7.12l-2.39 3.77a14.74 14.74 0 0 0 1.28-9.51s-5 1.1-8.59 7.4l-1.79 3.46a13.73 13.73 0 0 0 .39-9s-4.05 1.28-6.91 6.64c1.72-5.72-.18-9.58-.18-9.58s-3.63 1.52-6 6.64l1.18-3.73c1.85-6.9-.83-11.31-.83-11.31s-3.74 2-5.82 7.64l1-4.36c1.33-7.56-2-12-2-12s-3.81 2.44-5.51 8.7l.7-5.24c.72-8.27-3.25-12.77-3.25-12.77a13.51 13.51 0 0 0-3.12 4l.28-4.63a17.71 17.71 0 0 0-6.71-14 17.33 17.33 0 0 0-6.71 14l.29 4.68a14.17 14.17 0 0 0-3.13-4.1s-4 4.34-3.24 12.77l.69 5.27c-1.69-6.17-5.52-8.74-5.52-8.74s-3.31 4.33-2 12l1 4.38c-2.07-5.59-5.83-7.65-5.83-7.65s-2.72 4.28-.83 11.31l1.18 3.73a13.72 13.72 0 0 0-6-6.64s-2 3.77-.17 9.61c-2.83-5.28-6.92-6.68-6.92-6.68s-1.48 3.63.41 8.93l-1.78-3.43c-3.58-6.19-8.59-7.4-8.59-7.4s-1.25 4 1.27 9.5l-2.38-3.76c-4.41-6.29-9.9-7.12-9.9-7.12s-1 4.41 2.26 10l-3.2-4.18c-5.34-6.35-11.32-6.74-11.32-6.74a13.43 13.43 0 0 0 .65 5.07L51 41.47a17.72 17.72 0 0 0-14.68-5.19 17.33 17.33 0 0 0 5.17 14.73L45 54.08a14.29 14.29 0 0 0-5.11-.69s.26 5.88 6.74 11.32l4.21 3.22c-5.56-3.16-10.08-2.27-10.08-2.27s.71 5.4 7.13 9.89l3.78 2.4c-5.41-2.48-9.52-1.29-9.52-1.29s1.1 4.95 7.41 8.59L53 87.01a13.76 13.76 0 0 0-9-.43s1.29 4 6.65 6.91c-5.72-1.72-9.58.18-9.58.18s1.51 3.62 6.6 6L44 98.57c-6.9-1.85-11.31.84-11.31.84s2 3.73 7.62 5.82l-4.35-1c-7.56-1.33-12 2-12 2s2.45 3.81 8.72 5.51l-5.25-.7c-8.27-.72-12.77 3.24-12.77 3.24a13.54 13.54 0 0 0 4 3.12l-4.62-.28A17.74 17.74 0 0 0 0 123.82a17.34 17.34 0 0 0 14.06 6.71l4.69-.28a14.14 14.14 0 0 0-4.11 3.13s4.34 4 12.77 3.24l5.27-.7c-6.17 1.69-8.74 5.52-8.74 5.52s4.32 3.32 12 2l4.38-1a14.75 14.75 0 0 0-7.65 5.83s4.33 2.74 11.33.82l3.71-1.17a13.73 13.73 0 0 0-6.62 6s3.76 1.95 9.57.19c-5.22 2.9-6.6 6.9-6.6 6.9s3.64 1.49 8.94-.42l-3.46 1.79c-6.19 3.57-7.4 8.59-7.4 8.59s4 1.25 9.51-1.29l-3.77 2.4c-6.29 4.4-7.13 9.89-7.13 9.89s4.43 1 10.08-2.27l-4.22 3.31c-6.36 5.33-6.74 11.32-6.74 11.32a13.44 13.44 0 0 0 5.07-.65l-3.47 3.07a17.74 17.74 0 0 0-5.19 14.69A17.34 17.34 0 0 0 51 206.21l3.11-3.52a14.34 14.34 0 0 0-.69 5.12s5.88-.26 11.32-6.74l3.23-4.22c-3.17 5.56-2.27 10.08-2.27 10.08s5.4-.72 9.89-7.13l2.41-3.79c-2.49 5.42-1.3 9.54-1.3 9.54s5-1.1 8.59-7.41l1.81-3.48a13.8 13.8 0 0 0-.43 9s4-1.29 6.91-6.66c-1.72 5.72.18 9.59.18 9.59s3.63-1.52 6-6.62l-1.17 3.71c-1.85 6.9.84 11.31.84 11.31s3.73-2 5.82-7.63l-1 4.36c-1.33 7.56 2 12 2 12s3.81-2.45 5.52-8.72l-.69 5.25c-.73 8.27 3.24 12.77 3.24 12.77a13.46 13.46 0 0 0 3.13-4l-.28 4.62a17.74 17.74 0 0 0 6.71 14.06 17.34 17.34 0 0 0 6.71-14.06l-.29-4.68a14.42 14.42 0 0 0 3.1 4.05s4-4.34 3.25-12.77l-.65-5.23c1.69 6.17 5.52 8.75 5.52 8.75s3.32-4.33 2-12l-1-4.39a14.74 14.74 0 0 0 5.83 7.67s2.72-4.28.83-11.31l-1.18-3.74a13.84 13.84 0 0 0 6 6.65s1.95-3.76.19-9.57c2.83 5.25 6.91 6.63 6.91 6.63s1.48-3.63-.41-8.93l1.78 3.44c3.58 6.18 8.6 7.4 8.6 7.4s1.25-4-1.29-9.52l2.4 3.78c4.41 6.29 9.9 7.13 9.9 7.13s1-4.43-2.27-10.07l3.22 4.21c5.33 6.36 11.32 6.74 11.32 6.74a13.44 13.44 0 0 0-.65-5.07l3.07 3.47a17.72 17.72 0 0 0 14.68 5.19 17.33 17.33 0 0 0-5.19-14.69l-3.51-3.11a14 14 0 0 0 5.11.69s-.25-5.89-6.74-11.32l-4.22-3.23c5.53 3.09 10.1 2.2 10.1 2.2s-.71-5.4-7.13-9.89l-3.78-2.4c5.41 2.48 9.52 1.29 9.52 1.29s-1.1-4.95-7.41-8.59l-3.48-1.81a13.79 13.79 0 0 0 9 .43s-1.28-4-6.64-6.91c5.72 1.72 9.58-.19 9.58-.19s-1.52-3.62-6.62-6l3.71 1.17c6.9 1.85 11.31-.83 11.31-.83s-2-3.73-7.64-5.82l4.36 1c7.56 1.33 12-2 12-2s-2.44-3.81-8.71-5.51l5.25.7c8.26.72 12.77-3.24 12.77-3.24a13.43 13.43 0 0 0-4.05-3.13l4.62.28a17.71 17.71 0 0 0 14.05-6.71 17.3 17.3 0 0 0-14.05-6.71"/><path fill="#fff" fill-opacity=".25" d="M123.83.01v123.83l6.71-109.77a17.71 17.71 0 0 0-6.71-14"/><path fill="#fff" fill-opacity=".25" d="m36.27 36.28 87.56 87.56L51 41.47a17.72 17.72 0 0 0-14.73-5.19ZM0 123.84h123.83l-109.77-6.71A17.74 17.74 0 0 0 0 123.84m36.27 87.56 87.56-87.56-82.37 72.87a17.74 17.74 0 0 0-5.19 14.69Z"/><path fill="#fff" fill-opacity=".25" d="M123.83 247.66V123.84l-6.71 109.77a17.71 17.71 0 0 0 6.71 14.05Zm87.55-36.26-87.55-87.56 72.88 82.37a17.72 17.72 0 0 0 14.68 5.19m36.27-87.56H123.83l109.77 6.71a17.74 17.74 0 0 0 14.06-6.71Zm-36.28-87.56-87.55 87.56 82.36-72.83a17.74 17.74 0 0 0 5.19-14.69m-97.11-21.68 9.55 109.19-4.14-97.18c-.73-8.27-5.42-12-5.42-12"/><path fill="#fff" fill-opacity=".25" d="m39.86 53.38 84 70.45-71.68-65.82c-6.36-5.29-12.32-4.63-12.32-4.63Zm-25.23 80.01 109.2-9.55-97.18 4.17c-8.27.73-12 5.41-12 5.41"/><path fill="#fff" fill-opacity=".25" d="m53.37 207.8 70.46-84L58 195.48c-5.34 6.36-4.67 12.33-4.67 12.33m80.05 25.2-9.56-109.19 4.18 97.19c.69 8.28 5.38 12 5.38 12Z"/><path fill="#fff" fill-opacity=".25" d="m207.8 194.29-84-70.46 71.65 65.78c6.36 5.34 12.32 4.67 12.32 4.67m25.23-80-109.19 9.55 97.19-4.14c8.27-.72 12-5.41 12-5.41"/><path fill="#fff" fill-opacity=".25" d="m194.29 39.87-70.46 84 65.78-71.64c5.34-6.36 4.68-12.32 4.68-12.32m-88.08-15.96 17.61 99.89-11.65-89.25c-1.34-7.56-6-10.64-6-10.64"/><path fill="#fff" fill-opacity=".25" d="m40.74 65.66 83.09 58.18-71.35-54.83c-6.29-4.4-11.74-3.31-11.74-3.31"/><path fill="#fff" fill-opacity=".25" d="m23.94 141.45 99.89-17.61-89.25 11.66c-7.56 1.33-10.64 6-10.64 6"/><path fill="#fff" fill-opacity=".25" d="m65.65 206.92 58.18-83.09L69 195.19c-4.41 6.29-3.32 11.73-3.32 11.73"/><path fill="#fff" fill-opacity=".25" d="m141.44 223.72-17.61-99.89 11.66 89.25c1.33 7.56 6 10.64 6 10.64"/><path fill="#fff" fill-opacity=".25" d="m206.91 182.01-83.09-58.18 71.35 54.87c6.29 4.4 11.73 3.31 11.73 3.31m16.82-75.79-99.89 17.61 89.25-11.66c7.56-1.33 10.64-6 10.64-6"/><path fill="#fff" fill-opacity=".25" d="m182 40.75-58.18 83.08 54.86-71.35c4.41-6.29 3.31-11.74 3.31-11.74"/><path fill="#fff" fill-opacity=".25" d="m99.41 32.71 24.42 91.13-18-81.75c-1.85-6.9-6.38-9.38-6.38-9.38M42.12 76.67l81.71 47.17-70.56-45.06c-6.19-3.57-11.15-2.12-11.15-2.12"/><path fill="#fff" fill-opacity=".25" d="m32.7 148.25 91.13-24.42-81.75 18c-6.9 1.85-9.38 6.38-9.38 6.38m43.96 57.33 47.17-81.71-45.06 70.56c-3.56 6.19-2.11 11.14-2.11 11.14m71.59 9.48-24.42-91.13 18 81.75c1.89 6.86 6.42 9.38 6.42 9.38Zm57.28-44-81.7-47.17 70.56 45.06c6.19 3.57 11.14 2.12 11.14 2.12m9.47-71.6-91.12 24.42 81.75-18c6.9-1.85 9.37-6.38 9.37-6.38m-44-57.33-47.17 81.7 45.06-70.56c3.57-6.19 2.12-11.14 2.12-11.14m-77.29-1.02 30.11 82.72-23.42-74.53c-2.28-6.26-6.69-8.2-6.69-8.2M44 86.63l79.79 37.2L54.57 87.7c-6-2.82-10.53-1.06-10.53-1.06m-2.93 67.3 82.72-30.11-74.53 23.41c-6.26 2.28-8.19 6.69-8.19 6.69m45.52 49.69 37.2-79.79-36.14 69.26c-2.82 6.04-1.06 10.53-1.06 10.53Zm67.31 2.94-30.11-82.72 23.41 74.52c2.28 6.27 6.7 8.2 6.7 8.2Z"/><path fill="#fff" fill-opacity=".25" d="m203.62 161.01-79.79-37.2 69.25 36.2c6 2.81 10.53 1.06 10.53 1.06"/><path fill="#fff" fill-opacity=".25" d="m206.55 93.72-82.72 30.11 74.52-23.42c6.27-2.28 8.2-6.69 8.2-6.69ZM161 44.01l-37.2 79.78L160 54.57c2.82-6 1.06-10.53 1.06-10.53"/><path fill="#fff" fill-opacity=".25" d="m153.94 41.11-30.11 82.72 30-72.14c2.28-6.26.14-10.59.14-10.59m-67.35 2.91 37.21 79.79L94 51.64c-2.82-6-7.38-7.59-7.38-7.59M41.11 93.72l82.72 30.11-72.15-30c-6.26-2.28-10.58-.14-10.58-.14"/><path fill="#fff" fill-opacity=".25" d="m44 161.01 79.79-37.21-72.2 29.82c-6 2.82-7.58 7.39-7.58 7.39m49.71 45.55 30.11-82.72-30 72.14c-2.27 6.26-.14 10.58-.14 10.58"/><path fill="#fff" fill-opacity=".25" d="m161 203.62-37.21-79.79 29.85 72.18c2.82 6 7.39 7.58 7.39 7.58m45.52-49.65-82.72-30.11 72.14 30c6.27 2.28 10.59.14 10.59.14m-2.95-67.34-79.78 37.2L196 94.01c6-2.82 7.59-7.38 7.59-7.38"/><path fill="#fff" fill-opacity=".25" d="m148.25 32.71-24.42 91.13 25.25-79.83c1.85-6.9-.83-11.31-.83-11.31m-71.6 9.43 47.18 81.7-38.58-74.29c-3.57-6.19-8.59-7.41-8.59-7.41M32.7 99.42l91.13 24.42L44 98.59c-6.9-1.85-11.31.84-11.31.84"/><path fill="#fff" fill-opacity=".25" d="m42.13 171.01 81.7-47.17-74.3 38.58c-6.19 3.58-7.4 8.59-7.4 8.59m57.28 44 24.42-91.13-25.25 79.82c-1.85 6.85.83 11.31.83 11.31Z"/><path fill="#fff" fill-opacity=".25" d="m171 205.54-47.17-81.7 38.58 74.3c3.58 6.18 8.6 7.4 8.6 7.4M215 148.25l-91.12-24.42 79.82 25.25c6.9 1.85 11.31-.83 11.31-.83"/><path fill="#fff" fill-opacity=".25" d="m205.53 76.67-81.7 47.17 74.3-38.58c6.18-3.57 7.41-8.59 7.41-8.59m-64.1-52.72-17.61 99.89 19.57-87.83c1.33-7.56-2-12-2-12M65.65 40.75l58.18 83.08-48.29-75.95c-4.4-6.29-9.9-7.13-9.9-7.13m-41.7 65.47 99.89 17.61L36 104.26c-7.56-1.34-12 2-12 2"/><path fill="#fff" fill-opacity=".25" d="m40.74 182.01 83.09-58.18-76 48.28c-6.29 4.41-7.13 9.9-7.13 9.9"/><path fill="#fff" fill-opacity=".25" d="m106.21 223.72 17.61-99.89-19.57 87.85c-1.33 7.57 1.96 12.04 1.96 12.04Zm75.79-16.8-58.18-83.09 48.28 76c4.41 6.29 9.9 7.13 9.9 7.13m41.72-65.51-99.89-17.61 87.86 19.57c7.56 1.33 12-2 12-2"/><path fill="#fff" fill-opacity=".25" d="m206.91 65.66-83.09 58.18 76-48.28c6.3-4.41 7.13-9.9 7.13-9.9m-73.57-51.02-9.56 109.19 12.8-96.42c.72-8.27-3.24-12.77-3.24-12.77M53.37 39.87l70.46 84-59.14-77.26c-5.34-6.35-11.32-6.74-11.32-6.74Z"/><path fill="#fff" fill-opacity=".25" d="m14.63 114.28 109.2 9.55-96.42-12.82c-8.27-.72-12.77 3.24-12.77 3.24m25.22 80.04 84-70.46-77.26 59.18c-6.35 5.33-6.74 11.32-6.74 11.32"/><path fill="#fff" fill-opacity=".25" d="m114.27 233.01 9.55-109.19L111 220.26c-.69 8.27 3.27 12.75 3.27 12.75Zm80.02-25.21-70.46-84L183 201.06c5.33 6.36 11.32 6.74 11.32 6.74"/><path fill="#fff" fill-opacity=".25" d="m233 133.39-109.19-9.56 96.42 12.79c8.27.72 12.77-3.24 12.77-3.24"/><path fill="#fff" fill-opacity=".25" d="m207.8 53.38-84 70.46 77.23-59.13c6.35-5.33 6.74-11.32 6.74-11.32"/><path fill="#fff" fill-opacity=".5" d="M167.57 65.8c-.07 0 0-.72-.06-.7.24-.51-.31-.41 0-1.11a3.15 3.15 0 0 0-.75.19c-.78.62-1.53 1.28-2.29 1.92a22 22 0 0 0-4.88 6.47c-1 1.68-1.9 3.36-2.87 5-1.29 2.17-2.62 4.31-3.89 6.49-1.1 1.86-2.09 3.79-3.17 5.65-1.8 3.08-3.65 6.14-5.46 9.21-1.47 2.47-2.93 5-4.4 7.43-.68 1.16-1.41 2.29-2.08 3.45a2.62 2.62 0 0 0-.16 2.9c.89 1.37 1.81 2.72 2.72 4.08l3.71 5.65c1 1.56 2 3.14 3.11 4.66.63.91.12 1.42-.52 1.91-1.38 1.07-2.79 2.11-4.16 3.2-1.68 1.31-3.35 2.65-5.16 4.09l-2.73-4.59c-.88-1.49-1.79-2.9-2.56-4.41a5.6 5.6 0 0 1-.75-2.6l6.33-42.7c0-1.4.31-2.82-.51-4.19-1.17-2-2.16-4.06-3.2-6.11q-4.31-8.55-8.65-17.21l-.1.14a3.32 3.32 0 0 1-.09 1.39 2.65 2.65 0 0 1-.42.86 2.52 2.52 0 0 1-.05.37 3.4 3.4 0 0 1-1.34 2 3.59 3.59 0 0 1 .59 2.78 10.43 10.43 0 0 1-.88 2.33 7 7 0 0 1-1.14 1.88 2.62 2.62 0 0 1-1.48.82c0 2.29-1.19 4.56-2.37 6.49a39.11 39.11 0 0 1-2.75 3.68 16.74 16.74 0 0 1-2.49 3.17c-2.8 2.12-4.82-.26-6.84-2a17.4 17.4 0 0 0-3.42-2.07 48 48 0 0 1 3.61 14.42 49.17 49.17 0 0 0 1.68 9c.75 2.52.54 5.47 1.51 7.92 2.16 1.47 1.59 5.71-1.72 5.71a2.89 2.89 0 0 1-2-.75 15 15 0 0 1-5-3.52c-1.46-1.5-1.95-3.71-3.43-5.09-1.66-1.55-3.88-2.51-5.56-4.13a24.65 24.65 0 0 1-2-2.25c-.46 3.32-1.77 7.71-5.29 7.8-1.6 0-2.86-1.07-4.2-1.74-2-1-4-.62-6.13-.59a3.14 3.14 0 0 1-.7-.07 3.29 3.29 0 0 1-3.93 1.16 47.29 47.29 0 0 1 1.4 5.29c.92 4.32 2.54 8.87 2.14 13.35a3.23 3.23 0 0 1-3.11 3.11 20.3 20.3 0 0 0-4.25.79l1.2.55a33.6 33.6 0 0 1 6.47 3.49 2.42 2.42 0 0 1 .82 3.09c1.71 1.55 3.26 3.29 5 4.75s3.62 2.51 5.38 3.83c3.23 2.41 6.09 6.68 10 7.88a2.88 2.88 0 0 1 2 1.77 2.67 2.67 0 0 1 1.28 2.54 47.18 47.18 0 0 1-1.41 7.88c-.19.86-.35 1.72-.52 2.58l.79-.14c1.38-.24 2.76-.51 4.14-.74a64.29 64.29 0 0 1 9.08-1 3 3 0 0 1 2.08-.88c3-.11 6-.34 9-.35a3 3 0 0 1 3 3.43 2.77 2.77 0 0 1 1.14 2.41c-.05 3.64-.61 7.25-.66 10.89a3.08 3.08 0 0 1-.32 1.37v.35c0 2.45.09 4.9.18 7.35.07 2-.48 4.38 1.37 5.61a3.18 3.18 0 0 1 1 1.1l.21-.34a5.11 5.11 0 0 1 .33-.48c1.22-1.68 2.45-3.34 3.64-5 1.55-2.19 3.07-4.43 4.62-6.62.93-1.31 1.93-2.56 2.85-3.89 1.37-2 2.68-4 4-6s2.58-3.72 3.9-5.56a2.42 2.42 0 0 1 2.15-1.2c6 .07 11.94 0 17.92 0h1.2V67.42c0-.56.33-1 .19-1.56Zm-42.13 73.54a.67.67 0 0 0 .19-.05c.69 1.53 1.41 3.05 2.08 4.58a.78.78 0 0 1-.05.67c-.68.84-1.42 1.62-2.22 2.52Zm7 26.79-6.54 9.67a1.57 1.57 0 0 1-.35.33 1.6 1.6 0 0 1-.26-.08l.49-10.91s.07-.08.13-.08c1.9-.13 3.78-.3 5.68-.37 1.19-.06 1.48.44.85 1.44Zm2.35-10.7h-4.25c.41-.69.8-1.42 1.25-2.11s.85-.63 1.35 0 1.2 1.28 1.8 1.91Zm13.25-44.17 7.84-14.06c.17-.27.55-.41 1-.7 0 3.58.26 6.94-.06 10.23-.55 5.51-.08 11-.29 16.51a2.3 2.3 0 0 1 0 .79c0 .12-.52.21-.56.14-1.06-1.49-2.1-3-3.11-4.52s-2.05-3-3-4.59c-.64-1-1.23-2.09-1.8-3.15a.8.8 0 0 1 .06-.64Zm8.42 44.6h-8.29a2 2 0 0 1-1.78-1.29c-1.47-2.82-2.83-5.7-4.28-8.54a.91.91 0 0 1 .3-1.29l14.79-12a5.27 5.27 0 0 1 .32 1.18v20.84c0 .78-.32 1.11-1.09 1.11Z"/><path fill="#fff" d="m125.13 54.49-12.6 25-13.85-9.37 8.86 42.31-19.37-20.26-4.73 11.33-19.9-4.4 6.17 24.38-9.65 3L94 153.93l-5 14.62 33.54-3.6-.79 30.59h5.21Zm171.13-16.58c0-14.52 10.46-25.06 25.13-25.06a25.18 25.18 0 0 1 18.22 7.16l-4.34 5.69a19.18 19.18 0 0 0-13.67-5.2c-9.89 0-16.73 7.26-16.73 17.44s6.62 17.58 16.44 17.58a17 17 0 0 0 14.09-6.83l5.27 5.41a24.13 24.13 0 0 1-19.5 9c-14.95 0-24.91-11.25-24.91-25.2Zm77.31 3.77v20.5h-5.2L367 57.41c-2.35 3.35-6.12 5.41-11.32 5.41-5.84 0-10-3.27-10-8.9 0-7.26 6.41-11.25 16.09-11.25 1.64 0 2.85.07 4 .14v-1.42c0-3.27-2.42-4.91-6.48-4.91a23.83 23.83 0 0 0-9.89 2.56l-2.21-5.91a32 32 0 0 1 13.31-3.27c8.08 0 13.07 4.15 13.07 11.82ZM366 47.87a31 31 0 0 0-3.7-.21c-5.62 0-8.9 2-8.9 5.48 0 2.49 1.71 3.84 4.56 3.84 4.56 0 7.9-3.35 8-9.11Zm44.94-5.55v19.86h-7.76V43.01c0-4-1.57-6.48-5.41-6.48-4.84 0-7.76 3.49-7.76 8.19v17.44h-7.76V30.44h5.27l1.57 5a12.2 12.2 0 0 1 10.68-5.84c7.26 0 11.18 4.63 11.18 12.74Zm34.53-.64v20.5h-5.2l-1.42-4.77c-2.35 3.35-6.12 5.41-11.32 5.41-5.84 0-10-3.27-10-8.9 0-7.26 6.41-11.25 16.09-11.25 1.64 0 2.85.07 4 .14v-1.42c0-3.27-2.42-4.91-6.48-4.91a23.83 23.83 0 0 0-9.89 2.56l-2.21-5.91a32 32 0 0 1 13.31-3.27c8.13 0 13.12 4.15 13.12 11.82Zm-7.62 6.19a31 31 0 0 0-3.7-.21c-5.62 0-8.9 2-8.9 5.48 0 2.49 1.71 3.84 4.56 3.84 4.56 0 7.9-3.35 8-9.11Zm47.91-36.94v51.25h-5.34l-1.35-4.77a13.65 13.65 0 0 1-11.46 5.6c-9.11 0-15.3-6.83-15.3-16.87s6.41-16.44 15.3-16.44a14 14 0 0 1 10.61 4.56c-.14-2.92-.21-5.62-.21-9.11V10.93h7.75Zm-7.47 35.38c0-5.84-3.63-9.82-9.11-9.82s-9 4-9 9.82 3.63 9.89 9 9.89 9.11-3.99 9.11-9.89Zm42.35-4.63v20.5h-5.2L514 57.41c-2.35 3.35-6.12 5.41-11.32 5.41-5.84 0-10-3.27-10-8.9 0-7.26 6.41-11.25 16.09-11.25 1.64 0 2.85.07 4 .14v-1.42c0-3.27-2.42-4.91-6.48-4.91a23.83 23.83 0 0 0-9.89 2.56l-2.21-5.91a32 32 0 0 1 13.31-3.27c8.15 0 13.14 4.15 13.14 11.82ZM513 47.87a31 31 0 0 0-3.7-.21c-5.62 0-8.9 2-8.9 5.48 0 2.49 1.71 3.84 4.56 3.84 4.58.03 7.92-3.35 8.04-9.11Zm15.61-5.19h20v6.69h-20Zm28.76 2.33V13.78h8.4v30.68c0 7.4 4.41 11 11 11s11-3.63 11-11V13.78h8.4v31.23c0 11.6-8.19 18.08-19.36 18.08s-19.43-6.48-19.43-18.08ZM634 61.76v.43h-9l-11.39-13.52v13.52h-7.76V10.93h7.76v32.08l10.54-12.6H633v.36l-12.6 15L634 61.75Zm26.45-30.68-2 6.55a11.83 11.83 0 0 0-4.13-.71c-4.48 0-7.54 2.92-7.54 8v17.3H639V30.44h5.27l1.5 4.7a9.75 9.75 0 0 1 9.18-5.41 10.79 10.79 0 0 1 5.48 1.35Zm29.76 10.6v20.5H685l-1.42-4.77c-2.35 3.35-6.12 5.41-11.32 5.41-5.84 0-10-3.27-10-8.9 0-7.26 6.41-11.25 16.09-11.25 1.64 0 2.85.07 4 .14v-1.42c0-3.27-2.42-4.91-6.48-4.91a23.83 23.83 0 0 0-9.87 2.53l-2.21-5.91a32 32 0 0 1 13.31-3.27c8.11 0 13.1 4.13 13.1 11.82Zm-7.62 6.19a31 31 0 0 0-3.7-.21c-5.62 0-8.9 2-8.9 5.48 0 2.49 1.71 3.84 4.56 3.84 4.56 0 7.9-3.35 8-9.11ZM698 19.19a4.84 4.84 0 0 1 9.68.07 4.49 4.49 0 0 1-4.84 4.56 4.58 4.58 0 0 1-4.84-4.63Zm.93 11.25h7.76v31.75h-7.79Zm45.52 11.88v19.86h-7.76V43.01c0-4-1.57-6.48-5.41-6.48-4.84 0-7.76 3.49-7.76 8.19v17.44h-7.76V30.44H721l1.57 5a12.2 12.2 0 0 1 10.68-5.84c7.26 0 11.18 4.63 11.18 12.74ZM782 45.17a33.12 33.12 0 0 1-.29 3.7H759c1 5.12 5 7.83 10.11 7.83a12 12 0 0 0 8.4-3l3.27 5a18.7 18.7 0 0 1-12.39 4.41c-10.18 0-17.16-6.9-17.16-16.87 0-9.32 6.76-16.66 16.37-16.66 9 0 14.45 6 14.45 15.59Zm-23-1.57h15.66c-.21-5-3.2-7.69-7.26-7.69s-7.49 2.78-8.35 7.69ZM298.9 93.78h18.58c10.39 0 16.23 7.62 16.23 15.59s-5.69 15.16-16.37 15.16h-10v17.65h-8.4v-48.4Zm17.51 23.56c6.12 0 8.83-3.92 8.83-8 0-4.56-3.27-8.19-8.61-8.19h-9.33v16.23Zm20.14 8.97c0-9.82 7.05-16.73 17-16.73s17.08 6.9 17.08 16.73-7.12 16.8-17.08 16.8-17-6.98-17-16.8Zm26.2 0c0-5.84-3.7-9.89-9.18-9.89s-9.18 4.06-9.18 9.89 3.77 9.89 9.18 9.89 9.18-4.06 9.18-9.89Zm15.02-35.38h7.76l.07 51.25h-7.83V90.93Zm16.02 8.26a4.84 4.84 0 0 1 9.68.07 4.49 4.49 0 0 1-4.84 4.56 4.58 4.58 0 0 1-4.84-4.63Zm.93 11.25h7.76v31.75h-7.76Zm14.87 15.87c0-10.39 7.62-16.73 16.73-16.73a17.14 17.14 0 0 1 11.82 4.27l-3.77 5.2a10.55 10.55 0 0 0-7.47-2.71c-5.34 0-9.47 3.91-9.47 10s4.2 10 9.33 10a10.88 10.88 0 0 0 8.11-3.27l3.92 5.2a17.23 17.23 0 0 1-12.79 4.85c-8 0-16.37-5.69-16.37-16.8Zm63-1.14a33.12 33.12 0 0 1-.29 3.7h-22.78c1 5.12 5 7.83 10.11 7.83a12 12 0 0 0 8.4-3l3.27 5a18.7 18.7 0 0 1-12.39 4.41c-10.18 0-17.16-6.9-17.16-16.87 0-9.32 6.76-16.66 16.37-16.66 9 0 14.45 6.05 14.45 15.59Zm-23-1.57h15.66c-.21-5.05-3.2-7.69-7.26-7.69s-7.54 2.78-8.4 7.69Zm47.28-29.82h17.3c14.66 0 24.7 10.18 24.7 24.27s-9.75 24.13-24.63 24.13h-17.37v-48.4Zm17 41.14c10.18 0 16.44-7 16.44-16.87s-6.34-17-16.51-17h-8.54v33.88Zm61.66-9.75a33.12 33.12 0 0 1-.29 3.7h-22.78c1 5.12 5 7.83 10.11 7.83a12 12 0 0 0 8.4-3l3.27 5a18.7 18.7 0 0 1-12.39 4.41c-10.18 0-17.16-6.9-17.16-16.87 0-9.32 6.76-16.66 16.37-16.66 9 0 14.45 6.05 14.45 15.59Zm-23-1.57h15.67c-.21-5.05-3.2-7.69-7.26-7.69s-7.54 2.78-8.4 7.69Zm58.73-13.16v.21l-15.09 31.82h-3.35l-15-31.82v-.21h8.54l6.19 14.24a34.76 34.76 0 0 1 2 6 42.09 42.09 0 0 1 2-6l6.19-14.24h8.56Zm32.32 14.73a33.12 33.12 0 0 1-.29 3.7h-22.78c1 5.12 5 7.83 10.11 7.83a12 12 0 0 0 8.4-3l3.27 5a18.7 18.7 0 0 1-12.39 4.41c-10.18 0-17.16-6.9-17.16-16.87 0-9.32 6.76-16.66 16.37-16.66 9 0 14.45 6.05 14.45 15.59Zm-23-1.57h15.66c-.21-5.05-3.2-7.69-7.26-7.69s-7.53 2.78-8.39 7.69Zm29.91-32.67h7.76l.07 51.25h-7.83V90.93Zm14.95 35.38c0-9.82 7-16.73 17-16.73s17.08 6.9 17.08 16.73-7.12 16.8-17.08 16.8-17-6.98-17-16.8Zm26.2 0c0-5.84-3.7-9.89-9.18-9.89s-9.18 4.06-9.18 9.89 3.77 9.89 9.18 9.89 9.18-4.06 9.18-9.89Zm48.47-.14c0 9.89-6.34 16.8-15.16 16.8a14.48 14.48 0 0 1-10.68-4.41c.14 2.21.14 4.77.14 7.55v11.75h-7.76v-47.41h5.27l1.5 4.84a14 14 0 0 1 11.58-5.62c8.75 0 15.16 7 15.16 16.51Zm-7.9.21c0-5.91-3.56-9.89-8.9-9.89s-9.18 3.91-9.18 9.75 3.77 10 9.18 10 8.9-4.06 8.9-9.82Zm62.86-4.63v20.43h-7.76V122.6c0-3.84-2-6.05-5.12-6.05-4.91 0-7.12 4.34-7.12 8.61v17h-7.69v-19.64c0-3.27-1.71-6-5.2-6-4.84 0-7 4.34-7 8.61v17h-7.76v-31.72h5.27l1.57 5a11.12 11.12 0 0 1 10.11-5.91c4.49 0 7.9 2.14 9.54 5.62a11.49 11.49 0 0 1 10.32-5.62c7 0 10.89 4.7 10.89 12.17Zm37.51 3.42a33.12 33.12 0 0 1-.29 3.7h-22.78c1 5.12 5 7.83 10.11 7.83a12 12 0 0 0 8.4-3l3.27 5a18.7 18.7 0 0 1-12.39 4.41c-10.18 0-17.16-6.9-17.16-16.87 0-9.32 6.76-16.66 16.37-16.66 9 0 14.45 6.05 14.45 15.59Zm-23-1.57h15.66c-.21-5.05-3.2-7.69-7.26-7.69s-7.54 2.78-8.39 7.69Zm58.6-1.28v19.86h-7.76v-19.17c0-4-1.57-6.48-5.41-6.48-4.84 0-7.76 3.49-7.76 8.19v17.44h-7.76v-31.73h5.27l1.57 5a12.2 12.2 0 0 1 10.67-5.86c7.26 0 11.18 4.63 11.18 12.74Zm10.68 10.18v-15.49l-5.62-.43v-6.19h5.62l.21-10.18h7.54v10.18h9.82v6.62h-9.82v14.7c0 3.13 1.42 4.06 3.49 4.06a9.56 9.56 0 0 0 5.34-1.64l2.49 5.84a17.38 17.38 0 0 1-9.61 2.92c-5.69 0-9.47-3.27-9.47-10.39Zm41.57-38.72H939c10.39 0 16.23 7.62 16.23 15.59s-5.69 15.16-16.37 15.16h-10v17.65h-8.4v-48.4Zm17.51 23.56c6.12 0 8.83-3.92 8.83-8 0-4.56-3.27-8.19-8.61-8.19h-9.33v16.23Zm44.21-6.26-2 6.55a11.83 11.83 0 0 0-4.13-.71c-4.48 0-7.55 2.92-7.55 8v17.3h-7.76v-31.78H966l1.5 4.7a9.75 9.75 0 0 1 9.18-5.41 10.79 10.79 0 0 1 5.48 1.35Zm1.56 15.23c0-9.82 7-16.73 17-16.73s17.08 6.9 17.08 16.73-7.12 16.8-17.08 16.8-17-6.98-17-16.8Zm26.2 0c0-5.84-3.7-9.89-9.18-9.89s-9.18 4.06-9.18 9.89 3.77 9.89 9.18 9.89 9.18-4.06 9.18-9.89Zm7.19 25.77c6.69-.5 8.12-3.42 8.12-9.54v-32.1h7.78v32.1c0 10.39-3.56 15.59-14.88 16.16Zm7.19-52.82a4.54 4.54 0 0 1 4.77-4.7 4.66 4.66 0 0 1 4.91 4.7c0 2.64-1.92 4.56-4.91 4.56a4.47 4.47 0 0 1-4.77-4.56Zm46.63 25.91a33.12 33.12 0 0 1-.29 3.7h-22.78c1 5.12 5 7.83 10.11 7.83a12 12 0 0 0 8.4-3l3.27 5a18.7 18.7 0 0 1-12.39 4.41c-10.18 0-17.16-6.9-17.16-16.87 0-9.32 6.76-16.66 16.37-16.66 9 0 14.45 6.05 14.45 15.59Zm-23-1.57h15.66c-.21-5.05-3.2-7.69-7.26-7.69s-7.53 2.78-8.39 7.69Zm27.91 2.71c0-10.39 7.62-16.73 16.73-16.73a17.14 17.14 0 0 1 11.82 4.27l-3.77 5.2a10.55 10.55 0 0 0-7.47-2.71c-5.34 0-9.47 3.91-9.47 10s4.2 10 9.33 10a10.88 10.88 0 0 0 8.11-3.27l3.92 5.2a17.23 17.23 0 0 1-12.81 4.91c-8 0-16.37-5.69-16.37-16.8Zm37.17 6.19v-15.49l-5.62-.43v-6.19h5.62l.21-10.18h7.54v10.18h9.82v6.62h-9.82v14.7c0 3.13 1.42 4.06 3.49 4.06a9.56 9.56 0 0 0 5.34-1.64l2.49 5.84a17.38 17.38 0 0 1-9.61 2.92c-5.69 0-9.47-3.27-9.47-10.39Zm-816.74 75.41c0-14.52 10.46-25.06 25.13-25.06a25.18 25.18 0 0 1 18.22 7.16l-4.34 5.69a19.18 19.18 0 0 0-13.67-5.2c-9.89 0-16.73 7.26-16.73 17.44s6.62 17.58 16.44 17.58a17 17 0 0 0 14.09-6.83l5.27 5.41a24.13 24.13 0 0 1-19.5 9c-14.95 0-24.91-11.25-24.91-25.2Zm58.3 7.1v-31.23H363v30.68c0 7.4 4.41 11 11 11s11-3.63 11-11v-30.68h8.4v31.23c0 11.6-8.19 18.08-19.36 18.08s-19.43-6.48-19.43-18.08Zm57.02-31.23h18.58c10.39 0 16.23 7.62 16.23 15.59s-5.69 15.16-16.39 15.16h-10v17.65h-8.4Zm17.51 23.56c6.12 0 8.83-3.92 8.83-8 0-4.56-3.27-8.19-8.61-8.19H420v16.23Zm32.18-23.56h17.3c14.66 0 24.7 10.18 24.7 24.27s-9.75 24.13-24.63 24.13h-17.37Zm17 41.14c10.18 0 16.44-7.05 16.44-16.87s-6.34-17-16.51-17h-8.54v33.88Zm41.3-41.14h18.58c10.39 0 16.23 7.62 16.23 15.59s-5.69 15.16-16.37 15.16H528v17.65h-8.4v-48.4Zm17.51 23.56c6.12 0 8.83-3.92 8.83-8 0-4.56-3.27-8.19-8.61-8.19H528v16.23Z"/></svg>