<svg xmlns="http://www.w3.org/2000/svg" viewBox="0 0 1132.1 247.65"><polygon points="107.29 111.09 107 109.67 96.62 100.97 103.52 108.19 107.29 111.09" fill="#e3e1e0"/><path d="M154.45,135l3.1,1.12v-1.6l-1.81-.57Z" transform="translate(0.03)" fill="#e3e1e0"/><path d="M152,137l5.55,2.59v-1.72L153.17,136Z" transform="translate(0.03)" fill="#e3e1e0"/><path d="M156.92,98.49l-3,2.33L152.08,104l4.88-3.42C156.94,99.92,156.93,99.21,156.92,98.49Z" transform="translate(0.03)" fill="#e3e1e0"/><path d="M156.83,106.71h0l-8.76,4.55h0a.86.86,0,0,0-.06.65l.29.52,8.4-3.91C156.73,107.9,156.77,107.31,156.83,106.71Z" transform="translate(0.03)" fill="#e3e1e0"/><path d="M157,102.75l-6.48,4.12-1.27,2.29L157,104.7C157,104.06,157,103.37,157,102.75Z" transform="translate(0.03)" fill="#e3e1e0"/><path d="M156.55,113.54l-6.41,2,.67,1,5.75-1.54C156.56,114.55,156.55,114,156.55,113.54Z" transform="translate(0.03)" fill="#e3e1e0"/><path d="M149.75,138.79l7.81,4.5v-1.87l-6.73-3.51Z" transform="translate(0.03)" fill="#e3e1e0"/><path d="M156.61,110.28l-7.73,3.2c.19.34.4.67.6,1l7.09-2.59C156.58,111.37,156.59,110.82,156.61,110.28Z" transform="translate(0.03)" fill="#e3e1e0"/><path d="M146.42,154.56a2,2,0,0,0,1.78,1.28h.15L144.6,151C145.2,152.16,145.8,153.37,146.42,154.56Z" transform="translate(0.03)" fill="#e3e1e0"/><path d="M131.82,153.3l-.06.1.54,2h1.45l-.71-2.28C132.59,152.69,132.19,152.75,131.82,153.3Z" transform="translate(0.03)" fill="#e3e1e0"/><path d="M130.57,155.37h.23l-.07-.29Z" transform="translate(0.03)" fill="#e3e1e0"/><path d="M145.68,142.12l11.93,10v-2.37l-11-8.42Z" transform="translate(0.03)" fill="#e3e1e0"/><path d="M147.68,140.5l9.92,6.94v-2.07l-8.92-5.7Z" transform="translate(0.03)" fill="#e3e1e0"/><path d="M142,145.48l8.7,10.36h1.46l-9.78-11.06A1,1,0,0,0,142,145.48Z" transform="translate(0.03)" fill="#e3e1e0"/><path d="M143.68,143.7l12.15,12.14h.64c.74,0,1.05-.32,1.07-1.05l-12.86-11.86Z" transform="translate(0.03)" fill="#e3e1e0"/><path d="M157.17,132.76h.07v0Z" transform="translate(0.03)" fill="#e3e1e0"/><path d="M167.38,103.51l36.23-16.89s-3.63-1.49-8.91.4l-27.32,14.19Z" transform="translate(0.03)" fill="#e3e1e0"/><path d="M201.47,74.22a18,18,0,0,0,4.06-5A18,18,0,0,1,201.47,74.22Z" transform="translate(0.03)" fill="#e3e1e0"/><path d="M167.38,98.68l38.15-22s-4-1.24-9.49,1.27l1-.61-29.66,18.8Z" transform="translate(0.03)" fill="#e3e1e0"/><path d="M167.38,87.28l40.41-33.91h0a13.37,13.37,0,0,0-5.06.65L206.19,51,167.38,85.29Z" transform="translate(0.03)" fill="#e3e1e0"/><path d="M167.38,93.37l39.53-27.68h0s-4.41-1-10,2.25l.63-.48-30.16,23Z" transform="translate(0.03)" fill="#e3e1e0"/><path d="M133.59,108.53l-.25,1.7L159,73.67c.21-.38.42-.75.64-1.12a23.68,23.68,0,0,1,4.32-6L182,40.71s-5.42.72-9.9,7.12l-2.43,3.79a16.88,16.88,0,0,1-.84,1.64Z" transform="translate(0.03)" fill="#e3e1e0"/><path d="M156.58,116.6l-5,1.11.73,1.09,4.31-.76C156.58,117.56,156.58,117.08,156.58,116.6Z" transform="translate(0.03)" fill="#e3e1e0"/><path d="M167.38,76.37v3.88l44-44a17.38,17.38,0,0,0-14.68,5.2L193.59,45V44.9a20.32,20.32,0,0,1-4,7.27Z" transform="translate(0.03)" fill="#e3e1e0"/><path d="M167.4,67.16a.61.61,0,0,0,0,.19v4.57l26.91-32.07s-5.89.26-11.32,6.75l-3.24,4.22h0a17.39,17.39,0,0,1-1,1.66Z" transform="translate(0.03)" fill="#e3e1e0"/><path d="M167.38,105.83V108l39.17-14.26s-3.76-2-9.58-.18h0c-.32.17-.64.34-1,.5Z" transform="translate(0.03)" fill="#e3e1e0"/><path d="M156.6,119.54l-3.51.46.82,1.19,2.68-.24C156.6,120.48,156.6,120,156.6,119.54Z" transform="translate(0.03)" fill="#e3e1e0"/><path d="M167.38,122v1.86h80.3a17.29,17.29,0,0,0-14.05-6.71l-4.68.29H229a20.39,20.39,0,0,1-8,2.31Z" transform="translate(0.03)" fill="#e3e1e0"/><path d="M156.54,123.22v-.79l-1.75.07c.31.44.6.89.91,1.32h.83A3,3,0,0,0,156.54,123.22Z" transform="translate(0.03)" fill="#e3e1e0"/><path d="M167.38,118.13V120L233,114.27s-4.34-4-12.77-3.24l-5.27.7c-.61.16-1.23.32-1.9.43Z" transform="translate(0.03)" fill="#e3e1e0"/><path d="M134.3,103.76l-.38,2.59L171,42.12s-4.95,1.09-8.59,7.4L160.62,53v-.11c-.19.55-.41,1.11-.68,1.7Z" transform="translate(0.03)" fill="#e3e1e0"/><path d="M167.38,114.21v1.93l56.3-9.93s-4.33-3.32-12-2l-4.36,1c-.55.21-1.12.4-1.74.57Z" transform="translate(0.03)" fill="#e3e1e0"/><path d="M167.38,110.14v2L215,99.37s-4.29-2.71-11.3-.83l-3.72,1.17.11-.06a16.81,16.81,0,0,1-1.69.72Z" transform="translate(0.03)" fill="#e3e1e0"/><path d="M199.06,154.61h0Z" transform="translate(0.03)" fill="#e3e1e0"/><path d="M200,154.74h0Z" transform="translate(0.03)" fill="#e3e1e0"/><path d="M198,154.37h0Z" transform="translate(0.03)" fill="#e3e1e0"/><path d="M211.38,211.37a12.88,12.88,0,0,1-2.06.13A12.88,12.88,0,0,0,211.38,211.37Z" transform="translate(0.03)" fill="#e3e1e0"/><path d="M200.94,154.81Z" transform="translate(0.03)" fill="#e3e1e0"/><path d="M202.59,154.81Z" transform="translate(0.03)" fill="#e3e1e0"/><path d="M201.8,154.83Z" transform="translate(0.03)" fill="#e3e1e0"/><path d="M159.6,202.89" transform="translate(0.03)" fill="#e3e1e0"/><path d="M158.68,202.26Z" transform="translate(0.03)" fill="#e3e1e0"/><path d="M156.42,200.24v0Z" transform="translate(0.03)" fill="#e3e1e0"/><path d="M157,200.85Z" transform="translate(0.03)" fill="#e3e1e0"/><path d="M155.83,199.55v0Z" transform="translate(0.03)" fill="#e3e1e0"/><path d="M157.57,201.37Z" transform="translate(0.03)" fill="#e3e1e0"/><path d="M159.15,202.61Z" transform="translate(0.03)" fill="#e3e1e0"/><path d="M203.32,154.74h0Z" transform="translate(0.03)" fill="#e3e1e0"/><path d="M158.13,201.86Z" transform="translate(0.03)" fill="#e3e1e0"/><path d="M206.39,154Z" transform="translate(0.03)" fill="#e3e1e0"/><path d="M127.68,144.52a.76.76,0,0,0,0-.66c-.18-.42-.37-.84-.56-1.25l.37,2.08Z" transform="translate(0.03)" fill="#e3e1e0"/><path d="M132.94,113l10-11.88,1.28-2.17c1.36-2.31,2.74-4.62,4.11-6.93l-15.18,19.75Z" transform="translate(0.03)" fill="#e3e1e0"/><path d="M132.68,115l4.92-4.92c0-.1.1-.2.16-.3.62-1.07,1.28-2.12,1.92-3.19l-6.86,7.47Z" transform="translate(0.03)" fill="#e3e1e0"/><path d="M132.39,116.64l5-4.21a2.64,2.64,0,0,1-.17-.47l-4.78,4.23Z" transform="translate(0.03)" fill="#e3e1e0"/><path d="M132.46,166.11c.63-1,.35-1.5-.84-1.44H131l.49,2.79Z" transform="translate(0.03)" fill="#e3e1e0"/><path d="M126.27,146.11l.41-.45-.46-3.5Z" transform="translate(0.03)" fill="#e3e1e0"/><path d="M129.86,170l-.68-5.16-1.76.12.67,7.65Z" transform="translate(0.03)" fill="#e3e1e0"/><path d="M132.19,118l6.05-4.23-.41-.62-5.54,4.26Z" transform="translate(0.03)" fill="#e3e1e0"/><path d="M204.58,154.54h0Z" transform="translate(0.03)" fill="#e3e1e0"/><path d="M205.54,154.3h0Z" transform="translate(0.03)" fill="#e3e1e0"/><path d="M205.1,154.42h0Z" transform="translate(0.03)" fill="#e3e1e0"/><path d="M204,154.65h0Z" transform="translate(0.03)" fill="#e3e1e0"/><polygon points="233.63 130.54 233.63 130.54 233.28 130.51 233.63 130.54" fill="#e3e1e0"/><path d="M205.91,154.18h0Z" transform="translate(0.03)" fill="#e3e1e0"/><polygon points="107.57 112.42 107.57 112.42 107.57 112.42 107.57 112.42" fill="#e3e1e0"/><path d="M206.2,154.08Z" transform="translate(0.03)" fill="#e3e1e0"/><path d="M90.92,151.44,39.86,194.28a13.81,13.81,0,0,0,5.07-.65L91.8,152.16Z" transform="translate(0.03)" fill="#e3e1e0"/><path d="M112.53,166,99.41,214.94s3.73-2,5.82-7.63l9.25-41.52Z" transform="translate(0.03)" fill="#e3e1e0"/><path d="M120.21,165.18,114.27,233a13.39,13.39,0,0,0,3.13-4l3.91-63.91Z" transform="translate(0.03)" fill="#e3e1e0"/><path d="M140,175.37l-1.7,2.53L148.25,215h0s2.72-4.28.83-11.31l-1.18-3.74h0c-.23-.49-.46-1-.66-1.56Z" transform="translate(0.03)" fill="#e3e1e0"/><path d="M98.57,203.64l11.84-37.41-2.1.23L93.68,206.54h0s3.63-1.51,6-6.61l-1.17,3.71a17.15,17.15,0,0,0-.27,8.24A17.16,17.16,0,0,1,98.57,203.64Z" transform="translate(0.03)" fill="#e3e1e0"/><path d="M132,186.69c-.44.64-.88,1.28-1.33,1.91l-1.08,1.5L133.38,233s4-4.37,3.25-12.77l-.7-5.25c-.17-.61-.32-1.24-.44-1.92Z" transform="translate(0.03)" fill="#e3e1e0"/><path d="M126.89,195.53h-3.06v52.12a16.27,16.27,0,0,1-3.53-3.78,16.06,16.06,0,0,0,3.53,3.78,17.37,17.37,0,0,0,6.71-14.06l-.28-4.68A20.45,20.45,0,0,1,128,221Z" transform="translate(0.03)" fill="#e3e1e0"/><path d="M136.35,180.58l-1,1.4-1,1.42,7.11,40.31s-.15-.1-.4-.31c.25.21.4.31.4.31s3.32-4.33,2-12l-1-4.37c-.2-.55-.39-1.11-.55-1.73Z" transform="translate(0.03)" fill="#e3e1e0"/><path d="M106,166.7l-2.29.25-17,36.66s4-1.29,6.9-6.64c.1-.33.2-.67.33-1Z" transform="translate(0.03)" fill="#e3e1e0"/><path d="M116.47,165.58l-10.26,58.13a9.18,9.18,0,0,1-.79-1.44,9.18,9.18,0,0,0,.79,1.44s3.82-2.45,5.52-8.72l-.15,1.18,6.73-50.8Z" transform="translate(0.03)" fill="#e3e1e0"/><path d="M155.25,198.78v0Z" transform="translate(0.03)" fill="#e3e1e0"/><path d="M101.18,167.22l-2.57.28-22,38s5-1.11,8.59-7.41l1.8-3.47a15.19,15.19,0,0,1,.64-1.57Z" transform="translate(0.03)" fill="#e3e1e0"/><path d="M47.87,172.11c-6.29,4.4-7.13,9.89-7.13,9.89h0S41.59,176.5,47.87,172.11Z" transform="translate(0.03)" fill="#e3e1e0"/><path d="M87.89,149,40.74,182s4.45,1,10.07-2.27l38.57-29.53Z" transform="translate(0.03)" fill="#e3e1e0"/><path d="M95.74,167.8l-2.93.32L65.68,206.91s5.4-.72,9.89-7.13L78,196c.24-.52.5-1.06.82-1.61Z" transform="translate(0.03)" fill="#e3e1e0"/><path d="M92.68,157.78,94,153.92l-.14-.11-57.6,57.56A17.3,17.3,0,0,0,51,206.18l3.11-3.52v.07a20.45,20.45,0,0,1,4-7.28Z" transform="translate(0.03)" fill="#e3e1e0"/><path d="M89.5,168.47l-.57.06,1.83-5.3L53.38,207.79h0s5.88-.26,11.31-6.74l3.23-4.22-.08.15c.33-.59.7-1.19,1.12-1.8Z" transform="translate(0.03)" fill="#e3e1e0"/><path d="M143.18,170.68c-.32.46-.65.91-1,1.37l-.54.81,12.26,33.68s1.94-3.76.19-9.57c-.17-.3-.33-.61-.48-.94Z" transform="translate(0.03)" fill="#e3e1e0"/><path d="M167.39,146.55V149l38.14,22s-1.1-5-7.4-8.58l-3.45-1.79h0a14.5,14.5,0,0,1-1.58-.64Z" transform="translate(0.03)" fill="#e3e1e0"/><path d="M84.68,146.37,42.11,171s4,1.25,9.51-1.28l-3.77,2.4,38.41-24.42Z" transform="translate(0.03)" fill="#e3e1e0"/><path d="M167.38,137.6v2.07l39.17,14.26s-1.52-3.62-6.61-6l3.7,1.17a18.1,18.1,0,0,0,4.68.65,18.86,18.86,0,0,1-4.67-.65Z" transform="translate(0.03)" fill="#e3e1e0"/><path d="M167.39,151.63v2.74l39.52,27.68s-.73-5.41-7.12-9.89l-3.78-2.4h.07c-.55-.25-1.11-.53-1.69-.86Z" transform="translate(0.03)" fill="#e3e1e0"/><path d="M167.38,127.63,233,133.37a13.39,13.39,0,0,0-4-3.13l-61.6-3.76Z" transform="translate(0.03)" fill="#e3e1e0"/><path d="M211.68,143.37l-44.3-9.87v2L215,148.25s-2-3.73-7.63-5.82l4.36,1a18.94,18.94,0,0,0,7.5-.12A18.94,18.94,0,0,1,211.68,143.37Z" transform="translate(0.03)" fill="#e3e1e0"/><path d="M167.39,157.31v3.06l40.4,33.91s-.27-5.9-6.73-11.32l-4.23-3.24h0c-.54-.31-1.09-.64-1.65-1Z" transform="translate(0.03)" fill="#e3e1e0"/><path d="M220.25,136.61l-52.87-7v1.9l56.3,9.92h0s-2.45-3.8-8.71-5.51l5.24.7c7.24.63,11.59-2.33,12.56-3.07C231.84,134.29,227.48,137.25,220.25,136.61Z" transform="translate(0.03)" fill="#e3e1e0"/><path d="M167.38,141.91v2.22L203.6,161s-1.29-4.05-6.64-6.9h0l-1-.33Z" transform="translate(0.03)" fill="#e3e1e0"/><path d="M148.27,165.29a1.76,1.76,0,0,0-.46.06L171,205.52s1.25-4-1.28-9.51L150.2,165.3Z" transform="translate(0.03)" fill="#e3e1e0"/><path d="M144.68,168.54,161,203.61s1.48-3.63-.41-8.92L146,166.61C145.58,167.25,145.14,167.9,144.68,168.54Z" transform="translate(0.03)" fill="#e3e1e0"/><path d="M172.11,199.78l-1.55-2.41,1.55,2.44a17.11,17.11,0,0,0,9.36,7A17.13,17.13,0,0,1,172.11,199.78Z" transform="translate(0.03)" fill="#e3e1e0"/><path d="M152.88,165.31,182,206.91s1-4.43-2.27-10.07l3.22,4.21-27.35-35.68Z" transform="translate(0.03)" fill="#e3e1e0"/><path d="M158.68,165.37l35.63,42.46a13.4,13.4,0,0,0-.66-5.07l3.08,3.47-36.17-40.86Z" transform="translate(0.03)" fill="#e3e1e0"/><path d="M183,201.05c5,6,10.58,6.67,11.26,6.73C193.54,207.72,188,207,183,201.05Z" transform="translate(0.03)" fill="#e3e1e0"/><path d="M167.39,163.82v1.55h-2.06l46,46a17.33,17.33,0,0,0-5.19-14.69l-3.51-3.1a20.83,20.83,0,0,1-7.2-4Z" transform="translate(0.03)" fill="#e3e1e0"/><path d="M36,104.25l30.6,6.82-.7-2.78L32.68,99.37A12.88,12.88,0,0,1,37.79,98a12.88,12.88,0,0,0-5.11,1.41s2,3.73,7.62,5.82l-4.35-1a20,20,0,0,0-5.07-.26A20.22,20.22,0,0,1,36,104.25Z" transform="translate(0.03)" fill="#e3e1e0"/><path d="M85.8,50.59l-.55-1.07a20.31,20.31,0,0,0-1.32-2,20.31,20.31,0,0,1,1.32,2Z" transform="translate(0.03)" fill="#e3e1e0"/><path d="M116.9,70.81l1.95-3.87-4.58-52.31S110.27,19,111,27.4l.69,5.24c.17.61.32,1.25.44,1.93Z" transform="translate(0.03)" fill="#e3e1e0"/><path d="M98.68,70.11l.15.1L86.62,44l.43.18L86.62,44S85.14,47.66,87,53l13.5,26Z" transform="translate(0.03)" fill="#e3e1e0"/><path d="M105.62,103.24l-.31-1.49L53.38,39.86A13.17,13.17,0,0,0,54,44.92L51,41.46a17.83,17.83,0,0,0-7.56-4.56A17.83,17.83,0,0,1,51,41.46Z" transform="translate(0.03)" fill="#e3e1e0"/><path d="M102.79,72.89l3.32,2.24-12.39-34s-2,3.77-.17,9.61h0c.16.3.32.61.48.94Z" transform="translate(0.03)" fill="#e3e1e0"/><path d="M64.68,46.6l40,52.23L104,95.5,65.68,40.74h0s-1,4.41,2.26,10l-3.2-4.18c-5.34-6.36-11.32-6.75-11.32-6.75h0S59.37,40.26,64.68,46.6Z" transform="translate(0.03)" fill="#e3e1e0"/><path d="M75.54,47.86l1.18,1.86-1.18-1.86A19,19,0,0,0,70.74,43,19,19,0,0,1,75.54,47.86Z" transform="translate(0.03)" fill="#e3e1e0"/><path d="M102,86,76.68,42.12s-1.24,4,1.27,9.48l25.18,39.61Z" transform="translate(0.03)" fill="#e3e1e0"/><path d="M109.19,77.21,111.81,79,99.41,32.7h0S96.69,37,98.57,44l1.19,3.73v-.08a14,14,0,0,1,.69,1.63Z" transform="translate(0.03)" fill="#e3e1e0"/><path d="M121.21,62.27l2.62-5.2V0a17.29,17.29,0,0,0-6.71,14.05l.29,4.68-.06-.1a20.43,20.43,0,0,1,2.34,8Z" transform="translate(0.03)" fill="#e3e1e0"/><path d="M149.08,44,137.61,80.28c0,.57-.06,1.14-.08,1.7l-1,7.08,17.46-48s-3.64,1.55-6,6.63L149.16,44a16.16,16.16,0,0,0-.48-10.3A16.2,16.2,0,0,1,149.08,44Z" transform="translate(0.03)" fill="#e3e1e0"/><path d="M133.23,70.51l8.21-46.58a14.3,14.3,0,0,1,2.13,6.2,14.3,14.3,0,0,0-2.13-6.2s-3.8,2.44-5.51,8.7l-4.54,34.22Z" transform="translate(0.03)" fill="#e3e1e0"/><path d="M134.94,73.93c.48.95,1,1.91,1.5,2.84L148.25,32.7s-3.74,2-5.82,7.63l1-4.36a19.81,19.81,0,0,0,.31-3.92,19.81,19.81,0,0,1-.31,3.92Z" transform="translate(0.03)" fill="#e3e1e0"/><path d="M136.68,27.37a20.8,20.8,0,0,0-.72-7.69A20.8,20.8,0,0,1,136.68,27.37Z" transform="translate(0.03)" fill="#e3e1e0"/><path d="M130.54,14.05a17.78,17.78,0,0,0-6.64-14A17.78,17.78,0,0,1,130.54,14.05Z" transform="translate(0.03)" fill="#e3e1e0"/><path d="M129.19,62.48l4.19-47.85h0a13.2,13.2,0,0,0-3.12,4l.28-4.63-2.79,45.57C128.23,60.57,128.68,61.53,129.19,62.48Z" transform="translate(0.03)" fill="#e3e1e0"/><path d="M65.1,99.43l12.2,2.69L44,86.62s1.29,4,6.64,6.91c.33.09.66.2,1,.32Z" transform="translate(0.03)" fill="#e3e1e0"/><path d="M60.13,126.54l-.07-.06,8.51-2.66H0a17.37,17.37,0,0,0,14.06,6.71l4.68-.28A20.24,20.24,0,0,1,26.68,128Z" transform="translate(0.03)" fill="#e3e1e0"/><path d="M66.1,131.37l-2.78-2.24-48.64,4.24h0s4.35,4,12.78,3.23l5.27-.7h0a18.55,18.55,0,0,1,1.93-.44Z" transform="translate(0.03)" fill="#e3e1e0"/><path d="M14.06,117.11h0A17.76,17.76,0,0,0,0,123.82,17.76,17.76,0,0,1,14.06,117.11Z" transform="translate(0.03)" fill="#e3e1e0"/><path d="M68.57,119l-53.89-4.72a13.52,13.52,0,0,0,4,3.12l-4.17-.25L69,120.47Z" transform="translate(0.03)" fill="#e3e1e0"/><path d="M71.14,135.45l-2.37-1.92-44.83,7.9s4.36,3.31,12,2l4.38-1h-.07c.57-.21,1.16-.41,1.8-.58Z" transform="translate(0.03)" fill="#e3e1e0"/><path d="M67.28,113.85l-43.34-7.64s2.45,3.81,8.72,5.51L27.41,111l40.51,5.34Z" transform="translate(0.03)" fill="#e3e1e0"/><path d="M79.44,142.15l-1.86-1.5L41.11,153.93s3.76,1.95,9.56.19l1-.48Z" transform="translate(0.03)" fill="#e3e1e0"/><path d="M75.53,139l-2.07-1.62L32.68,148.24s.09-.15.27-.41a3.62,3.62,0,0,0-.27.41S37,151,44,149.08l3.71-1.17a17.08,17.08,0,0,1,1.58-.68Z" transform="translate(0.03)" fill="#e3e1e0"/><path d="M85.24,99.18,86,97.34,40.74,65.64s.72,5.41,7.13,9.9l3.78,2.4h0c.54.25,1.09.52,1.66.85Z" transform="translate(0.03)" fill="#e3e1e0"/><path d="M106.62,108l-.37-1.78-70-70h0a17.33,17.33,0,0,0,5.19,14.69L45,54h-.08a20.37,20.37,0,0,1,7.28,4Z" transform="translate(0.03)" fill="#e3e1e0"/><path d="M83.68,102.88l.75-1.8L42.12,76.65h0s1.11,4.95,7.41,8.59L53,87h0c.52.19,1,.4,1.6.65Z" transform="translate(0.03)" fill="#e3e1e0"/><path d="M86.83,95.37l.8-1.93L39.86,53.37h0s.26,5.88,6.74,11.32l4.22,3.22h0c.56.32,1.12.66,1.7,1.06Z" transform="translate(0.03)" fill="#e3e1e0"/><path d="M81.29,143.66,44,161s3.63,1.48,8.93-.42L83,145Z" transform="translate(0.03)" fill="#e3e1e0"/><path d="M45.21,99,44,98.57a19,19,0,0,0-4.68-.65,19,19,0,0,1,4.68.65Z" transform="translate(0.03)" fill="#e3e1e0"/><path d="M135.49,95.75l-.67,4.5L161,44s-4,1.28-6.91,6.64c-.1.33-.21.66-.33,1Z" transform="translate(0.03)" fill="#e3e1e0"/><path d="M64.32,102.16,41.11,93.71s1.52,3.62,6.59,6l17.4,5.51Z" transform="translate(0.03)" fill="#e3e1e0"/><path d="M113.58,77.37l1.53-3-8.9-50.44.2.15-.2-.15s-3.31,4.33-1.95,12l1,4.38-.06-.13c.22.58.43,1.19.61,1.85Z" transform="translate(0.03)" fill="#e3e1e0"/><path d="M46.75,92.83Z" transform="translate(0.03)" fill="#e3e1e0"/><path d="M134.1,131l5.2,3.65.67-.53L133.48,130Z" transform="translate(0.03)" fill="#e3e1e0"/><path d="M203.33,87.26v0Z" transform="translate(0.03)" fill="#e3e1e0"/><path d="M133,129.09l7.73,4.47.72-.57-8.85-4.62Z" transform="translate(0.03)" fill="#e3e1e0"/><path d="M132,127.29c.07.14.16.28.24.43l10,4.66.22-.18.56-.43-11.08-4.6Z" transform="translate(0.03)" fill="#e3e1e0"/><path d="M93,49.74l.09.15A1.56,1.56,0,0,0,93,49.74Z" transform="translate(0.03)" fill="#e3e1e0"/><path d="M131.68,126.67l12.18,4.43.87-.67-13.21-4.18A1.7,1.7,0,0,0,131.68,126.67Z" transform="translate(0.03)" fill="#e3e1e0"/><path d="M45.9,92.81Z" transform="translate(0.03)" fill="#e3e1e0"/><path d="M203.16,87.6v0Z" transform="translate(0.03)" fill="#e3e1e0"/><path d="M48.68,93Z" transform="translate(0.03)" fill="#e3e1e0"/><path d="M202.68,88.45l-.06.1Z" transform="translate(0.03)" fill="#e3e1e0"/><path d="M202.93,88l-.05.08Z" transform="translate(0.03)" fill="#e3e1e0"/><path d="M47.68,92.9Z" transform="translate(0.03)" fill="#e3e1e0"/><path d="M91.84,48.11l.06.08Z" transform="translate(0.03)" fill="#e3e1e0"/><path d="M92.42,48.88l.07.11Z" transform="translate(0.03)" fill="#e3e1e0"/><path d="M131.53,122.46l11.18-2-.48-.73-10.65,2.35Z" transform="translate(0.03)" fill="#e3e1e0"/><path d="M202.31,89a.44.44,0,0,0-.08.11A.44.44,0,0,1,202.31,89Z" transform="translate(0.03)" fill="#e3e1e0"/><path d="M205.53,76.65h0A12.52,12.52,0,0,1,203,81.13,12.83,12.83,0,0,0,205.53,76.65Z" transform="translate(0.03)" fill="#e3e1e0"/><path d="M131.42,123.16l12.33-1.08c-.17-.27-.34-.53-.52-.79l-11.76,1.53Z" transform="translate(0.03)" fill="#e3e1e0"/><path d="M206.38,58a19.84,19.84,0,0,1-1.65,2.77A19.84,19.84,0,0,0,206.38,58Z" transform="translate(0.03)" fill="#e3e1e0"/><path d="M43.68,93Z" transform="translate(0.03)" fill="#e3e1e0"/><path d="M211.52,38.37a11.18,11.18,0,0,1-.1,1.76C211.49,39.44,211.51,38.85,211.52,38.37Z" transform="translate(0.03)" fill="#e3e1e0"/><path d="M44.37,92.89Z" transform="translate(0.03)" fill="#e3e1e0"/><path d="M104.81,39.3v0Z" transform="translate(0.03)" fill="#e3e1e0"/><path d="M131.37,125.84l14.31,3.84.88-.67.12-.1-15.41-3.43C131.3,125.6,131.34,125.72,131.37,125.84Z" transform="translate(0.03)" fill="#e3e1e0"/><path d="M131.23,125.13,147.38,128a1.23,1.23,0,0,0-.28-.87c0-.07-.1-.14-.14-.21l-15.75-2.09C131.21,124.91,131.22,125,131.23,125.13Z" transform="translate(0.03)" fill="#e3e1e0"/><path d="M131.33,123.82H144.9l-.58-.87-12.95.55Z" transform="translate(0.03)" fill="#e3e1e0"/><path d="M45.1,92.83Z" transform="translate(0.03)" fill="#e3e1e0"/><path d="M203.46,87Z" transform="translate(0.03)" fill="#e3e1e0"/><path d="M203.55,86.78Z" transform="translate(0.03)" fill="#e3e1e0"/><path d="M131.23,124.47l15,1.31-.41-.61-14.53-.89Z" transform="translate(0.03)" fill="#e3e1e0"/><path d="M200.29,91.2l-.19.16Z" transform="translate(0.03)" fill="#e3e1e0"/><path d="M214.59,100l-.06.09Z" transform="translate(0.03)" fill="#e3e1e0"/><path d="M87.59,44.48h0Z" transform="translate(0.03)" fill="#e3e1e0"/><path d="M87.16,44.26l.17.08Z" transform="translate(0.03)" fill="#e3e1e0"/><path d="M214.33,100.31v0Z" transform="translate(0.03)" fill="#e3e1e0"/><path d="M88.5,45Z" transform="translate(0.03)" fill="#e3e1e0"/><path d="M88,44.73h0Z" transform="translate(0.03)" fill="#e3e1e0"/><path d="M214.8,99.65l-.09.14Z" transform="translate(0.03)" fill="#e3e1e0"/><path d="M135.8,133.87,138,135.7l.63-.5-3.74-2.83C135.19,132.83,135.49,133.37,135.8,133.87Z" transform="translate(0.03)" fill="#e3e1e0"/><path d="M41.43,65.56Z" transform="translate(0.03)" fill="#e3e1e0"/><path d="M215,99.37h0a1.74,1.74,0,0,1-.11.18A1.74,1.74,0,0,0,215,99.37Z" transform="translate(0.03)" fill="#e3e1e0"/><path d="M214,100.7Z" transform="translate(0.03)" fill="#e3e1e0"/><path d="M154.68,197.92Z" transform="translate(0.03)" fill="#e3e1e0"/><path d="M137.25,136.29l.09-.07L137,136Z" transform="translate(0.03)" fill="#e3e1e0"/><path d="M83.76,47.37l.09.11Z" transform="translate(0.03)" fill="#e3e1e0"/><path d="M201.91,89.48l-.1.12Z" transform="translate(0.03)" fill="#e3e1e0"/><path d="M42.45,65.53Z" transform="translate(0.03)" fill="#e3e1e0"/><path d="M200.9,90.61l-.15.15Z" transform="translate(0.03)" fill="#e3e1e0"/><path d="M199.6,91.79l-.23.17Z" transform="translate(0.03)" fill="#e3e1e0"/><path d="M89,45.37Z" transform="translate(0.03)" fill="#e3e1e0"/><path d="M160.94,52v.09S160.93,52,160.94,52Z" transform="translate(0.03)" fill="#e3e1e0"/><path d="M44.21,86.56" transform="translate(0.03)" fill="#e3e1e0"/><path d="M40.74,65.64Z" transform="translate(0.03)" fill="#e3e1e0"/><path d="M201.44,90l-.13.14Z" transform="translate(0.03)" fill="#e3e1e0"/><path d="M41,65.6h0Z" transform="translate(0.03)" fill="#e3e1e0"/><path d="M198.82,92.37l-.27.19Z" transform="translate(0.03)" fill="#e3e1e0"/><path d="M200.87,99.26h0Z" transform="translate(0.03)" fill="#e3e1e0"/><path d="M90.1,46.26Z" transform="translate(0.03)" fill="#e3e1e0"/><path d="M89.54,45.79Z" transform="translate(0.03)" fill="#e3e1e0"/><path d="M90.68,46.8Z" transform="translate(0.03)" fill="#e3e1e0"/><path d="M198,93l-.32.19Z" transform="translate(0.03)" fill="#e3e1e0"/><path d="M91.25,47.42l0,.06Z" transform="translate(0.03)" fill="#e3e1e0"/><path d="M44.1,160.89Z" transform="translate(0.03)" fill="#e3e1e0"/><path d="M48.87,155.24l.07-.05Z" transform="translate(0.03)" fill="#e3e1e0"/><path d="M49.74,154.67Z" transform="translate(0.03)" fill="#e3e1e0"/><path d="M33,147.75l.12-.17C33.09,147.64,33.06,147.7,33,147.75Z" transform="translate(0.03)" fill="#e3e1e0"/><path d="M48.09,155.83l.09-.07Z" transform="translate(0.03)" fill="#e3e1e0"/><path d="M46.23,157.59l.09-.09Z" transform="translate(0.03)" fill="#e3e1e0"/><path d="M46.77,157l.1-.1Z" transform="translate(0.03)" fill="#e3e1e0"/><path d="M154.74,44.23v.33A.73.73,0,0,0,154.74,44.23Z" transform="translate(0.03)" fill="#e3e1e0"/><path d="M33.32,147.37v0Z" transform="translate(0.03)" fill="#e3e1e0"/><path d="M45.76,158.16a.61.61,0,0,1,.07-.1A.61.61,0,0,0,45.76,158.16Z" transform="translate(0.03)" fill="#e3e1e0"/><path d="M140.91,223.29l-.12-.1Z" transform="translate(0.03)" fill="#e3e1e0"/><path d="M153.94,41.1h0a8.28,8.28,0,0,1,.42,1.18A8.28,8.28,0,0,0,153.94,41.1Z" transform="translate(0.03)" fill="#e3e1e0"/><path d="M140.51,222.94Z" transform="translate(0.03)" fill="#e3e1e0"/><path d="M154.37,42.37c0,.13.08.27.11.41C154.45,42.64,154.41,42.5,154.37,42.37Z" transform="translate(0.03)" fill="#e3e1e0"/><path d="M154.68,43.54l.06.34Z" transform="translate(0.03)" fill="#e3e1e0"/><path d="M154.52,42.9a.67.67,0,0,0,.08.38C154.57,43.15,154.54,43,154.52,42.9Z" transform="translate(0.03)" fill="#e3e1e0"/><path d="M47.39,156.42l.1-.08Z" transform="translate(0.03)" fill="#e3e1e0"/><path d="M36.26,211.29a13.34,13.34,0,0,1-.12-2A13.34,13.34,0,0,0,36.26,211.29Z" transform="translate(0.03)" fill="#e3e1e0"/><path d="M42.13,171a13.48,13.48,0,0,1,3.63-5.74A13.48,13.48,0,0,0,42.13,171Z" transform="translate(0.03)" fill="#e3e1e0"/><path d="M44,161Z" transform="translate(0.03)" fill="#e3e1e0"/><path d="M67.34,197.93l0-.1Z" transform="translate(0.03)" fill="#e3e1e0"/><path d="M133.16,232.82l-.11-.11Z" transform="translate(0.03)" fill="#e3e1e0"/><polygon points="117.15 233.59 117.15 233.59 117.17 233.28 117.15 233.59" fill="#e3e1e0"/><path d="M45.35,158.69l.07-.09Z" transform="translate(0.03)" fill="#e3e1e0"/><path d="M132.81,232.48v0Z" transform="translate(0.03)" fill="#e3e1e0"/><path d="M44.68,159.65l0-.09Z" transform="translate(0.03)" fill="#e3e1e0"/><path d="M45,159.19v0Z" transform="translate(0.03)" fill="#e3e1e0"/><path d="M44.49,160.05v0Z" transform="translate(0.03)" fill="#e3e1e0"/><path d="M41.91,65.53Z" transform="translate(0.03)" fill="#e3e1e0"/><path d="M44.31,160.37v0Z" transform="translate(0.03)" fill="#e3e1e0"/><path d="M44.18,160.68v0Z" transform="translate(0.03)" fill="#e3e1e0"/><path d="M161.15,44.37Z" transform="translate(0.03)" fill="#e3e1e0"/><path d="M132,119.09l7.06-4.08c-.13-.21-.27-.42-.41-.63l-6.57,4.18Z" transform="translate(0.03)" fill="#e3e1e0"/><path d="M161.09,44.2Z" transform="translate(0.03)" fill="#e3e1e0"/><path d="M42.61,93.2Z" transform="translate(0.03)" fill="#e3e1e0"/><path d="M106.77,24.37l.09.08Z" transform="translate(0.03)" fill="#e3e1e0"/><path d="M154.41,49.62v.06C154.41,49.74,154.4,49.64,154.41,49.62Z" transform="translate(0.03)" fill="#e3e1e0"/><path d="M131.68,121.73,141.79,119l-.46-.69-9.6,3Z" transform="translate(0.03)" fill="#e3e1e0"/><path d="M107.13,24.69Z" transform="translate(0.03)" fill="#e3e1e0"/><path d="M106.43,24.09l.18.14Z" transform="translate(0.03)" fill="#e3e1e0"/><path d="M161.31,45.05Z" transform="translate(0.03)" fill="#e3e1e0"/><path d="M133.38,233h0l-.17-.15Z" transform="translate(0.03)" fill="#e3e1e0"/><path d="M131.75,120.94l9.08-3.31c-.14-.22-.28-.44-.43-.65l-8.58,3.54Z" transform="translate(0.03)" fill="#e3e1e0"/><path d="M43.12,93.09Z" transform="translate(0.03)" fill="#e3e1e0"/><path d="M161.23,44.69Z" transform="translate(0.03)" fill="#e3e1e0"/><path d="M116.84,17.75Z" transform="translate(0.03)" fill="#e3e1e0"/><path d="M131.88,120.06,140,116.3l-.43-.63L132,119.6Z" transform="translate(0.03)" fill="#e3e1e0"/><path d="M154.84,45.81Z" transform="translate(0.03)" fill="#e3e1e0"/><path d="M114.34,14.69Z" transform="translate(0.03)" fill="#e3e1e0"/><path d="M154.81,45v.3A1.5,1.5,0,0,0,154.81,45Z" transform="translate(0.03)" fill="#e3e1e0"/><path d="M23.94,141.43h0l.31-.4C24,141.28,23.94,141.43,23.94,141.43Z" transform="translate(0.03)" fill="#e3e1e0"/><path d="M24.37,140.89l.09-.11Z" transform="translate(0.03)" fill="#e3e1e0"/><path d="M114.55,14.88" transform="translate(0.03)" fill="#e3e1e0"/><path d="M154.83,46.68v.25A1,1,0,0,1,154.83,46.68Z" transform="translate(0.03)" fill="#e3e1e0"/><path d="M154.75,47.61v0Z" transform="translate(0.03)" fill="#e3e1e0"/><path d="M25.9,110.94a8.62,8.62,0,0,1,1.51.09C26.89,111,26.39,111,25.9,110.94Z" transform="translate(0.03)" fill="#e3e1e0"/><path d="M24.68,140.52Z" transform="translate(0.03)" fill="#e3e1e0"/><path d="M154.62,48.59v0Z" transform="translate(0.03)" fill="#e3e1e0"/><path d="M125.14,54.48h0q1.31,2.58,2.58,5.14l2.79-45.57a17.78,17.78,0,0,0-6.64-14,.18.18,0,0,0-.07,0V57.07Z" transform="translate(0.03)" fill="#a3a2a1"/><path d="M105.62,103.24,51,41.46a17.83,17.83,0,0,0-7.56-4.56,16.83,16.83,0,0,0-7.12-.64h0l70,70Z" transform="translate(0.03)" fill="#a3a2a1"/><path d="M69.68,123.47l-.76-3-54.44-3.33H14A17.76,17.76,0,0,0,0,123.85H68.54Z" transform="translate(0.03)" fill="#a3a2a1"/><path d="M91.8,152.16,44.93,193.63l-3.47,3.06a17.94,17.94,0,0,0-5.32,12.62,13.34,13.34,0,0,0,.12,2v.09l57.57-57.57Z" transform="translate(0.03)" fill="#a3a2a1"/><path d="M123.83,247.65V195.53h-2.15l.79-30.59-1.16.12L117.4,229l-.26,4.31v.31h0a17.75,17.75,0,0,0,3.18,10.28A16.18,16.18,0,0,0,123.83,247.65Z" transform="translate(0.03)" fill="#a3a2a1"/><path d="M160.56,165.37l36.12,40.82a17.86,17.86,0,0,0,12.61,5.32,12.88,12.88,0,0,0,2.06-.13l-46-46Z" transform="translate(0.03)" fill="#a3a2a1"/><path d="M142.43,144.73h-.05l9.78,11.06h3.69L143.68,143.7Z" transform="translate(0.03)" fill="#a3a2a1"/><path d="M247.68,123.82h-80.3v2.67l61.6,3.76,4.27.26h.35A17.76,17.76,0,0,0,247.68,123.82Z" transform="translate(0.03)" fill="#a3a2a1"/><path d="M131.26,124.28l14.53.89c-.3-.45-.6-.9-.89-1.35H131.33Z" transform="translate(0.03)" fill="#a3a2a1"/><path d="M156,124.15c0,.07.51,0,.56-.14a.61.61,0,0,0,0-.19h-.83Z" transform="translate(0.03)" fill="#a3a2a1"/><path d="M167.38,85.29,206.19,51a17.9,17.9,0,0,0,5.23-10.86c.07-.65.09-1.24.1-1.76a11.94,11.94,0,0,0-.14-2.07h0l-44,44Z" transform="translate(0.03)" fill="#a3a2a1"/><path d="M132.46,116.19l4.78-4.23a2.73,2.73,0,0,1,.31-1.86L132.68,115Z" transform="translate(0.03)" fill="#a3a2a1"/><path d="M121.21,62.27l-1.53-35.62a20.43,20.43,0,0,0-2.34-8c-.16-.29-.33-.58-.49-.84h0a14.74,14.74,0,0,0-2.29-2.87h0l-.2-.18h0l-.07-.06L118.87,67Z" transform="translate(0.03)" fill="#a3a2a1"/><path d="M88.17,92.15,96.59,101l10.38,8.7-.35-1.65L52.18,58a20.37,20.37,0,0,0-7.28-4,14.12,14.12,0,0,0-5-.66h0L87.68,93.44Z" transform="translate(0.03)" fill="#a3a2a1"/><path d="M60.13,126.54,26.68,128a20.27,20.27,0,0,0-7.91,2.28,14.48,14.48,0,0,0-4.09,3.12h0l48.68-4.25Z" transform="translate(0.03)" fill="#a3a2a1"/><path d="M92.68,157.78,58.07,195.46a20.45,20.45,0,0,0-4,7.28,14.18,14.18,0,0,0-.67,5h0l37.38-44.56Z" transform="translate(0.03)" fill="#a3a2a1"/><path d="M128.09,172.58l-.67-7.65-.91.07.12,9.75Z" transform="translate(0.03)" fill="#a3a2a1"/><path d="M127.07,193.63l-.2.29v1.61h0L128,221a20.45,20.45,0,0,0,2.29,7.91,15.56,15.56,0,0,0,2.51,3.52v0l.24.23.11.11h.05l.17.15h0l-3.64-42.87Z" transform="translate(0.03)" fill="#a3a2a1"/><path d="M167.39,163.82l28.09,25.79a20.83,20.83,0,0,0,7.2,4,14.35,14.35,0,0,0,5.12.69h0l-40.41-33.93Z" transform="translate(0.03)" fill="#a3a2a1"/><path d="M144.68,142.93l12.92,11.86v-2.66l-11.93-10Z" transform="translate(0.03)" fill="#a3a2a1"/><path d="M137,136l.3.27.65-.52-2.19-1.83Z" transform="translate(0.03)" fill="#a3a2a1"/><path d="M131.37,123.5l12.95-.55c-.11-.17-.22-.35-.34-.52s-.15-.23-.23-.35l-12.33,1.08Z" transform="translate(0.03)" fill="#a3a2a1"/><path d="M167.38,122,221,119.68a20.39,20.39,0,0,0,8-2.31,13.88,13.88,0,0,0,4-3.1L167.37,120Z" transform="translate(0.03)" fill="#a3a2a1"/><path d="M156.59,121l-2.68.24.9,1.31,1.75-.07C156.58,121.94,156.59,121.44,156.59,121Z" transform="translate(0.03)" fill="#a3a2a1"/><path d="M167.38,76.37l22.23-24.21a20.32,20.32,0,0,0,4-7.27,14.24,14.24,0,0,0,.68-5.06L167.38,71.92Z" transform="translate(0.03)" fill="#a3a2a1"/><path d="M132.77,114.08l6.86-7.47.16-.26,3.12-5.26-10,11.88Z" transform="translate(0.03)" fill="#a3a2a1"/><path d="M115.11,74.37l1.79-3.56-4.73-36.24c-.12-.68-.27-1.32-.44-1.93a17,17,0,0,0-4.56-7.91h0l-.27-.24-.09-.08-.16-.14-.18-.14h0l-.2-.15Z" transform="translate(0.03)" fill="#a3a2a1"/><path d="M86.83,95.37,52.48,69c-.58-.4-1.14-.74-1.7-1.06a17.11,17.11,0,0,0-8.31-2.36H40.76L86,97.37Z" transform="translate(0.03)" fill="#a3a2a1"/><polygon points="107.57 112.42 107.57 112.42 107.29 111.09 103.52 108.19 107.57 112.42" fill="#a3a2a1"/><path d="M66.1,131.37l-31.52,4.12a18.55,18.55,0,0,0-1.93.44,16.94,16.94,0,0,0-7.91,4.56h0l-.24.26-.09.11-.12.14-.31.4h0l44.83-7.9Z" transform="translate(0.03)" fill="#a3a2a1"/><path d="M89.5,168.47,69,195.18c-.42.61-.79,1.21-1.12,1.8-.16.28-.31.57-.45.85l0,.1a15.37,15.37,0,0,0-1.69,9l27.16-38.79Z" transform="translate(0.03)" fill="#a3a2a1"/><path d="M131.53,167.49,131,164.7l-1.86.11.68,5.16Z" transform="translate(0.03)" fill="#a3a2a1"/><path d="M126.68,145.66c.29-.33.56-.64.83-1l-.37-2.08c-.31-.69-.62-1.38-.94-2.07v1.62Z" transform="translate(0.03)" fill="#a3a2a1"/><path d="M134.33,183.37,132,186.66,135.49,213c.12.68.27,1.31.44,1.92a16.76,16.76,0,0,0,4.57,7.93h0l.28.25.12.1.13.11c.25.21.4.31.4.31Z" transform="translate(0.03)" fill="#a3a2a1"/><path d="M134.51,131.7l.37.62,3.74,2.88.68-.54L134.1,131C134.24,131.24,134.38,131.47,134.51,131.7Z" transform="translate(0.03)" fill="#a3a2a1"/><path d="M167.39,157.31l27.79,21.38a14.83,14.83,0,0,0,1.65,1c5.56,3.17,10.09,2.28,10.09,2.28h0l-39.53-27.6Z" transform="translate(0.03)" fill="#a3a2a1"/><path d="M146.61,141.37l11,8.42v-2.32l-9.93-7Z" transform="translate(0.03)" fill="#a3a2a1"/><path d="M167.38,118.13l45.7-6c.67-.11,1.29-.27,1.9-.43,6.17-1.69,8.74-5.52,8.74-5.52l-56.34,9.93Z" transform="translate(0.03)" fill="#a3a2a1"/><path d="M156.59,118l-4.31.76.56.83.25.37,3.51-.46C156.6,119,156.59,118.54,156.59,118Z" transform="translate(0.03)" fill="#a3a2a1"/><path d="M131.47,122.82l11.76-1.53-.52-.8-11.18,2Z" transform="translate(0.03)" fill="#a3a2a1"/><path d="M164.47,66.08c.76-.64,1.51-1.3,2.29-1.92a3.18,3.18,0,0,1,.75-.19c-.31.71.24.6,0,1.11.08,0,0,.72.06.71a3.54,3.54,0,0,1-.17,1.37l11.28-14.69a17.39,17.39,0,0,0,1-1.66c3.17-5.56,2.28-10.08,2.28-10.08h0l-18.1,25.84Z" transform="translate(0.03)" fill="#a3a2a1"/><path d="M148.3,92c.45-.76.91-1.52,1.35-2.28,1.09-1.86,2.08-3.79,3.17-5.65,1.27-2.18,2.6-4.32,3.89-6.49.76-1.29,1.5-2.6,2.24-3.9l-25.61,36.56-.22,1.51Z" transform="translate(0.03)" fill="#a3a2a1"/><path d="M112.54,79.47l1-2.08-7.79-35.32c-.18-.66-.39-1.27-.61-1.85-.11-.3-.22-.58-.34-.85V39.3a14.38,14.38,0,0,0-5.4-6.61h0L111.8,79Z" transform="translate(0.03)" fill="#a3a2a1"/><path d="M85.24,99.18l-32-20.41c-.57-.33-1.12-.6-1.66-.85a14.68,14.68,0,0,0-9.49-1.27h0L84.4,101.08Z" transform="translate(0.03)" fill="#a3a2a1"/><path d="M73.46,137.37l-2.32-1.87-29.06,6.41c-.64.17-1.23.37-1.8.58a15.81,15.81,0,0,0-6.91,4.84v.07l-.18.23-.12.17v.08c-.18.26-.27.41-.27.41Z" transform="translate(0.03)" fill="#a3a2a1"/><path d="M95.74,167.8l-17,26.58c-.32.55-.58,1.09-.82,1.61-2.49,5.42-1.29,9.54-1.29,9.54l22-38Z" transform="translate(0.03)" fill="#a3a2a1"/><path d="M138.18,178.09c-.59.85-1.21,1.67-1.83,2.49l5.52,25c.16.62.35,1.18.55,1.73a14.76,14.76,0,0,0,5.83,7.65h0l-9.93-37.07Z" transform="translate(0.03)" fill="#a3a2a1"/><path d="M130.73,155.12l.07.29h1.5l-.54-2C131.39,154,131.06,154.55,130.73,155.12Z" transform="translate(0.03)" fill="#a3a2a1"/><path d="M133.48,130l6.49,4.15.72-.57L133,129.09C133.13,129.37,133.3,129.69,133.48,130Z" transform="translate(0.03)" fill="#a3a2a1"/><path d="M148.68,139.67l8.9,5.69v-2.07l-7.81-4.5Z" transform="translate(0.03)" fill="#a3a2a1"/><path d="M167.39,151.63l27,17.25c.58.33,1.14.61,1.69.86,5.38,2.43,9.45,1.25,9.45,1.25l-38.14-22Z" transform="translate(0.03)" fill="#a3a2a1"/><path d="M167.38,114.21l38.2-8.42c.62-.17,1.19-.36,1.74-.57a16,16,0,0,0,6.68-4.51h0l.28-.34v-.05l.2-.26.06-.09.12-.17.09-.14V99.6a1.74,1.74,0,0,0,.11-.18h0l-47.48,12.73Z" transform="translate(0.03)" fill="#a3a2a1"/><path d="M131.58,122.11l10.65-2.35-.48-.74-10.07,2.71Z" transform="translate(0.03)" fill="#a3a2a1"/><path d="M156.56,115.05l-5.75,1.54.74,1.12,5-1.11C156.57,116.08,156.56,115.57,156.56,115.05Z" transform="translate(0.03)" fill="#a3a2a1"/><path d="M133.59,108.53l35.29-55.27a16.88,16.88,0,0,0,.84-1.64c2.47-5.4,1.28-9.5,1.28-9.5l-37.08,64.25Z" transform="translate(0.03)" fill="#a3a2a1"/><path d="M109.19,77.21l-8.78-27.92c-.21-.58-.45-1.12-.69-1.63a13.76,13.76,0,0,0-6-6.56l12.39,34Z" transform="translate(0.03)" fill="#a3a2a1"/><path d="M83.44,103.48l.25-.6L54.57,87.68c-.55-.25-1.08-.46-1.6-.65a14.12,14.12,0,0,0-8.76-.47h0l-.17.06,33.26,15.5Z" transform="translate(0.03)" fill="#a3a2a1"/><path d="M75.53,139,49.3,147.23a17.08,17.08,0,0,0-1.58.68,13.68,13.68,0,0,0-6.61,6l36.47-13.28Z" transform="translate(0.03)" fill="#a3a2a1"/><path d="M101.18,167.22l-13.5,25.86a15.19,15.19,0,0,0-.64,1.57,13.7,13.7,0,0,0-.42,9L103.68,167Z" transform="translate(0.03)" fill="#a3a2a1"/><path d="M135,155.18c-.6-.64-1.24-1.24-1.8-1.91l-.13-.14.71,2.28h1.06Z" transform="translate(0.03)" fill="#a3a2a1"/><path d="M140,175.37l7.22,23c.2.56.43,1.07.66,1.56a13.7,13.7,0,0,0,6,6.64l-12.22-33.71C141.12,173.69,140.57,174.52,140,175.37Z" transform="translate(0.03)" fill="#a3a2a1"/><path d="M150.83,137.91l6.73,3.51v-1.87L152,137Z" transform="translate(0.03)" fill="#a3a2a1"/><path d="M132.56,128.37l8.85,4.61.78-.61-10-4.66Z" transform="translate(0.03)" fill="#a3a2a1"/><path d="M167.39,146.55,193.08,160a14.5,14.5,0,0,0,1.58.64,13.83,13.83,0,0,0,9,.42h0l-36.22-16.89Z" transform="translate(0.03)" fill="#a3a2a1"/><path d="M131.68,121.37l9.6-3-.46-.7L131.74,121Z" transform="translate(0.03)" fill="#a3a2a1"/><path d="M167.38,110.14l31-9.74a16.81,16.81,0,0,0,1.69-.72c.27-.12.52-.25.77-.39h.06a13.4,13.4,0,0,0,5.68-5.55L167.38,108Z" transform="translate(0.03)" fill="#a3a2a1"/><path d="M156.57,111.9l-7.09,2.59c.11.18.21.37.33.55l.33.51,6.41-2C156.55,113,156.56,112.45,156.57,111.9Z" transform="translate(0.03)" fill="#a3a2a1"/><path d="M134.3,103.76,160,54.57c.27-.59.49-1.15.68-1.7.1-.28.19-.55.27-.82V52a14.36,14.36,0,0,0,.37-6.89h0a.51.51,0,0,0-.08-.34h0a1.07,1.07,0,0,0-.07-.27h0a.22.22,0,0,0-.06-.19h0v-.16l-26.22,56.21Z" transform="translate(0.03)" fill="#a3a2a1"/><path d="M135.49,95.75,153.8,51.68c.12-.34.23-.67.33-1s.19-.68.26-1v-.06c.07-.3.13-.59.18-.88v-.15a6.49,6.49,0,0,1,.11-.77v-.21c0-.23,0-.46.06-.68a1.72,1.72,0,0,0,0-.25v-2.8l-.06-.34v-.26c0-.08-.06-.26-.08-.38a.39.39,0,0,1,0-.16c0-.14-.07-.28-.11-.41h0a8.28,8.28,0,0,0-.42-1.18h0l-17.46,48Z" transform="translate(0.03)" fill="#a3a2a1"/><path d="M98.83,70.21l4,2.68L94.05,51.62c-.16-.33-.32-.64-.48-.94s-.3-.54-.46-.79L93,49.74c-.16-.27-.32-.51-.49-.75l-.07-.11c-.17-.24-.35-.47-.52-.69l-.06-.08q-.27-.33-.54-.63l0-.06c-.18-.2-.36-.4-.54-.58h0q-.27-.27-.54-.51h0l-.53-.45h0q-.25-.21-.51-.39h0l-.48-.33h0l-.42-.27h0l-.36-.2h-.08l-.26-.14-.17-.08h-.11l-.43-.18Z" transform="translate(0.03)" fill="#a3a2a1"/><path d="M63.54,99.08l1.56.35L51.68,93.85c-.34-.12-.67-.23-1-.32a17.16,17.16,0,0,0-2-.49h0a9.06,9.06,0,0,1-.91-.13h-.09l-.83-.07H44.39l-.59.08h-.12l-.53.1h-.06l-.48.11h0a9.81,9.81,0,0,0-1.5.51h0l23.21,8.45Z" transform="translate(0.03)" fill="#a3a2a1"/><path d="M79.44,142.15,51.68,153.64l-1,.48-.93.54h0c-.28.17-.55.35-.8.52l-.07,0c-.24.17-.47.34-.69.52l-.09.07-.6.51-.1.08-.52.5-.1.1q-.24.24-.45.48l-.09.09-.4.47a.61.61,0,0,0-.07.1c-.12.15-.24.29-.34.44l-.07.09-.29.41v.09c-.09.13-.17.25-.24.37l0,.09c-.07.11-.13.22-.19.33V160c-.05.1-.1.2-.15.28v.07c0,.08-.07.16-.1.23v0c0,.06-.05.12-.07.17h0v.09h0l37.25-17.37Z" transform="translate(0.03)" fill="#a3a2a1"/><path d="M106,166.7,93.86,196c-.13.34-.23.68-.33,1-1.72,5.71.19,9.57.19,9.57h0l14.59-40.08Z" transform="translate(0.03)" fill="#a3a2a1"/><path d="M143.18,170.68,153.68,196c.15.33.31.64.48.94s.34.62.52.91h0c.17.28.35.55.53.8v.06c.17.25.36.49.54.72v0c.18.23.36.44.55.64v0l.54.58h0l.54.51h0l.53.45h0l.51.39h0c.17.13.33.24.49.34h0c.15.1.3.2.45.28h0a8.07,8.07,0,0,0,1.44.72l-16.12-34.93Z" transform="translate(0.03)" fill="#a3a2a1"/><path d="M153.17,136l4.38,1.82v-1.74l-3.1-1.12Z" transform="translate(0.03)" fill="#a3a2a1"/><path d="M167.38,141.91,196,153.79l1,.33.94.25H198l.85.18h.17l.79.11H200l.73.06h1.86l.58-.05h.15l.53-.07H204l.48-.08h.12l.42-.09h.1l.36-.1h.08l.31-.1h.06l.24-.09h0l.17-.07h0l.16-.07-39.13-14.33Z" transform="translate(0.03)" fill="#a3a2a1"/><path d="M131.89,127.17l11.08,4.6.87-.67-12.16-4.43A3.11,3.11,0,0,0,131.89,127.17Z" transform="translate(0.03)" fill="#a3a2a1"/><path d="M131.82,120.52,140.4,117a1.37,1.37,0,0,0-.13-.2l-.31-.48-8.08,3.76Z" transform="translate(0.03)" fill="#a3a2a1"/><path d="M156.68,108.5l-8.4,3.91.59,1.07,7.73-3.2A13.26,13.26,0,0,0,156.68,108.5Z" transform="translate(0.03)" fill="#a3a2a1"/><path d="M167.38,105.83,196,94c.34-.16.66-.33,1-.5s.42-.24.63-.36L198,93l.59-.39.27-.19c.19-.13.37-.27.55-.41l.23-.17.5-.43.19-.16.46-.44.15-.15c.14-.15.28-.29.41-.44l.13-.14c.13-.14.25-.29.37-.43l.1-.12.32-.42a.44.44,0,0,1,.08-.11l.28-.4.06-.1.23-.37,0-.08c.07-.12.14-.23.19-.34V87.6c0-.1.11-.2.15-.29v0l.12-.24h0l.08-.19h0l.06-.16-36.17,16.84Z" transform="translate(0.03)" fill="#a3a2a1"/><path d="M137,77.8a4.56,4.56,0,0,1,.59,2.48L149.08,44a16.2,16.2,0,0,0-.4-10.34,9,9,0,0,0-.46-1h0L136.44,76.77C136.68,77.12,136.82,77.46,137,77.8Z" transform="translate(0.03)" fill="#a3a2a1"/><path d="M100.53,79,87,53,85.8,50.59l-.55-1.06a20.31,20.31,0,0,0-1.32-2l-.08-.1-.09-.11a14.62,14.62,0,0,0-7.05-5.19h0l25.37,43.92Z" transform="translate(0.03)" fill="#a3a2a1"/><path d="M65.87,108.29l-.77-3L47.68,99.73,45.19,99,44,98.57a19,19,0,0,0-4.68-.65c-.51,0-1,0-1.52.07a12.84,12.84,0,0,0-5.11,1.38Z" transform="translate(0.03)" fill="#a3a2a1"/><path d="M83,145,53,160.61l-3.46,1.76a18.69,18.69,0,0,0-3.77,2.85A13.48,13.48,0,0,0,42.13,171l42.55-24.59Z" transform="translate(0.03)" fill="#a3a2a1"/><path d="M110.41,166.23,98.57,203.64a17.15,17.15,0,0,0-.27,8.24A11.18,11.18,0,0,0,99.41,215h0L112.53,166Z" transform="translate(0.03)" fill="#a3a2a1"/><path d="M146.12,166.5a.44.44,0,0,0-.08.11l14.64,28.08,1.78,3.43c3.57,6.18,8.59,7.4,8.59,7.4l-23.24-40.15A2.5,2.5,0,0,0,146.12,166.5Z" transform="translate(0.03)" fill="#a3a2a1"/><path d="M155.74,133.92l1.81.57v-.59a4.4,4.4,0,0,0-.31-1.13h-.07Z" transform="translate(0.03)" fill="#a3a2a1"/><path d="M167.38,137.6l36.3,11.47a18.86,18.86,0,0,0,4.67.65,14.28,14.28,0,0,0,6.18-1.25c.3-.14.45-.23.45-.23l-47.6-12.75Z" transform="translate(0.03)" fill="#a3a2a1"/><path d="M131.5,126.25l13.18,4.18,1-.75-14.32-3.84Z" transform="translate(0.03)" fill="#a3a2a1"/><path d="M132,119.6l7.58-3.93-.44-.66L132,119.09Z" transform="translate(0.03)" fill="#a3a2a1"/><path d="M157,104.7l-7.72,4.46-1.16,2.07,8.76-4.55C156.9,106,156.92,105.37,157,104.7Z" transform="translate(0.03)" fill="#a3a2a1"/><path d="M167.38,101.21,194.68,87l3.43-1.78A17.64,17.64,0,0,0,203,81.13a12.52,12.52,0,0,0,2.49-4.48h0l-38.15,22Z" transform="translate(0.03)" fill="#a3a2a1"/><path d="M133.23,70.51c.2.39.39.79.59,1.18.38.74.75,1.49,1.12,2.24l8.46-38a19.81,19.81,0,0,0,.31-3.92,17.71,17.71,0,0,0-.14-1.92,14.3,14.3,0,0,0-2.13-6.2Z" transform="translate(0.03)" fill="#a3a2a1"/><path d="M103.1,91.21,77.92,51.6l-1.2-1.88-1.18-1.86A19,19,0,0,0,70.74,43a13.66,13.66,0,0,0-5.09-2.3h0L104,95.49Z" transform="translate(0.03)" fill="#a3a2a1"/><path d="M66.57,111.07,36,104.25A20,20,0,0,0,30.9,104,15,15,0,0,0,24,106.17h0l43.34,7.64Z" transform="translate(0.03)" fill="#a3a2a1"/><path d="M86.28,147.69,47.87,172.11c-6.28,4.39-7.13,9.86-7.13,9.89h0l47.15-33Z" transform="translate(0.03)" fill="#a3a2a1"/><path d="M116.47,165.58l-2,.21-9.25,41.52-1,4.36a17.62,17.62,0,0,0,1.16,10.6,9.18,9.18,0,0,0,.79,1.44Z" transform="translate(0.03)" fill="#a3a2a1"/><path d="M150.2,165.3,169.68,196l.84,1.33,1.55,2.44a17.11,17.11,0,0,0,9.36,7c.34.09.54.12.54.12l-29.13-41.6Z" transform="translate(0.03)" fill="#a3a2a1"/><path d="M131.28,125.48l15.4,3.43a1.57,1.57,0,0,0,.69-.94l-16.15-2.84Z" transform="translate(0.03)" fill="#a3a2a1"/><path d="M167.38,133.52l44.3,9.85a18.94,18.94,0,0,0,7.5-.12,13.41,13.41,0,0,0,4.54-1.84h0l-56.33-9.93Z" transform="translate(0.03)" fill="#a3a2a1"/><path d="M157,100.62,152.08,104l-1.58,2.83,6.48-4.12C157,102.05,157,101.37,157,100.62Z" transform="translate(0.03)" fill="#a3a2a1"/><path d="M132.11,118.56l6.57-4.19c-.15-.21-.29-.43-.44-.65L132.19,118Z" transform="translate(0.03)" fill="#a3a2a1"/><path d="M167.38,96.14,197,77.31l2.78-1.77a21.18,21.18,0,0,0,1.68-1.32,18,18,0,0,0,4.06-5,12.45,12.45,0,0,0,1.39-3.62h0L167.38,93.37Z" transform="translate(0.03)" fill="#a3a2a1"/><path d="M131.39,66.85l4.54-34.22.75-5.26a20.8,20.8,0,0,0-.72-7.69,14.51,14.51,0,0,0-2.53-5.08h0l-4.19,47.85Z" transform="translate(0.03)" fill="#a3a2a1"/><path d="M104.68,98.83l-40-52.23c-5.32-6.34-11.28-6.74-11.31-6.75h0l51.93,61.89Z" transform="translate(0.03)" fill="#a3a2a1"/><path d="M67.92,116.37,27.41,111c-.52,0-1-.07-1.51-.09-7.31-.15-11.27,3.33-11.27,3.33L68.57,119Z" transform="translate(0.03)" fill="#a3a2a1"/><path d="M89.38,150.2,50.81,179.73,46.6,183a18.46,18.46,0,0,0-6.66,10.73c-.06.38-.08.59-.08.59l51.06-42.84Z" transform="translate(0.03)" fill="#a3a2a1"/><path d="M118.31,165.37l-6.73,50.8-.55,4.07c-.63,7.24,2.33,11.59,3.08,12.56l.16.21,5.94-67.83Z" transform="translate(0.03)" fill="#a3a2a1"/><path d="M155.61,165.37,183,201.09c5,6,10.58,6.67,11.26,6.73h.07l-35.61-42.45Z" transform="translate(0.03)" fill="#a3a2a1"/><path d="M142.14,146c.84,1.63,1.65,3.28,2.46,4.93l3.75,4.89h2.33L142,145.48A1.13,1.13,0,0,0,142.14,146Z" transform="translate(0.03)" fill="#a3a2a1"/><path d="M167.38,129.6l52.87,7c7.23.64,11.59-2.32,12.56-3.06l.21-.17-65.64-5.75Z" transform="translate(0.03)" fill="#a3a2a1"/><path d="M131.2,124.69v.11L147,126.89l-.76-1.11-15-1.31Z" transform="translate(0.03)" fill="#a3a2a1"/><path d="M132.29,117.37l5.54-4.24c-.09-.14-.19-.27-.27-.41a1.82,1.82,0,0,1-.15-.27l-5,4.21Z" transform="translate(0.03)" fill="#a3a2a1"/><path d="M167.38,90.48l30.13-23.11,3.55-2.72a21.72,21.72,0,0,0,3.67-3.93A19.84,19.84,0,0,0,206.38,58a13.93,13.93,0,0,0,1.42-4.62h0l-40.42,34Z" transform="translate(0.03)" fill="#a3a2a1"/><path d="M156.89,96.48c-.44.3-.82.43-1,.7l-2,3.64,3.05-2.33C156.91,97.82,156.89,97.16,156.89,96.48Z" transform="translate(0.03)" fill="#a3a2a1"/><path d="M167.38,120V67.37a.61.61,0,0,1,0-.19,3.54,3.54,0,0,0,.17-1.37c-.07,0,0-.72-.06-.71.24-.51-.31-.4,0-1.11a3.18,3.18,0,0,0-.75.19c-.78.62-1.53,1.28-2.29,1.92l-.56.5a23.68,23.68,0,0,0-4.32,6c-.22.37-.43.74-.64,1.12-.74,1.3-1.48,2.61-2.24,3.9-1.29,2.17-2.62,4.31-3.89,6.49-1.09,1.86-2.08,3.79-3.17,5.65-.44.76-.9,1.52-1.35,2.28-1.37,2.31-2.75,4.62-4.11,6.93l-1.28,2.17-3.1,5.23-.16.26c-.64,1.07-1.3,2.12-1.92,3.19-.06.1-.11.2-.16.3a2.73,2.73,0,0,0-.31,1.86,2.64,2.64,0,0,0,.17.47,1.82,1.82,0,0,0,.15.27c.08.14.18.27.27.41l.41.62c.15.22.29.44.44.65s.28.42.41.63.3.44.44.66l.43.63.31.48a1.37,1.37,0,0,1,.13.2c.15.21.29.43.43.65l.46.7.46.69.48.74.48.73.52.8c.18.26.35.52.52.79s.16.23.23.35.23.35.34.52l.58.87c.29.45.59.9.89,1.35l.41.61.76,1.11c0,.07.09.14.14.21a1.23,1.23,0,0,1,.28.87,1.57,1.57,0,0,1-.69.94l-.12.1-.88.67-1,.75-.87.67-.87.67-.56.43-.22.18-.78.61-.72.57-.72.57-.67.53-.68.54-.63.5-.65.52-.09.07L137,136l-1.24-2.08c-.31-.53-.61-1-.92-1.55l-.37-.62c-.13-.23-.27-.46-.41-.69l-.62-1c-.18-.29-.35-.59-.52-.89l-.4-.71-.37-.66c-.08-.15-.17-.29-.24-.43l-.06-.12c-.08-.16-.16-.33-.23-.5s-.11-.28-.16-.42-.09-.27-.13-.41a3.15,3.15,0,0,1-.09-.36,2,2,0,0,1,0-.35v-.85l.07-.46v-.32l0-.34v-.34l.06-.36.05-.35.06-.38v-.38l.06-.41.07-.42.06-.46.07-.46.08-.51.08-.53.08-.6.1-.61.1-.71.07-.45.17-1.17.14-.94.17-1.11.18-1.23.22-1.51.25-1.7.33-2.18.38-2.59.52-3.51.67-4.5,1-6.69,1-7.08c0-.56.07-1.13.08-1.7a4.56,4.56,0,0,0-.59-2.48l-.58-1c-.52-.93-1-1.89-1.5-2.84-.37-.75-.74-1.5-1.12-2.24l-.59-1.18-1.84-3.66L129,62.56c-.47-1-1-1.91-1.44-2.86q-1.27-2.56-2.58-5.14h0l1.06,86c.32.69.63,1.38.94,2.07.19.41.38.83.56,1.25a.76.76,0,0,1,0,.66l-.15.17c-.27.33-.54.64-.83,1l-.41.45.24,18.89.91-.07,1.76-.12,1.86-.11h.58c1.19-.06,1.47.44.84,1.44l-.93,1.38-1.67,2.48L128,172.66l-1.3,2.09.24,19.17.2-.29,2.56-3.53,1.08-1.5c.45-.63.89-1.27,1.33-1.91l2.29-3.29,1-1.42,1-1.4c.62-.82,1.24-1.64,1.83-2.49l.14-.21,1.7-2.53c.55-.83,1.1-1.66,1.66-2.49l.54-.81c.31-.46.64-.91,1-1.37l1.5-2.14c.46-.64.9-1.29,1.36-1.93a.44.44,0,0,1,.08-.11,2.5,2.5,0,0,1,1.69-1.15,1.76,1.76,0,0,1,.46-.06h19.12V120ZM132.3,155.37h-1.73l.16-.29c.33-.57.66-1.15,1-1.72l.06-.1c.37-.55.77-.61,1.22-.17l.13.14c.56.67,1.2,1.27,1.8,1.91l-.16.23H132.3Zm25.25-21.51v20.9c0,.73-.33,1.05-1.07,1.05h-8.29a2,2,0,0,1-1.78-1.28c-.62-1.2-1.22-2.4-1.82-3.61-.81-1.65-1.62-3.3-2.46-4.93a1.14,1.14,0,0,1-.14-.54,1,1,0,0,1,.38-.7h0l1.27-1,.94-.77,1-.81,1-.78,1-.84,1-.83,1.09-.88,1.08-.88,1.17-1,1.17-1,1.28-1,1.29-1,1.43-1.16h0v.05a4.58,4.58,0,0,1,.41,1Zm-1-9.89c-.05.12-.53.21-.56.14l-.23-.33c-.31-.43-.6-.88-.91-1.32l-.9-1.31-.82-1.19-.25-.37-.56-.83-.73-1.09-.74-1.12-.67-1-.33-.51c-.12-.18-.22-.37-.33-.55-.2-.34-.41-.67-.6-1l-.59-1.07-.29-.52a.86.86,0,0,1,.06-.65h0l1.16-2.07,1.27-2.29,1.58-2.83,1.79-3.22,2-3.64c.17-.27.55-.4,1-.7v8.26a18.84,18.84,0,0,1-.12,2h0c-.06.6-.1,1.19-.14,1.79s-.06,1.19-.08,1.78,0,1.08,0,1.62v11.92a.58.58,0,0,1-.05.14Z" transform="translate(0.03)" fill="#f9d900"/><polygon points="126.54 165 126.3 146.12 126.25 142.16 126.23 140.54 125.17 54.53 125.17 54.48 123.86 57.07 121.24 62.28 118.88 66.95 116.93 70.81 115.14 74.38 113.61 77.4 112.56 79.48 111.84 78.99 109.22 77.21 106.14 75.13 102.82 72.89 98.86 70.22 98.71 70.11 100.56 78.96 102.05 86.04 103.13 91.22 104.03 95.51 104.73 98.84 105.34 101.75 105.65 103.25 106.28 106.25 106.65 108.03 107 109.67 107.29 111.09 107.57 112.42 107.57 112.42 107.57 112.42 103.52 108.19 96.62 100.97 88.2 92.16 87.66 93.45 86.86 95.37 86.03 97.34 85.26 99.18 84.47 101.09 83.72 102.88 83.47 103.49 77.33 102.13 65.13 99.43 63.57 99.09 64.35 102.16 65.13 105.24 65.9 108.29 66.6 111.07 67.31 113.85 67.95 116.41 68.6 118.99 68.98 120.47 69.74 123.47 68.6 123.83 60.09 126.49 60.16 126.54 63.35 129.12 66.12 131.37 68.8 133.53 71.17 135.45 73.49 137.32 75.56 139 77.61 140.66 79.47 142.16 81.32 143.66 83.02 145.03 84.73 146.42 86.31 147.69 87.92 148.99 89.41 150.2 90.95 151.44 91.83 152.16 93.87 153.81 94.01 153.92 92.68 157.78 90.79 163.23 88.96 168.54 89.53 168.48 92.84 168.12 95.77 167.81 98.64 167.5 101.21 167.22 103.75 166.95 106.04 166.71 108.34 166.46 110.44 166.24 112.56 166.01 114.51 165.8 116.5 165.59 118.34 165.39 120.24 165.18 121.34 165.07 122.5 164.94 121.71 195.53 123.86 195.53 126.92 195.53 126.92 195.53 126.9 193.93 126.66 174.75 126.54 165" fill="#e30613"/><path d="M321.18,63.05a24.11,24.11,0,0,0,19.5-9l-5.27-5.41a17,17,0,0,1-14.09,6.84c-9.82,0-16.44-7.69-16.44-17.58,0-10.18,6.83-17.44,16.72-17.44a19.18,19.18,0,0,1,13.67,5.19L339.61,20a25.2,25.2,0,0,0-18.22-7.12c-14.66,0-25.13,10.53-25.13,25.06C296.26,51.85,306.23,63.09,321.18,63.05Z" transform="translate(0.03)" fill="#fff"/><path d="M361.71,42.64c-9.68,0-16.08,4-16.08,11.24,0,5.63,4.16,8.9,10,8.9,5.2,0,9-2.06,11.32-5.41l1.42,4.8h5.2V41.67c0-7.69-5-11.82-13.13-11.83a32.06,32.06,0,0,0-13.31,3.28l2.21,5.9a23.83,23.83,0,0,1,9.89-2.56c4.06,0,6.48,1.64,6.48,4.91v1.41C364.56,42.71,363.35,42.64,361.71,42.64ZM366,47.86c-.14,5.77-3.49,9.11-8,9.11-2.85,0-4.56-1.35-4.56-3.84,0-3.48,3.28-5.48,8.9-5.48A32.65,32.65,0,0,1,366,47.86Z" transform="translate(0.03)" fill="#fff"/><path d="M390,44.73c0-4.7,2.92-8.19,7.76-8.19,3.85,0,5.41,2.48,5.41,6.48V62.17h7.76V42.31c0-8.12-3.91-12.74-11.17-12.72a12.19,12.19,0,0,0-10.68,5.83l-1.57-5h-5.27V62.17H390Z" transform="translate(0.03)" fill="#fff"/><path d="M433.62,42.64c-9.68,0-16.09,4-16.09,11.24,0,5.63,4.16,8.9,10,8.9,5.19,0,9-2.06,11.32-5.41l1.42,4.8h5.2V41.67c0-7.69-5-11.82-13.12-11.83A32.06,32.06,0,0,0,419,33.12l2.2,5.9a23.87,23.87,0,0,1,9.9-2.56c4.06,0,6.48,1.64,6.48,4.91v1.41C436.47,42.71,435.26,42.64,433.62,42.64Zm4.23,5.22c-.17,5.77-3.49,9.11-8,9.11-2.85,0-4.56-1.35-4.56-3.84,0-3.48,3.27-5.48,8.9-5.48A32.65,32.65,0,0,1,437.85,47.86Z" transform="translate(0.03)" fill="#fff"/><path d="M467.61,62.92a13.66,13.66,0,0,0,11.46-5.55l1.35,4.8h5.34V10.92H478V25.05c0,3.49.07,6.2.21,9.11a14,14,0,0,0-10.6-4.55c-8.9,0-15.31,6.9-15.31,16.44C452.3,56.09,458.5,62.92,467.61,62.92Zm1.56-26.45c5.48,0,9.11,4,9.11,9.83h0c0,5.9-3.74,9.89-9.11,9.89s-9-4.06-9-9.89S463.69,36.47,469.17,36.47Z" transform="translate(0.03)" fill="#fff"/><path d="M508.78,42.64c-9.68,0-16.08,4-16.08,11.24,0,5.63,4.16,8.9,10,8.9,5.2,0,9-2.06,11.32-5.41l1.46,4.8h5.2V41.67c0-7.69-5-11.82-13.17-11.83a32.06,32.06,0,0,0-13.31,3.28l2.21,5.9a23.83,23.83,0,0,1,9.89-2.56c4.06,0,6.48,1.64,6.48,4.91v1.41C511.63,42.71,510.42,42.64,508.78,42.64Zm4.28,5.22h0c-.14,5.77-3.49,9.11-8,9.11-2.85,0-4.56-1.35-4.56-3.84,0-3.48,3.28-5.48,8.9-5.48A32.65,32.65,0,0,1,513.06,47.86Z" transform="translate(0.03)" fill="#fff"/><rect x="528.64" y="42.67" width="20" height="6.7" fill="#fff"/><path d="M596.17,45V13.77h-8.4V44.44c0,7.37-4.42,11-11,11s-11-3.59-11-11V13.77h-8.4V45c0,11.61,8.27,18.08,19.44,18.08S596.17,56.62,596.17,45Z" transform="translate(0.03)" fill="#fff"/><polygon points="613.71 48.64 625.07 62.17 634.07 62.17 634.07 61.74 620.4 45.78 633 30.78 633 30.42 624.25 30.42 613.71 43.02 613.71 10.92 605.95 10.92 605.95 62.17 613.71 62.17 613.71 48.64" fill="#fff"/><path d="M645.78,35.12l-1.5-4.7H639V62.2h7.76V44.9c0-5.08,3.06-8,7.55-8a11.84,11.84,0,0,1,4.13.71l2-6.55A10.75,10.75,0,0,0,655,29.71,9.75,9.75,0,0,0,645.78,35.12Z" transform="translate(0.03)" fill="#fff"/><path d="M683.59,57.37l1.42,4.8h5.2V41.67c0-7.69-5-11.82-13.12-11.83a32.06,32.06,0,0,0-13.31,3.28L666,39a23.83,23.83,0,0,1,9.89-2.56c4.06,0,6.48,1.64,6.48,4.91v1.41c-1.15-.07-2.36-.14-4-.14-9.68,0-16.09,4-16.09,11.24,0,5.63,4.16,8.9,10,8.9C677.47,62.78,681.24,60.72,683.59,57.37ZM670,53.13c0-3.48,3.27-5.48,8.9-5.48a32.65,32.65,0,0,1,3.7.21h0c-.14,5.77-3.49,9.11-8,9.11C671.7,57,670,55.62,670,53.13Z" transform="translate(0.03)" fill="#fff"/><polygon points="698.95 62.17 706.71 62.17 706.71 30.42 698.92 30.42 698.95 62.17" fill="#fff"/><path d="M702.81,23.8H703A4.85,4.85,0,1,0,698,19.17c0,.13,0,.27,0,.4A4.54,4.54,0,0,0,702.81,23.8Z" transform="translate(0.03)" fill="#fff"/><path d="M733.26,29.59a12.17,12.17,0,0,0-10.67,5.83l-1.57-5h-5.27V62.17h7.76V44.73c0-4.7,2.92-8.19,7.76-8.19,3.85,0,5.41,2.48,5.41,6.48V62.17h7.77V42.31C744.45,34.19,740.54,29.57,733.26,29.59Z" transform="translate(0.03)" fill="#fff"/><path d="M768.37,63.1a18.7,18.7,0,0,0,12.39-4.41l-3.28-5a12,12,0,0,1-8.4,3C764,56.69,760,54,759,48.86h22.78a35.24,35.24,0,0,0,.29-3.7c0-9.54-5.49-15.59-14.45-15.58-9.61,0-16.38,7.33-16.38,16.65C751.21,56.2,758.19,63.1,768.37,63.1Zm-1-27.2c4.06,0,7.05,2.69,7.26,7.69H759C759.9,38.68,763.36,35.9,767.42,35.9Z" transform="translate(0.03)" fill="#fff"/><path d="M298.9,93.77v48.4h8.4V124.54h10c10.68,0,16.37-7.17,16.37-15.17s-5.81-15.6-16.21-15.6Zm26.33,15.55c0,4.13-2.7,8.05-8.82,8.05H307.3V101.14h9.32C322,101.14,325.23,104.77,325.23,109.32Z" transform="translate(0.03)" fill="#fff"/><path d="M370.68,126.3c0-9.83-7.18-16.73-17.13-16.73s-17,6.9-17,16.73,7.09,16.79,17.05,16.79S370.68,136.13,370.68,126.3Zm-17.11,9.89c-5.41,0-9.19-4.05-9.19-9.89s3.71-9.9,9.19-9.9,9.18,4.06,9.18,9.9S359,136.19,353.57,136.19Z" transform="translate(0.03)" fill="#fff"/><polygon points="385.56 90.92 377.8 90.92 377.8 142.17 385.63 142.17 385.56 90.92" fill="#fff"/><polygon points="394.71 142.17 402.5 142.17 402.5 110.42 394.74 110.42 394.71 142.17" fill="#fff"/><path d="M398.42,94.11a4.84,4.84,0,0,0-4.63,5.06c0,.13,0,.27,0,.4a4.54,4.54,0,0,0,4.83,4.23h.22a4.85,4.85,0,1,0-.43-9.69Z" transform="translate(0.03)" fill="#fff"/><path d="M426,143.16a17.2,17.2,0,0,0,12.81-4.91l-3.92-5.19a10.92,10.92,0,0,1-8.11,3.27c-5.13,0-9.33-3.74-9.33-10,0-6.09,4.13-10,9.47-10a10.52,10.52,0,0,1,7.47,2.7l3.78-5.19a17.16,17.16,0,0,0-11.82-4.27c-9.11,0-16.73,6.33-16.73,16.73C409.59,137.37,417.92,143.09,426,143.16Z" transform="translate(0.03)" fill="#fff"/><path d="M468,133.69a12,12,0,0,1-8.4,3c-5.11,0-9.11-2.71-10.11-7.83h22.78a35.22,35.22,0,0,0,.28-3.7c0-9.54-5.48-15.59-14.45-15.58-9.61,0-16.37,7.33-16.37,16.65,0,10,7,16.87,17.16,16.87a18.69,18.69,0,0,0,12.38-4.41ZM458,115.9c4.06,0,7.05,2.64,7.26,7.69H449.6C450.45,118.68,453.93,115.9,458,115.9Z" transform="translate(0.03)" fill="#fff"/><path d="M538.87,118c0-14.1-10-24.27-24.7-24.27h-17.3v48.4h17.37C529.11,142.17,538.87,132.14,538.87,118Zm-25,16.87h-8.61V101h8.54c10.18,0,16.51,7.13,16.51,17S524.05,134.91,513.87,134.91Z" transform="translate(0.03)" fill="#fff"/><path d="M561.08,109.58c-9.61,0-16.37,7.33-16.37,16.65,0,10,7,16.87,17.15,16.87a18.7,18.7,0,0,0,12.39-4.41l-3.28-5a12,12,0,0,1-8.4,3c-5.1,0-9.1-2.71-10.1-7.83h22.77a32.74,32.74,0,0,0,.29-3.7C575.53,115.62,570.05,109.57,561.08,109.58Zm-8.54,14c.85-4.91,4.2-7.69,8.39-7.69s7,2.64,7.26,7.69Z" transform="translate(0.03)" fill="#fff"/><path d="M596.56,124.66a42.22,42.22,0,0,0-2,6,34.08,34.08,0,0,0-2-6l-6.19-14.24h-8.54v.22l15,31.81h3.34l15.09-31.81v-.22h-8.58Z" transform="translate(0.03)" fill="#fff"/><path d="M629.13,109.58c-9.61,0-16.37,7.33-16.37,16.65,0,10,7,16.87,17.16,16.87a18.69,18.69,0,0,0,12.38-4.41l-3.27-5a12,12,0,0,1-8.4,3c-5.11,0-9.11-2.71-10.11-7.83H643.3a35.22,35.22,0,0,0,.28-3.7C643.58,115.62,638.1,109.57,629.13,109.58Zm-8.54,14c.86-4.91,4.33-7.69,8.39-7.69s7,2.64,7.26,7.69Z" transform="translate(0.03)" fill="#fff"/><polygon points="650.52 90.92 650.52 142.17 658.35 142.17 658.28 90.92 650.52 90.92" fill="#fff"/><path d="M682.44,109.57c-10,0-17,6.9-17,16.73s7,16.79,17,16.79,17.09-7,17.09-16.79S692.44,109.57,682.44,109.57Zm0,26.62c-5.41,0-9.18-4.05-9.18-9.89s3.7-9.9,9.18-9.9,9.18,4.06,9.18,9.9h0C691.68,132.13,687.86,136.19,682.45,136.19Z" transform="translate(0.03)" fill="#fff"/><path d="M725,109.64a14,14,0,0,0-11.53,5.62L712,110.42h-5.27v47.41h7.74V146.08c0-2.77,0-5.33-.15-7.54A14.49,14.49,0,0,0,725,143c8.83,0,15.16-6.9,15.16-16.8C740.11,116.61,733.68,109.64,725,109.64Zm-1.66,26.58c-5.41,0-9.18-4-9.18-10,0-5.83,3.84-9.75,9.18-9.75s8.9,4,8.9,9.9h0C732.21,132.13,728.72,136.22,723.31,136.22Z" transform="translate(0.03)" fill="#fff"/><path d="M784.22,109.57a11.5,11.5,0,0,0-10.32,5.62c-1.64-3.49-5-5.62-9.54-5.62a11.11,11.11,0,0,0-10.11,5.91l-1.57-5.06h-5.3v31.72h7.8v-17c0-4.27,2.16-8.62,7-8.62,3.49,0,5.2,2.73,5.2,6v19.64h7.69v-17c0-4.27,2.2-8.62,7.11-8.62,3.13,0,5.13,2.21,5.13,6v19.58h7.76V121.74C795.07,114.27,791.15,109.57,784.22,109.57Z" transform="translate(0.03)" fill="#fff"/><path d="M818.13,109.58c-9.6,0-16.37,7.33-16.37,16.65,0,10,7,16.87,17.16,16.87a18.69,18.69,0,0,0,12.38-4.41l-3.27-5a12,12,0,0,1-8.4,3c-5.11,0-9.11-2.71-10.11-7.83H832.3a35.24,35.24,0,0,0,.29-3.7C832.59,115.62,827.1,109.57,818.13,109.58Zm-8.54,14c.86-4.91,4.34-7.69,8.4-7.69s7,2.64,7.26,7.69Z" transform="translate(0.03)" fill="#fff"/><path d="M857,109.59a12.17,12.17,0,0,0-10.67,5.83l-1.57-5h-5.27v31.75h7.76V124.73c0-4.7,2.92-8.19,7.76-8.19,3.84,0,5.41,2.48,5.41,6.48v19.15h7.76V122.31C868.18,114.19,864.26,109.57,857,109.59Z" transform="translate(0.03)" fill="#fff"/><path d="M890.1,135.71c-2.06,0-3.48-.87-3.48-4V117h9.82v-6.62h-9.82V100.24h-7.55l-.21,10.18h-5.63v6.19l5.63.43v15.45c0,7.12,3.82,10.39,9.46,10.34a17.4,17.4,0,0,0,9.61-2.92l-2.49-5.83A9.59,9.59,0,0,1,890.1,135.71Z" transform="translate(0.03)" fill="#fff"/><path d="M939,93.77H920.43l0,48.4h8.4V124.52h10c10.67,0,16.37-7.2,16.37-15.17S949.4,93.77,939,93.77Zm-1.07,23.6h-9.11V101.14h9.32c5.34,0,8.62,3.63,8.62,8.18C946.77,113.45,944.06,117.37,937.94,117.37Z" transform="translate(0.03)" fill="#fff"/><path d="M967.44,115.12l-1.49-4.7h-5.27V142.2h7.8V124.9c0-5.08,3.06-8,7.55-8a11.83,11.83,0,0,1,4.12.71l2-6.55a10.86,10.86,0,0,0-5.52-1.35A9.79,9.79,0,0,0,967.44,115.12Z" transform="translate(0.03)" fill="#fff"/><path d="M1000.68,109.57c-10,0-17,6.9-17,16.73s7,16.79,17,16.79,17.08-7,17.08-16.79S1010.68,109.57,1000.68,109.57Zm0,26.62c-5.41,0-9.18-4.05-9.18-9.89s3.7-9.9,9.18-9.9,9.18,4.06,9.18,9.9h0C1009.91,132.13,1006.1,136.19,1000.69,136.19Z" transform="translate(0.03)" fill="#fff"/><path d="M1029.13,94.41a4.84,4.84,0,0,0-4.84,4.84c0,.1,0,.21,0,.31a4.51,4.51,0,0,0,4.76,4.24c3,0,4.91-2,4.91-4.55A4.84,4.84,0,0,0,1029.13,94.41Z" transform="translate(0.03)" fill="#fff"/><path d="M1025.22,142.52c0,6.13-1.43,9-8.12,9.54l1,6.62c11.32-.57,14.88-5.76,14.88-16.16v-32.1h-7.76Z" transform="translate(0.03)" fill="#fff"/><path d="M1056.47,109.58c-9.61,0-16.38,7.33-16.38,16.65,0,10,7,16.87,17.16,16.87a18.7,18.7,0,0,0,12.39-4.41l-3.28-5a12,12,0,0,1-8.4,3c-5.11,0-9.11-2.71-10.11-7.83h22.78a35.24,35.24,0,0,0,.29-3.7C1070.92,115.62,1065.44,109.57,1056.47,109.58Zm-8.54,14c.85-4.91,4.32-7.69,8.38-7.69s7,2.64,7.27,7.69Z" transform="translate(0.03)" fill="#fff"/><path d="M1093,136.33c-5.13,0-9.33-3.74-9.33-10,0-6.09,4.13-10,9.47-10a10.52,10.52,0,0,1,7.47,2.7l3.78-5.19a17.16,17.16,0,0,0-11.82-4.27c-9.11,0-16.73,6.33-16.73,16.73,0,11.07,8.33,16.79,16.37,16.86a17.2,17.2,0,0,0,12.82-4.91l-3.92-5.19A10.92,10.92,0,0,1,1093,136.33Z" transform="translate(0.03)" fill="#fff"/><path d="M1129.58,134.08a9.59,9.59,0,0,1-5.34,1.63c-2.07,0-3.49-.87-3.49-4V117h9.82v-6.62h-9.82V100.24h-7.55l-.21,10.18h-5.62v6.19l5.62.43v15.45c0,7.12,3.77,10.39,9.47,10.34a17.4,17.4,0,0,0,9.61-2.92Z" transform="translate(0.03)" fill="#fff"/><path d="M321.32,225.48c-9.82,0-16.44-7.69-16.44-17.58,0-10.18,6.83-17.44,16.72-17.44a19.18,19.18,0,0,1,13.67,5.19l4.34-5.69a25.2,25.2,0,0,0-18.22-7.12c-14.66,0-25.13,10.53-25.13,25.06,0,13.95,10,25.19,24.92,25.15a24.11,24.11,0,0,0,19.5-9l-5.27-5.41A17,17,0,0,1,321.32,225.48Z" transform="translate(0.03)" fill="#fff"/><path d="M385,214.44c0,7.37-4.42,11-11,11s-11-3.59-11-11V183.77h-8.4V215c0,11.61,8.27,18.08,19.44,18.08s19.36-6.47,19.36-18.08V183.77H385Z" transform="translate(0.03)" fill="#fff"/><path d="M430.16,183.77H411.59l0,48.4H420V214.52h10c10.68,0,16.37-7.2,16.37-15.17S440.56,183.77,430.16,183.77Zm-1.06,23.6H420V191.19h9.33c5.34,0,8.61,3.63,8.61,8.18C437.92,203.45,435.22,207.37,429.1,207.37Z" transform="translate(0.03)" fill="#fff"/><path d="M478.57,183.77h-17.3v48.4h17.41c14.84,0,24.59-10,24.59-24.13S493.23,183.77,478.57,183.77Zm-.3,41.14h-8.59V191h8.52c10.17,0,16.51,7.18,16.51,17S488.45,224.91,478.27,224.91Z" transform="translate(0.03)" fill="#fff"/><path d="M538.15,183.77H519.58v48.4H528V214.52h10c10.68,0,16.37-7.2,16.37-15.17S548.55,183.77,538.15,183.77Zm-1.06,23.6H528V191.19h9.33c5.34,0,8.61,3.63,8.61,8.18C545.91,203.45,543.21,207.37,537.09,207.37Z" transform="translate(0.03)" fill="#fff"/></svg>