<svg xmlns="http://www.w3.org/2000/svg" xmlns:xlink="http://www.w3.org/1999/xlink" viewBox="0 0 256.61 140.03"><defs><mask id="mask" x="0" y="0" width="135.26" height="140.03" maskUnits="userSpaceOnUse"><g transform="translate(6.02 6.01)"><g id="mask-2" data-name="mask"><g id="path-5-inside-1_899_3964" data-name="path-5-inside-1 899 3964"><path d="M123,39.22a64,64,0,1,0,.24,49L93.62,76.1a32,32,0,1,1-.12-24.49Z" fill="#fff"/></g></g></g></mask><linearGradient id="linear-gradient" x1="-6.95" y1="183.04" x2="134.95" y2="200.98" gradientTransform="translate(0 -128)" gradientUnits="userSpaceOnUse"><stop offset="0" stop-color="#69519d"/><stop offset="1" stop-color="#867cff"/></linearGradient></defs><path d="M126.3,38.56a64.07,64.07,0,0,1,1.31,49.72L90.79,74.36a25.71,25.71,0,0,0-.53-20Z" transform="translate(6.02 6.01)" fill="#268b9a"/><g mask="url(#mask)"><path d="M123,39.22a64,64,0,1,0,.24,49L93.62,76.1a32,32,0,1,1-.12-24.49Z" transform="translate(6.02 6.01)" fill-opacity="0.85" stroke="#fff" stroke-linejoin="round" stroke-width="12" fill="url(#linear-gradient)"/></g>
<text id="total" transform="translate(52.31 77.43)" font-size="20" fill="#815cd1" font-family="GraphikLCG-Medium, Graphik LCG" font-weight="500" style="isolation:isolate">427</text>
<text id="members" transform="translate(104.2 76.79)" font-size="18" fill="#fff" font-family="GraphikLCG-Medium, Graphik LCG" font-weight="500" style="isolation:isolate">219</text>
<text id="total-text" transform="translate(149.63 40.5)" font-size="14" fill="#815cd1" font-family="GraphikLCG-Medium, Graphik LCG" font-weight="500" style="isolation:isolate">всього членів</text>
<text id="member-text-2" transform="translate(146.63 96.5)" font-size="14" fill="#268b9a" font-family="GraphikLCG-Medium, Graphik LCG" font-weight="500" style="isolation:isolate">в IAWP</text>
<text id="member-text" transform="translate(146.63 76.5)" font-size="14" fill="#268b9a" font-family="GraphikLCG-Medium, Graphik LCG" font-weight="500" style="isolation:isolate">мають членство</text>
</svg>
