<svg xmlns="http://www.w3.org/2000/svg" viewBox="0 0 254 130"><defs><mask id="mask" x="-6" y="-6" width="135.25" height="140" maskUnits="userSpaceOnUse"><g id="path-5-inside-1_899_3964" data-name="path-5-inside-1 899 3964"><path d="M123,39.22a64,64,0,1,0,.24,49L93.62,76.1a32,32,0,1,1-.12-24.49Z" fill="#fff"/></g></mask><linearGradient id="linear-gradient" x1="-6.95" y1="76.97" x2="134.95" y2="59.03" gradientTransform="matrix(1, 0, 0, -1, 0, 132)" gradientUnits="userSpaceOnUse"><stop offset="0" stop-color="#69519d"/><stop offset="1" stop-color="#867cff"/></linearGradient></defs><path d="M126.3,38.56a64.07,64.07,0,0,1,1.31,49.72L90.79,74.36a25.74,25.74,0,0,0-.53-20Z" fill="#268b9a"/><g mask="url(#mask)"><path d="M123,39.22a64,64,0,1,0,.24,49L93.62,76.1a32,32,0,1,1-.12-24.49Z" fill-opacity="0.85" stroke="#fff" stroke-linejoin="round" stroke-width="12" fill="url(#linear-gradient)"/></g><g style="isolation:isolate"><path d="M141.62,83.17h3c1.78,0,2.67.61,2.67,1.84v0a1.51,1.51,0,0,1-1.3,1.61c1.08.23,1.62.78,1.62,1.66v0a1.91,1.91,0,0,1-.71,1.6,3.2,3.2,0,0,1-2,.55h-3.22Zm1.7,1.14v1.86h1a1.4,1.4,0,0,0,.89-.23.9.9,0,0,0,.28-.74v0a.72.72,0,0,0-.3-.67,1.75,1.75,0,0,0-.93-.19Zm0,3v2.06h1.2c.88,0,1.31-.34,1.31-1v0c0-.68-.41-1-1.25-1Z" fill="#268b9a"/><path d="M152.71,80.48h1.87v10h-1.87Z" fill="#268b9a"/><path d="M159.58,80.48H162l3.3,10h-1.93l-.8-2.47h-3.82L158,90.49h-1.75Zm-.37,6.18h2.95L160.69,82Z" fill="#268b9a"/><path d="M165.49,80.48h1.9l1.74,7.35,2-7.35h1.54l2,7.4,1.8-7.4h1.73l-2.5,10h-1.87l-2-7.29-2,7.29H168Z" fill="#268b9a"/><path d="M179.7,80.48h3.22a4.26,4.26,0,0,1,2.72.79,2.76,2.76,0,0,1,1,2.31v0a2.71,2.71,0,0,1-1,2.29,4.31,4.31,0,0,1-2.68.77h-1.4v3.8H179.7Zm3.22,4.86q1.89,0,1.89-1.71v0q0-1.65-1.89-1.65h-1.36v3.41Z" fill="#268b9a"/></g><g id="text">
<text id="total" transform="translate(46.29 71.42)" font-size="20" fill="#815cd1" font-family="GraphikLCG-Medium, Graphik LCG" font-weight="500" style="isolation:isolate">427</text>
<text id="members" transform="translate(98.18 70.78)" font-size="18" fill="#fff" font-family="GraphikLCG-Medium, Graphik LCG" font-weight="500" style="isolation:isolate">219</text>
<text id="total-text" transform="translate(143.61 34.49)" font-size="14" fill="#815cd1" font-family="GraphikLCG-Medium, Graphik LCG" font-weight="500" style="isolation:isolate">всього членів</text>
<text id="member-text" transform="translate(140.61 70.49)" font-size="14" fill="#268b9a" font-family="GraphikLCG-Medium, Graphik LCG" font-weight="500" style="isolation:isolate">мають членство</text>
</g></svg>
