<svg width="128" height="128" viewBox="0 0 128 128" fill="none" xmlns="http://www.w3.org/2000/svg">
<path d="M128 64C128 72.4046 126.345 80.7269 123.128 88.4917C119.912 96.2566 115.198 103.312 109.255 109.255L86.6274 86.6274C89.5989 83.6559 91.956 80.1283 93.5641 76.2459C95.1723 72.3634 96 68.2023 96 64H128Z" fill="#268B9A"/>
<mask id="path-2-inside-1_896_3582" fill="white">
<path d="M128 64C128 49.1933 122.866 34.8446 113.473 23.3988C104.079 11.9531 91.008 4.11839 76.4858 1.22974C61.9636 -1.65891 46.889 0.57719 33.8306 7.55704C20.7722 14.5369 10.538 25.8286 4.87171 39.5083C-0.794582 53.1879 -1.54235 68.409 2.75582 82.5782C7.05398 96.7474 16.1321 108.988 28.4435 117.214C40.7549 125.44 55.5377 129.143 70.2731 127.692C85.0085 126.241 98.7849 119.725 109.255 109.255L86.6274 86.6274C81.3924 91.8624 74.5043 95.1203 67.1365 95.8459C59.7688 96.5716 52.3774 94.7201 46.2217 90.607C40.0661 86.4939 35.527 80.3737 33.3779 73.2891C31.2288 66.2045 31.6027 58.5939 34.4359 51.7541C37.269 44.9143 42.3861 39.2684 48.9153 35.7785C55.4445 32.2886 62.9818 31.1705 70.2429 32.6149C77.504 34.0592 84.0397 37.9765 88.7363 43.6994C93.433 49.4223 96 56.5966 96 64H128Z"/>
</mask>
<path d="M128 64C128 49.1933 122.866 34.8446 113.473 23.3988C104.079 11.9531 91.008 4.11839 76.4858 1.22974C61.9636 -1.65891 46.889 0.57719 33.8306 7.55704C20.7722 14.5369 10.538 25.8286 4.87171 39.5083C-0.794582 53.1879 -1.54235 68.409 2.75582 82.5782C7.05398 96.7474 16.1321 108.988 28.4435 117.214C40.7549 125.44 55.5377 129.143 70.2731 127.692C85.0085 126.241 98.7849 119.725 109.255 109.255L86.6274 86.6274C81.3924 91.8624 74.5043 95.1203 67.1365 95.8459C59.7688 96.5716 52.3774 94.7201 46.2217 90.607C40.0661 86.4939 35.527 80.3737 33.3779 73.2891C31.2288 66.2045 31.6027 58.5939 34.4359 51.7541C37.269 44.9143 42.3861 39.2684 48.9153 35.7785C55.4445 32.2886 62.9818 31.1705 70.2429 32.6149C77.504 34.0592 84.0397 37.9765 88.7363 43.6994C93.433 49.4223 96 56.5966 96 64H128Z" fill="url(#paint0_linear_896_3582)" fill-opacity="0.85" stroke="white" stroke-width="12" stroke-linejoin="round" mask="url(#path-2-inside-1_896_3582)"/>
<path d="M108.075 89.18C106.622 89.18 105.468 88.8467 104.615 88.18C103.762 87.5 103.248 86.5333 103.075 85.28H105.575C105.855 86.5067 106.675 87.12 108.035 87.12C110.102 87.12 111.162 85.4867 111.215 82.22C110.495 83.42 109.322 84.02 107.695 84.02C106.295 84.02 105.155 83.6 104.275 82.76C103.395 81.9067 102.955 80.78 102.955 79.38C102.955 77.9133 103.435 76.7333 104.395 75.84C105.355 74.9333 106.642 74.48 108.255 74.48C110.095 74.48 111.482 75.0667 112.415 76.24C113.362 77.4 113.835 79.0267 113.835 81.12V81.86C113.835 84.22 113.335 86.0333 112.335 87.3C111.348 88.5533 109.928 89.18 108.075 89.18ZM108.255 82.16C109.068 82.16 109.728 81.92 110.235 81.44C110.755 80.9467 111.015 80.3 111.015 79.5C111.015 78.5533 110.762 77.8133 110.255 77.28C109.748 76.7333 109.075 76.46 108.235 76.46C107.435 76.46 106.788 76.72 106.295 77.24C105.815 77.76 105.575 78.4467 105.575 79.3C105.575 80.18 105.815 80.88 106.295 81.4C106.775 81.9067 107.428 82.16 108.255 82.16Z" fill="white"/>
<path d="M53.9949 67.1H46.9149V66.16L53.2349 55.7H56.5749V65.12H58.4949V67.1H56.5749V70H53.9949V67.1ZM54.0349 65.12V57.72L49.7549 65.12H54.0349ZM59.4855 69.52L64.8855 63.82C66.3389 62.2867 67.0655 60.9333 67.0655 59.76C67.0655 59.08 66.8789 58.5467 66.5055 58.16C66.1322 57.7733 65.6055 57.58 64.9255 57.58C63.4455 57.58 62.5922 58.5267 62.3655 60.42H59.9255C60.0189 58.8467 60.5055 57.6333 61.3855 56.78C62.2789 55.9267 63.4855 55.5 65.0055 55.5C66.4722 55.5 67.6255 55.8867 68.4655 56.66C69.3055 57.4333 69.7255 58.4533 69.7255 59.72C69.7255 60.6 69.4855 61.4533 69.0055 62.28C68.5389 63.0933 67.8455 63.9467 66.9255 64.84L63.7455 67.94H69.8255V70H59.4855V69.52ZM77.9685 57.86H71.3085V55.7H81.3085V56.02L76.1085 70H73.3685L77.9685 57.86Z" fill="#815CD1"/>
<defs>
<linearGradient id="paint0_linear_896_3582" x1="0" y1="0" x2="141.908" y2="17.9312" gradientUnits="userSpaceOnUse">
<stop stop-color="#69519D"/>
<stop offset="1" stop-color="#867CFF"/>
</linearGradient>
</defs>
</svg>
