<svg xmlns="http://www.w3.org/2000/svg" viewBox="0 0 746 453.98"><path d="M730.89,466H25.2C19.62,454.64-4.58,403.55,1.55,344.46c2.56-24.58,10.72-50.93,28.26-77.18.5-.76,1-1.5,1.52-2.26a194.91,194.91,0,0,1,15.72-20,151.76,151.76,0,0,1,22.12-20.3,136.54,136.54,0,0,1,18.2-11.5l.29-.15c2.34-1.24,4.66-2.37,7-3.42,4.61-2.1,9.14-3.89,13.62-5.47,6-2.13,12-3.84,17.69-5.36,4.58-1.21,9-2.32,13.32-3.4,26.47-6.62,46.9-12.7,54.27-44.07,20.2-85.85,111.56-93.8,170.2-67s168.46-23.59,258.41,19.19c52.79,25.12,51.55,78.07,48.42,121.17-2.22,30.35-5.38,55.78,8.66,63.11C713.13,305.52,774.08,364,730.89,466Z" transform="translate(0 -12.02)" fill="#815cd1" opacity="0.05" style="isolation:isolate"/><path d="M745.84,400.28c-.22,19.42-4.56,41.32-14.91,65.71H25.15s0,0-.06,0A246,246,0,0,1,7.9,421.54C-3.11,382-8.24,322.67,31.39,265.33c12.37-17.91,25.14-30.78,37.83-40.23h2.72V262H87.71V213.42c2.34-1.24,4.66-2.36,7-3.41,4.6-2.11,9.13-3.89,13.61-5.47,6-2.12,12-3.83,17.69-5.35,4.58-1.21,9-2.31,13.33-3.39v61.6h17.43V247.1l20.56.11V230.54h4.13v-3.31H182v3.31h19.06v-3.31h.55v3.31h3.82V263.7h24.46v12.21H243.5v-7.09h12.62V240.65h6.29V227.52h.95v13.13h15.09V216h1.47v24.61h10V192.39h3v-3.68h.48v3.68h22v-3.68h.47v3.68h4v25.73l2.82,0v0h0v-4.91h0v-3.39h0v-4.91h0v-3.39h0v-4.9h0v0H349.3v0h4.58l.71.39v28.07H374.1v36.86h15.78V193.75h3.42V189h.6v4.77h12.46V189h.6v4.77h17.65V189h.6v4.77H436.3V189h.6v4.77h4.56V257.4h17.43V247.1l20.53.11V230.54h4.14v-3.31h.55v3.31h19v-3.31h.55v3.31h3.82V263.7l-.26,12.21h38.33v-7.09h12.62V240.65h6.29V227.52h1v13.13h15.08V216H582v24.61h10v-.35h0v-3.12h0v-3h0V229.3h0v-3.15h0v-4.91h0v-3.15h0v-4.91h0V209.8h0v-4.91h0v-4.34h0v-4.91h0v-3.25h3v-3.68h.48v3.68h22v-3.68h.47v3.68h4v25.73l2.79,0h0v0h0v-4.91h0v-3.39h0v-4.91h0v-3.39h0v-4.9h0v0h26.7v0h4.58l.71.39v28.07h13.82c-2.21,30.29-5.37,55.68,8.66,63C705,301.5,746.47,338.52,745.84,400.28Z" transform="translate(0 -12.02)" fill="#69519d" fill-opacity="0.6"/><path d="M441.51,194.2H402.12V205h39.39Z" transform="translate(0 -12.02)" fill="#69519d" fill-opacity="0.65"/><path d="M441.51,210.8H402.12v10.79h39.39Z" transform="translate(0 -12.02)" fill="#69519d" fill-opacity="0.65"/><path d="M441.51,227.77H402.12v10.8h39.39Z" transform="translate(0 -12.02)" fill="#69519d" fill-opacity="0.65"/><path d="M441.51,245H402.12v10.8h39.39Z" transform="translate(0 -12.02)" fill="#69519d" fill-opacity="0.65"/><path d="M441.51,261.61H402.12V272.4h39.39Z" transform="translate(0 -12.02)" fill="#69519d" fill-opacity="0.65"/><path d="M610.44,192.83H592.06v6.57h18.38Z" transform="translate(0 -12.02)" fill="#69519d" fill-opacity="0.65"/><path d="M610.44,202.92H592.06v6.56h18.38Z" transform="translate(0 -12.02)" fill="#69519d" fill-opacity="0.65"/><path d="M610.44,213.21H592.06v6.57h18.38Z" transform="translate(0 -12.02)" fill="#69519d" fill-opacity="0.65"/><path d="M610.44,223.7H592.06v6.56h18.38Z" transform="translate(0 -12.02)" fill="#69519d" fill-opacity="0.65"/><path d="M610.44,233.79H592.06v6.56h18.38Z" transform="translate(0 -12.02)" fill="#69519d" fill-opacity="0.65"/><path d="M610.45,244.9H592.07v6.57h18.38Z" transform="translate(0 -12.02)" fill="#69519d" fill-opacity="0.65"/><path d="M610.44,255H592.06v6.57h18.38Z" transform="translate(0 -12.02)" fill="#69519d" fill-opacity="0.65"/><path d="M610.44,265.28H592.06v6.57h18.38Z" transform="translate(0 -12.02)" fill="#69519d" fill-opacity="0.65"/><path d="M610.44,275.77H592.06v6.56h18.38Z" transform="translate(0 -12.02)" fill="#69519d" fill-opacity="0.65"/><path d="M610.44,285.85H592.06v6.57h18.38Z" transform="translate(0 -12.02)" fill="#69519d" fill-opacity="0.65"/><path d="M644.46,197.14H624.77v6.56h19.69Z" transform="translate(0 -12.02)" fill="#69519d" fill-opacity="0.65"/><path d="M644.46,207.23H624.77v6.56h19.69Z" transform="translate(0 -12.02)" fill="#69519d" fill-opacity="0.65"/><path d="M644.46,217.52H624.77v6.57h19.69Z" transform="translate(0 -12.02)" fill="#69519d" fill-opacity="0.65"/><path d="M644.46,228H624.77v6.57h19.69Z" transform="translate(0 -12.02)" fill="#69519d" fill-opacity="0.65"/><path d="M644.46,238.09H624.77v6.57h19.69Z" transform="translate(0 -12.02)" fill="#69519d" fill-opacity="0.65"/><path d="M644.46,248.6H624.77v6.57h19.69Z" transform="translate(0 -12.02)" fill="#69519d" fill-opacity="0.65"/><path d="M644.46,258.72H624.77v6.57h19.69Z" transform="translate(0 -12.02)" fill="#69519d" fill-opacity="0.65"/><path d="M644.46,269H624.77v6.56h19.69Z" transform="translate(0 -12.02)" fill="#69519d" fill-opacity="0.65"/><path d="M644.46,279.47H624.77V286h19.69Z" transform="translate(0 -12.02)" fill="#69519d" fill-opacity="0.65"/><path d="M644.46,289.56H624.77v6.57h19.69Z" transform="translate(0 -12.02)" fill="#69519d" fill-opacity="0.65"/><path d="M644.46,301.14H624.77v6.57h19.69Z" transform="translate(0 -12.02)" fill="#69519d" fill-opacity="0.65"/><path d="M644.46,311.23H624.77v6.57h19.69Z" transform="translate(0 -12.02)" fill="#69519d" fill-opacity="0.65"/><path d="M644.46,321.53H624.77v6.57h19.69Z" transform="translate(0 -12.02)" fill="#69519d" fill-opacity="0.65"/><path d="M644.46,332H624.77v6.57h19.69Z" transform="translate(0 -12.02)" fill="#69519d" fill-opacity="0.65"/><path d="M644.46,342.1H624.77v6.57h19.69Z" transform="translate(0 -12.02)" fill="#69519d" fill-opacity="0.65"/><path d="M126,199.6V205H108.3C114.35,202.84,120.28,201.13,126,199.6Z" transform="translate(0 -12.02)" fill="#69519d" fill-opacity="0.65"/><path d="M126,210.46v10.79H87.68V213.9c2.34-1.24,4.66-2.37,7-3.42H126Z" transform="translate(0 -12.02)" fill="#69519d" fill-opacity="0.65"/><path d="M126,227.4H87.68v10.8H126Z" transform="translate(0 -12.02)" fill="#69519d" fill-opacity="0.65"/><path d="M126,244.63H87.68v10.8H126Z" transform="translate(0 -12.02)" fill="#69519d" fill-opacity="0.65"/><path d="M126,261.26H87.68v10.8H126Z" transform="translate(0 -12.02)" fill="#69519d" fill-opacity="0.65"/><path d="M309.33,192.83H289.64v6.57h19.69Z" transform="translate(0 -12.02)" fill="#69519d" fill-opacity="0.65"/><path d="M309.33,202.92H289.64v6.56h19.69Z" transform="translate(0 -12.02)" fill="#69519d" fill-opacity="0.65"/><path d="M309.33,213.21H289.64v6.57h19.69Z" transform="translate(0 -12.02)" fill="#69519d" fill-opacity="0.65"/><path d="M309.33,223.7H289.64v6.56h19.69Z" transform="translate(0 -12.02)" fill="#69519d" fill-opacity="0.65"/><path d="M309.33,233.79H289.64v6.56h19.69Z" transform="translate(0 -12.02)" fill="#69519d" fill-opacity="0.65"/><path d="M309.33,244.9H289.64v6.57h19.69Z" transform="translate(0 -12.02)" fill="#69519d" fill-opacity="0.65"/><path d="M309.33,255H289.64v6.57h19.69Z" transform="translate(0 -12.02)" fill="#69519d" fill-opacity="0.65"/><path d="M309.33,265.28H289.64v6.57h19.69Z" transform="translate(0 -12.02)" fill="#69519d" fill-opacity="0.65"/><path d="M309.33,275.77H289.64v6.56h19.69Z" transform="translate(0 -12.02)" fill="#69519d" fill-opacity="0.65"/><path d="M309.33,285.85H289.64v6.57h19.69Z" transform="translate(0 -12.02)" fill="#69519d" fill-opacity="0.65"/><path d="M345.38,197.14H323v6.56h22.38Z" transform="translate(0 -12.02)" fill="#69519d" fill-opacity="0.65"/><path d="M345.38,207.23H323v6.56h22.38Z" transform="translate(0 -12.02)" fill="#69519d" fill-opacity="0.65"/><path d="M345.38,217.52H323v6.57h22.38Z" transform="translate(0 -12.02)" fill="#69519d" fill-opacity="0.65"/><path d="M345.38,228H323v6.57h22.38Z" transform="translate(0 -12.02)" fill="#69519d" fill-opacity="0.65"/><path d="M345.38,238.09H323v6.57h22.38Z" transform="translate(0 -12.02)" fill="#69519d" fill-opacity="0.65"/><path d="M345.38,248.6H323v6.57h22.38Z" transform="translate(0 -12.02)" fill="#69519d" fill-opacity="0.65"/><path d="M345.38,258.72H323v6.57h22.38Z" transform="translate(0 -12.02)" fill="#69519d" fill-opacity="0.65"/><path d="M345.38,269H323v6.56h22.38Z" transform="translate(0 -12.02)" fill="#69519d" fill-opacity="0.65"/><path d="M345.38,279.47H323V286h22.38Z" transform="translate(0 -12.02)" fill="#69519d" fill-opacity="0.65"/><path d="M345.38,289.56H323v6.57h22.38Z" transform="translate(0 -12.02)" fill="#69519d" fill-opacity="0.65"/><path d="M345.38,301.14H323v6.57h22.38Z" transform="translate(0 -12.02)" fill="#69519d" fill-opacity="0.65"/><path d="M345.38,311.23H323v6.57h22.38Z" transform="translate(0 -12.02)" fill="#69519d" fill-opacity="0.65"/><path d="M345.38,321.53H323v6.57h22.38Z" transform="translate(0 -12.02)" fill="#69519d" fill-opacity="0.65"/><path d="M345.38,332H323v6.57h22.38Z" transform="translate(0 -12.02)" fill="#69519d" fill-opacity="0.65"/><path d="M345.38,342.1H323v6.57h22.38Z" transform="translate(0 -12.02)" fill="#69519d" fill-opacity="0.65"/><path d="M509.12,466H485.45c-1.26-1.05.87-3.49,3.12-3.65a13.28,13.28,0,0,1,3.6.43c.33-4.28,2.19-23.52,9.19-22.76,7.87.87,0,8.47-2.22,13A110.9,110.9,0,0,0,495,463.4l2,.41c1-3.17,4.92-13.86,9.87-13.23,5.8.73,3.47,5-.63,7.54-3,1.87-6.72,4.52-8.47,5.82a25.28,25.28,0,0,0,4.62.38C506.39,464.19,508.36,465.38,509.12,466Z" transform="translate(0 -12.02)" fill="#69519d" fill-opacity="0.9"/><path d="M239.15,464.77c-1.42-2.18-5.71-7.87-11.45-7.12-6.24.83,6.89,4.83,10.9,7.12a6.59,6.59,0,0,1-2.21-.26c-2.68-.94-7.27.85-8.75,1.49h25.57a4,4,0,0,0-1.84-2.29,4.72,4.72,0,0,0-2.35-.22c1.53-1.76,2.57-7.33-1.67-5.89-3.09,1-3.09,4.45-2.78,6.48-.66.11-1.32.21-2,.29-1.28-6.32-5.77-24.88-14.9-25.36s7.84,19.23,13.53,25.55A13.2,13.2,0,0,1,239.15,464.77Z" transform="translate(0 -12.02)" fill="#69519d" fill-opacity="0.9"/><path d="M168,466H25.26a240.7,240.7,0,0,1-17.2-44,35.65,35.65,0,0,1,12.46,4.61c18.51,11.46,16.09,26.73,39,21.15s41.84-7.94,52.11,0,17.8,4.8,30.57,4.75C152.83,452.43,168,454.43,168,466Z" transform="translate(0 -12.02)" fill="#69519d" fill-opacity="0.9"/><path d="M96.11,268.15c-11.72,14-22,6.85-37.18,3.25a57.4,57.4,0,0,0-11.3-1.6c-1.05,0-2.21,0-3.37,0A49.16,49.16,0,0,1,29.86,268c.5-.76,1-1.5,1.53-2.26a191.84,191.84,0,0,1,15.72-20,151.57,151.57,0,0,1,22.11-20.28,136.44,136.44,0,0,1,18.2-11.49,92.08,92.08,0,0,1,10.64,24C101.37,250.41,101.29,261.92,96.11,268.15Z" transform="translate(0 -12.02)" fill="#69519d" fill-opacity="0.9"/><path d="M111.25,331.27c-1,13.66-14.48,23.44-28.76,22.52A29.28,29.28,0,0,1,69.88,350c-17.8-10.22-27.91-7.8-50.63-3.5a35.74,35.74,0,0,1-17.64-1.36C4.16,320.56,12.32,294.23,29.86,268c.5-.76,1-1.49,1.53-2.25a192,192,0,0,1,15.72-20c1.42,3.7,2.87,7.51,4.45,11.27a85.17,85.17,0,0,0,7.37,14.32c4.32,6.54,9.87,11.87,17.61,14.66,13,4.67,21.57,10.56,26.89,17.2C110.25,311.7,112,321.37,111.25,331.27Z" transform="translate(0 -12.02)" fill="#69519d" fill-opacity="0.7"/><path d="M241.11,116.54s4.92-7.67,16.72-6.83c0,0,17.11-12.8,35.38-1.71,0,0,19.41-2.76,33.79,2.39,9.58,3.42,12.74,7,12.74,7Z" transform="translate(0 -12.02)" fill="#69519d" fill-opacity="0.15"/><path d="M467.79,132.49s5.26-9.44,17.9-8.39c0,0,18.33-15.71,37.86-2.1,0,0,20.78-3.36,36.15,2.92,10.27,4.2,13.64,8.59,13.64,8.59Z" transform="translate(0 -12.02)" fill="#69519d" fill-opacity="0.15"/><path d="M273,154s7.61-12.74,25.83-11.33c0,0,26.44-21.22,54.63-2.83,0,0,30-4.58,52.17,3.94,14.79,5.67,19.69,11.61,19.69,11.61Z" transform="translate(0 -12.02)" fill="#69519d" fill-opacity="0.15"/><path d="M746,401c-.21,19.22-4.55,40.88-14.9,65h-159c4.19-19.42,44.42-16.91,58.9-18.44s14.19-31.39,39.29-31.08,42.52,7.4,58.55-7.3C733.26,405.13,739.39,402.58,746,401Z" transform="translate(0 -12.02)" fill="#69519d" fill-opacity="0.8"/><path d="M332.15,91.63a21.22,21.22,0,0,0,5.92,9.64c5,4.51,1.09,10.73-3,15.86s3.12,8.39,3.12,8.39-3.74,8.09-25.09,8.09-25.25-9-25.25-9,1.09-2.49,2-5.29-4.83-7-5.15-13.06c-.15-5.91,7.17-8.08,8.58-15.23S332.15,91.63,332.15,91.63Z" transform="translate(0 -12.02)" fill="#8b383e"/><path d="M284.77,129.72c-5.14-.93-47.69,2.33-47.69,2.33,10.13-4,29.62-22.7,39.43-26.59l-5.3-5.44s-31.63,13.69-42.07,21.46c-5.61,4.2-13.56,12.44-9.67,18s29,10,58.76,13.37Z" transform="translate(0 -12.02)" fill="#ffc3ba"/><path d="M287.89,130s-10.13-1.09-15.74-1.09-22.75,2.18-22.75,2.18-.47,15.23,6.39,22.85c0,0,14.33,1.56,23.06,9.64Z" transform="translate(0 -12.02)" fill="#0d527c"/><path d="M347,133.6c10.91,5.14,10.91,26.59,8.89,67.79,0,0,2.33,23.63,2.65,34.51s-1.87,54.73-1.87,54.73l-6.7,1.55s-5.15-41.35-6.55-54.72a163.72,163.72,0,0,1-.16-27.36s-1.4-11.82-3-31.25S347,133.6,347,133.6Z" transform="translate(0 -12.02)" fill="#ffc3ba"/><path d="M347,133.6s13.24,2.34,11.37,41.05c0,0-8.72,11.5-22.13,10.11C323,183.51,347,133.6,347,133.6Z" transform="translate(0 -12.02)" fill="#0d527c"/><path d="M272,250.05a133.82,133.82,0,0,1,19.8-40l19.79,3.26.15-.31,1.56.31h.16l20.41,4a184,184,0,0,1,14.66,39.49c5.92,23.17-13.25,81.62-13.25,81.62s12.93,32-9.82,103.55L314.7,440.5s.93-92.19-.63-102c-1.4-8.55-3.11-39.8-2.18-63.58a15.91,15.91,0,0,1-3.9.31c0,23.94-1.09,55-2.8,63.43-1.87,9.79-2.49,102.14-2.49,102.14l-12.32,1.25c-20.41-72.3-6.54-104-6.54-104S265.45,272.91,272,250.05Z" transform="translate(0 -12.02)" fill="#0e3944"/><path d="M334.18,219a50.22,50.22,0,0,1-45.2-.31s-18.39-80.22-11.84-86.91c2.8-3,9.66-2.18,16.36-.47A125.44,125.44,0,0,1,311,137.65s13.55-4.51,24.77-5.29c7.17-.46,13.25.47,14.34,5.13C353,149.31,334.18,219,334.18,219Z" transform="translate(0 -12.02)" fill="#105e99"/><path d="M304.41,111.22s5.61,21.3.15,25.49c0,0,5.93,7.47,17,.31,0,0-4.05-10.72,1.56-25.34C326.85,101.73,304.41,111.22,304.41,111.22Z" transform="translate(0 -12.02)" fill="#f2ada2"/><path d="M330.12,100.64s5-4.82,5.61.94c.63,6.68-5.45,9.32-6.54,7.15C327.78,106.55,330.12,100.64,330.12,100.64Z" transform="translate(0 -12.02)" fill="#ffc3ba"/><path d="M295.52,100.65s-4.83-5-5.61.77c-.77,6.69,5.3,9.33,6.55,7.31C297.55,106.55,295.52,100.65,295.52,100.65Z" transform="translate(0 -12.02)" fill="#ffc3ba"/><path d="M313.14,124.59c10.91.15,17.14-7,17.29-28.46.16-11-5.45-17.87-17.76-18s-17.46,6.69-17.61,17.72C294.9,118.83,301.76,124.43,313.14,124.59Z" transform="translate(0 -12.02)" fill="#ffc3ba"/><path d="M298.64,103.6a2.47,2.47,0,0,0,2.18,2.49,2.21,2.21,0,0,0,2.81-1.56,2.47,2.47,0,0,0-2.18-2.49A2.36,2.36,0,0,0,298.64,103.6Z" transform="translate(0 -12.02)" fill="#ed93a4"/><path d="M321.24,104.38a2.25,2.25,0,0,0,2.65,1.86c1.4-.16,2.49-1.09,2.34-2.18a2.56,2.56,0,0,0-5,.32Z" transform="translate(0 -12.02)" fill="#ed93a4"/><path d="M303.47,92.4a.39.39,0,0,0,.63-.15,6.67,6.67,0,0,1,4.2-1.56c.32,0,.63-.15.63-.46s-.16-.62-.47-.62a6.82,6.82,0,0,0-5,1.86A.58.58,0,0,0,303.47,92.4Z" transform="translate(0 -12.02)" fill="#8b383e"/><path d="M319.52,90.85h.32a6.69,6.69,0,0,1,4.21,1.56.72.72,0,0,0,.77,0,.69.69,0,0,0,0-.78,6.84,6.84,0,0,0-5-1.87c-.32,0-.47.31-.47.62C319.21,90.54,319.37,90.7,319.52,90.85Z" transform="translate(0 -12.02)" fill="#8b383e"/><path d="M303.79,98.31c0,1.4.62,2.49,1.4,2.49s1.4-1.09,1.4-2.49-.62-2.48-1.4-2.48S303.79,96.91,303.79,98.31Z" transform="translate(0 -12.02)" fill="#1a4850"/><path d="M319.21,98.31c0,1.4.63,2.49,1.41,2.49s1.4-1.09,1.4-2.49-.62-2.49-1.4-2.49S319.21,96.91,319.21,98.31Z" transform="translate(0 -12.02)" fill="#1a4850"/><path d="M317.81,111.53s-6.86.93-10.29-.94c0,0,2.18,3.42,5.93,3.11C317.19,113.24,317.81,111.53,317.81,111.53Z" transform="translate(0 -12.02)" fill="#1a4850"/><path d="M307.52,97.69s-.93-3.42-2.33-3.11c-1.25.16-2.34,3.11-2.34,3.11L301,96.6l1.87.31s1.09-3,2.34-3C307.21,93.8,307.52,97.69,307.52,97.69Z" transform="translate(0 -12.02)" fill="#1a4850"/><path d="M318.28,98.16s1.09-3.27,2.33-3.11c1.25.31,2.34,3.11,2.34,3.11l2-1.09-1.87.31s-.94-2.95-2.34-2.95C318.74,94.43,318.28,98.16,318.28,98.16Z" transform="translate(0 -12.02)" fill="#1a4850"/><path d="M295.37,103.75s2.8-9.17,3.12-16.32c0,0,3-6.84,14.18-7S327,88.21,327,88.21s1.24,10.1,2.8,17.1a19.19,19.19,0,0,1,2.34-6.22s3.58-20.83-19.64-23.63c-23.06-2.8-19.32,23.79-19.32,23.79S294.43,99.4,295.37,103.75Z" transform="translate(0 -12.02)" fill="#8b383e"/><path d="M312.36,105.93a1.14,1.14,0,0,0,.78.31l.31-1.09a1.56,1.56,0,0,1-1.25-1.4,1.76,1.76,0,0,1,.78-1.39.81.81,0,0,1,.62.46l.94-.62c-.78-1.09-1.56-1.09-2-.93a2.61,2.61,0,0,0-1.56,2.48A3,3,0,0,0,312.36,105.93Z" transform="translate(0 -12.02)" fill="#ed93a4"/><path d="M293.65,87.74s-6.7-2.33-6.39-4.35,9.35-13.06,10.45-13.06S311.11,61,313.6,61s13.56,9,15.74,10.11,8.11,9.79,9.67,12.28-7.64,4.82-7.64,4.82S315,80.9,293.65,87.74Z" transform="translate(0 -12.02)" fill="#105e99"/><path d="M293,87.43A29.35,29.35,0,0,1,313.91,80c12.94.46,18.24,7.93,18.24,7.93v3.73s-4.21-4.82-19-5.29S293.34,91,293.34,91Z" transform="translate(0 -12.02)" fill="#072228"/><path d="M295.21,89.76A39.7,39.7,0,0,0,313.45,94c10.91,0,17-3.42,17-3.42s-5.92-5.91-17.29-5.91S295.21,89.76,295.21,89.76Z" transform="translate(0 -12.02)" fill="#0e3944"/><path d="M308.77,71.26l8.57.47a7,7,0,0,1-5.14,7.46A6.94,6.94,0,0,1,308.77,71.26Z" transform="translate(0 -12.02)" fill="#f2a668"/><path d="M312.2,78.57a6.51,6.51,0,0,1-3.12-6.84l7.64.46C316.88,73.28,316.56,77,312.2,78.57Z" transform="translate(0 -12.02)" fill="#ffb878"/><path d="M334.18,217.4s-29.46,8.71-45.82-2.33l-2.81,4.35s4.83,9,24.31,9,26.5-6.68,26.5-6.68Z" transform="translate(0 -12.02)" fill="#072228"/><path d="M304.57,228.6H316.1a1.07,1.07,0,0,0,1.09-1.09v-7a1.07,1.07,0,0,0-1.09-1.09H304.57a1.06,1.06,0,0,0-1.09,1.09v7A1.06,1.06,0,0,0,304.57,228.6Z" transform="translate(0 -12.02)" fill="#cfd8dc"/><path d="M298,219.27s-1.87,3.11-2.34,9.33l-2.8-.78s0-6.69,3-9.33Z" transform="translate(0 -12.02)" fill="#0e3944"/><path d="M324.2,219.27s1.87,3.11,2.34,9.33l2.81-.78s0-6.69-3-9.33Z" transform="translate(0 -12.02)" fill="#0e3944"/><path d="M329.19,439.73s-1.41,8.08.15,13.52c.94,3.27,4.68,7.46,2.34,12.75H309.86a10.67,10.67,0,0,1,1.72-11.35c2.65-3.11,2-17.26,2-17.26,2.5.47,2,2.34,2,2.34s-.62-6.69,5-5.76c6.71,1.09,5.62,7,5.62,7A2,2,0,0,1,329.19,439.73Z" transform="translate(0 -12.02)" fill="#072228"/><path d="M330.28,457.76S323.73,450,312,456.2c0,0-.15,5.45,5.61,4.51S326.85,463.82,330.28,457.76Z" transform="translate(0 -12.02)" fill="#0e3944"/><path d="M288.82,439.73s1.41,8.08-.15,13.52c-.94,3.27-4.68,7.46-2.34,12.75h21.82a10.67,10.67,0,0,0-1.72-11.35c-2.64-3.11-2-17.26-2-17.26-2.49.47-2,2.34-2,2.34s.63-6.69-5-5.76c-6.71,1.09-5.61,7-5.61,7A2.05,2.05,0,0,0,288.82,439.73Z" transform="translate(0 -12.02)" fill="#072228"/><path d="M287.73,457.76S294.28,450,306,456.2c0,0,.15,5.45-5.61,4.51S291.16,463.82,287.73,457.76Z" transform="translate(0 -12.02)" fill="#0e3944"/><path d="M306.12,132.05s3.12,5.44,6.71,7.93c0,0,5.29-3.42,7.63-7.93l3,2.18s.94,4.51-5.61,12.9l-5-5.28-6.71,5.28s-5.14-8.55-5.76-13.84Z" transform="translate(0 -12.02)" fill="#0d527c"/><path d="M313.45,141.07,311,217.71l.94-76.64Z" transform="translate(0 -12.02)" fill="#0d527c"/><path d="M320,165.79l20.11.77v4.05l-10.75,3.88L320,170.14Z" transform="translate(0 -12.02)" fill="#0d527c"/><path d="M329.34,172.78a.78.78,0,1,0-.78-.77A.78.78,0,0,0,329.34,172.78Z" transform="translate(0 -12.02)" fill="#0e3944"/><path d="M304.88,165.79l-20.11.77v4.05l10.91,3.88,9.2-4.35Z" transform="translate(0 -12.02)" fill="#0d527c"/><path d="M295.68,172.78a.78.78,0,1,0-.78-.77A.78.78,0,0,0,295.68,172.78Z" transform="translate(0 -12.02)" fill="#0e3944"/><path d="M305.19,163.61l-21.51.78v-2.8l21.51-.78Z" transform="translate(0 -12.02)" fill="#cfd8dc"/><path d="M324.83,152.26l13.24.62s1.09,8.4-7.95,11.51C330.12,164.39,322.64,160.66,324.83,152.26Z" transform="translate(0 -12.02)" fill="#f2a668"/><path d="M330.13,163.61A9.69,9.69,0,0,1,325.45,153l11.84.62C337.45,155.53,337,161.12,330.13,163.61Z" transform="translate(0 -12.02)" fill="#ffb878"/><path d="M328.57,133.6a29.14,29.14,0,0,1,10.75-2.17,13.94,13.94,0,0,1,9.19,3.11l1.72,3s-5.14-4.51-9.51-3.89-12.31,2.49-12.31,2.49l-2.18-.93Z" transform="translate(0 -12.02)" fill="#0d527c"/><path d="M278.38,130.81s7.17-.32,10.91.62c3.59.93,7.17,2.17,7.17,2.17h1.4l-1.09-1.7s-8.57-4.2-16.67-2.65Z" transform="translate(0 -12.02)" fill="#0d527c"/><path d="M299.73,90.23h0a3.5,3.5,0,0,1-.78,1.09c-.62.46-1.24.93-1.71,1.24l-.62.31s.62.93-3,3.42c-1.09.78-3.89,2.49-3.89,2.49s-3.43,3.26-5.14,3.57c-1.41.32-4.06,4.36-10.6,3.58-.31,0-.63-.15-.94-.15-5.3-1.09-3.43-5.14-.78-6.53a111.32,111.32,0,0,1,16.06-6.69c4.05-1.24,7.48-2.18,10.59-3.27C299,89.29,299.89,89.61,299.73,90.23Z" transform="translate(0 -12.02)" fill="#ffc3ba"/><path d="M296.61,92.25c-.62.31-4.05,1.09-4.83,1.4s-4.36,1.86-3.42,1.86,3-1.4,3.89-1.55c.78-.16,3-1.09,3.9-1.25.31,0,.46.32-.31,1.4a10.82,10.82,0,0,1-3.59,2.34,39.68,39.68,0,0,1-3.43,2.33c-1.09.46-1.87,2.33-3.11,2.64-1.41.47-2.19.78-2.81.93s-1.09,3.11-9.51,3.42c.32,0,.63.16.94.16,6.55.78,9.19-3.26,10.6-3.58,1.71-.31,5.14-3.57,5.14-3.57s2.81-1.71,3.9-2.49c3.58-2.49,3-3.42,3-3.42a13.4,13.4,0,0,0,2.34-1.55,2.12,2.12,0,0,0,.77-.94A8.3,8.3,0,0,1,296.61,92.25Z" transform="translate(0 -12.02)" fill="#f2ada2"/><path d="M299,89.29c-.93.78-7.63,2.49-7.79,2.65a42.23,42.23,0,0,1-4.05,1.4,5.63,5.63,0,0,1,1.25-.78C292.41,91.32,296,90.38,299,89.29Z" transform="translate(0 -12.02)" fill="#f2ada2"/><path d="M359.58,299.49c0,1.4-1.72,8.55-4.37,9.95-2.65,1.24-3.27,3.58-4.36,3.11s-2-4.66-2-4.66c-.15.31-.77,1.4-1.55.77s-1.1-4.35-1.41-6.21c-.47-1.72,4.21-8.09,3.74-14.93,0,0,6.55-8.86,7.17-2.64S359.58,298.09,359.58,299.49Z" transform="translate(0 -12.02)" fill="#ffc3ba"/><path d="M359.58,299.49c0,1.4-1.72,8.55-4.37,9.95s-3.27,3.58-4.36,3.11-2-4.66-2-4.66c.78-2.49-.46-5,.63-4.2,2,1.4,1.24,7.62,2.8,7.46,1.25-.15,2.34-3.11,3.12-2.8C357.24,309.44,359.58,299.49,359.58,299.49Z" transform="translate(0 -12.02)" fill="#f2ada2"/><path d="M270.59,224.55l15,3.11-10.13,48.51a5.53,5.53,0,0,0,2.34.93c2.34.47,2.49.16,2.49.16l15.12-72.61s-.47-.62-2.34-.93a4,4,0,0,0-1.24-.15,2.06,2.06,0,0,0-1.41.15l-4.05,19-15-3.11s-.62.47-.94,2.33A5.9,5.9,0,0,0,270.59,224.55Z" transform="translate(0 -12.02)" fill="#86979b"/><path d="M270.59,224.55l15,3.11-10.13,48.51a5.53,5.53,0,0,0,2.34.93c2.34.47,2.49.16,2.49.16a5.14,5.14,0,0,1-3.58-1.09l15.12-72.6a2.06,2.06,0,0,0-1.41.15l-4.05,19-15-3.11s-.62.47-.94,2.33A5.9,5.9,0,0,0,270.59,224.55Z" transform="translate(0 -12.02)" fill="#607275"/><path d="M334.49,234l-.47-3.11L327,232l.46,3.11a6.29,6.29,0,0,0-2.18,6.06,6.7,6.7,0,0,0,13.25-2A7.22,7.22,0,0,0,334.49,234Zm-1.87,11.5a5.19,5.19,0,1,1,4.36-5.9A5,5,0,0,1,332.62,245.54Z" transform="translate(0 -12.02)" fill="#607275"/><path d="M331.84,231.71a22.54,22.54,0,0,0,.78-2.8c0-.31-.78-.93-.78-.93l-.32-2a.69.69,0,0,0,.47-.62c0-.46-2.34-1.24-2.34-1.24l.47,1.86.62.31.47,1.56-1.09,3.73h1.72Z" transform="translate(0 -12.02)" fill="#607275"/><path d="M330.28,232.33v-3.11h-7.17v3.11a6.72,6.72,0,0,0-3.12,5.6,6.7,6.7,0,0,0,13.4,0A6.71,6.71,0,0,0,330.28,232.33Zm-3.59,11.19a5.29,5.29,0,1,1,5.3-5.28A5.25,5.25,0,0,1,326.69,243.52Z" transform="translate(0 -12.02)" fill="#86979b"/><path d="M325.76,230.46a8.22,8.22,0,0,1-1.09-2.33.84.84,0,0,1,.62-.78,6,6,0,0,0,0-1.71c-.15-.31.78-.77.78-.77l.31,2.17-.46.62s.77.32.93.63.62,1.86.62,1.86S326.38,230.77,325.76,230.46Z" transform="translate(0 -12.02)" fill="#86979b"/><path d="M438.7,89.56c-2-5.91-38.8-.62-38.8-.62s-3.59,11.66-.16,21a16.35,16.35,0,0,0,1.25,3,14.31,14.31,0,0,0-1.25,5,16.44,16.44,0,0,0,.16,2.8,6.39,6.39,0,0,0-3.43,6.22,4.29,4.29,0,0,0-4.05,4s-4.05.77-4.05,4.2a6.75,6.75,0,0,0-4.06,5.75s-3.11,4.82-1.71,7.78a8.77,8.77,0,0,0-.31,6.84s-1.4,4.05.47,6.85c0,0-1.25,7.62.93,10.89a4.53,4.53,0,0,0,2.34,1.09,5.29,5.29,0,0,0,2.8-.63c.47-1.24-.62-5.28-.62-5.28a6.38,6.38,0,0,1,1.56,3.42c.31-2-1.25-4.36-1.25-4.36a5.81,5.81,0,0,1,1.56,3,12.4,12.4,0,0,0-.16-4c-2.18-4.66-4.2-5.29-4.2-5.29s2.18-4.66,2.18-7a39.14,39.14,0,0,0,3.12-7.46s2-1.25,3.89-5.76c0,0,5.77-1.87,7.17-4.66,0,0,5.46-2.18,7.64-7.32a15.86,15.86,0,0,0,5.45-5.44,5.11,5.11,0,0,0,2.18-1.87c5.77-.93,12.63-2.8,16.21-6.84C440,107.45,440.89,95.31,438.7,89.56Z" transform="translate(0 -12.02)" fill="#ce364c"/><path d="M477.77,100.85s-.31-12.76.16-13.07c.46-.46.77-.31,1.55.16.63.62,1.56,9.8,1.56,9.8a7.78,7.78,0,0,1,3-.16c.94.31,2.34,2.34,2.34,2.34s4.05,3,4.83,4.82c.78,2-1.56,5.91-1.56,5.91Z" transform="translate(0 -12.02)" fill="#f5a882"/><path d="M486.27,116.66s-1.56-7-4.83-9-5-6.07-5.61-7,.62-3.89.94-4.51,2,.31,1.55,1.55,1.25,3.58,1.87,3.58a9.9,9.9,0,0,1,4.52,2.18c2.34,2.49,4.84,1.09,6.24,1.87a5.09,5.09,0,0,1,2.49,5.13Z" transform="translate(0 -12.02)" fill="#f5a882"/><path d="M484.35,107.14H481.7a2.14,2.14,0,0,1-2.18-2.18V64.05a2.13,2.13,0,0,1,2.18-2.18h2.65a2.13,2.13,0,0,1,2.19,2.18V105A2.14,2.14,0,0,1,484.35,107.14Z" transform="translate(0 -12.02)" fill="#072228"/><path d="M512,61.48A33.18,33.18,0,1,0,466.77,74,33.11,33.11,0,0,0,512,61.48Z" transform="translate(0 -12.02)" fill="#ce364c"/><path d="M483.11,76.65a31.5,31.5,0,1,1,31.63-31.42A31.6,31.6,0,0,1,483.11,76.65Z" transform="translate(0 -12.02)" fill="none" stroke="#fff" stroke-miterlimit="10" stroke-width="0.8"/><path d="M468.18,49.28h-8.11V47.92L467.21,36h4.6V46.6H474v2.68h-2.18v3.28h-3.63Zm.07-2.68V38.85l-4.43,7.75Z" transform="translate(0 -12.02)" fill="#fff"/><path d="M483.12,49.88q3.4,0,3.4-5.25v-.74q0-5.2-3.45-5.2c-2.32,0-3.49,1.73-3.49,5.2v.79Q479.58,49.89,483.12,49.88ZM483,52.82a6.59,6.59,0,0,1-5.23-2.18,8.46,8.46,0,0,1-2-5.94v-.78a8.51,8.51,0,0,1,2-6,6.71,6.71,0,0,1,5.2-2.15,6.8,6.8,0,0,1,5.2,2.08,8.49,8.49,0,0,1,2,6v.76a8.87,8.87,0,0,1-1.92,6A6.78,6.78,0,0,1,483,52.82Z" transform="translate(0 -12.02)" fill="#fff"/><path d="M499.81,49.28H491.7V47.92L498.84,36h4.6V46.6h2.17v2.68h-2.17v3.28h-3.63Zm.07-2.68V38.85l-4.44,7.75Z" transform="translate(0 -12.02)" fill="#fff"/><path d="M482.73,94.66a19.86,19.86,0,0,0-.62,4.2c.15.93.31,2.64,1.09,2.8a1.31,1.31,0,0,0,1.25-.62s.46,1.71.93,1.71c.31,0,.78-.47.78-.47a4.41,4.41,0,0,0,2,.78c1.24.15,2.8-1.87,2.8-1.87s-1.09-4.2-2.8-3.58c0,0-.63-2-2.34-2a3.39,3.39,0,0,0-1.4-1.87C483,93,482.73,94.66,482.73,94.66Z" transform="translate(0 -12.02)" fill="#f5a882"/><path d="M456.31,122.07c5.46,1.87,33,32.82,33,32.82s-6.08-30.33-5.14-33.44l-.78-6.69s5.77-.16,8.26-2.65l2,6.38c1.55.94,10.13,28.94,12.15,34.38s2.65,16.64.94,20.53c-1.87,3.74-4.37,4.51-16.37,3.11C480.63,175.43,454.6,154,454.6,154Z" transform="translate(0 -12.02)" fill="#6197ad"/><path d="M378.86,442.51l11.53-.93s15.9-90.85,19.79-100c3.28-7.94,17.15-38.58,21.67-62.07a15,15,0,0,0,3.58-.47c.47-.15.93-.15,1.56-.31.47-.15.93-.15,1.56-.31.31,23.49,5.45,52.27,7,60.36,1.87,9.8-.78,102.35-.78,102.35l11.07,1.4c20.41-72.33,10.91-104.37,10.91-104.37s18.7-65,12.15-88a145,145,0,0,0-7.48-20.38c-.16-.46-.47-.93-.62-1.4a134.68,134.68,0,0,0-9.51-17.57l-22,2.8-.16-.31-.62.15v6.85l-2.81-.16h-.62l-9-.47h-1.25l-7.95-.46s-4.83,7.62-11.53,19.75c-.31.47-.47.93-.78,1.4-2.49,4.36-5,9.33-7.79,14.62-11.07,21.32-7.17,82.14-7.17,82.14S372.94,367.69,378.86,442.51Z" transform="translate(0 -12.02)" fill="#0e3944"/><path d="M416.73,218.67a50.15,50.15,0,0,0,44.41-8.24s4.06-82.14-3.58-87.74c-3.27-2.33-10-.46-16.21,2.49a126.71,126.71,0,0,0-16.05,9.18s-14.18-2-25.4-.78c-7.17.78-13.09,2.8-13.25,7.62C386,153.49,416.73,218.67,416.73,218.67Z" transform="translate(0 -12.02)" fill="#8bbddb"/><path d="M427.17,107.29s-1.87,21.94,4.36,25c0,0-4.51,8.24-16.67,3.26,0,0,2-11.35-5.92-24.73C403.48,102,427.17,107.29,427.17,107.29Z" transform="translate(0 -12.02)" fill="#f5a882"/><path d="M458.34,439.71s-1.4,8.09.16,13.53c.93,3.27,4.67,7.47,2.33,12.76H439a10.67,10.67,0,0,1,1.71-11.36c2.65-3.11,2-17.26,2-17.26,2.49.47,2,2.33,2,2.33s-.62-6.69,5-5.75c6.7,1.09,5.61,7,5.61,7S455.85,438.78,458.34,439.71Z" transform="translate(0 -12.02)" fill="#072228"/><path d="M459.28,457.76S452.73,450,441,456.2c0,0-.15,5.45,5.61,4.51S455.85,463.82,459.28,457.76Z" transform="translate(0 -12.02)" fill="#0e3944"/><path d="M377.3,439.71s1.4,8.09-.16,13.53c-.93,3.27-4.67,7.47-2.33,12.76h21.82a10.68,10.68,0,0,0-1.72-11.36c-2.65-3.11-2-17.26-2-17.26-2.5.47-2,2.33-2,2.33s.62-6.69-5-5.75c-6.7,1.09-5.61,7-5.61,7S379.79,438.78,377.3,439.71Z" transform="translate(0 -12.02)" fill="#072228"/><path d="M376.36,457.76s6.55-7.78,18.24-1.56c0,0,.16,5.45-5.61,4.51C383.38,459.62,379.79,463.82,376.36,457.76Z" transform="translate(0 -12.02)" fill="#0e3944"/><path d="M415.17,130.47a56.59,56.59,0,0,0,9.35,5.13s3-2.17,3.74-8.71l5.77,2.34s1.71,5.91,0,11.2l-8.57-3.11-3.28,8.24s-10.44-2.18-12.62-12.13Z" transform="translate(0 -12.02)" fill="#6197ad"/><path d="M425.92,135l.31.62c.16.47.32,1.09.63,2,.62,1.72,1.25,4,2.18,7,.78,3,1.72,6.23,2.65,10,.93,3.58,1.71,7.62,2.49,11.51s1.41,7.93,2,11.51c.62,3.74,1.09,7.16,1.56,10.11s.62,5.45.93,7.16.32,2.8.32,2.8-.16-.93-.47-2.65-.63-4.2-1.25-7.15-1.25-6.38-2-10-1.71-7.46-2.65-11.35-2-7.62-3.11-11.2-2.18-6.85-3.12-9.65-1.87-5.13-2.49-6.69c-.31-.77-.63-1.4-.78-1.86a1.73,1.73,0,0,0-.31-.62Z" transform="translate(0 -12.02)" fill="#6197ad"/><path d="M439.64,162.36l19.63-3.89,1.09,4-9.66,6.23-10-2.18Z" transform="translate(0 -12.02)" fill="#6197ad"/><path d="M450.86,166.09c.15.47-.16.78-.63.94s-.78-.16-.93-.63.15-.77.62-.93A.87.87,0,0,1,450.86,166.09Z" transform="translate(0 -12.02)" fill="#0d527c"/><path d="M424.83,165.94l-19.32,5.44.93,3.89L418,176.51l7.94-6.37Z" transform="translate(0 -12.02)" fill="#6197ad"/><path d="M416.57,174.34a.87.87,0,0,0,.94.62.8.8,0,0,0-.31-1.56A.69.69,0,0,0,416.57,174.34Z" transform="translate(0 -12.02)" fill="#0d527c"/><path d="M441,148.05l13.09-2.49s3.12,7.93-5.14,13.06A10.66,10.66,0,0,1,441,148.05Z" transform="translate(0 -12.02)" fill="#f2a668"/><path d="M449,157.85c-1.4-.47-6.86-2.64-7-9.18l11.69-2.18A10.22,10.22,0,0,1,449,157.85Z" transform="translate(0 -12.02)" fill="#ffb878"/><path d="M464.11,215.25a20.37,20.37,0,0,1-2.81,3.42,11,11,0,0,1-1.87,1.87,26.6,26.6,0,0,1-16.05,7.15,77.1,77.1,0,0,1-15.12-.31l-2.8-.47c-7.79-1.4-11.38-3.73-11.38-3.73l2-5.91A63.24,63.24,0,0,0,427.17,219c.78,0,1.56.16,2.34.16,8.26.46,18.86-.31,27.43-5.6.62-.31,1.09-.78,1.71-1.09a15.37,15.37,0,0,0,2.49-2Z" transform="translate(0 -12.02)" fill="#072228"/><path d="M429.51,219.13l-1.25,8.25-.31,1.55h-2.81l.47-1.86,1.72-7.94Z" transform="translate(0 -12.02)" fill="#0e3944"/><path d="M462.24,220.69l-2,1.71-.62-1.86-2.65-6.85c.62-.31,1.09-.78,1.71-1.09l2.81,6.23Z" transform="translate(0 -12.02)" fill="#0e3944"/><path d="M438.55,219l.93,8.71a1.24,1.24,0,0,0,1.41,1.09l11.22-2.49a1.21,1.21,0,0,0,.93-1.4L450.86,217a1.12,1.12,0,0,0-1.4-.78l-10,1.87C439,217.89,438.55,218.36,438.55,219Z" transform="translate(0 -12.02)" fill="#cfd8dc"/><path d="M478.13,124.71l3-8.24s-.93-6.22-1.55-7-.16-4.36-.16-4.36,3,3.58,4.21,3.11c1.09-.62,3.74-5.91,6.08-7,.62-.31,3-.93,3.74-.46s1.09,2.17-.63,3.26c0,0,1.4.78,1.25,3.27s.47,4.82,0,6.53c-1.09,4.51-4.83,7.32-6.08,8.72-1.25,1.24-2.8,6.22-2.8,6.22Z" transform="translate(0 -12.02)" fill="#f7b999"/><path d="M391.79,135.6c8.11-1.71,60.16,28,60.16,28s20.88-36.24,24-37.49l3.27-4.51s5.46.47,7.8,4.51l-1.41,4.21s2.19-.32-4.05,15.39-19.95,39.83-25.25,40.76S399,166.71,392.57,161.11C386,155.36,381.2,137.78,391.79,135.6Z" transform="translate(0 -12.02)" fill="#74b0ce"/><path d="M436.68,98.43s5-4.83,5.61.93c.62,6.69-5.46,9.33-6.55,7.15C434.5,104.34,436.68,98.43,436.68,98.43Z" transform="translate(0 -12.02)" fill="#f7b999"/><path d="M402.08,98.42s-4.83-5-5.61.78c-.78,6.69,5.3,9.34,6.55,7.31S402.08,98.42,402.08,98.42Z" transform="translate(0 -12.02)" fill="#f7b999"/><path d="M419.69,122.38c10.91.16,17.15-7,17.3-28.47.16-11-5.45-17.88-17.76-18s-17.46,6.69-17.62,17.73C401.61,116.78,408.47,122.38,419.69,122.38Z" transform="translate(0 -12.02)" fill="#f7b999"/><path d="M405.35,101.38a2.47,2.47,0,0,0,2.19,2.49,2.21,2.21,0,0,0,2.8-1.55,2.46,2.46,0,0,0-2.18-2.49C406.76,99.67,405.51,100.29,405.35,101.38Z" transform="translate(0 -12.02)" fill="#ed93a4"/><path d="M427.8,102.16a2.25,2.25,0,0,0,2.65,1.87c1.4-.16,2.49-1.09,2.33-2.18a2.25,2.25,0,0,0-2.65-1.87A2.5,2.5,0,0,0,427.8,102.16Z" transform="translate(0 -12.02)" fill="#ed93a4"/><path d="M410.18,90.18a.39.39,0,0,0,.63-.15A6.69,6.69,0,0,1,415,88.47c.31,0,.62-.15.62-.47s-.16-.62-.47-.62a6.86,6.86,0,0,0-5,1.87.58.58,0,0,0,0,.93Z" transform="translate(0 -12.02)" fill="#8b383e"/><path d="M426.08,88.63h.31a6.71,6.71,0,0,1,4.21,1.55.55.55,0,0,0,.78-.78,6.82,6.82,0,0,0-5-1.86c-.31,0-.46.31-.46.62S425.93,88.63,426.08,88.63Z" transform="translate(0 -12.02)" fill="#8b383e"/><path d="M410.34,96.09c0,1.4.62,2.49,1.4,2.49s1.41-1.09,1.41-2.49-.63-2.49-1.41-2.49S410.34,94.69,410.34,96.09Z" transform="translate(0 -12.02)" fill="#1a4850"/><path d="M425.93,96.09c0,1.4.62,2.49,1.4,2.49s1.4-1.09,1.4-2.49-.62-2.49-1.4-2.49C426.55,93.76,425.93,94.85,425.93,96.09Z" transform="translate(0 -12.02)" fill="#1a4850"/><path d="M424.52,109.31s-6.85.94-10.28-.93c0,0,2.18,3.42,5.92,3.11C423.74,111,424.52,109.31,424.52,109.31Z" transform="translate(0 -12.02)" fill="#1a4850"/><path d="M414.24,95.47s-.94-3.42-2.34-3.11c-1.25.16-2.34,3.11-2.34,3.11l-1.87-1.09,1.87.31s1.09-3,2.34-3C413.77,91.74,414.24,95.47,414.24,95.47Z" transform="translate(0 -12.02)" fill="#1a4850"/><path d="M424.83,95.94s1.09-3.27,2.34-3.11c1.25.31,2.34,3.11,2.34,3.11l2-1.09-1.87.31s-.94-3-2.34-3C425.3,92.21,424.83,95.94,424.83,95.94Z" transform="translate(0 -12.02)" fill="#1a4850"/><path d="M401.93,101.54s2.8-9.18,3.11-16.34c0,0,3-6.84,14.19-7S433.56,86,433.56,86s1.25,10.11,2.81,17.11a19.32,19.32,0,0,1,2.33-6.22S442.29,76,419.07,73.23C396,70.43,399.74,97,399.74,97S401.15,97.18,401.93,101.54Z" transform="translate(0 -12.02)" fill="#ce364c"/><path d="M419.07,103.71a1.19,1.19,0,0,0,.78.32l.31-1.09a1.58,1.58,0,0,1-1.25-1.4,1.78,1.78,0,0,1,.78-1.4.83.83,0,0,1,.63.46l.93-.62c-.78-1.09-1.56-1.09-2-.93a2.6,2.6,0,0,0-1.56,2.49A2.32,2.32,0,0,0,419.07,103.71Z" transform="translate(0 -12.02)" fill="#de865b"/><path d="M400.21,85.52s-6.7-2.34-6.39-4.36c.32-1.87,9.35-13.07,10.45-13.07s13.4-9.33,15.89-9.33,13.56,9,15.74,10.11,8.11,9.8,9.66,12.29c1.72,2.49-7.63,4.82-7.63,4.82S421.56,78.83,400.21,85.52Z" transform="translate(0 -12.02)" fill="#0e3944"/><path d="M399.75,85.36a29.38,29.38,0,0,1,20.88-7.47c12.94.47,18.23,7.94,18.23,7.94v3.73s-4.21-4.82-19-5.29-19.79,4.67-19.79,4.67Z" transform="translate(0 -12.02)" fill="#072228"/><path d="M401.77,87.54A39.7,39.7,0,0,0,420,91.74c10.91,0,17-3.43,17-3.43s-5.92-5.91-17.3-5.91C408.32,82.25,401.77,87.54,401.77,87.54Z" transform="translate(0 -12.02)" fill="#0b313a"/><path d="M415.33,69l8.57.46A7,7,0,0,1,418.76,77,7,7,0,0,1,415.33,69Z" transform="translate(0 -12.02)" fill="#f2a668"/><path d="M418.76,76.34a6.53,6.53,0,0,1-3.12-6.85l7.64.47C423.43,71.2,423.12,74.78,418.76,76.34Z" transform="translate(0 -12.02)" fill="#ffb878"/><path d="M400.83,228l15,3.11-10.13,48.54s.47.62,2.34.93c2.34.47,2.49.15,2.49.15l15.12-72.64s-.47-.62-2.34-.93A3.72,3.72,0,0,0,422,207a4.82,4.82,0,0,0-1.41.16l-4.05,19-15-3.11a4.68,4.68,0,0,0-.93,2.34A5.84,5.84,0,0,0,400.83,228Z" transform="translate(0 -12.02)" fill="#86979b"/><path d="M400.83,228l15,3.11-10.13,48.54s.47.62,2.34.93c2.34.47,2.49.15,2.49.15a4.42,4.42,0,0,1-3.58-1.08L422,207a4.82,4.82,0,0,0-1.41.16l-4.05,19-15-3.11a4.68,4.68,0,0,0-.93,2.34A5.84,5.84,0,0,0,400.83,228Z" transform="translate(0 -12.02)" fill="#607275"/><path d="M458.34,235.62a6.73,6.73,0,0,0,12.31-5.44,6.59,6.59,0,0,0-5.14-3.89l-1.25-2.8-6.54,2.8,1.24,2.8A6.19,6.19,0,0,0,458.34,235.62Zm1.4-.31A5.2,5.2,0,1,1,466.6,238,5.19,5.19,0,0,1,459.74,235.31Z" transform="translate(0 -12.02)" fill="#607275"/><path d="M459.74,225.82a19.66,19.66,0,0,1-2.18-1.86c-.16-.31.15-1.25.15-1.25l-.77-1.86s-.63.15-.78-.32c-.16-.31,1.24-2.33,1.24-2.33l.63,1.87-.32.46.47,1.56,3,2.64Z" transform="translate(0 -12.02)" fill="#607275"/><path d="M461.92,231.89a6.65,6.65,0,1,0,5.46-10.27L465.66,219l-5.92,3.89,1.72,2.64A6.65,6.65,0,0,0,461.92,231.89Zm1.41-.46A5.18,5.18,0,1,1,470.5,233,5.13,5.13,0,0,1,463.33,231.43Z" transform="translate(0 -12.02)" fill="#86979b"/><path d="M464.26,221.47a9.81,9.81,0,0,0-.31-2.65.68.68,0,0,0-.93-.31,6.76,6.76,0,0,1-.94-1.55c0-.31-1.09-.31-1.09-.31l.93,2,.78.31a2.51,2.51,0,0,0-.47.93,16.19,16.19,0,0,0,.47,1.87S464,222.09,464.26,221.47Z" transform="translate(0 -12.02)" fill="#86979b"/></svg>