<svg xmlns="http://www.w3.org/2000/svg" viewBox="0 0 218.46 401.44"><path fill="#072228" d="m95.34 386.12-.08 4.29a13.7 13.7 0 0 1 2.83 11H92v-3.11l-3 3H59.57s-.77-2.22.15-3.14 11.71-4.06 11.71-4.06l6.43-8h17.48Zm-59.27 0-.07 4.29a13.7 13.7 0 0 1 2.83 11h-6v-3.11l-3 3H.3s-.77-2.22.15-3.14 11.71-4.06 11.71-4.06l6.43-8h17.48Z"/><path fill="#0e3944" d="M87.91 136s17.15 24.19 19 44.71-5.51 92.18-6.43 101.68c0 0 5.21 34.91 3.37 48.08s-7.66 56.05-7.66 56.05H76.88L65.55 193.57l-10.41 88.2s-2.14 38.28-4 48.69-14.7 56.05-14.7 56.05H17.78l12-195.36a112.27 112.27 0 0 1 5-27l9-28.46 44.1.31Z"/><path fill="#072228" d="M53.66 144.75c-.21 3-.39 6-.51 8.93s-.25 5.95-.32 8.93a.43.43 0 0 0 .07.25l2.56 4.14 2.62 4.14 2.63 4.14 2.69 4.1a.31.31 0 0 0 .57-.18c-.08-1.42-.15-2.83-.25-4.25s-.19-2.83-.31-4.24c0 1.42 0 2.84-.06 4.26s0 2.84 0 4.25l.58-.17-2.5-4.22-2.56-4.18-2.56-4.17-2.63-4.14.07.25c0-3 .08-6 0-8.94s0-6-.13-8.94Z"/><path fill="#0e3944" d="M86 150.75a90.42 90.42 0 0 1 10.36 13.52 41.1 41.1 0 0 1 3.78 7.6c.24.66.42 1.35.63 2s.27 1.38.42 2.06.1 1.41.16 2.11.08 1.41.07 2.12c0 11.37-.61 22.74-1.14 34.11s-1.14 22.73-1.78 34.1l-2 34.09v.07q1.2 12.81 2.32 25.64c.36 4.27.71 8.55 1 12.83.06 1.07.15 2.14.11 3.17s-.19 2.11-.3 3.18l-.63 6.41-6.31 51.12 3.58-25.5q1.77-12.75 3.41-25.53l.79-6.39c.12-1.07.25-2.13.33-3.23s0-2.18-.09-3.26c-.25-4.29-.61-8.57-1-12.85q-1.07-12.84-2.24-25.66v.07q1.08-17 2-34.1c.6-11.37 1.18-22.74 1.68-34.11s.93-22.75.83-34.16c0-.71 0-1.43-.09-2.14s0-1.44-.19-2.14-.25-1.43-.46-2.11-.41-1.38-.67-2.05a42.11 42.11 0 0 0-3.94-7.6A91.18 91.18 0 0 0 86 150.75ZM65.16 194l-3.66 21.75-3.57 21.76c-2.4 14.5-4.66 29-7 43.54v.05l-1.62 26.5c-.29 4.41-.59 8.83-.93 13.24-.17 2.2-.35 4.41-.56 6.61-.11 1.1-.21 2.2-.35 3.29-.06.55-.13 1.09-.23 1.61a13.44 13.44 0 0 1-.34 1.6l-6.42 25.76-6.32 25.79L41 359.84l6.72-25.69a20.34 20.34 0 0 0 .62-3.31 295.54 295.54 0 0 0 .95-9.93q.54-6.62 1-13.25.91-13.25 1.64-26.51v.05c2.24-14.53 4.56-29 6.75-43.58l3.3-21.8Z"/><path fill="#072228" d="M36.15 283.75a2.47 2.47 0 0 0-1.62-2.5 2.47 2.47 0 0 0 1.62 2.5Z"/><path fill="#0e3944" d="M82.72 283.06a7.06 7.06 0 0 0-3.67-3.7 6.42 6.42 0 0 0 1.48 2.2 6.52 6.52 0 0 0 2.19 1.5Z"/><path fill="#072228" d="M42.39 143.15h48.24L89 138.21H44Z"/><path fill="#cfd8dc" d="M45.73 137.06h15v6.66h-15Z"/><path fill="#105e99" d="M73.64 135.82h15.82v14.57H73.64Z"/><path fill="#072228" d="M73.74 138.61h-1v-5.3h18v6.46H75.86v-3.28h-2.12Zm2.42 1.26a25.87 25.87 0 0 0-.38 10.13 25.87 25.87 0 0 0 .38-10.12Z"/><path fill="#a3caf0" d="M75.78 136.12a6.53 6.53 0 0 0 .55-1.59.38.38 0 0 0-.27-.44h-.12a9.41 9.41 0 0 0-2.25 0h-.1a.4.4 0 0 0-.34.43 6.32 6.32 0 0 0 .57 1.72 5.9 5.9 0 0 0 .31-1.78l-.44.47a10 10 0 0 0 2.25 0l-.42-.46a6.12 6.12 0 0 0 .3 1.66Z"/><path fill="#ffc496" d="M38.47 77.94a9.81 9.81 0 0 1 7.28-6.41 87.94 87.94 0 0 1 11.6-1.61V45.78h17.11V70a87 87 0 0 1 10.72 1.55A9.82 9.82 0 0 1 92.46 78c4.58 13.41-.88 27.19-.88 27.19l-8 27.78H47.32l-8-27.78S33.89 91.36 38.48 78Z"/><path fill="#ed956b" d="M57.35 62v3.2a13.4 13.4 0 0 0 5-.78A17.78 17.78 0 0 0 69 60.13c2.26-2.23 4.07-5.78 5.48-9.66v-2.29A25.4 25.4 0 0 1 69.31 57a17.58 17.58 0 0 1-6.62 4.27 13.16 13.16 0 0 1-5.35.75Z"/><path fill="#105e99" d="M34.47 74.74A8.62 8.62 0 0 1 37 73.13a24.91 24.91 0 0 1 3.68-1.51l2.89-.4 2.68-.37 11-1.53 2.3 21.36 15.34-21.39a62 62 0 0 1 17.91 4.26 34.77 34.77 0 0 1 5.2 2.1c3.52 2 6.43 23.58 5.67 28.63a93.64 93.64 0 0 1-2 9.49l-.7-.11-7.86-1.19c-2.08 12.36-4.23 24.81-4.23 24.81H43s-2-10.44-3.79-21.82c-.76-4.72-1.52-9.61-2.09-14L22 100l-1-.1s10.56-22.26 13.47-25.16Z"/><path fill="#003970" d="m59.5 90.66 8-4.59 6.74 3.83s8.27-15.47 8.12-19.6l-7.5-1-15.35 21.36Zm0 0-3.75-5.36-3.21 3.7-2.93-18.65 7.6-1ZM82.86 70.6s14.7 3.22 16.54 5.4 1.61 14.32 1.23 14.78a8.87 8.87 0 0 1-2 1.84c-.54.23-2.37-1.61-2.53-1.84s-1-12.79-1-12.79Z"/><path fill="#003970" d="M34.77 72.52C31 75 27.11 82.86 26.77 84s.92 2.53.92 2.53 4.82-9.45 6.78-11.79 15.16-4.39 15.16-4.39"/><path fill="#ffb878" d="M42.06 99.56a14.91 14.91 0 0 0 .74-1.69A4.91 4.91 0 0 0 42 95l1.24-1.32c1.68 1.9 3.63-.18 3.63-.18s2 2.08 3.63.18L51.77 95a4.88 4.88 0 0 0-.77 2.87 14.91 14.91 0 0 0 .74 1.69 5 5 0 0 1 .21 2.09 3 3 0 0 1-1 2 5.05 5.05 0 0 1-2.34.87 3.72 3.72 0 0 0-.91.35 2.51 2.51 0 0 0-.47.3c-.07.06-.31.24-.36.36a1.37 1.37 0 0 0-.36-.36 2.66 2.66 0 0 0-.47-.3 4.76 4.76 0 0 0-.91-.35 5 5 0 0 1-2.34-.87 3.1 3.1 0 0 1-1-2 4.92 4.92 0 0 1 .21-2.09Z"/><path fill="#ffbf51" d="M67.66 96.17H77v2.3h-9.3Z"/><path fill="#0d527c" d="m67.31 103.24 5.06 2 5-2v-2.53H67.31Zm-7.9-12.37c-.33 3.81-.55 7.62-.76 11.42s-.32 7.62-.49 11.43-.21 7.63-.26 11.44v5.72c0 1.91 0 3.82.06 5.73.18-1.9.29-3.81.43-5.71l.33-5.71c.2-3.81.33-7.62.49-11.43s.22-7.63.26-11.44.07-7.63 0-11.45Zm25.12 15.5a52 52 0 0 0 .94-7.53 50.63 50.63 0 0 0-.06-7.59 57.49 57.49 0 0 0-.88 15.12ZM36.78 101c0-1.44 0-2.88-.06-4.31s-.18-2.87-.2-4.25a7.12 7.12 0 0 1 .48-1.91l.67-2a63.4 63.4 0 0 0 1.23-4.13 37.64 37.64 0 0 0-2 3.85 32.27 32.27 0 0 0-1.35 3.56 2.85 2.85 0 0 0-.07.64 38.07 38.07 0 0 0 .52 4.31 41.75 41.75 0 0 0 .78 4.24Z"/><path fill="#ffc496" d="M19.78 128.78a30.24 30.24 0 0 1-.52-6.22 86 86 0 0 1 0-14.36 3.3 3.3 0 0 1 .08-.59c0-.3.09-.59.14-.88a35.9 35.9 0 0 1 2.42-6.79l15.13 1.53.57 4.1c3 .14 6.23.81 7.77 2 2.35 1.82 26 6.65 26.05 6.66s7.3-6.46 9.19-7 11.17-1.31 11.44-.81-.9 2.52-1.89 2.62-4.78 1.11-4.78 1.11 5.26 1.41 7.26 2.19l8.3 1.26a106.32 106.32 0 0 1-6.49 20.89c-.7 2-1.25 3.25-1.5 3.32-1.08.3-19.46.91-26.58-2.52a88.44 88.44 0 0 1-11.06-7.42c-6.74 1.13-21.62 3.6-24 3.68-3.13.1-10.82-1.71-11.54-2.83Z"/><path fill="#ed956b" d="M71.91 114.25c1.16.63 2.35 1.19 3.53 1.79l3.56 1.69c2.38 1.12 4.79 2.18 7.21 3.22a.51.51 0 0 0 .32 0l3.49-.9a.46.46 0 0 0 .33-.57.61.61 0 0 0-.05-.12l-1.3-2.2-.38.63h1.64a12 12 0 0 0 1.66-.17 1 1 0 0 0 .53-.25.86.86 0 0 0 .14-.58 7.07 7.07 0 0 0-.12-.84c-.12-.54-.27-1.06-.44-1.58v.13c.43-.61.85-1.22 1.26-1.84-.51.54-1 1.1-1.49 1.66a.11.11 0 0 0 0 .11c.1.52.19 1.06.25 1.58a7 7 0 0 1 .06.77c-.06.32.08.11-.24.22a11.41 11.41 0 0 1-1.56 0c-.53 0-1.07 0-1.6-.07a.41.41 0 0 0-.44.38.4.4 0 0 0 .05.22l1.22 2.27.3-.68-3.54.88h.32c-2.42-1-4.84-2.07-7.29-3l-3.68-1.43c-1.24-.44-2.47-.92-3.72-1.33Z"/><path fill="#ed956b" d="M83.91 112a16.23 16.23 0 0 0 3.86 1.67 15.89 15.89 0 0 0 4.14.71 15.46 15.46 0 0 0-3.86-1.67 15.89 15.89 0 0 0-4.14-.71Zm4.75 5.37a10.11 10.11 0 0 0-5.66-2.75 9 9 0 0 0 2.59 1.82 9.23 9.23 0 0 0 3.07.93ZM55 127.75c-1.66-1.49-3.34-3-5.05-4.38s-3.42-2.85-5.15-4.25-3.48-2.77-5.24-4.13-3.53-2.72-5.33-4a.27.27 0 0 0-.17-.06l-4-.24a.21.21 0 0 0-.2.13c-.47 1.24-1 2.47-1.42 3.72.64-1.17 1.22-2.35 1.83-3.53l-.23.13c1.33.19 2.66.34 4 .51l-.19-.08c1.7 1.44 3.43 2.83 5.17 4.22s3.5 2.75 5.26 4.12 3.55 2.69 5.35 4 3.61 2.62 5.45 3.87Z"/><path fill="#ed956b" d="M26.16 112c.68-.08 1.34-.22 2-.33s1.32-.27 2-.42a.36.36 0 0 0 .28-.36c0-1-.06-2.06-.06-3.06v-.74a3.31 3.31 0 0 1 0-.34c0-.09.08-.23 0-.1s-.05 0 0 0h.15l.35-.09.74-.16 3-.61c1-.22 2-.45 3-.73a38.09 38.09 0 0 0-6.22.4l-.78.14-.41.09-.22.06a.84.84 0 0 0-.61.85v1.24a26.79 26.79 0 0 0 .27 3.12l.28-.4c-.64.22-1.27.46-1.9.7s-1.26.5-1.87.79Zm66.42 18.55a5.17 5.17 0 0 0-3.19 2.45 3.38 3.38 0 0 0 2-.73 3.49 3.49 0 0 0 1.24-1.68Zm-66.99-4.11a14 14 0 0 0-1-2 14.57 14.57 0 0 0-1.24-1.85 3.08 3.08 0 0 0 .38 2.36 3.12 3.12 0 0 0 1.88 1.48Z"/><path fill="#ffc496" d="M45.19 21.76c1.53-3 9.79-5.75 17.92-4.22S78 24.5 78.34 27.88a36 36 0 0 1-.73 7.81 7.23 7.23 0 0 1 3.34-.5c5.31.23 1.57 18.76-6.21 11.67-1.43 4-3.3 7.78-5.63 10.1a17.58 17.58 0 0 1-6.62 4.27 12.09 12.09 0 0 1-6.74.55l-1.55-.29a12.68 12.68 0 0 1-7.27-4 18.33 18.33 0 0 1-3.49-5.27 21.94 21.94 0 0 1-1.6-7.67c-.53-9 2-20.19 3.36-22.79Z"/><path fill="#ffcfab" d="M59.13 53.46a11.84 11.84 0 0 0 3.35 7.77A17.7 17.7 0 0 0 69.1 57c2.48-2.45 4.43-6.5 5.89-10.83a9.63 9.63 0 0 0-15.87 7.33Zm-17.3-8.91a22.4 22.4 0 0 0 1.6 7.67 18.68 18.68 0 0 0 3.49 5.27 9.61 9.61 0 0 0-5.1-12.94Z" opacity=".6" style="isolation:isolate"/><path fill="#ed956b" d="M80.83 43.28a3.82 3.82 0 0 0 .65-1.52 3.52 3.52 0 0 0 0-1.74 1.79 1.79 0 0 0-1.39-1.28 2.55 2.55 0 0 0-1.82.37 5.32 5.32 0 0 0-2.15 2.67 6.92 6.92 0 0 0-.06 3.32 11.3 11.3 0 0 1 .63-3.1 4.68 4.68 0 0 1 .84-1.24 5.39 5.39 0 0 1 1.13-1 1.44 1.44 0 0 1 2.22.43 3.56 3.56 0 0 1 .17 1.48 4.71 4.71 0 0 1-.27 1.57Z"/><path fill="#ed956b" d="M78.12 45.42a2.16 2.16 0 0 0 1-1.19 3.64 3.64 0 0 0 .23-1.57 2.29 2.29 0 0 0-.68-1.54 1.27 1.27 0 0 0-1.56-.19 1.37 1.37 0 0 1 1.11.61 2.36 2.36 0 0 1 .34 1.17 6.12 6.12 0 0 1 0 1.35 4.18 4.18 0 0 1-.41 1.35Zm-17.54 3.95c-.43.15-.78.36-1.17.51s-.75.33-1.14.56a2.36 2.36 0 0 0 1.31-.2 2.4 2.4 0 0 0 1-.87ZM61.61 46a13 13 0 0 1-3 2.38 8.11 8.11 0 0 1-1.71.74 17.06 17.06 0 0 1-1.9.45 4.79 4.79 0 0 0 2 .15 5.51 5.51 0 0 0 2-.72 5.93 5.93 0 0 0 1.6-1.31 5 5 0 0 0 1-1.77Zm-8.5-10.38a19.25 19.25 0 0 1-.91 5.69 5.6 5.6 0 0 0-.34 3.06A3.12 3.12 0 0 0 54 46.45a3.56 3.56 0 0 1-1.56-2.21 6.37 6.37 0 0 1 .5-2.7 10.08 10.08 0 0 0 .15-5.93Zm3.81 10.17a.71.71 0 0 0-.78 0 .7.7 0 0 0-.3.72.89.89 0 0 0 .73 0 .87.87 0 0 0 .35-.72Z"/><path fill="#4d2a40" d="M58.41 39.92c0 1.14.69 2.06 1.54 2.06s1.54-.92 1.54-2.06-.69-2.06-1.49-2.06-1.59.92-1.59 2.06Z"/><path fill="#4d2a40" d="M57.37 37.7a1.26 1.26 0 0 0 .5.68 3.8 3.8 0 0 0 .65.36 6.84 6.84 0 0 0 1.36.36.63.63 0 0 0 .22-1.24h-.19a5.25 5.25 0 0 1-1.18.06 2.88 2.88 0 0 1-.54-.1 1.16 1.16 0 0 1-.38-.21l-.12-.1a.19.19 0 0 0-.28 0 .17.17 0 0 0 0 .18Zm-9 4.3c-.85 0-1.54-.92-1.54-2.06s.69-2.06 1.54-2.06 1.54.92 1.54 2.06S49.22 42 48.37 42Z"/><path fill="#4d2a40" d="M45.79 37.7a1.26 1.26 0 0 0 .5.68 3.8 3.8 0 0 0 .65.36 6.84 6.84 0 0 0 1.36.36.63.63 0 0 0 .22-1.24h-.19a5.25 5.25 0 0 1-1.18.06 2.88 2.88 0 0 1-.54-.1 1.16 1.16 0 0 1-.38-.21l-.12-.1a.19.19 0 0 0-.28 0 .17.17 0 0 0 0 .18Zm12-3.78a15.82 15.82 0 0 1 1.72-.06 11.51 11.51 0 0 1 1.76.15 10.75 10.75 0 0 1 1.74.42 16.36 16.36 0 0 1 1.7.69.39.39 0 0 0 .53-.19.41.41 0 0 0-.09-.46 7.83 7.83 0 0 0-1.65-1.2 9 9 0 0 0-4-1.1 7.14 7.14 0 0 0-2.12.25.76.76 0 0 0 .27 1.49h.09Z"/><path fill="#4d2a40" d="M56.43 32.59a.93.93 0 0 0 .26.87 1.84 1.84 0 0 0 .79.44.41.41 0 0 0 .51-.26.41.41 0 0 0-.27-.51h-.15A1.21 1.21 0 0 1 57 33a.69.69 0 0 1-.22-.16.54.54 0 0 1-.11-.26.12.12 0 0 0-.15-.1.12.12 0 0 0-.1.09Zm-6.38 1.33a15.82 15.82 0 0 0-1.72-.06 11.51 11.51 0 0 0-1.76.15 10.75 10.75 0 0 0-1.74.42 16.36 16.36 0 0 0-1.7.69.39.39 0 0 1-.53-.19.41.41 0 0 1 .09-.46 7.83 7.83 0 0 1 1.65-1.2 9 9 0 0 1 4-1.1 7.14 7.14 0 0 1 2.12.25.76.76 0 0 1-.27 1.49h-.09Z"/><path fill="#4d2a40" d="M51.42 32.59a.93.93 0 0 1-.26.87 1.84 1.84 0 0 1-.79.44.4.4 0 1 1-.24-.77h.15a1.21 1.21 0 0 0 .58-.07.69.69 0 0 0 .22-.16.54.54 0 0 0 .11-.26.12.12 0 0 1 .15-.1.12.12 0 0 1 .1.09Z"/><path fill="#4d2a40" d="M35 40.47c-.06-2.6 1.69-4.84 2.83-7.17C39.86 29 40 24 41.94 19.72a8.07 8.07 0 0 1 2.37-3.21A9.28 9.28 0 0 1 48 15.14c3.57-.72 8.22-2.68 11.71-1.81s6.24 3.64 9.65 4.75c2.43.8 4.24 2.4 6.75 2.79 3.87.62 2.22 4 2.51 7.94.21 2.77 6.55 5.69 8.15 8s3.34 4.54 4 7.22 0 6-2.39 7.38c-1 .61-2.23.85-3.1 1.64-1.62 1.5-1.23 4.19-2.35 6.09s-3.7 2.64-6 3.16a15.73 15.73 0 0 0-2.72.82V48.18l.21-.58c.06-.19.19-.51.28-.75 7.82 7.08 11.56-11.45 6.3-11.68a8.07 8.07 0 0 0-2.88.33 22 22 0 0 1-6.3 6.3c.77-1.45-.15-4.06-.15-4.06a28.13 28.13 0 0 1-4.36-7.81l-1.66-4.13S47.94 28.86 43 29.86a63.5 63.5 0 0 0-1.15 14.66 22.28 22.28 0 0 0 1.61 7.68 18.41 18.41 0 0 0 3.49 5.26 12.68 12.68 0 0 0 7.27 4l1.55.29a7.17 7.17 0 0 0 1.4.21v3.8a27 27 0 0 0-3.23-.33c-1.54-.05-3.17.08-4.55-.61a15.56 15.56 0 0 1-2.58-2 38.51 38.51 0 0 0-5.25-3c-1.74-1-3.41-2.47-3.8-4.45s.52-3.89.41-5.85C38 46.31 35 43.68 35 40.44Z"/><path fill="#683c58" d="M78.17 28.69a48.39 48.39 0 0 0-5.57 1.42 48.15 48.15 0 0 1-4.81 1.19c-.35-.81-.54-1.34-.54-1.34l-1.61-4.13S47.93 28.89 43 29.89a86.9 86.9 0 0 0-.35 2.05 32.79 32.79 0 0 0-4.49.59 47.67 47.67 0 0 0 2.15-7.61c3.24-.77 6.45-1.75 9.66-2.43 5.78-1.22 12.25-2.48 18.1-1a20.41 20.41 0 0 1 7.07 3.56 19.73 19.73 0 0 1 1.68 1.34c1.22 1.14 1.19 2.17 1.46.79a5.65 5.65 0 0 0-.08 1.52Z"/><path fill="#003970" d="m80.36 25.53 4.39-2.35a.82.82 0 0 0 .06-1.41c-2.49-1.62-8-5.7-8.28-10.28a.8.8 0 0 0-.72-.74C72.94 10.45 62.35 8.8 59.05.52a.81.81 0 0 0-1.33-.28c-2.36 2.37-8.94 8.24-15.2 7.21a.83.83 0 0 0-1 .59 15.79 15.79 0 0 0 .23 9.11Zm-7.36.96S49.32 28.62 45.08 28s-10.42-.52-10.81-2.82 7.33-3.69 7.33-3.69l20.56 1.15Z"/><path fill="#105e99" d="m80.8 25.41-2.11 3.19s-30.35-6.45-37.15-7l.23-4.41s16.08-.6 25.17 2.27a61.14 61.14 0 0 1 13.86 6Z"/><path fill="#ffbf51" d="M45.54 16.08a14.73 14.73 0 0 0 .87-1.61 4.86 4.86 0 0 0-.54-2.88l1.34-1.21c1.52 2 3.61.11 3.61.11s1.76 2.21 3.58.47l1.13 1.41a4.89 4.89 0 0 0-1 2.76 14.73 14.73 0 0 0 .6 1.73 4.91 4.91 0 0 1 0 2.09 3.09 3.09 0 0 1-1.11 1.87 5 5 0 0 1-2.39.68 4.31 4.31 0 0 0-.93.27 2.87 2.87 0 0 0-.49.26 1.67 1.67 0 0 0-.39.33 1.29 1.29 0 0 0-.33-.39 2.87 2.87 0 0 0-.44-.34 3.64 3.64 0 0 0-.87-.41 4.92 4.92 0 0 1-2.25-1 3.05 3.05 0 0 1-.8-2 4.72 4.72 0 0 1 .38-2.06Z"/><path fill="#2d87e0" d="M80.07 19.25a4.75 4.75 0 0 0-1.87 1.29 4.65 4.65 0 0 0-1.13 2 4.58 4.58 0 0 0 1.87-1.29 4.65 4.65 0 0 0 1.13-2Zm-.62 6.12a57.6 57.6 0 0 0-5.36-3c-.91-.47-1.85-.91-2.79-1.33-.47-.21-1-.4-1.45-.58a5.64 5.64 0 0 0-.79-.24c-.28-.07-.51-.1-.77-.15-4.05-.66-8.11-1.25-12.21-1.53 4 1.06 8 1.82 12 2.51a6.27 6.27 0 0 1 1.42.33c.47.16.94.35 1.41.53 1 .37 1.88.78 2.82 1.17 1.91.76 3.8 1.54 5.72 2.29Z"/><path fill="#e48855" d="M136.71 390.4h28.72a24.42 24.42 0 0 1-9.81-7.34l.81-15.1h-18.51a137.15 137.15 0 0 0 3.28 14.78c-1.37 1.38-3.29 3.49-3.72 4.71a17.2 17.2 0 0 0-.77 2.94Z"/><path fill="#002447" d="M138.07 381.91s-1.3 4.13-1.76 5.44-.69 8.35-.69 8.35h10.95v-1.76l1.53 1.53h27.79s-.69-2.3-2.07-2.53-13.7-5.44-13.7-5.44-1.91-6.13-2.76-6.28-8 3.9-8.73 4.44-4.13 2.83-5.74 2.14-2.53-5.82-2.76-5.82l-2.07-.08Z"/><path fill="#e48855" d="M175.71 390.4h28.72a24.42 24.42 0 0 1-9.81-7.34l.81-15.1h-18.52a140.34 140.34 0 0 0 3.28 14.8c-1.37 1.38-3.28 3.48-3.71 4.69a17.2 17.2 0 0 0-.77 2.94Z"/><path fill="#002447" d="M177.58 381.91s-1.3 4.13-1.76 5.44-.69 8.35-.69 8.35h11v-1.76l1.53 1.53h27.74s-.69-2.3-2.07-2.53-13.71-5.44-13.71-5.44-1.91-6.13-2.76-6.28-8 3.9-8.73 4.44-4.13 2.83-5.74 2.14-2.53-5.82-2.76-5.82l-2.07-.08Z"/><path fill="#eae3d0" d="m199.19 162.48-2.63-9.48-54.44-.23S130.18 181.91 130 203.5s5.74 81.31 5.74 81.31-3.54 55.78 2.2 93h19.52l10.9-180.31 6.89 87s-5.44 56.93.35 93.26h19.67l8.72-172a136.73 136.73 0 0 0-4.76-43.31Z"/><path fill="#decfa7" d="M141.52 173.26q-1.72 6-3.22 12.11c-.5 2-1 4.06-1.36 6.11a43.31 43.31 0 0 0-.88 6.16c.59 8.28 1 16.67 1.38 25 .79 16.69 1.43 33.38 2.1 50.07l.45 12.53.17 12.53.31 25.06.24 25.06.14 25.06-.63-25.05-.52-25-.45-25.05-.25-12.58-.49-12.51-1.87-50.08c-.32-8.36-.61-16.67-1.1-25.05a44.16 44.16 0 0 1 1-6.21c.45-2 .95-4.07 1.48-6.09 1.06-4 2.22-8.05 3.45-12.05Zm10 117.33a15.91 15.91 0 0 1 2.28-3.49 15.28 15.28 0 0 1 3-2.84 15.91 15.91 0 0 1-2.28 3.49 15.58 15.58 0 0 1-3 2.84Zm36.34-3.67a9.71 9.71 0 0 1 1.42-2.95 9.39 9.39 0 0 1 2.25-2.38 9.49 9.49 0 0 1-1.42 3 9.39 9.39 0 0 1-2.25 2.33Zm-19.34-88.33 5.84 42.31 2.87 21.16 1.46 10.58.76 5.28.4 2.63.41 2.43-.18.71-.07.1c-.05.07-.09.18-.14.27a3.39 3.39 0 0 0-.26.61 9.35 9.35 0 0 0-.41 1.33c-.26.9-.41 1.85-.6 2.78a82.7 82.7 0 0 0-.75 5.69c-.4 3.82-.6 7.66-.77 11.5-.29 7.69-.37 15.38-.32 23.08a890.04 890.04 0 0 0 .38 23.1c.14 7.7.45 15.4.69 23.1-.41-7.69-.89-15.38-1.2-23.08-.16-3.85-.31-7.7-.4-11.55s-.23-7.7-.26-11.56l-.08-5.78v-5.78c0-1.93 0-3.85.08-5.78s.06-3.86.16-5.78c.15-3.85.35-7.71.73-11.56.17-1.93.42-3.85.73-5.76.2-1 .33-1.92.62-2.87a9.83 9.83 0 0 1 .45-1.43 3.65 3.65 0 0 1 .31-.71c.07-.12.11-.23.2-.36l.15-.19.08-.1.19-.15-.18.71a4 4 0 0 1-.16-.49l-.06-.34-.12-.67-.21-1.33-.39-2.65-.74-5.29-1.42-10.59a2554.1 2554.1 0 0 1-2.72-21.18L171 219.8l-2.49-21.21Z"/><path fill="#002447" d="M198 161.17h-57.55l1.53-5.36h54.51Z"/><path fill="#ffbf51" d="M180.6 155.16h-16v6.78h16Z"/><path fill="#1b2947" d="M157.72 158.45h-19.58v18h19.58Z"/><path fill="#080c14" d="M157.59 161.91h1.2v-6.57h-22.21v8H155v-4.06h2.62Z"/><path fill="#ffc3ba" d="M178 50.62h-17.11v36.47H178Z"/><path fill="#cd947c" d="M178 63.18V66a12.33 12.33 0 0 1-7.79 2.65h-1.53a12.33 12.33 0 0 1-7.79-2.65v-2.81a12.33 12.33 0 0 0 7.79 2.65h1.53a12.25 12.25 0 0 0 7.79-2.65Z"/><path fill="#8bbddb" d="m200.13 78.67-.38-.21a30.32 30.32 0 0 0-7.18-2.86 39.33 39.33 0 0 0-14-1.43h-.41l-9.3 6.66-8.12-6.83s-21.36 1.61-26.11 5.75-16.23 32.46-16.23 32.46h21.27c.25 8.79 1.09 43.22 1.09 43.22h57.08l-1.49-30 1.76-21.66c1.27 1.07 4.37 5.66 4.37 5.66h13.17s-6.28-25.27-15.5-30.74Z"/><path fill="#6197ad" d="m160.74 74-8.61 1 5.51 2.76-1.64 1.37 12.75 8.5 14.13-8.84-3-.92 7.24-3.45s-5.86-.8-9-.23l-9.3 6.66-8.07-6.85Z"/><path fill="#6197ad" d="M169 87.42c.21 5.49.3 11 .38 16.46s.07 11 .12 16.46 0 11-.11 16.46l-.14 8.23c-.08 2.74-.13 5.49-.25 8.23-.11-2.74-.16-5.49-.25-8.23l-.14-8.23c-.08-5.49-.08-11-.11-16.46s0-11 .12-16.46.2-10.97.38-16.46Zm-27.81 23.84a20.75 20.75 0 0 1 1.46-4.54 19.79 19.79 0 0 1 2.37-4.13 20.07 20.07 0 0 1-1.46 4.54 19.79 19.79 0 0 1-2.37 4.13Z"/><path fill="#eae3d0" d="M152.2 96.78a128 128 0 0 1 13.33 6.86c2.19 1.2 4.35 2.46 6.52 3.7s4.32 2.52 6.46 3.82a.42.42 0 0 1 .14.56.41.41 0 0 1-.52.16c-2.27-1-4.54-2.1-6.79-3.2s-4.5-2.18-6.72-3.32a128 128 0 0 1-13.16-7.18.8.8 0 0 1 .74-1.41Z"/><path fill="#ffc3ba" d="M170.11 106.39c.21.34 4 6.55 2.92 7.21a3.92 3.92 0 0 1-2.71.23l-2.93-1.58s-1.81 4.17-3 4.51c-.93.26-5.11 2.1-7.13 3-1.54 1.78-25.48 29.4-29.74 28.84-4.41-.59-12.24-4.31-13.41-9.6-.66-3 4.37-22.54 5.49-26.84h20.78l-1.14 5.28 11.53-5.93c.77-1.69 2.23-4.87 2.56-5.37.45-.67 2.6-4.06 4.4-4.29s10.72.57 10.72.57 6 3.16 6.44 4.06-4.49-.04-4.78-.09Z"/><path fill="#cc6b41" d="M139.19 117.09a62.91 62.91 0 0 1-6 5.88 61.61 61.61 0 0 1-6.66 5.12 70.63 70.63 0 0 1 12.67-11Z"/><path fill="#cc6b41" d="M126.19 123.92a13.92 13.92 0 0 1 7.17-1.83 13.92 13.92 0 0 1-7.17 1.83Zm42.5-11a2 2 0 0 1-2.33-1.17 1.84 1.84 0 0 1 1.39.14 1.88 1.88 0 0 1 .94 1.03Zm-4.69-7.33a7.94 7.94 0 0 1 4.66 3 7.94 7.94 0 0 1-4.66-3Z"/><path fill="#815cd1" d="m198.14 91.49-28-1.06-1.58 42 28 1.06Z"/><path fill="#957dfe" d="M174.14 87.87c-1.79.08-2.36 2.69-2.38 2.78L170.31 129l26.37 1 1.48-39.09a2.13 2.13 0 0 0-2-2.21c-5.63-.25-20.54-.89-22.02-.83Z"/><path fill="#ffc3ba" d="M214.31 109.09H202a4.1 4.1 0 0 0-.22-.75c-.75-1.63-9.28-10.43-10.56-10.41s2.46 5.43 2.46 5.43-8.93.51-8.73 1.23a15.48 15.48 0 0 0 1.32 2.53s-1.61 2-1.06 2.39 9 3.87 9 3.87-10.42-1.48-9.49-.4 5.16 3.57 5.16 3.57 1.54 5.26 5 7.21l.85 10.87c.15 1.89 3.48 8.07 4.79 9.44 2.43 2.55 6.5 6.35 8.93 6.19 3.64-.24 8.74-13.85 8.72-15.13.86-1.73-.82-13.69-3.94-26Z"/><path fill="#cc6b41" d="M202.69 109.92c.21 1.41.39 2.82.53 4.23s.3 2.83.41 4.24l-.12-.27a249.99 249.99 0 0 1 6.26 6.74c1.01 1.15 2 2.32 3 3.48s2 2.36 2.91 3.58c-1.14-1-2.26-2.08-3.34-3.17s-2.18-2.16-3.24-3.27l-3.16-3.35a141.36 141.36 0 0 1-3.08-3.41.43.43 0 0 1-.1-.27c-.06-1.42-.06-2.84-.09-4.26s0-2.84 0-4.27Z"/><path fill="#cc6b41" d="M216 129.42a4.17 4.17 0 0 1-2.1-.28 4.05 4.05 0 0 1-1.73-1.22 4.44 4.44 0 0 1 3.83 1.5Zm-29.64-22.83a19 19 0 0 1 4.6.43 18.49 18.49 0 0 1 4.4 1.41 19 19 0 0 1-4.6-.43 18.49 18.49 0 0 1-4.4-1.41Z"/><path fill="#ffc3ba" d="M183 25.83c-1.53-3-9.79-5.75-17.92-4.23s-14.87 7-15.23 10.34a36.15 36.15 0 0 0 .73 7.82 7.23 7.23 0 0 0-3.34-.5c-5.31.23-1.57 18.76 6.21 11.68 1.43 4.05 3.3 7.79 5.63 10.1a17.58 17.58 0 0 0 6.62 4.27 12.09 12.09 0 0 0 6.74.55l1.55-.29a12.68 12.68 0 0 0 7.27-4 18.33 18.33 0 0 0 3.49-5.27 21.94 21.94 0 0 0 1.6-7.67c.53-9-2.05-20.2-3.36-22.8Z"/><path fill="#f6c0b8" d="M169 57.54a11.88 11.88 0 0 1-3.34 7.77 17.73 17.73 0 0 1-6.59-4.31c-2.47-2.45-4.42-6.51-5.89-10.83a9.63 9.63 0 0 1 15.87 7.33Zm17.35-8.92a22.4 22.4 0 0 1-1.61 7.67 18.67 18.67 0 0 1-3.48 5.27 9.36 9.36 0 0 1-.89-4 9.6 9.6 0 0 1 6-8.91Z"/><path fill="#cc6b41" d="M147.35 47.36a5 5 0 0 1-.27-1.57 3.56 3.56 0 0 1 .16-1.48 1.44 1.44 0 0 1 2.22-.43 5 5 0 0 1 1.14 1 4.42 4.42 0 0 1 .83 1.24 10.87 10.87 0 0 1 .64 3.1 6.68 6.68 0 0 0-.06-3.32 5.34 5.34 0 0 0-2.15-2.68 2.6 2.6 0 0 0-1.82-.37 1.77 1.77 0 0 0-1.39 1.28 3.52 3.52 0 0 0 0 1.74 3.82 3.82 0 0 0 .65 1.52Z"/><path fill="#cc6b41" d="M150.05 49.5a4.15 4.15 0 0 1-.4-1.35 6.81 6.81 0 0 1-.05-1.35 2.44 2.44 0 0 1 .35-1.17 1.34 1.34 0 0 1 1.1-.61 1.27 1.27 0 0 0-1.56.19 2.23 2.23 0 0 0-.67 1.54 3.79 3.79 0 0 0 .22 1.57 2.25 2.25 0 0 0 1 1.19Zm17.55 3.95a2.35 2.35 0 0 0 1 .87 2.26 2.26 0 0 0 1.31.2c-.39-.24-.77-.37-1.14-.56s-.77-.36-1.17-.51ZM166.57 50a4.82 4.82 0 0 0 1 1.77 6.16 6.16 0 0 0 1.6 1.31 5.15 5.15 0 0 0 2 .65 4.79 4.79 0 0 0 2-.15 17.06 17.06 0 0 1-1.9-.45 8.66 8.66 0 0 1-1.71-.74 13 13 0 0 1-3-2.38Zm8.49-10.31a10 10 0 0 0 .15 5.93 6.47 6.47 0 0 1 .5 2.7 3.53 3.53 0 0 1-1.56 2.21 3.12 3.12 0 0 0 2.17-2.09 5.69 5.69 0 0 0-.34-3.06 19.25 19.25 0 0 1-.91-5.69Zm-3.81 10.18a.9.9 0 0 0 .35.64.85.85 0 0 0 .73.05.71.71 0 0 0-.3-.72.71.71 0 0 0-.78.03Z"/><path fill="#4d2a40" d="M169.76 44c0 1.14-.69 2.06-1.54 2.06s-1.54-.92-1.54-2.06.69-2.06 1.54-2.06 1.54.91 1.54 2.06Z"/><path fill="#4d2a40" d="M170.36 41.68a1.16 1.16 0 0 1-.38.21 2.35 2.35 0 0 1-.54.1 5.25 5.25 0 0 1-1.18-.06.63.63 0 0 0-.17 1.25h.19a6.5 6.5 0 0 0 1.36-.36 2.61 2.61 0 0 0 .65-.36 1.26 1.26 0 0 0 .5-.68.19.19 0 0 0-.14-.24.19.19 0 0 0-.18 0l-.12.1ZM181.34 44c0 1.14-.69 2.06-1.54 2.06s-1.54-.92-1.54-2.06.69-2.06 1.54-2.06 1.54.91 1.54 2.06Z"/><path fill="#4d2a40" d="M182 41.68a1.16 1.16 0 0 1-.38.21 2.35 2.35 0 0 1-.54.1 5.25 5.25 0 0 1-1.18-.06.63.63 0 1 0-.17 1.25h.19a6.67 6.67 0 0 0 1.36-.36 2.61 2.61 0 0 0 .65-.36 1.26 1.26 0 0 0 .5-.68.19.19 0 0 0-.14-.24.19.19 0 0 0-.18 0l-.12.1ZM170.38 38a15.82 15.82 0 0 0-1.72-.06 11.51 11.51 0 0 0-1.76.15 10.75 10.75 0 0 0-1.74.42 16.36 16.36 0 0 0-1.7.69.39.39 0 0 1-.53-.19.41.41 0 0 1 .09-.46 7.83 7.83 0 0 1 1.65-1.2 9 9 0 0 1 4-1.1 7.14 7.14 0 0 1 2.12.25.76.76 0 0 1-.27 1.49h-.09Z"/><path fill="#ffbf51" d="M127.21 49.73c-.4-1.14-1.25-2.06-1.75-3.16a6.25 6.25 0 0 1 .23-5.21 8.9 8.9 0 0 1 3.74-3.75 11.18 11.18 0 0 0 3.34-2.07c1.18-1.31 1.35-3.25 2.77-4.36a7.46 7.46 0 0 1 4.46-1.12 13.62 13.62 0 0 1 5.67.85 2 2 0 0 1-.19.24 78.24 78.24 0 0 1 6-6.36 40.26 40.26 0 0 1 18.36-5.66 17 17 0 0 1 13.2 5.58 3.19 3.19 0 0 1 .55.63 16.56 16.56 0 0 1 2.75 4.83 9.21 9.21 0 0 1 .73 3.92 23.08 23.08 0 0 1-1.14 5c0-.35-.09-.69-.14-1l-2.73-8.43S171.4 36.17 159.23 33c0 0-2.41 9.53-4.83 11.37l-4-4.6a7.41 7.41 0 0 0-3.17-.45h-.08c-5.2.4-1.45 18.72 6.29 11.67.15.43.31.85.48 1.28v4.25l-.11.22a9 9 0 0 1-3.94 3.56c-1.59.81-3.51 1.45-4.25 3.08s0 3.39-.68 4.94a4.18 4.18 0 0 1-2.47 2.17 10.3 10.3 0 0 1-3.35.48 7.77 7.77 0 0 1-3.28-.47c-1.36-.59-2.33-1.82-3.48-2.72-2.33-1.8-5.76-2.55-6.9-5.27-.85-2 0-4.33.78-6.36s1.71-4.29 1-6.36Zm17.94-18.1.17-.26Zm-.5 1a.81.81 0 0 1 .11-.32 1 1 0 0 0-.11.29Zm.23-.53a2 2 0 0 1 .11-.2 1 1 0 0 0-.11.17Z"/><path fill="#4d2a40" d="M171.74 36.67a.93.93 0 0 1-.26.87 1.84 1.84 0 0 1-.79.44.4.4 0 1 1-.24-.77.39.39 0 0 1 .15 0 1.21 1.21 0 0 0 .58-.07.69.69 0 0 0 .22-.16.54.54 0 0 0 .11-.26.12.12 0 0 1 .15-.1.12.12 0 0 1 .1.09Zm6.37 1.33a15.82 15.82 0 0 1 1.72-.06 11.51 11.51 0 0 1 1.76.15 10.75 10.75 0 0 1 1.74.42 16.36 16.36 0 0 1 1.7.69.39.39 0 0 0 .53-.19.41.41 0 0 0-.09-.46 7.83 7.83 0 0 0-1.65-1.2 9 9 0 0 0-4-1.1 7.14 7.14 0 0 0-2.12.25.76.76 0 0 0 .3 1.5h.09Z"/><path fill="#4d2a40" d="M176.75 36.67a.93.93 0 0 0 .26.87 1.84 1.84 0 0 0 .79.44.41.41 0 0 0 .51-.26.41.41 0 0 0-.27-.51.39.39 0 0 0-.15 0 1.21 1.21 0 0 1-.58-.07.69.69 0 0 1-.22-.16.54.54 0 0 1-.11-.26.12.12 0 0 0-.15-.1.12.12 0 0 0-.1.09Z"/><path fill="#ffd76d" d="m185.74 32.49-1.83-.4-.81-2.48a30.68 30.68 0 0 1-3.63 1.63 41.44 41.44 0 0 0-5.2-.52 30.32 30.32 0 0 0-12.84 2.7c-.74-.13-1.47-.29-2.22-.48l-.47 1.72c-1.17.58-2.34 1.2-3.49 1.85a46.36 46.36 0 0 1-6 2.88 9.33 9.33 0 0 0-2-.12h-.07a2.21 2.21 0 0 0-1.8 1.32 28 28 0 0 1-14.72-.35c-1.12-.31-2.25-.67-3.37-1a10.25 10.25 0 0 1 2.16-1.6 11.43 11.43 0 0 0 3.34-2.07c1.17-1.31 1.35-3.25 2.77-4.36a7.46 7.46 0 0 1 4.44-1.15 13.65 13.65 0 0 1 5.67.85l-.19.24a76.94 76.94 0 0 1 6-6.36 40.26 40.26 0 0 1 18.36-5.66 17 17 0 0 1 13.21 5.58 3.12 3.12 0 0 1 .54.63 16.58 16.58 0 0 1 2.76 4.83 12.62 12.62 0 0 1 .68 2.61l-1.34-.28Z"/><path fill="#ffbf51" d="m145.14 31.63.18-.26-.18.26Zm-.5.96a1 1 0 0 1 .11-.32 1.35 1.35 0 0 0-.11.32Zm.23-.53.11-.2a2 2 0 0 0-.11.2Z"/><path fill="#815cd1" d="m144.46 28.39-4.41-2.53a.84.84 0 0 1 0-1.44c2.58-1.57 8.31-5.57 8.73-10.24a.82.82 0 0 1 .77-.73c2.92-.22 13.78-1.59 17.39-9.94a.83.83 0 0 1 1.36-.25c2.33 2.48 8.86 8.67 15.28 7.8a.82.82 0 0 1 1 .63A16 16 0 0 1 184 21l-39.57 7.41Zm7.44 1.2s24.1 2.87 28.46 2.31 10.63-.22 11.1-2.56-7.37-4-7.37-4l-21 .58Z"/><path fill="#957dfe" d="m144 28.26 2.05 3.31s31.13-5.69 38.08-6.08L184 21s-16.37-1.09-25.73 1.57-14.3 5.7-14.3 5.7Z"/><path fill="#ffbf51" d="M180.23 19.77a17.38 17.38 0 0 1-.84-1.67 4.9 4.9 0 0 1 .63-2.92l-1.33-1.28c-1.61 2-3.69 0-3.69 0s-1.86 2.2-3.67.37l-1.19 1.41a5 5 0 0 1 .93 2.84 13.72 13.72 0 0 1-.67 1.75 5.11 5.11 0 0 0-.11 2.13 3.18 3.18 0 0 0 1.08 1.94 5.11 5.11 0 0 0 2.42.76 4.3 4.3 0 0 1 .94.3 3 3 0 0 1 .49.28c.07.05.33.23.38.35a1.67 1.67 0 0 1 .34-.39 2.43 2.43 0 0 1 .46-.33 4.26 4.26 0 0 1 .9-.4 5.12 5.12 0 0 0 2.33-1 3.12 3.12 0 0 0 .88-2 4.92 4.92 0 0 0-.32-2.11Z"/><path fill="#004282" d="M150 25.76a12 12 0 0 0-2-3 11.15 11.15 0 0 0-2.75-2.29 11.1 11.1 0 0 0 2 3 11 11 0 0 0 2.75 2.29Z"/></svg>