<svg xmlns="http://www.w3.org/2000/svg" viewBox="0 0 302 112.2"><path d="M47.6.1a51.7 51.7 0 0 0-6 1.4c-12.8 3.7-20 10.7-22.8 22a59 59 0 0 0-1.5 11 160 160 0 0 1-1.5 14.1A64 64 0 0 1 8.7 73a221.1 221.1 0 0 0 25.1 1.5A125.2 125.2 0 0 1 29.2 87a55.5 55.5 0 0 0-5.4 17.4 2.9 2.9 0 0 0 1.5 2c.7.4.8.5 17.2.5h17.8l.7-.5a3.3 3.3 0 0 0 1.6-2.8c0-1.2-.2-1.5-1.6-3a23.3 23.3 0 0 1-4.7-9.8 25.1 25.1 0 0 1 .7-14.3 14 14 0 0 1 5.8-7.1c2-1 4.7-1.3 9.5-1.2 3.5 0 4.3 0 5.3-.3 1.7-.5 2.7-2 3.1-4.4a5.5 5.5 0 0 1 1.8-3.8c1.1-1.1 1.3-1.9.5-2.6l-.4-.5.8-1c1.1-1.5 1.3-2.3.6-3a3.1 3.1 0 0 1-.6-2.6 1.5 1.5 0 0 1 .7-.7 12.8 12.8 0 0 0 3.3-3.3c.6-1.1.5-1.4-.6-2.5a42.1 42.1 0 0 1-7-7.8 7.5 7.5 0 0 1-.7-3.1v-2l2.8.1 3 .2-.2-1.7a72.4 72.4 0 0 0-1.5-9.4A32.7 32.7 0 0 0 78 10a28.2 28.2 0 0 0-4.1-4 47.8 47.8 0 0 0-9.1-3.8 75.1 75.1 0 0 0-9-2.1 58 58 0 0 0-8.1 0Z" fill="#bccbea" fill-rule="evenodd"/><path d="M39 1.3a52.4 52.4 0 0 0-6 1.4C20.2 6.5 13 13.5 10 24.9A61.6 61.6 0 0 0 8.6 36c-.4 5.5-.7 9-1.5 14.4a66.2 66.2 0 0 1-7 24.7 219 219 0 0 0 25 1.5 120.3 120.3 0 0 1-4.5 12.8 57.1 57.1 0 0 0-5.5 17.7 2.9 2.9 0 0 0 1.5 2c.7.4.9.4 17.2.4h17.9l.6-.4a3.3 3.3 0 0 0 1.6-2.8c0-1.3-.2-1.6-1.6-3.1a24 24 0 0 1-4.6-10 26 26 0 0 1 .6-14.6 14.1 14.1 0 0 1 5.8-7.2c2-1 4.7-1.2 9.5-1.2 3.5 0 4.4 0 5.3-.3 1.7-.5 2.8-2 3.1-4.5a5.6 5.6 0 0 1 1.8-3.8c1.1-1.1 1.3-1.9.6-2.7l-.4-.4.8-1.1c1-1.5 1.2-2.3.5-3a3.2 3.2 0 0 1-.6-2.6 1.5 1.5 0 0 1 .7-.7 12.8 12.8 0 0 0 3.4-3.3c.5-1.2.4-1.5-.7-2.6a42.8 42.8 0 0 1-7-8 7.8 7.8 0 0 1-.6-3l-.1-2h2.9l2.9.2-.1-1.7a73 73 0 0 0-1.5-9.4 33.3 33.3 0 0 0-5.3-9.9 28.4 28.4 0 0 0-4.2-4 47.5 47.5 0 0 0-9-3.9 74.2 74.2 0 0 0-9.1-2 58 58 0 0 0-8-.2Z" fill="#bce1fb" fill-rule="evenodd"/><path d="M43 6.3a51.3 51.3 0 0 0-6 1.4c-12.7 3.7-20 10.6-22.7 21.7a58.1 58.1 0 0 0-1.5 11c-.4 5.5-.7 8.8-1.5 14a64 64 0 0 1-7 24.2 220 220 0 0 0 25 1.4 121.4 121.4 0 0 1-4.6 12.6 55.4 55.4 0 0 0-5.4 17.3 2.9 2.9 0 0 0 1.5 2c.7.3.8.3 17.1.3h16.4l.7-.4a3.2 3.2 0 0 0 1.6-2.8c0-1.2-.2-1.5-1.6-3a23.3 23.3 0 0 1-4.7-9.7c-1-4-.3-11.5 1.4-15.9a13.9 13.9 0 0 1 5.8-7c2-1 3.4-1.3 8.2-1.2 3.5 0 4.3 0 5.2-.3 1.7-.5 2.8-2 3.2-4.4a5.4 5.4 0 0 1 1.7-3.7c1.2-1.1 1.3-1.9.6-2.6l-.4-.5.8-1c1-1.5 1.2-2.3.5-3a3.1 3.1 0 0 1-.6-2.6 1.6 1.6 0 0 1 .7-.7 12.3 12.3 0 0 0 3.3-3.2c.6-1.1.5-1.5-.6-2.5a21.5 21.5 0 0 1-5-6.1 7.6 7.6 0 0 1-.6-3l-.1-2h2.9l2.9.2-.2-1.7a71.6 71.6 0 0 0-1.4-9.3 32.4 32.4 0 0 0-5.3-9.6 29 29 0 0 0-4.1-4 48.1 48.1 0 0 0-9-3.7 75 75 0 0 0-9-2.1 57.6 57.6 0 0 0-8.2-.1Z" fill="#282861" fill-rule="evenodd"/><path d="m43.6 6.6-1.3.2a26.4 26.4 0 0 0-3.1.7 44.7 44.7 0 0 0-9.4 3.2 31.8 31.8 0 0 0-4.4 2.5 23 23 0 0 0-3.9 3.3c-4.1 4-6.6 9.1-7.8 16a56.6 56.6 0 0 0-.8 7.2q-.4 7.4-1.7 15.8a116.7 116.7 0 0 1-3 13.8A34.3 34.3 0 0 1 6 75.5a18.3 18.3 0 0 1-1.1 2 4.4 4.4 0 0 0-.6.9c0 .1.6.2 3.4.5l1.8.1 2.7.2 3.3.2a388 388 0 0 0 14 .6l-.5 1.4-1 3a35.6 35.6 0 0 1-1.5 4.3 50 50 0 0 1-2.1 4.7l-.4 1a4.7 4.7 0 0 1-.2.5 43.6 43.6 0 0 0-1.5 3.6l-1 2.9a44.3 44.3 0 0 0-2 7.3 2 2 0 0 0 0 .8s1.7 0 13.1 0c12.5 0 13 0 13.5-.2a3.1 3.1 0 0 0 .7-.3l.2-.1s.8-.8.8-1l.1-.2a2 2 0 0 0 .3-.5 2.2 2.2 0 0 0 0-1.6l-.2-.5a9.6 9.6 0 0 0-.7-1 8.5 8.5 0 0 1-.7-1 .7.7 0 0 0-.1-.2.6.6 0 0 1-.3-.3 1.1 1.1 0 0 0-.2-.4l-.8-1-.5-1-.5-.7a.6.6 0 0 0-.1-.2l-.2-.3-.5-.6a2.2 2.2 0 0 1-.3-.6l-.2-.2a3.2 3.2 0 0 0-.3-.7 1.6 1.6 0 0 1-.2-.6s0 0 0-.1a3 3 0 0 1-.5-1.2.7.7 0 0 0-.2-.3 9.6 9.6 0 0 1-.4-1.2l-.4-1.1v-3.3a36.5 36.5 0 0 1 .5-7 35.5 35.5 0 0 1 1-4.2.6.6 0 0 0 .1-.3 2.1 2.1 0 0 1 .1-.3 1.5 1.5 0 0 0 .1-.3 2.5 2.5 0 0 1 .1-.3 2 2 0 0 0 .1-.4 13.7 13.7 0 0 1 1.3-2.6l.1-.2.4-.5a10.4 10.4 0 0 0 .6-1c.2-.3 1-1.2 1-1s0 0 .1-.1a1.4 1.4 0 0 1 .4-.3 4 4 0 0 0 .9-.6s.2-.1.2 0l.2-.2c.2-.2.2-.1.2 0a.6.6 0 0 1 .4-.2.4.4 0 0 0 .3 0 .4.4 0 0 1 .3-.2.4.4 0 0 0 .3 0 .6.6 0 0 1 .4-.2.7.7 0 0 0 .4 0c0-.1 2-.2 5.4-.2 8 0 9.7-.2 9.7-4a6.2 6.2 0 0 1 .2-1.8 5 5 0 0 1 1.2-1.4 2.3 2.3 0 0 0 1-1.6.8.8 0 0 0-.2-.8c-.4-.5-.4-.7 0-1.2a5.7 5.7 0 0 0 1.2-2 .8.8 0 0 0-.2-.5 4 4 0 0 1-.8-2.7c0-.6 0-.7.3-1a4.6 4.6 0 0 1 .8-.8 6.7 6.7 0 0 0 1-.7 8.8 8.8 0 0 1 .7-.6 6.8 6.8 0 0 0 1.5-2 2.4 2.4 0 0 0 .2-.8c0-.5 0-.5-.7-1.1a31.6 31.6 0 0 1-4.6-4.9l-.4-.6a5.7 5.7 0 0 1-.8-2l-.1-.2a20.8 20.8 0 0 1-.2-4.7c.2-.7.4-.8 1.4-.9 3-.1 3.7-.2 4-.3h.3v-1A5.6 5.6 0 0 0 71 30a4.6 4.6 0 0 1-.2-1 3.5 3.5 0 0 0 0-.8 2 2 0 0 1-.2-.6l-.5-3V24a7.3 7.3 0 0 1-.6-1.7 1 1 0 0 0-.1-.4 4.1 4.1 0 0 1-.2-.4l-.2-.3-.1-.2a1.3 1.3 0 0 0-.3-.6 3 3 0 0 1-.3-.8 35 35 0 0 0-2-3 30.6 30.6 0 0 0-4-4s-.2-.2-.4-.5a5 5 0 0 0-.8-.6 3 3 0 0 1-.5-.5 22.5 22.5 0 0 0-2.3-1.8l-.5-.4a12.8 12.8 0 0 0-3.5-1.5 41.8 41.8 0 0 0-4.6-.8 47.8 47.8 0 0 0-6 0Z" fill="#69519d"/><path d="M278.8 32.5a20.8 20.8 0 0 0-12.6 5.6 17.5 17.5 0 0 0-2.9 3.4 19.6 19.6 0 0 0-3 8.5 34.7 34.7 0 0 0 0 5.3A20 20 0 0 0 265 66a20.6 20.6 0 0 0 11.4 6.4 18.6 18.6 0 0 0 4.7.3 18.3 18.3 0 0 0 5.3-.5 21.4 21.4 0 0 0 8.4-4 19.5 19.5 0 0 0 7.1-15.5 19.1 19.1 0 0 0-1-6.7 18.5 18.5 0 0 0-4.8-7.7 20.5 20.5 0 0 0-11.6-5.6 36.2 36.2 0 0 0-5.8-.2ZM97 33a.5.5 0 0 0 .1.3l1.6 3 1.3 2.4 4 7.7 3.8 7.1 1 1.9 1.2 2.2 1.3 2.3 1 2a3.2 3.2 0 0 1 .4.9 7.9 7.9 0 0 1-.8 1.4c-1.6 2.4-3 3.4-5 3.8a4.6 4.6 0 0 1-1.9 0 14 14 0 0 1-1.8-.3l-1-.3a38.5 38.5 0 0 0-1.5 4.6 10.6 10.6 0 0 0 2.8 1 14.5 14.5 0 0 0 4.3.1 12 12 0 0 0 6.3-3.5 24 24 0 0 0 3.9-6l1-1.9.8-1.6 2.8-5.2a803.4 803.4 0 0 0 4.2-7.7l1-1.8 2.7-5 1.4-2.5 1.3-2.6c1.2-2.1 1.3-2.2 1.1-2.3a.7.7 0 0 0-.4 0h-5l-.3.4-4.4 8.5-1.7 3.3L121 48l-1.7 3.2-1.5 2.8-1.2 2.4a9.6 9.6 0 0 1-.8 1.4l-1.6-3a476 476 0 0 0-2.2-4.3l-2.1-4.2-2-4-2-4L103 33a28 28 0 0 0-3-.1 11.6 11.6 0 0 0-3 .1Zm51.6 0h-2.7l-1.2 2.6-2 4.4-4.2 9.3-3.8 8.3-1 2.3-1.2 2.7-1 2.3a36.6 36.6 0 0 0-3.2 7.4 25.1 25.1 0 0 0 2.9 0l2.8-.1 1-2.3 2-4.2 1-2.5.2-.5.1-.2h21l.3.7 3 6.8.6 1.3a3.6 3.6 0 0 0 .5.9 31.4 31.4 0 0 0 5.8 0l-1-2.2-1.3-2.9-3.6-8-1-2.1-1.2-2.6-3.3-7.4-.7-1.5a1127 1127 0 0 1-3.8-8.3l-1.3-2.8-.7-1.4a16.2 16.2 0 0 0-3 0Zm27.1 0c-.2 0-.2 1.3-.2 19.7v19.6h5.6V37.9h22.8v34.5h5.5V33h-33.7Zm43 0v39.4h5.5V37.9h22.9v34.4a20.2 20.2 0 0 0 2.8 0h2.7V33l-34 .1Zm59.6 4.8a14.7 14.7 0 0 0-12 11 14.2 14.2 0 0 0-.5 4 14.8 14.8 0 0 0 1.3 6.3 14.3 14.3 0 0 0 7.1 7.2 15.9 15.9 0 0 0 5.7 1.5 11.7 11.7 0 0 0 2.8 0 14.6 14.6 0 0 0 9.4-4.3 15.1 15.1 0 0 0 4.1-8.3 24.7 24.7 0 0 0 0-4.9 14.6 14.6 0 0 0-4.2-8.4 14.2 14.2 0 0 0-8-4 20.1 20.1 0 0 0-5.8-.2Zm-129.9 1.6a6 6 0 0 0-.2.6l-.6 1.3-3.7 8.4-1.4 3.1-2.2 5.1h16.8l-3-7a492.4 492.4 0 0 1-2.9-6.7l-2-4.6a2.9 2.9 0 0 0-.4-.8 1.6 1.6 0 0 0-.4.6ZM99.8 80.2a3 3 0 0 0 0 .5v.4h198.4v-1.2H99.8Zm78.3 5.6a.8.8 0 0 0 .5 1.3.7.7 0 0 0 .5-1.3.8.8 0 0 0-1 0Zm14.7 0a.7.7 0 0 0 .4 1.3.6.6 0 0 0 .7-.7.9.9 0 0 0-.2-.5.8.8 0 0 0-.9 0Zm-69.2.4a1 1 0 0 0 0 .5c.1.7 1.1.4 1.1-.3 0-.4-.2-.5-.6-.5s-.5 0-.5.3Zm1.4 0c-.2.5 0 .9.6.8a.6.6 0 0 0 .4-.8c0-.3 0-.3-.4-.3s-.5 0-.6.3Zm-24.6-.1 1.4 2.9a31 31 0 0 1 1.4 2.9 2.3 2.3 0 0 1-1.4.6c-.5 0-.6.1-.6.4a1.2 1.2 0 0 0 0 .5c.2.4.5.4 1.3.1 1.1-.3 1.5-.9 3-4.4a66 66 0 0 1 1.2-3 2 2 0 0 0-.6 0h-.6l-.2.6-.8 2.1-.6 1.6h-.2a3.8 3.8 0 0 1-.3-.6 94.3 94.3 0 0 0-1.6-3.5c0-.1 0-.2-.7-.2a2.2 2.2 0 0 0-.8 0Zm19.5 2a7.9 7.9 0 0 0-1 .4c-.2.2-.2.3-.2.6s0 .6.8.2 1.4-.4 1.7-.1a1.6 1.6 0 0 1 .1 1.1 3.3 3.3 0 0 1-1 .4c-1 .2-1.4.4-1.7.8a1.1 1.1 0 0 0-.2.8 1 1 0 0 0 .5 1 1.5 1.5 0 0 0 1.3.4 2.8 2.8 0 0 0 .7-.4c.5-.4.7-.4.7-.1a.7.7 0 0 0 .2.3.7.7 0 0 0 .7.2c.4 0 .6-.2.7-.6s0-.4-.3-.4h-.4V89l-.3-.3a2.3 2.3 0 0 0-2.4-.5Zm15 0a2.3 2.3 0 0 0-1.9 1.7 5.6 5.6 0 0 0 0 1.2c0 1.8.8 2.7 2.3 2.7 1 0 1.4-.1 1.4-.5.2-.8 0-1-.5-.6a1.7 1.7 0 0 1-1.6-.2 2.6 2.6 0 0 1-.5-1.8c.1-1.3.9-1.8 1.9-1.4.5.3.7.2.7-.1.2-.7.1-.8-.3-.9a3.6 3.6 0 0 0-1.5 0Zm14.7 0a5.5 5.5 0 0 0-1 .4c-.3.1-.3.2-.3.6s.2.6.5.4a2.4 2.4 0 0 1 1.3-.5 1.7 1.7 0 0 1 .6 0c.3.2.5 1.2.3 1.4a9.3 9.3 0 0 1-1 .2c-1.5.3-1.9.6-2 1.3a1.4 1.4 0 0 0 .8 1.6 2.4 2.4 0 0 0 .8.2c.3 0 1.2-.5 1.2-.7s.3-.1.4.2a.8.8 0 0 0 1 .4.8.8 0 0 0 .7-.7c0-.2 0-.2-.4-.2h-.4v-3.8l-.3-.3a2.2 2.2 0 0 0-2.2-.4Zm7.5 0a3.7 3.7 0 0 0-1.4.6v.5a1.2 1.2 0 0 0 0 .4s.4 0 .7-.3a1.8 1.8 0 0 1 1-.3c.5 0 .6 0 .8.2s.2 1.1 0 1.2a6.7 6.7 0 0 1-1 .3c-1.5.3-1.9.6-1.9 1.5a1.4 1.4 0 0 0 .8 1.3 1.2 1.2 0 0 0 1.6-.2c.4-.4.7-.4.7-.1s.5.5.8.5a.9.9 0 0 0 .8-.5c.1-.3 0-.4-.3-.5h-.3V91c0-1.7 0-1.9-.2-2.1a2.1 2.1 0 0 0-2-.6Zm10.5 0c-1.4.2-2 1.1-2 2.9a2.8 2.8 0 0 0 .4 1.8 2.6 2.6 0 0 0 3.8.2 3.3 3.3 0 0 0 .7-2c0-2-1-3.1-2.8-2.8Zm14.5 0a5.5 5.5 0 0 0-1 .4c-.4.2-.4.2-.4.5a1.2 1.2 0 0 0 0 .5c.2.1.2.1.4 0a2.4 2.4 0 0 1 1.5-.5c.6 0 .8.2.8.9v.5a8 8 0 0 1-1.1.3c-1 .2-1.5.4-1.7.8a2.6 2.6 0 0 0 0 .7c0 .6 0 .7.2 1a1.8 1.8 0 0 0 1.5.5 2.1 2.1 0 0 0 .6-.4c.5-.4.7-.4.7-.2s.5.6.8.6a1.1 1.1 0 0 0 .7-.3.9.9 0 0 0 .1-.4c0-.2 0-.3-.3-.3-.5 0-.5-.1-.4-1.8s0-2.2-.6-2.6a2.5 2.5 0 0 0-1.8-.1Zm55 0a7 7 0 0 0-1 .4c-.4.2-.4.2-.4.6s.2.6.8.2a1.5 1.5 0 0 1 1-.3 1.9 1.9 0 0 1 .7 0c.2.2.4 1.3.2 1.4a9 9 0 0 1-1 .2c-1.2.3-1.5.4-1.8.9a1.1 1.1 0 0 0-.1.7 1.5 1.5 0 0 0 1.4 1.5c.4 0 .5 0 1-.4a6.1 6.1 0 0 1 .5-.4s.2.1.2.3a.8.8 0 0 0 1 .4c.5 0 .7-.2.7-.6s0-.3-.4-.3h-.3V89l-.3-.3a2.2 2.2 0 0 0-2.1-.5Zm-122.2.1a4 4 0 0 0-.6.4 1.6 1.6 0 0 1-.4.3s0-.2 0-.4v-.3h-1.1v7.5h.5a1.3 1.3 0 0 0 .6 0 5.7 5.7 0 0 0 0-1v-1h.8c2 0 2.8-1 2.8-3a2.5 2.5 0 0 0-.3-1.5 1.8 1.8 0 0 0-2.2-.9Zm47.3 0c-1.8.9-2 4.3-.2 5.2a3.6 3.6 0 0 0 2.2.1c.3 0 .4-.1.4-.4.2-.7 0-.9-.5-.6a1.9 1.9 0 0 1-.8.2.9.9 0 0 1-.8-.4 2.6 2.6 0 0 1-.3-2.6c.3-.7.8-.8 1.8-.5a1.4 1.4 0 0 0 .5.1 3 3 0 0 0 .1-.5l.1-.5-.4-.1a4.3 4.3 0 0 0-2.1.1Zm49 .1a2.9 2.9 0 0 0-.6.4c-.1.2-.3.1-.3-.2v-.3h-1.1v7.5h.5a1.8 1.8 0 0 0 .5 0 3.5 3.5 0 0 0 .1-1v-1h.8c1.9 0 2.8-1 2.8-3 0-1.6-.6-2.4-1.8-2.6a1.2 1.2 0 0 0-.9.3Zm5-.1a2.4 2.4 0 0 0-1.2 1.2 2.7 2.7 0 0 0-.2 1.6 2.5 2.5 0 0 0 1.5 2.6 4 4 0 0 0 2.3 0c.4-.1.4-.2.5-.6a1.8 1.8 0 0 0 0-.5 1.5 1.5 0 0 0-.4.1 4.3 4.3 0 0 1-1.1.2c-.6 0-.7 0-1-.2a1.6 1.6 0 0 1-.7-1.2V91h3.4v-.6a1.8 1.8 0 0 0-2-2.2 3.1 3.1 0 0 0-1 .1Zm11.4 0a2.2 2.2 0 0 0-1.1 1.8 3 3 0 0 0 1 3.5c.8.4 2.4.3 2.6-.2a1.2 1.2 0 0 0 .1-.5v-.4l-.4.2a2.6 2.6 0 0 1-1 .2.9.9 0 0 1-.8-.4 2.5 2.5 0 0 1-.2-2.7c.3-.6.8-.7 1.7-.4.5.2.6.1.7-.5s0-.6-1.2-.6a2 2 0 0 0-1.4.2Zm25.7 0h-.3v5.4h.3a1.6 1.6 0 0 0 1-.2 19 19 0 0 0 1-1.7c1-1.6 1.1-2 1.2-1.9v1.8a16.3 16.3 0 0 0 0 1.9 1.5 1.5 0 0 0 .6 0h.6v-5.2h-1.3l-.5 1-1 1.7a4.6 4.6 0 0 1-.5.9 12.4 12.4 0 0 1-.1-1.9v-1.8h-.3a2.5 2.5 0 0 0-.7 0Zm-146 0s-.2 4-.1 5.2l.4.2c.8 0 .7.3.7-2.8v-2.5h-.5a1.2 1.2 0 0 0-.5 0Zm2.8.3-.7.9-.7 1-.3.3.6 1 1 1.4c.4.5.5.6.8.6.8 0 1-.3.7-.6a25.5 25.5 0 0 1-1.7-2l-.3-.5 1-1.1 1-1.2a1.3 1.3 0 0 0-.7-.1c-.4 0-.4 0-.6.4Zm14-.3v5.3h.5a4.7 4.7 0 0 0 .6 0s0-1.2 0-2.7v-2.7h-.5a1.6 1.6 0 0 0-.5.2Zm2.9 2.3V93c0 .4 0 .4.4.5.8 0 .8 0 .8-1.2v-1h2.2v1a4.6 4.6 0 0 0 0 1.2h1.2v-5.2l-.6-.1h-.6v2.2h-1l-1.1-.1a5.3 5.3 0 0 1 0-1.1v-1H127Zm11 .3v2.8a13.4 13.4 0 0 0 1.3 0 4.2 4.2 0 0 0 1.8-.3 1.7 1.7 0 0 0 1-1.6 1 1 0 0 0-.3-1c-.4-.3-1-.5-2-.5h-.7v-2h-1.2Zm5-2.6v5.3h1.2v-5.3h-.5a1.5 1.5 0 0 0-.5.1Zm2.3 1.1a10 10 0 0 0-1 1.4A16 16 0 0 0 146 93l.5.7h.5c.8-.1.8-.2.3-.8l-1-1.3c-.8-1-.9-.9.2-2.1a9.6 9.6 0 0 0 .9-1.2l-.6-.1h-.5Zm26.4 1.7v2.7h4.2v.7c.1.6.1.7.4.7.5 0 .6-.1.6-1.3v-1h-.4c-.3 0-.4 0-.5-.2a19.1 19.1 0 0 1 0-2.3l.1-2h-1.2v4.4h-2v-4.5h-1.2Zm6.4-2.6v5.3h1.1v-5.5h-.5c-.4 0-.6 0-.6.2Zm8.2 2.6v2.7h4.3v.6c.1.6.2.8.7.8h.2v-2.2h-.8v-4.7h-1.1v4.6h-2v-4.4h-1.2Zm6.4 0v2.7h1.2v-5.4h-1.2Zm3.7-2.6a1.7 1.7 0 0 0-.9 1 1.7 1.7 0 0 0 .5 2c.2 0 .3.2.3.2a6.4 6.4 0 0 1-1 1.4c-.3.3-.3.4-.2.5a1.3 1.3 0 0 0 .6.2h.5l.4-.7.5-1c.2-.3.3-.3.7-.3h.4v1.8h.5a1.9 1.9 0 0 0 .6 0 9.7 9.7 0 0 0 .1-2.7v-2.5h-1.3a5.4 5.4 0 0 0-1.7 0Zm6.6 2.4v2.7l.6.2h.6V89h2v2.3a7.2 7.2 0 0 0 .2 2.3 1.8 1.8 0 0 0 .6 0h.4v-5.2a16 16 0 0 0-2.2-.1H203Zm18.6-2.3-.2 1c-.2 2.2-.5 3-1.1 3.2l-.3.1V95h.3c.5 0 .6-.1.6-.8v-.5h1.8a5.6 5.6 0 0 1 1.9 0 3 3 0 0 1 .1.7c.1.6.2.7.6.6.3 0 .3 0 .3-1.1v-1.1h-.7v-4.6h-3.3Zm9-.1a1 1 0 0 0 0 .4v.3h1.7v4.5h.4c.8 0 .7.3.7-2.3V89h.8l.8-.1a1.5 1.5 0 0 0 0-.5c0-.2 0-.2-2.1-.2-1.8 0-2.2 0-2.2.2Zm10.7 2.5v2.7a7.3 7.3 0 0 0 2.6 0c1.2-.2 1.7-.6 1.7-1.5 0-.4 0-.6-.3-.8a3.1 3.1 0 0 0-.5-.4l.2-.5a1.2 1.2 0 0 0 .2-1.5c-.3-.5-.8-.6-2.4-.6h-1.4Zm5.5-2.6v5.3h.6a2.8 2.8 0 0 0 .6 0 9.7 9.7 0 0 0 0-1v-1.2h2.3v2.2h.4a3.2 3.2 0 0 0 .6 0h.2v-5.3h-1.2v2.2h-1c-1.4 0-1.3 0-1.2-1.2v-1h-.6a1.5 1.5 0 0 0-.7 0Zm12.5 2.7v2.7h4.3v.7c.1.6.2.6.4.7.5 0 .6-.1.6-1.3v-1h-.4c-.4 0-.4 0-.5-.4a19.8 19.8 0 0 1 0-2.2l.1-1.9h-1.2v4.4h-2v-4.5h-1.2Zm6.4-2.6v5.3h1.4c1.5 0 2-.2 2.4-.8a1.4 1.4 0 0 0 .4-1.2c-.1-1-.6-1.2-2-1.3h-1v-2h-.5a1.5 1.5 0 0 0-.7 0Zm-98.1.7c-.7.2-1 1.1-.8 2.4.2 1 .4 1.4 1.2 1.4s1.3-.6 1.3-1.9a2.8 2.8 0 0 0-.5-1.7 1.3 1.3 0 0 0-1.2-.2Zm49.1 0a1.4 1.4 0 0 0-.7.9c0 .2.1.2 1.1.1 1.3 0 1.3 0 1-.6a1 1 0 0 0-1.4-.4Zm25.8-.1a2.6 2.6 0 0 0 0 .8v.7h.6c.7 0 1-.2 1.1-.6v-.6a.9.9 0 0 0-.5-.3 2.6 2.6 0 0 0-1.2 0Zm-45.7.2a1.1 1.1 0 0 0 0 1.4c.2.3.3.3.8.3h.6v-.3a5.3 5.3 0 0 0 0-1V89h-.6c-.5.1-.6.2-.8.4Zm25.7 0a1.7 1.7 0 0 0-.1.5 8.1 8.1 0 0 1-.6 2.6 1.1 1.1 0 0 0-.2.3l1 .1h1V89h-.6c-.4 0-.5 0-.6.2Zm-107.8 0c-.8.4-.8.5-.8 2v1.5h.3a2 2 0 0 0 1.5 0c.4-.3.6-.7.6-1.5.1-1.5-.6-2.4-1.6-2Zm96.6 0c-.3 0-.9.5-.9.7v1.4c0 1.5 0 1.5.9 1.5 1 0 1.4-.5 1.5-1.9 0-1-.3-1.5-.7-1.7a1 1 0 0 0-.8 0Zm-72 2a4.7 4.7 0 0 0 0 1v.7h.6c.8 0 1.1-.3 1.1-.9s-.2-.8-.7-.8a5.5 5.5 0 0 1-.7 0c-.3-.2-.3-.2-.4 0Zm127.6 0a4.5 4.5 0 0 0 0 .9v.8h.5a1.1 1.1 0 0 0 .9-.2c.3-.2.3-.3.3-.7s0-.5-.2-.7-1.5-.4-1.6-.2Zm-146.3.2c-1 .3-1 .3-1.1.6a.7.7 0 0 0 .6.8 1.3 1.3 0 0 0 1.2-1c.1-.7.1-.7-.7-.5Zm29.4 0c-.8.3-1 .5-.9.8.2.6.7.8 1.3.4a1.3 1.3 0 0 0 .6-1c0-.5 0-.5-1-.2Zm7.6 0-.8.2c-.2 0-.3.1-.3.4 0 .7.6 1 1.3.6a1 1 0 0 0 .5-1c0-.4 0-.4-.7-.2Zm24.8 0c-.7.3-.7.3-.8.6 0 .7.5 1 1.3.6a1 1 0 0 0 .6-1c0-.5 0-.5-1-.2Zm55 0c-.6.3-.8.3-.8.6a.5.5 0 0 0 0 .5.8.8 0 0 0 1.2.1 1 1 0 0 0 .6-.9c.2-.6.2-.6-1-.3Zm5 .8v.8h.8c.7 0 1-.2 1.2-.5a.9.9 0 0 0 0-.9c-.2-.2-.4-.2-1-.2h-1Zm-30.8 7.9a.9.9 0 0 0-.2.4.9.9 0 0 0 .7.7 1 1 0 0 0 .7-.7.6.6 0 0 0-.7-.7.6.6 0 0 0-.5.3Zm-97.3 2.3a2.6 2.6 0 0 0-1.2.5c-.1.2 0 .9.2.9a1.5 1.5 0 0 0 .5-.3c.7-.4 1.3-.5 1.7-.2.3.2.3.3.3.7 0 .6 0 .6-1.4.9-.8.2-1.1.3-1.4.6a1.3 1.3 0 0 0 0 1.5 1.5 1.5 0 0 0 2.4.3c.3-.2.5-.2.5 0a.9.9 0 0 0 1.2.5c.3-.1.4-.2.4-.5s0-.5-.3-.5l-.3-.1v-1.9c0-1.7 0-1.7-.2-2a2.2 2.2 0 0 0-2.5-.5Zm11 0a2.4 2.4 0 0 0-1.3 1.3 2.8 2.8 0 0 0-.2 1.5 2.5 2.5 0 0 0 .8 2.2 2.2 2.2 0 0 0 1.6.5 2.3 2.3 0 0 0 2.2-1.4 2.7 2.7 0 0 0 .2-1.5 2.6 2.6 0 0 0-.3-1.5 2.4 2.4 0 0 0-3-1.1Zm6-.1c-1.2.3-1.9 1.3-1.9 2.8 0 1.8 1 2.8 2.4 2.8a2.3 2.3 0 0 0 2.3-1.4 3 3 0 0 0 .2-1.5 2.6 2.6 0 0 0-.3-1.6 2 2 0 0 0-1.8-1.2 3.7 3.7 0 0 0-1 0Zm10.4 0a2.5 2.5 0 0 0-1.3 1.3 4.6 4.6 0 0 0-.2 2.3 2.2 2.2 0 0 0 2 2 2.3 2.3 0 0 0 2.5-1.3 2.8 2.8 0 0 0 .3-1.5 2.6 2.6 0 0 0-1-2.5 3 3 0 0 0-2.3-.3Zm12 0c-1.2.3-1.8 1.3-1.8 2.8a2.8 2.8 0 0 0 .7 2.2 2.6 2.6 0 0 0 3.5-.2 2.9 2.9 0 0 0 .7-1.9c0-1.8-.7-2.9-2.2-3a3.5 3.5 0 0 0-1 0Zm31.8 0c-1.2.3-1.9 1.2-1.9 2.8a2.7 2.7 0 0 0 .9 2.3 2.3 2.3 0 0 0 1.8.5c1.5-.2 2.3-1.3 2.2-3.2a2.5 2.5 0 0 0-1.3-2.3 3.8 3.8 0 0 0-1.8-.1Zm15.6 0a5 5 0 0 0-1 .3c-.5.3-.5.4-.4 1 0 .2.2.2.8-.2a1.6 1.6 0 0 1 1-.3c.8 0 1 .2.9 1v.5l-1 .2c-1.2.3-1.6.4-1.8.8a1.7 1.7 0 0 0 .4 2 1.5 1.5 0 0 0 2-.2c.4-.4.5-.4.7 0a.8.8 0 0 0 1 .4c.3 0 .4-.1.4-.4s0-.6-.4-.6a.4.4 0 0 1-.2 0s0-.8 0-1.7c.1-1.7 0-2-.4-2.4a2.3 2.3 0 0 0-2.1-.4Zm-100 0v5.4h.5l.6-.1V104l.1-1h2v4.7h1.2v-5.5h-2.2l-2.3.1Zm6.4 0h-.2v7.7h1.1v-2.2h.6a2.4 2.4 0 0 0 2.6-1.2 3 3 0 0 0 .4-1.5c0-1.4-.4-2.2-1.2-2.6a1.6 1.6 0 0 0-1.7.1 5 5 0 0 1-.7.4s0-.2 0-.3 0-.4-.3-.4a2.6 2.6 0 0 0-.6 0Zm11.2 0v5.5h1.5c1.2 0 1.5-.1 1.9-.3a1.4 1.4 0 0 0 .8-1 1 1 0 0 0 0-.7c-.1-.3-.5-.7-.7-.7s-.2-.3.1-.6.3-.3.3-.9 0-.6-.2-.8c-.4-.4-.7-.5-2.2-.6a8.6 8.6 0 0 0-1.5.1Zm16.3 0c0 .2.1.5 1 2a4 4 0 0 1 .4.6 11.6 11.6 0 0 1-.7 1.4l-.8 1.4h1l.7-1a3 3 0 0 1 .6-1 3.7 3.7 0 0 1 .7 1l.5 1h.6a1.6 1.6 0 0 0 .6 0 6.7 6.7 0 0 0-.7-1.3 13.9 13.9 0 0 1-.9-1.4s.4-.6.8-1.3a10.4 10.4 0 0 0 .7-1.3h-1l-.2.2a10.2 10.2 0 0 1-1 1.5l-.5-.5a7.7 7.7 0 0 1-.5-.9c-.1-.3-.2-.4-.8-.4l-.5.1Zm11.6 0h-.3v7.5h1.3v-2h.6a3.1 3.1 0 0 0 2-.6 3.4 3.4 0 0 0 0-4.7 2 2 0 0 0-2.3.2c-.3.3-.4.3-.4-.1s0-.4-.3-.3a2.8 2.8 0 0 0-.6 0Zm11.4 0v5.5h1.1v-2.3h2.3v2.3h1.1v-5.4h-.3a2.1 2.1 0 0 0-.6 0c-.2 0-.2 0-.2 1a3.6 3.6 0 0 1 0 1.2h-2.2v-2.2h-.5a1.3 1.3 0 0 0-.7 0Zm6.3 0v5.5h1.1v-2.3h2.3v2.3h1.2v-5.4h-1.1v1c0 1 0 1.2-.2 1.2h-2.1v-2.2h-.4a1.3 1.3 0 0 0-.8 0Zm6.3 0v5.5h.5c.3 0 .5 0 .6-.2a28.4 28.4 0 0 0 1.6-2.6 4.2 4.2 0 0 1 .6-1 8 8 0 0 1 0 1.8v2h1.1v-5.5h-.4a1.3 1.3 0 0 0-.6 0 15.8 15.8 0 0 0-1.7 2.8c-.5 1-.6 1-.6-1v-1.8h-.5a1.9 1.9 0 0 0-.6 0Zm5.8 0c0 .2 0 .4 1 1.9a3.4 3.4 0 0 1 .4.8 19.7 19.7 0 0 1-1.4 2.3.5.5 0 0 0 0 .3c0 .1 0 .2.4.2s.4 0 1.3-1.4a1.8 1.8 0 0 1 .4-.6c.2 0 .5.6 1 1.5l.3.5h.5a1.9 1.9 0 0 0 .7-.1 5.3 5.3 0 0 0-.8-1.4c-.8-1.1-.9-1.3-.8-1.5l.8-1.3a6 6 0 0 0 .7-1.1 1.7 1.7 0 0 0-1 0 5.2 5.2 0 0 0-.6.8 6.8 6.8 0 0 1-.5.9c-.2.2-.2.1-.7-.6a9.9 9.9 0 0 1-.6-1c0-.2-.1-.2-.6-.2l-.6.1Zm13.6 0c-.2 0-.2.3-.2 3.5v3.8s0 .3.6.3h.6v-2.1h.6c1.8 0 2.8-.9 2.9-2.8a3 3 0 0 0-.2-1.5 1.8 1.8 0 0 0-2.8-1l-.6.3a.6.6 0 0 0 0-.4c0-.2-.1-.2-.4-.2a3.1 3.1 0 0 0-.6.2Zm5.8 0v5.5h1.1V103h2.2v-.8h-1.6a10.2 10.2 0 0 0-1.8 0Zm9.5 0v5.5h1.1v-2.3h2.3v2.3h1.1v-5.5h-1.1v2.2h-2.3v-2.2h-.5a1.5 1.5 0 0 0-.6 0Zm6.6 0h-.3v5.4h1.1v-5.1c0-.3-.1-.3-.8-.2Zm2.5 0v5.5h1.5c1.3 0 1.5 0 2-.3a1.6 1.6 0 0 0 .8-1.2 1.4 1.4 0 0 0-.7-1.1l-.3-.3a1.1 1.1 0 0 1 .3-.3c.3-.3.3-.4.3-.9s0-.6-.2-.8c-.4-.5-.7-.5-2.2-.6a8.7 8.7 0 0 0-1.5 0Zm-94.5.9a2.2 2.2 0 0 0-.1.7v.7h.5c.7 0 1-.1 1.1-.5s0-.9-.4-1-1 0-1.2.1Zm5.7 0c-.6.3-.8 1.2-.7 2.4s.6 1.4 1.5 1.4a1 1 0 0 0 1-1 4.5 4.5 0 0 0-.1-2l-.5-.8a1.3 1.3 0 0 0-1.2 0Zm5.9 0c-.6 0-.9.6-.9 1.8 0 1.4.5 2 1.4 2 .8-.1 1.2-.6 1.2-1.8s-.4-2-1.1-2.1a2.1 2.1 0 0 0-.7 0Zm10.5 0c-.5.2-.6.6-.7 1.4-.1 1.4.4 2.4 1.2 2.4s1.4-.6 1.3-2a2.2 2.2 0 0 0-.4-1.6 1.4 1.4 0 0 0-1.5-.2Zm11.7 0c-.4.3-.6.6-.6 1.5a2.6 2.6 0 0 0 .5 2c.2.3.3.3.8.3.9 0 1.2-.6 1.2-1.9s-.3-1.9-1.1-2a1.3 1.3 0 0 0-.8.1Zm32 0c-.8.2-1.1 1.2-.9 2.5a1.6 1.6 0 0 0 .4 1c.4.4.4.4 1 .3a1 1 0 0 0 1-1 4.2 4.2 0 0 0-.1-2.3 1.1 1.1 0 0 0-1.5-.5Zm29.8 0a3.6 3.6 0 0 0 0 1.4c.1.2 1 .2 1.4 0 .6-.4.6-1 0-1.3a2.4 2.4 0 0 0-1.4-.1Zm-106.3.2a3.5 3.5 0 0 0-.5.4l-.4.3v1.3a5.7 5.7 0 0 0 .2 1.5 2.4 2.4 0 0 0 1.4 0c.5 0 .8-.6.8-1.5s0-1.6-.5-1.9a1.3 1.3 0 0 0-1-.2Zm38.9.2c-.6.3-.7.3-.7 1.8s0 1.6.8 1.6c1 .1 1.6-.4 1.7-1.6 0-1.7-.8-2.5-1.9-2Zm43.5 0c-.7.3-.7.4-.7 1.9a3.9 3.9 0 0 0 .2 1.5 1.5 1.5 0 0 0 .8 0c.6 0 .7 0 1-.2a2 2 0 0 0 .5-1.7c-.1-1.5-.8-2.2-1.8-1.7Zm-76.7 2c-1 .3-1 .3-1 .7a.7.7 0 0 0 .6.7 1.9 1.9 0 0 0 1.2-.7 1.5 1.5 0 0 0 .1-.5c0-.5 0-.5-1-.3Zm86.5 0c-.9.3-.9.3-.9.7a.7.7 0 0 0 .7.7 2 2 0 0 0 .6-.3c.5-.3.5-.3.6-.8s0-.6-1-.4Zm14.2 0a2.7 2.7 0 0 0 0 1.5c.2.3 1.3 0 1.7-.3a.7.7 0 0 0 0-1 2.6 2.6 0 0 0-1.7-.4Zm-95.9.7c0 .7 0 .7.3.9a1.3 1.3 0 0 0 .8 0c.7-.2 1-.5 1-1s-.4-.6-1.4-.6h-.7Z" fill="#292a62" fill-rule="evenodd"/></svg>