<svg width="40" height="40" viewBox="0 0 40 40" fill="none" xmlns="http://www.w3.org/2000/svg">
<rect width="40" height="40" rx="16" fill="#FFE5E5"/>
<path d="M31.2463 14.6416C30.9715 13.6257 30.1791 12.8303 29.1632 12.5586C27.7987 12.0318 14.5821 11.7736 10.7481 12.5736C9.73229 12.8484 8.93682 13.6408 8.66512 14.6567C8.04927 17.3586 8.00248 23.2001 8.68021 25.9623C8.95493 26.9782 9.74738 27.7736 10.7632 28.0453C13.4651 28.6672 26.3104 28.7548 29.1783 28.0453C30.1942 27.7706 30.9897 26.9782 31.2613 25.9623C31.918 23.0189 31.9647 17.5397 31.2463 14.6416Z" fill="#FF0000"/>
<path d="M23.8499 20.3016L17.6914 16.7695V23.8337L23.8499 20.3016Z" fill="white"/>
</svg>
