<svg xmlns="http://www.w3.org/2000/svg" viewBox="0 0 746 454.05"><path d="M730.89 454H25.2c-5.58-11.38-29.78-62.47-23.65-121.56 2.56-24.58 10.72-50.93 28.26-77.18l1.52-2.26a195.55 195.55 0 0 1 15.72-20 151.47 151.47 0 0 1 22.12-20.3 136 136 0 0 1 18.2-11.5l.29-.15c2.34-1.24 4.66-2.37 7-3.42 4.61-2.1 9.14-3.89 13.62-5.47 6-2.13 12-3.84 17.69-5.36 4.58-1.21 9-2.32 13.32-3.4 26.47-6.62 46.9-12.7 54.27-44.07 20.2-85.85 111.56-93.8 170.2-67s168.46-23.59 258.41 19.19c52.79 25.12 51.55 78.07 48.42 121.17-2.22 30.35-5.38 55.78 8.66 63.11 33.88 17.7 94.83 76.2 51.64 178.2Z" transform="translate(0 .07)" fill="#815cd1" opacity=".05" style="isolation:isolate"/><path d="M745.84 388.33c-.22 19.42-4.56 41.32-14.91 65.71H25.09A245.87 245.87 0 0 1 7.9 409.59c-11.01-39.52-16.14-98.87 23.49-156.21 12.37-17.91 25.14-30.78 37.83-40.23h2.72v36.92h15.77v-48.6a160.48 160.48 0 0 1 20.61-8.88c6-2.12 12-3.83 17.69-5.35 4.58-1.21 9-2.31 13.33-3.39v61.6h17.43v-10.3l20.56.11v-16.67h4.13v-3.31h.54v3.31h19.06v-3.31h.55v3.31h3.82v33.16h24.46v12.21h13.61v-7.09h12.62V228.7h6.29v-13.13h.95v13.13h15.09v-24.63h1.47v24.61h10v-48.24h3v-3.68h.48v3.68h22v-3.68h.47v3.68h4v25.73h2.82v-21.5h31.19l.71.39v28.07h19.51v36.86h15.78V181.8h3.42v-4.73h.6v4.77h12.46v-4.77h.6v4.77h17.65v-4.77h.6v4.77h11.09v-4.77h.6v4.77h4.56v63.63h17.43v-10.3l20.53.11v-16.69h4.14v-3.31h.55v3.31h19v-3.31h.55v3.31h3.82v33.16l-.26 12.21h38.33v-7.09h12.62V228.7h6.29v-13.13h1v13.13h15.08v-24.63H582v24.61h10v-48.22h3v-3.68h.48v3.68h22v-3.68h.52v3.68h4v25.71h2.79v-21.5H656l.71.39v28.07h13.82c-2.21 30.29-5.37 55.68 8.66 63 25.81 13.42 67.28 50.44 66.65 112.2Z" fill="#69519d" fill-opacity=".6"/><path d="M441.51 182.25h-39.39v10.82h39.39Zm0 16.6h-39.39v10.79h39.39Zm0 16.97h-39.39v10.8h39.39Zm0 17.25h-39.39v10.8h39.39Zm0 16.59h-39.39v10.79h39.39Zm168.93-68.78h-18.38v6.57h18.38Zm0 10.09h-18.38v6.56h18.38Zm0 10.29h-18.38v6.57h18.38Zm0 10.49h-18.38v6.56h18.38Zm0 10.09h-18.38v6.56h18.38Zm.01 11.11h-18.38v6.57h18.38Zm-.01 10.12h-18.38v6.57h18.38Zm0 10.26h-18.38v6.57h18.38Zm0 10.49h-18.38v6.56h18.38Zm0 10.08h-18.38v6.57h18.38Zm34.02-88.71h-19.69v6.56h19.69Zm0 10.09h-19.69v6.56h19.69Zm0 10.29h-19.69v6.57h19.69Zm0 10.5h-19.69v6.57h19.69Zm0 10.07h-19.69v6.57h19.69Zm0 10.51h-19.69v6.57h19.69Zm0 10.12h-19.69v6.57h19.69Zm0 10.3h-19.69v6.56h19.69Zm0 10.45h-19.69v6.55h19.69Zm0 10.09h-19.69v6.57h19.69Zm0 11.58h-19.69v6.57h19.69Zm0 10.09h-19.69v6.57h19.69Zm0 10.3h-19.69v6.57h19.69Zm0 10.49h-19.69v6.57h19.69Zm0 10.08h-19.69v6.57h19.69ZM126 187.65v5.42h-17.7a217.62 217.62 0 0 1 17.7-5.42Zm0 10.86v10.79H87.68v-7.35c2.34-1.24 4.66-2.37 7-3.42H126Zm0 16.94H87.68v10.8H126Zm0 17.23H87.68v10.8H126Zm0 16.63H87.68v10.76H126Zm183.33-68.43h-19.69v6.57h19.69Zm0 10.09h-19.69v6.56h19.69Zm0 10.29h-19.69v6.57h19.69Zm0 10.49h-19.69v6.56h19.69Zm0 10.09h-19.69v6.56h19.69Zm0 11.11h-19.69v6.57h19.69Zm0 10.12h-19.69v6.57h19.69Zm0 10.26h-19.69v6.57h19.69Zm0 10.49h-19.69v6.56h19.69Zm0 10.08h-19.69v6.57h19.69Zm36.05-88.71H323v6.56h22.38Zm0 10.09H323v6.56h22.38Zm0 10.29H323v6.57h22.38Zm0 10.5H323v6.57h22.38Zm0 10.07H323v6.57h22.38Zm0 10.51H323v6.57h22.38Zm0 10.12H323v6.57h22.38Zm0 10.3H323v6.56h22.38Zm0 10.45H323v6.55h22.38Zm0 10.09H323v6.57h22.38Zm0 11.58H323v6.57h22.38Zm0 10.09H323v6.57h22.38Zm0 10.3H323v6.57h22.38Zm0 10.49H323v6.57h22.38Zm0 10.08H323v6.57h22.38Z" fill="#69519d" fill-opacity=".65"/><path d="M509.12 454.07h-23.67c-1.26-1.05.87-3.49 3.12-3.65a13.24 13.24 0 0 1 3.6.43c.33-4.28 2.19-23.52 9.19-22.76 7.87.87 0 8.47-2.22 13a110.5 110.5 0 0 0-4.14 10.36l2 .41c1-3.17 4.92-13.86 9.87-13.23 5.8.73 3.47 5-.63 7.54-3 1.87-6.72 4.52-8.47 5.82a24.7 24.7 0 0 0 4.62.38c4-.13 5.97 1.06 6.73 1.7Zm-269.97-1.25c-1.42-2.18-5.71-7.87-11.45-7.12-6.24.83 6.89 4.83 10.9 7.12a6.6 6.6 0 0 1-2.21-.26c-2.68-.94-7.27.85-8.75 1.49h25.57a4 4 0 0 0-1.84-2.29 4.69 4.69 0 0 0-2.35-.22c1.53-1.76 2.57-7.33-1.67-5.89-3.09 1-3.09 4.45-2.78 6.48-.66.11-1.32.21-2 .29-1.28-6.32-5.77-24.88-14.9-25.36s7.84 19.23 13.53 25.55a14.1 14.1 0 0 1-2.05.21ZM168 454.07H25.26a241 241 0 0 1-17.2-44 35.66 35.66 0 0 1 12.46 4.61c18.51 11.46 16.09 26.73 39 21.15s41.84-7.94 52.11 0 17.8 4.8 30.57 4.75c10.63-.1 25.8 1.9 25.8 13.49ZM96.11 256.2c-11.72 14-22 6.85-37.18 3.25a57.42 57.42 0 0 0-11.3-1.6h-3.37a49 49 0 0 1-14.4-1.8c.5-.76 1-1.5 1.53-2.26a190.72 190.72 0 0 1 15.72-20 151.78 151.78 0 0 1 22.11-20.28 136 136 0 0 1 18.2-11.44 92.11 92.11 0 0 1 10.64 24c3.31 12.39 3.23 23.9-1.95 30.13Z" fill="#69519d" fill-opacity=".9"/><path d="M111.25 319.32c-1 13.66-14.48 23.44-28.76 22.52a29.33 29.33 0 0 1-12.61-3.77c-17.8-10.22-27.91-7.8-50.63-3.5a35.82 35.82 0 0 1-17.64-1.36c2.55-24.6 10.71-50.93 28.25-77.14.5-.76 1-1.49 1.53-2.25a190.72 190.72 0 0 1 15.72-20c1.42 3.7 2.87 7.51 4.45 11.27a85.35 85.35 0 0 0 7.37 14.32c4.32 6.54 9.87 11.87 17.61 14.66 13 4.67 21.57 10.56 26.89 17.2 6.82 8.48 8.57 18.15 7.82 28.05Z" fill="#69519d" fill-opacity=".7"/><path d="M241.11 104.59s4.92-7.67 16.72-6.83c0 0 17.11-12.8 35.38-1.71 0 0 19.41-2.76 33.79 2.39 9.58 3.42 12.74 7 12.74 7Zm226.68 15.95s5.26-9.44 17.9-8.39c0 0 18.33-15.71 37.86-2.1 0 0 20.78-3.36 36.15 2.92 10.27 4.2 13.64 8.59 13.64 8.59ZM273 142.07s7.61-12.74 25.83-11.33c0 0 26.44-21.22 54.63-2.83 0 0 30-4.58 52.17 3.94 14.79 5.67 19.69 11.61 19.69 11.61Z" fill="#69519d" fill-opacity=".15"/><path d="M746 389.07c-.21 19.22-4.55 40.88-14.9 65h-159c4.19-19.42 44.42-16.91 58.9-18.44s14.19-31.39 39.29-31.08 42.52 7.4 58.55-7.3c4.42-4.07 10.55-6.62 17.16-8.18Z" fill="#69519d" fill-opacity=".8"/><path d="M332.15 79.68a21.18 21.18 0 0 0 5.92 9.64c5 4.51 1.09 10.73-3 15.86s3.12 8.39 3.12 8.39-3.74 8.09-25.09 8.09-25.25-9-25.25-9 1.09-2.49 2-5.29-4.83-7-5.15-13.06c-.15-5.91 7.17-8.08 8.58-15.23s38.87.6 38.87.6Z" fill="#8b383e"/><path d="M284.77 117.77c-5.14-.93-47.69 2.33-47.69 2.33 10.13-4 29.62-22.7 39.43-26.59l-5.3-5.44s-31.63 13.69-42.07 21.46c-5.61 4.2-13.56 12.44-9.67 18s29 10 58.76 13.37Z" fill="#ffc3ba"/><path d="M287.89 118.07s-10.13-1.09-15.74-1.09-22.75 2.18-22.75 2.18-.47 15.23 6.39 22.85c0 0 14.33 1.56 23.06 9.64Z" fill="#0d527c"/><path d="M347 121.65c10.91 5.14 10.91 26.59 8.89 67.79 0 0 2.33 23.63 2.65 34.51s-1.87 54.73-1.87 54.73l-6.7 1.55s-5.15-41.35-6.55-54.72a163.38 163.38 0 0 1-.16-27.36s-1.4-11.82-3-31.25 6.74-45.25 6.74-45.25Z" fill="#ffc3ba"/><path d="M347 121.65s13.24 2.34 11.37 41.05c0 0-8.72 11.5-22.13 10.11C323 171.56 347 121.65 347 121.65Z" fill="#0d527c"/><path d="M272 238.07a133.74 133.74 0 0 1 19.8-40l19.79 3.26.15-.31 1.56.31h.16l20.41 4a184.23 184.23 0 0 1 14.66 39.49c5.92 23.17-13.25 81.62-13.25 81.62s12.93 32-9.82 103.55l-10.76-1.47s.93-92.19-.63-102c-1.4-8.55-3.11-39.8-2.18-63.58a15.94 15.94 0 0 1-3.9.31c0 23.94-1.09 55-2.8 63.43-1.87 9.79-2.49 102.14-2.49 102.14l-12.32 1.25c-20.41-72.3-6.54-104-6.54-104s-18.39-65.11-11.84-88Z" fill="#0e3944"/><path d="M334.18 207.07a50.21 50.21 0 0 1-45.2-.31s-18.39-80.22-11.84-86.91c2.8-3 9.66-2.18 16.36-.47a126.5 126.5 0 0 1 17.5 6.34s13.55-4.51 24.77-5.29c7.17-.46 13.25.47 14.34 5.13 2.89 11.8-15.93 81.51-15.93 81.51Z" fill="#105e99"/><path d="M304.41 99.27s5.61 21.3.15 25.49c0 0 5.93 7.47 17 .31 0 0-4.05-10.72 1.56-25.34 3.73-9.95-18.71-.46-18.71-.46Z" fill="#f2ada2"/><path d="M330.12 88.69s5-4.82 5.61.94c.63 6.68-5.45 9.32-6.54 7.15-1.41-2.18.93-8.09.93-8.09Zm-34.6.01s-4.83-5-5.61.77c-.77 6.69 5.3 9.33 6.55 7.31 1.09-2.18-.94-8.08-.94-8.08Z" fill="#ffc3ba"/><path d="M313.14 112.64c10.91.15 17.14-7 17.29-28.46.16-11-5.45-17.87-17.76-18s-17.46 6.69-17.61 17.72c-.16 22.98 6.7 28.58 18.08 28.74Z" fill="#ffc3ba"/><path d="M298.64 91.65a2.47 2.47 0 0 0 2.18 2.49 2.21 2.21 0 0 0 2.78-1.44v-.12a2.47 2.47 0 0 0-2.15-2.51 2.35 2.35 0 0 0-2.81 1.58Zm22.6.78a2.24 2.24 0 0 0 2.57 1.87h.08c1.4-.16 2.49-1.09 2.34-2.18a2.56 2.56 0 0 0-5 .32Z" fill="#ed93a4"/><path d="M303.47 80.45a.38.38 0 0 0 .55 0 .35.35 0 0 0 .08-.13 6.66 6.66 0 0 1 4.2-1.56c.32 0 .63-.15.63-.46s-.16-.62-.47-.62a6.84 6.84 0 0 0-5 1.86.58.58 0 0 0-.11.81.34.34 0 0 0 .12.1Zm16.05-1.55h.32a6.69 6.69 0 0 1 4.21 1.56.72.72 0 0 0 .77 0 .69.69 0 0 0 0-.78 6.85 6.85 0 0 0-5-1.87c-.32 0-.47.31-.47.62-.14.16.02.32.17.47Z" fill="#8b383e"/><path d="M303.79 86.36c0 1.4.62 2.49 1.4 2.49s1.4-1.09 1.4-2.49-.62-2.48-1.4-2.48-1.4 1.08-1.4 2.48Zm15.42 0c0 1.4.63 2.49 1.41 2.49s1.4-1.09 1.4-2.49-.62-2.49-1.4-2.49-1.41 1.09-1.41 2.49Zm-1.4 13.22s-6.86.93-10.29-.94c0 0 2.18 3.42 5.93 3.11 3.74-.46 4.36-2.17 4.36-2.17Z" fill="#1a4850"/><path d="M307.52 85.74s-.93-3.42-2.33-3.11c-1.25.16-2.34 3.11-2.34 3.11L301 84.65l1.87.31s1.09-3 2.34-3c2-.11 2.31 3.78 2.31 3.78Zm10.76.47s1.09-3.27 2.33-3.11c1.25.31 2.34 3.11 2.34 3.11l2-1.09-1.87.31s-.94-3-2.34-3c-2 .05-2.46 3.78-2.46 3.78Z" fill="#1a4850"/><path d="M295.37 91.8s2.8-9.17 3.12-16.32c0 0 3-6.84 14.18-7S327 76.26 327 76.26s1.24 10.1 2.8 17.1a19.06 19.06 0 0 1 2.34-6.22s3.58-20.83-19.64-23.63c-23.06-2.8-19.32 23.79-19.32 23.79s1.25.15 2.19 4.5Z" fill="#8b383e"/><path d="M312.36 93.98a1.13 1.13 0 0 0 .78.31l.31-1.09a1.57 1.57 0 0 1-1.25-1.4 1.74 1.74 0 0 1 .78-1.39.82.82 0 0 1 .62.46l.94-.62c-.78-1.09-1.56-1.09-2-.93A2.6 2.6 0 0 0 311 91.8a3 3 0 0 0 1.36 2.18Z" fill="#ed93a4"/><path d="M293.65 75.79s-6.7-2.33-6.39-4.35 9.35-13.06 10.45-13.06 13.4-9.31 15.89-9.31 13.56 9 15.74 10.11 8.11 9.79 9.67 12.28-7.64 4.82-7.64 4.82-16.37-7.33-37.72-.49Z" fill="#105e99"/><path d="M293 75.48a29.33 29.33 0 0 1 20.91-7.41c12.94.46 18.24 7.93 18.24 7.93v3.73s-4.21-4.82-19-5.29-19.81 4.63-19.81 4.63Z" fill="#072228"/><path d="M295.21 77.81a39.68 39.68 0 0 0 18.24 4.26c10.91 0 17-3.42 17-3.42s-5.92-5.91-17.29-5.91-17.95 5.07-17.95 5.07Z" fill="#0e3944"/><path d="m308.77 59.31 8.57.47a7 7 0 0 1-5.14 7.46 6.94 6.94 0 0 1-3.43-7.93Z" fill="#f2a668"/><path d="M312.2 66.62a6.53 6.53 0 0 1-3.12-6.84l7.64.46c.16 1.09-.16 4.83-4.52 6.38Z" fill="#ffb878"/><path d="M334.18 205.45s-29.46 8.71-45.82-2.33l-2.81 4.35s4.83 9 24.31 9 26.5-6.68 26.5-6.68Z" fill="#072228"/><path d="M304.57 216.65h11.53a1.07 1.07 0 0 0 1.09-1.05v-7a1.07 1.07 0 0 0-1.05-1.09h-11.57a1.05 1.05 0 0 0-1.09 1v7.06a1.05 1.05 0 0 0 1 1.09Z" fill="#cfd8dc"/><path d="M298 207.32s-1.87 3.11-2.34 9.33l-2.8-.78s0-6.69 3-9.33Zm26.2 0s1.87 3.11 2.34 9.33l2.81-.78s0-6.69-3-9.33Z" fill="#0e3944"/><path d="M329.19 427.78s-1.41 8.08.15 13.52c.94 3.27 4.68 7.46 2.34 12.75h-21.82a10.68 10.68 0 0 1 1.72-11.35c2.65-3.11 2-17.26 2-17.26 2.5.47 2 2.34 2 2.34s-.62-6.69 5-5.76c6.71 1.09 5.62 7 5.62 7a2 2 0 0 1 2.41-1.48 2 2 0 0 1 .58.24Z" fill="#072228"/><path d="M330.28 445.81s-6.55-7.74-18.28-1.56c0 0-.15 5.45 5.61 4.51s9.24 3.11 12.67-2.95Z" fill="#0e3944"/><path d="M288.82 427.78s1.41 8.08-.15 13.52c-.94 3.27-4.68 7.46-2.34 12.75h21.82a10.68 10.68 0 0 0-1.72-11.35c-2.64-3.11-2-17.26-2-17.26-2.49.47-2 2.34-2 2.34s.63-6.69-5-5.76c-6.71 1.09-5.61 7-5.61 7a2.05 2.05 0 0 0-2.52-1.44 1.81 1.81 0 0 0-.48.2Z" fill="#072228"/><path d="M287.73 445.81s6.55-7.76 18.27-1.56c0 0 .15 5.45-5.61 4.51s-9.23 3.11-12.66-2.95Z" fill="#0e3944"/><path d="M306.12 120.07s3.12 5.44 6.71 7.93c0 0 5.29-3.42 7.63-7.93l3 2.18s.94 4.51-5.61 12.9l-5-5.28-6.71 5.28s-5.14-8.55-5.76-13.84Z" fill="#0d527c"/><path d="M313.45 129.12 311 205.76l.94-76.64Zm6.55 24.72 20.11.77v4.05l-10.75 3.88-9.36-4.35Z" fill="#0d527c"/><path d="M329.34 160.83a.78.78 0 1 0-.78-.78.78.78 0 0 0 .78.78Z" fill="#0e3944"/><path d="m304.88 153.84-20.11.77v4.05l10.91 3.88 9.2-4.35Z" fill="#0d527c"/><path d="M295.68 160.83a.78.78 0 1 0-.78-.78.78.78 0 0 0 .78.78Z" fill="#0e3944"/><path d="m305.19 151.66-21.51.78v-2.8l21.51-.78Z" fill="#cfd8dc"/><path d="m324.83 140.31 13.24.62s1.09 8.4-7.95 11.51c0 0-7.48-3.73-5.29-12.13Z" fill="#f2a668"/><path d="M330.13 151.66a9.69 9.69 0 0 1-4.68-10.59l11.84.62c.16 1.89-.29 7.48-7.16 9.97Z" fill="#ffb878"/><path d="M328.57 121.65a29.13 29.13 0 0 1 10.75-2.17 13.93 13.93 0 0 1 9.19 3.11l1.72 3s-5.14-4.51-9.51-3.89-12.31 2.49-12.31 2.49l-2.18-.93Zm-50.19-2.79s7.17-.32 10.91.62c3.59.93 7.17 2.17 7.17 2.17h1.4l-1.09-1.7s-8.57-4.2-16.67-2.65Z" fill="#0d527c"/><path d="M299.73 78.28a3.51 3.51 0 0 1-.73 1.09c-.62.46-1.24.93-1.71 1.24l-.62.31s.62.93-3 3.42c-1.09.78-3.89 2.49-3.89 2.49s-3.43 3.26-5.14 3.57c-1.41.32-4.06 4.36-10.6 3.58-.31 0-.63-.15-.94-.15-5.3-1.09-3.43-5.14-.78-6.53a111 111 0 0 1 16.06-6.69c4.05-1.24 7.48-2.18 10.59-3.27.03 0 .92.32.76.94Z" fill="#ffc3ba"/><path d="M296.61 80.3c-.62.31-4.05 1.09-4.83 1.4s-4.36 1.86-3.42 1.86 3-1.4 3.89-1.55 3-1.09 3.9-1.25c.31 0 .46.32-.31 1.4a10.82 10.82 0 0 1-3.59 2.34 39.77 39.77 0 0 1-3.43 2.33c-1.09.46-1.87 2.33-3.11 2.64-1.41.47-2.19.78-2.81.93s-1.09 3.11-9.51 3.42c.32 0 .63.16.94.16 6.55.78 9.19-3.26 10.6-3.58 1.71-.31 5.14-3.57 5.14-3.57s2.81-1.71 3.9-2.49c3.58-2.49 3-3.42 3-3.42a13 13 0 0 0 2.34-1.55 2.14 2.14 0 0 0 .77-.94 8.38 8.38 0 0 1-3.47 1.87Zm2.39-2.96c-.93.78-7.63 2.49-7.79 2.65-1.33.53-2.68 1-4 1.4a5.57 5.57 0 0 1 1.25-.78c3.95-1.24 7.54-2.18 10.54-3.27Z" fill="#f2ada2"/><path d="M359.58 287.54c0 1.4-1.72 8.55-4.37 9.95-2.65 1.24-3.27 3.58-4.36 3.11s-2-4.66-2-4.66c-.15.31-.77 1.4-1.55.77s-1.1-4.35-1.41-6.21c-.47-1.72 4.21-8.09 3.74-14.93 0 0 6.55-8.86 7.17-2.64s2.78 13.21 2.78 14.61Z" fill="#ffc3ba"/><path d="M359.58 287.54c0 1.4-1.72 8.55-4.37 9.95s-3.27 3.58-4.36 3.11-2-4.66-2-4.66c.78-2.49-.46-5 .63-4.2 2 1.4 1.24 7.62 2.8 7.46 1.25-.15 2.34-3.11 3.12-2.8 1.84 1.09 4.18-8.86 4.18-8.86Z" fill="#f2ada2"/><path d="m270.59 212.6 15 3.11-10.13 48.51a5.54 5.54 0 0 0 2.34.93c2.34.47 2.49.16 2.49.16l15.12-72.61s-.47-.62-2.34-.93a4 4 0 0 0-1.24-.15 2 2 0 0 0-1.41.15l-4.05 19-15-3.11s-.62.47-.94 2.33a5.91 5.91 0 0 0 .16 2.61Z" fill="#86979b"/><path d="m270.59 212.6 15 3.11-10.13 48.51a5.54 5.54 0 0 0 2.34.93c2.34.47 2.49.16 2.49.16a5.13 5.13 0 0 1-3.58-1.09l15.12-72.6a2 2 0 0 0-1.41.15l-4.05 19-15-3.11s-.62.47-.94 2.33a5.91 5.91 0 0 0 .16 2.61Zm63.9 9.47-.47-3.11-7.02 1.11.46 3.11a6.3 6.3 0 0 0-2.18 6.06 6.7 6.7 0 0 0 13.25-2 7.22 7.22 0 0 0-4.04-5.17Zm-1.87 11.5a5.19 5.19 0 1 1 4.36-5.91 5 5 0 0 1-3.94 5.87l-.42.07Z" fill="#607275"/><path d="M331.84 219.76a22.8 22.8 0 0 0 .78-2.8c0-.31-.78-.93-.78-.93l-.32-2a.69.69 0 0 0 .47-.62c0-.46-2.34-1.24-2.34-1.24l.47 1.86.62.31.47 1.56-1.09 3.73h1.72Z" fill="#607275"/><path d="M330.28 220.38v-3.11h-7.17v3.11a6.7 6.7 0 1 0 7.17 0Zm-3.59 11.19a5.26 5.26 0 1 1 .08 0Z" fill="#86979b"/><path d="M325.76 218.51a8.27 8.27 0 0 1-1.09-2.33.83.83 0 0 1 .62-.78 6.12 6.12 0 0 0 0-1.71c-.15-.31.78-.77.78-.77l.31 2.17-.46.62s.77.32.93.63.62 1.86.62 1.86-1.09.62-1.71.31Z" fill="#86979b"/><path d="M438.7 77.61c-2-5.91-38.8-.62-38.8-.62s-3.59 11.66-.16 21a16.39 16.39 0 0 0 1.25 3 14.21 14.21 0 0 0-1.25 5 16.39 16.39 0 0 0 .16 2.8 6.38 6.38 0 0 0-3.43 6.22 4.28 4.28 0 0 0-4.05 4s-4.05.77-4.05 4.2a6.75 6.75 0 0 0-4.06 5.75s-3.11 4.82-1.71 7.78a8.74 8.74 0 0 0-.31 6.84s-1.4 4.05.47 6.85c0 0-1.25 7.62.93 10.89a4.57 4.57 0 0 0 2.34 1.09 5.36 5.36 0 0 0 2.8-.63c.47-1.24-.62-5.28-.62-5.28a6.37 6.37 0 0 1 1.56 3.42c.31-2-1.25-4.36-1.25-4.36a5.77 5.77 0 0 1 1.56 3 12.5 12.5 0 0 0-.16-4c-2.18-4.66-4.2-5.29-4.2-5.29s2.18-4.66 2.18-7a39.35 39.35 0 0 0 3.12-7.46s2-1.25 3.89-5.76c0 0 5.77-1.87 7.17-4.66 0 0 5.46-2.18 7.64-7.32a15.85 15.85 0 0 0 5.45-5.44 5.07 5.07 0 0 0 2.18-1.87c5.77-.93 12.63-2.8 16.21-6.84 6.44-7.42 7.33-19.56 5.14-25.31Z" fill="#ce364c"/><path d="M477.77 88.9s-.31-12.76.16-13.07c.46-.46.77-.31 1.55.16.63.62 1.56 9.8 1.56 9.8a7.78 7.78 0 0 1 3-.16c.94.31 2.34 2.34 2.34 2.34s4.05 3 4.83 4.82c.78 2-1.56 5.91-1.56 5.91Z" fill="#f5a882"/><path d="M486.27 104.71s-1.56-7-4.83-9-5-6.07-5.61-7 .62-3.89.94-4.51 2 .31 1.55 1.55 1.25 3.58 1.87 3.58a9.94 9.94 0 0 1 4.52 2.18c2.34 2.49 4.84 1.09 6.24 1.87a5.08 5.08 0 0 1 2.49 5.13Z" fill="#f5a882"/><path d="M484.35 95.19h-2.65a2.14 2.14 0 0 1-2.18-2.1V52.07a2.13 2.13 0 0 1 2.08-2.18h2.75a2.13 2.13 0 0 1 2.19 2.07v41.11a2.14 2.14 0 0 1-2.14 2.14Z" fill="#072228"/><path d="M483.37 2.07h-.13a31.1 31.1 0 0 0-.13 62.2 31.1 31.1 0 0 0 .26-62.2Z" fill="#ce364c"/><path d="M499.47 4.31a33.18 33.18 0 1 0 12.46 45.35l.07-.13a33.18 33.18 0 0 0-12.53-45.22Zm-16.33 60.76a31.9 31.9 0 0 1 .13-63.8h.13a31.9 31.9 0 0 1-.23 63.8Z" fill="#ce364c"/><path d="M483.37 1.3h-.13a31.9 31.9 0 0 0-.13 63.8 31.9 31.9 0 0 0 .23-63.8Zm-.23 63a31.12 31.12 0 0 1 .1-62.23h.13a31.1 31.1 0 0 1-.23 62.2Z" fill="#fff"/><path d="M482.73 82.71a19.82 19.82 0 0 0-.62 4.2c.15.93.31 2.64 1.09 2.8a1.31 1.31 0 0 0 1.25-.62s.46 1.71.93 1.71c.31 0 .78-.47.78-.47a4.4 4.4 0 0 0 2 .78c1.24.15 2.8-1.87 2.8-1.87s-1.09-4.2-2.8-3.58c0 0-.63-2-2.34-2a3.41 3.41 0 0 0-1.4-1.87c-1.42-.72-1.69.92-1.69.92Z" fill="#f5a882"/><path d="M456.31 110.12c5.46 1.87 33 32.82 33 32.82s-6.08-30.33-5.14-33.44l-.78-6.69s5.77-.16 8.26-2.65l2 6.38c1.55.94 10.13 28.94 12.15 34.38s2.65 16.64.94 20.53c-1.87 3.74-4.37 4.51-16.37 3.11-9.74-1.08-35.77-22.49-35.77-22.49Z" fill="#6197ad"/><path d="m378.86 430.56 11.53-.93s15.9-90.85 19.79-100c3.28-7.94 17.15-38.58 21.67-62.07a14.9 14.9 0 0 0 3.58-.47c.47-.15.93-.15 1.56-.31.47-.15.93-.15 1.56-.31.31 23.49 5.45 52.27 7 60.36 1.87 9.8-.78 102.35-.78 102.35l11.07 1.4c20.41-72.33 10.91-104.37 10.91-104.37s18.7-65 12.15-88a145 145 0 0 0-7.48-20.38c-.16-.46-.47-.93-.62-1.4a134.74 134.74 0 0 0-9.51-17.57l-22 2.8-.16-.31-.62.15v6.85l-2.81-.16h-.62l-9-.47h-1.25l-7.95-.46s-4.83 7.62-11.53 19.75c-.31.47-.47.93-.78 1.4-2.49 4.36-5 9.33-7.79 14.62-11.07 21.32-7.17 82.14-7.17 82.14s-16.67 30.57-10.75 105.39Z" fill="#0e3944"/><path d="M416.73 206.72a50.17 50.17 0 0 0 44.41-8.24s4.06-82.14-3.58-87.74c-3.27-2.33-10-.46-16.21 2.49a126.72 126.72 0 0 0-16.05 9.18s-14.18-2-25.4-.78c-7.17.78-13.09 2.8-13.25 7.62-.65 12.29 30.08 77.47 30.08 77.47Z" fill="#8bbddb"/><path d="M427.17 95.34s-1.87 21.94 4.36 25c0 0-4.51 8.24-16.67 3.26 0 0 2-11.35-5.92-24.73-5.46-8.8 18.23-3.53 18.23-3.53Z" fill="#f5a882"/><path d="M458.34 427.76s-1.4 8.09.16 13.53c.93 3.27 4.67 7.47 2.33 12.76H439a10.68 10.68 0 0 1 1.71-11.36c2.65-3.11 2-17.26 2-17.26 2.49.47 2 2.33 2 2.33s-.62-6.69 5-5.75c6.7 1.09 5.61 7 5.61 7s.53-2.18 3.02-1.25Z" fill="#072228"/><path d="M459.28 445.81s-6.55-7.74-18.28-1.56c0 0-.15 5.45 5.61 4.51s9.24 3.11 12.67-2.95Z" fill="#0e3944"/><path d="M377.3 427.76s1.4 8.09-.16 13.53c-.93 3.27-4.67 7.47-2.33 12.76h21.82a10.68 10.68 0 0 0-1.72-11.36c-2.65-3.11-2-17.26-2-17.26-2.5.47-2 2.33-2 2.33s.62-6.69-5-5.75c-6.7 1.09-5.61 7-5.61 7s-.51-2.18-3-1.25Z" fill="#072228"/><path d="M376.36 445.81s6.55-7.78 18.24-1.56c0 0 .16 5.45-5.61 4.51-5.61-1.09-9.2 3.11-12.63-2.95Z" fill="#0e3944"/><path d="M415.17 118.52a56.61 56.61 0 0 0 9.35 5.13s3-2.17 3.74-8.71l5.77 2.34s1.71 5.91 0 11.2l-8.57-3.11-3.28 8.24s-10.44-2.18-12.62-12.13Z" fill="#6197ad"/><path d="m425.92 123.07.31.62c.16.47.32 1.09.63 2 .62 1.72 1.25 4 2.18 7 .78 3 1.72 6.23 2.65 10 .93 3.58 1.71 7.62 2.49 11.51s1.41 7.93 2 11.51c.62 3.74 1.09 7.16 1.56 10.11s.62 5.45.93 7.16a18.34 18.34 0 0 1 .32 2.8l-.47-2.65c-.31-1.72-.63-4.2-1.25-7.15s-1.25-6.38-2-10-1.71-7.46-2.65-11.35-2-7.62-3.11-11.2-2.18-6.85-3.12-9.65-1.87-5.13-2.49-6.69c-.31-.77-.63-1.4-.78-1.86a1.72 1.72 0 0 0-.31-.62Zm13.72 27.34 19.63-3.89 1.09 4-9.66 6.23-10-2.18Z" fill="#6197ad"/><path d="M450.86 154.14c.15.47-.16.78-.63.94s-.78-.16-.93-.63.15-.77.62-.93a.87.87 0 0 1 .94.62Z" fill="#0d527c"/><path d="m424.83 153.99-19.32 5.44.93 3.89 11.56 1.24 7.94-6.37Z" fill="#6197ad"/><path d="M416.57 162.39a.87.87 0 0 0 .94.62.79.79 0 0 0 .52-1 .8.8 0 0 0-.83-.56.7.7 0 0 0-.68.7.69.69 0 0 0 .05.24Z" fill="#0d527c"/><path d="m441 136.07 13.09-2.49s3.12 7.93-5.14 13.06a10.66 10.66 0 0 1-7.95-10.57Z" fill="#f2a668"/><path d="M449 145.9c-1.4-.47-6.86-2.64-7-9.18l11.69-2.18A10.22 10.22 0 0 1 449 145.9Z" fill="#ffb878"/><path d="M464.11 203.3a20.07 20.07 0 0 1-2.81 3.42 11 11 0 0 1-1.87 1.87 26.63 26.63 0 0 1-16.05 7.15 77.18 77.18 0 0 1-15.12-.31l-2.8-.47c-7.79-1.4-11.38-3.73-11.38-3.73l2-5.91a64 64 0 0 0 11.09 1.75c.78 0 1.56.16 2.34.16 8.26.46 18.86-.31 27.43-5.6.62-.31 1.09-.78 1.71-1.09a15.48 15.48 0 0 0 2.49-2Z" fill="#072228"/><path d="m429.51 207.18-1.25 8.25-.31 1.55h-2.81l.47-1.86 1.72-7.94Zm32.73 1.56-2 1.71-.62-1.86-2.62-6.85c.62-.31 1.09-.78 1.71-1.09l2.81 6.23Z" fill="#0e3944"/><path d="m438.55 207.07.93 8.71a1.25 1.25 0 0 0 1.37 1.1l11.22-2.49a1.21 1.21 0 0 0 .93-1.4l-2.14-7.92a1.12 1.12 0 0 0-1.37-.79l-10 1.87c-.49-.21-.94.26-.94.92Z" fill="#cfd8dc"/><path d="m478.13 112.76 3-8.24s-.93-6.22-1.55-7-.16-4.36-.16-4.36 3 3.58 4.21 3.11c1.09-.62 3.74-5.91 6.08-7 .62-.31 3-.93 3.74-.46s1.09 2.17-.63 3.26c0 0 1.4.78 1.25 3.27s.47 4.82 0 6.53c-1.09 4.51-4.83 7.32-6.08 8.72-1.25 1.24-2.8 6.22-2.8 6.22Z" fill="#f7b999"/><path d="M391.79 123.65c8.11-1.71 60.16 28 60.16 28s20.88-36.24 24-37.49l3.27-4.51s5.46.47 7.8 4.51l-1.41 4.21s2.19-.32-4.05 15.39-19.95 39.83-25.25 40.76-57.31-19.76-63.74-25.36c-6.57-5.75-11.37-23.33-.78-25.51Z" fill="#74b0ce"/><path d="M436.68 86.48s5-4.83 5.61.93c.62 6.69-5.46 9.33-6.55 7.15-1.24-2.17.94-8.08.94-8.08Zm-34.6-.01s-4.83-5-5.61.78c-.78 6.69 5.3 9.34 6.55 7.31s-.94-8.09-.94-8.09Z" fill="#f7b999"/><path d="M419.69 110.43c10.91.16 17.15-7 17.3-28.47.16-11-5.45-17.88-17.76-18s-17.46 6.69-17.62 17.73c0 23.14 6.86 28.74 18.08 28.74Z" fill="#f7b999"/><path d="M405.35 89.43a2.47 2.47 0 0 0 2.19 2.49 2.21 2.21 0 0 0 2.77-1.45v-.1a2.46 2.46 0 0 0-2.18-2.49c-1.37-.16-2.62.46-2.78 1.55Zm22.45.78a2.25 2.25 0 0 0 2.56 1.86h.09c1.4-.16 2.49-1.09 2.33-2.18a2.25 2.25 0 0 0-2.56-1.82h-.09a2.5 2.5 0 0 0-2.33 2.14Z" fill="#ed93a4"/><path d="M410.18 78.23a.38.38 0 0 0 .55 0 .35.35 0 0 0 .08-.13 6.66 6.66 0 0 1 4.19-1.58c.31 0 .62-.15.62-.47s-.16-.62-.47-.62a6.87 6.87 0 0 0-5 1.87.58.58 0 0 0-.15.77l.12.12Zm15.9-1.55h.31a6.74 6.74 0 0 1 4.21 1.55.55.55 0 0 0 .78-.78 6.84 6.84 0 0 0-5-1.86c-.31 0-.46.31-.46.62s.01.47.16.47Z" fill="#8b383e"/><path d="M410.34 84.14c0 1.4.62 2.49 1.4 2.49s1.41-1.09 1.41-2.49-.63-2.49-1.41-2.49-1.4 1.09-1.4 2.49Zm15.59 0c0 1.4.62 2.49 1.4 2.49s1.4-1.09 1.4-2.49-.62-2.49-1.4-2.49c-.78.16-1.4 1.25-1.4 2.49Zm-1.41 13.22s-6.85.94-10.28-.93c0 0 2.18 3.42 5.92 3.11 3.58-.47 4.36-2.18 4.36-2.18Z" fill="#1a4850"/><path d="M414.24 83.52s-.94-3.42-2.34-3.11c-1.25.16-2.34 3.11-2.34 3.11l-1.87-1.09 1.87.31s1.09-3 2.34-3c1.87.05 2.34 3.78 2.34 3.78Zm10.59.47s1.09-3.27 2.34-3.11c1.25.31 2.34 3.11 2.34 3.11l2-1.09-1.87.31s-.94-3-2.34-3c-2 .05-2.47 3.78-2.47 3.78Z" fill="#1a4850"/><path d="M401.93 89.59s2.8-9.18 3.11-16.34c0 0 3-6.84 14.19-7s14.33 7.82 14.33 7.82 1.25 10.11 2.81 17.11a19.27 19.27 0 0 1 2.33-6.22s3.59-20.89-19.63-23.68c-23.07-2.8-19.33 23.79-19.33 23.79s1.41.16 2.19 4.52Z" fill="#ce364c"/><path d="M419.07 91.76a1.19 1.19 0 0 0 .78.32l.31-1.09a1.57 1.57 0 0 1-1.25-1.4 1.77 1.77 0 0 1 .78-1.4.83.83 0 0 1 .63.46l.93-.62c-.78-1.09-1.56-1.09-2-.93a2.62 2.62 0 0 0-1.56 2.49 2.31 2.31 0 0 0 1.38 2.17Z" fill="#de865b"/><path d="M400.21 73.57s-6.7-2.34-6.39-4.36 9.35-13.07 10.45-13.07 13.4-9.33 15.89-9.33 13.56 9 15.74 10.11 8.11 9.8 9.66 12.29c1.72 2.49-7.63 4.82-7.63 4.82s-16.37-7.15-37.72-.46Z" fill="#0e3944"/><path d="M399.75 73.41a29.41 29.41 0 0 1 20.88-7.47c12.94.47 18.23 7.94 18.23 7.94v3.73s-4.21-4.82-19-5.29-19.79 4.67-19.79 4.67Z" fill="#072228"/><path d="M401.77 75.59a39.78 39.78 0 0 0 18.23 4.2c10.91 0 17-3.43 17-3.43s-5.92-5.91-17.3-5.91-17.93 5.14-17.93 5.14Z" fill="#0b313a"/><path d="m415.33 57.07 8.57.46a7 7 0 0 1-5.14 7.54 7 7 0 0 1-3.43-8Z" fill="#f2a668"/><path d="M418.76 64.39a6.54 6.54 0 0 1-3.12-6.85l7.64.47c.15 1.24-.16 4.82-4.52 6.38Z" fill="#ffb878"/><path d="m400.83 216.07 15 3.11-10.13 48.52s.47.62 2.34.93c2.34.47 2.49.15 2.49.15l15.12-72.64s-.47-.62-2.34-.93a3.63 3.63 0 0 0-1.31-.14 4.77 4.77 0 0 0-1.41.16l-4 19-15-3.11a4.66 4.66 0 0 0-.93 2.34 5.76 5.76 0 0 0 .17 2.61Z" fill="#86979b"/><path d="m400.83 216.07 15 3.11-10.13 48.52s.47.62 2.34.93c2.34.47 2.49.15 2.49.15a4.42 4.42 0 0 1-3.58-1.08L422 195.07a4.77 4.77 0 0 0-1.41.16l-4 19-15-3.11a4.66 4.66 0 0 0-.93 2.34 5.76 5.76 0 0 0 .17 2.61Zm57.51 7.6a6.73 6.73 0 0 0 12.31-5.44 6.6 6.6 0 0 0-5.14-3.89l-1.25-2.8-6.54 2.8 1.24 2.8a6.18 6.18 0 0 0-.62 6.53Zm1.4-.31a5.2 5.2 0 1 1 6.86 2.71 5.2 5.2 0 0 1-6.86-2.69Z" fill="#607275"/><path d="M459.74 213.87a20.38 20.38 0 0 1-2.18-1.86c-.16-.31.15-1.25.15-1.25l-.77-1.86s-.63.15-.78-.32c-.16-.31 1.24-2.33 1.24-2.33l.63 1.87-.32.46.47 1.56 3 2.64Z" fill="#607275"/><path d="M461.92 219.94a6.65 6.65 0 1 0 5.46-10.27l-1.72-2.6-5.92 3.89 1.72 2.64a6.64 6.64 0 0 0 .46 6.34Zm1.41-.46a5.18 5.18 0 1 1 7.17 1.59 5.12 5.12 0 0 1-7.1-1.47.61.61 0 0 1-.07-.1Z" fill="#86979b"/><path d="M464.26 209.52a9.9 9.9 0 0 0-.31-2.65.68.68 0 0 0-.91-.32 6.61 6.61 0 0 1-.94-1.55c0-.31-1.09-.31-1.09-.31l.93 2 .78.31a2.48 2.48 0 0 0-.47.93 17 17 0 0 0 .47 1.87s1.28.34 1.54-.28Z" fill="#86979b"/></svg>