<svg width="249" height="192" viewBox="0 0 249 192" fill="none" xmlns="http://www.w3.org/2000/svg">
<g clip-path="url(#clip0_900_22068)">
<rect width="249" height="192" rx="24" fill="#F5F3FF"/>
<path opacity="0.05" d="M284.183 203H-38.2282C-40.7785 197.811 -51.8356 174.472 -49.0327 147.482C-47.8658 136.251 -44.1366 124.216 -36.1249 112.228C-35.8963 111.88 -35.6557 111.543 -35.4272 111.195C-33.0573 107.76 -30.6634 104.745 -28.2455 102.066C-24.8892 98.3425 -21.5088 95.3035 -18.1405 92.7931C-15.3496 90.7151 -12.5828 88.9854 -9.82803 87.544C-9.77991 87.52 -9.74382 87.496 -9.6957 87.472C-8.62506 86.9074 -7.56645 86.3909 -6.50784 85.9105C-4.40265 84.9495 -2.33354 84.1327 -0.288498 83.412C2.47832 82.4391 5.18501 81.6583 7.79544 80.9617C9.8886 80.4091 11.9216 79.9047 13.8824 79.4122C25.9723 76.3853 35.3073 73.6106 38.6756 59.2807C47.9024 20.0628 89.6453 16.4353 116.435 28.6871C143.225 40.939 193.401 17.9127 234.495 37.4556C258.614 48.9267 258.049 73.1181 256.617 92.8051C255.607 106.667 254.163 118.282 260.575 121.633C276.069 129.693 303.912 156.407 284.183 203Z" fill="#815CD1"/>
<path d="M291.011 172.978C290.915 181.852 288.93 191.855 284.202 202.996H-38.2533C-38.2654 202.984 -38.2654 203.008 -38.2774 202.996C-39.6247 200.274 -43.3058 192.886 -46.1328 182.692C-51.1612 164.606 -53.507 137.526 -35.4023 111.334C-29.7484 103.154 -23.914 97.2777 -18.1157 92.9602H-16.8766V109.798H-9.67085V87.6233C-8.60021 87.0596 -7.5416 86.5439 -6.48299 86.0642C-4.3778 85.1048 -2.30869 84.2893 -0.263649 83.5697C2.50317 82.5982 5.20985 81.8187 7.82029 81.1231C9.91345 80.5714 11.9465 80.0677 13.9073 79.576V107.712H21.8709V103.01L31.2661 103.058V95.4428H33.1548V93.9316H33.4074V95.4428H40.6613H42.1169V93.9316H42.3695V95.4428H44.1138V110.59H55.2894V116.167H61.5087V112.929H67.2709V100.06H70.146V94.0636H70.5791V100.06H77.4721V88.8226H78.1458V100.06H82.705V99.9042V98.477V97.1218V94.8791V93.4399V91.1972V89.7581V87.5154V85.9683V83.7256V81.7467V79.504V78.0169H84.0643V76.3379H84.2809V78.0169H94.3377V76.3379H94.5542V78.0169H96.3947V89.7701L97.6819 89.7821V89.7701H97.6699V87.5274H97.6819V85.9803H97.6699V83.7376H97.6819V82.1905H97.6699V79.9478H97.6819V79.9358H109.844V79.9478H111.937C112.045 80.0078 112.154 80.0677 112.262 80.1277V92.9482H121.176V109.786H128.382V78.6406H129.946V76.4578H130.222V78.6406H135.912V76.4578H136.189V78.6406H144.249V76.4578H144.525V78.6406H149.59V76.4578H149.867V78.6406H151.948V107.712H159.911V103.01L169.295 103.058V95.4428H171.183V93.9316H171.436V95.4428H178.69H180.133V93.9316H180.386V95.4428H182.13V110.59L182.01 116.167H199.525V112.929H205.287V100.06H208.162V94.0636H208.595V100.06H215.488V88.8226H216.162V100.06H220.721V99.9042H220.709V98.477H220.721V97.1218H220.709V94.8791H220.721V93.4399H220.709V91.1972H220.721V89.7581H220.709V87.5154H220.721V85.9683H220.709V83.7256H220.721V81.7467H220.709V79.504H220.721V78.0169H222.081V76.3379H222.297V78.0169H232.354V76.3379H232.571V78.0169H234.411V89.7701L235.686 89.7821H235.698V89.7701H235.686V87.5274H235.698V85.9803H235.686V83.7376H235.698V82.1905H235.686V79.9478H235.698V79.9358H247.896V79.9478H249.99C250.098 80.0078 250.206 80.0677 250.314 80.1277V92.9482H256.63C255.619 106.788 254.176 118.385 260.588 121.731C272.365 127.86 291.299 144.77 291.011 172.978Z" fill="#69519D" fill-opacity="0.6"/>
<path d="M151.977 78.8438H133.98V83.7758H151.977V78.8438Z" fill="#69519D" fill-opacity="0.65"/>
<path d="M151.977 86.4277H133.98V91.3598H151.977V86.4277Z" fill="#69519D" fill-opacity="0.65"/>
<path d="M151.977 94.1797H133.98V99.1118H151.977V94.1797Z" fill="#69519D" fill-opacity="0.65"/>
<path d="M151.977 102.051H133.98V106.983H151.977V102.051Z" fill="#69519D" fill-opacity="0.65"/>
<path d="M151.977 109.635H133.98V114.567H151.977V109.635Z" fill="#69519D" fill-opacity="0.65"/>
<path d="M229.162 78.2188H220.766V81.2188H229.162V78.2188Z" fill="#69519D" fill-opacity="0.65"/>
<path d="M229.162 82.8262H220.766V85.8262H229.162V82.8262Z" fill="#69519D" fill-opacity="0.65"/>
<path d="M229.162 87.5312H220.766V90.5313H229.162V87.5312Z" fill="#69519D" fill-opacity="0.65"/>
<path d="M229.162 92.3184H220.766V95.3184H229.162V92.3184Z" fill="#69519D" fill-opacity="0.65"/>
<path d="M229.162 96.9277H220.766V99.9278H229.162V96.9277Z" fill="#69519D" fill-opacity="0.65"/>
<path d="M229.162 102.004H220.766V105.004H229.162V102.004Z" fill="#69519D" fill-opacity="0.65"/>
<path d="M229.162 106.611H220.766V109.611H229.162V106.611Z" fill="#69519D" fill-opacity="0.65"/>
<path d="M229.162 111.316H220.766V114.316H229.162V111.316Z" fill="#69519D" fill-opacity="0.65"/>
<path d="M229.162 116.104H220.766V119.104H229.162V116.104Z" fill="#69519D" fill-opacity="0.65"/>
<path d="M229.162 120.711H220.766V123.711H229.162V120.711Z" fill="#69519D" fill-opacity="0.65"/>
<path d="M244.701 80.1875H235.703V83.1876H244.701V80.1875Z" fill="#69519D" fill-opacity="0.65"/>
<path d="M244.701 84.7949H235.703V87.795H244.701V84.7949Z" fill="#69519D" fill-opacity="0.65"/>
<path d="M244.701 89.5H235.703V92.5001H244.701V89.5Z" fill="#69519D" fill-opacity="0.65"/>
<path d="M244.701 94.2754H235.703V97.2754H244.701V94.2754Z" fill="#69519D" fill-opacity="0.65"/>
<path d="M244.701 98.8965H235.703V101.897H244.701V98.8965Z" fill="#69519D" fill-opacity="0.65"/>
<path d="M244.701 103.695H235.703V106.695H244.701V103.695Z" fill="#69519D" fill-opacity="0.65"/>
<path d="M244.701 108.316H235.703V111.316H244.701V108.316Z" fill="#69519D" fill-opacity="0.65"/>
<path d="M244.701 113.02H235.703V116.02H244.701V113.02Z" fill="#69519D" fill-opacity="0.65"/>
<path d="M244.701 117.795H235.703V120.795H244.701V117.795Z" fill="#69519D" fill-opacity="0.65"/>
<path d="M244.701 122.404H235.703V125.404H244.701V122.404Z" fill="#69519D" fill-opacity="0.65"/>
<path d="M244.701 127.697H235.703V130.697H244.701V127.697Z" fill="#69519D" fill-opacity="0.65"/>
<path d="M244.701 132.305H235.703V135.305H244.701V132.305Z" fill="#69519D" fill-opacity="0.65"/>
<path d="M244.701 137.01H235.703V140.01H244.701V137.01Z" fill="#69519D" fill-opacity="0.65"/>
<path d="M244.701 141.797H235.703V144.797H244.701V141.797Z" fill="#69519D" fill-opacity="0.65"/>
<path d="M244.701 146.404H235.703V149.404H244.701V146.404Z" fill="#69519D" fill-opacity="0.65"/>
<path d="M7.82613 81.3145V83.7625H-0.257812C2.50901 82.7905 5.21569 82.0105 7.82613 81.3145Z" fill="#69519D" fill-opacity="0.65"/>
<path d="M7.82348 86.2715V91.2036H-9.67969V87.8435C-8.60905 87.2795 -7.55043 86.7635 -6.49182 86.2835H7.82348V86.2715Z" fill="#69519D" fill-opacity="0.65"/>
<path d="M7.82348 94.0117H-9.67969V98.9438H7.82348V94.0117Z" fill="#69519D" fill-opacity="0.65"/>
<path d="M7.82348 101.883H-9.67969V106.815H7.82348V101.883Z" fill="#69519D" fill-opacity="0.65"/>
<path d="M7.82348 109.48H-9.67969V114.413H7.82348V109.48Z" fill="#69519D" fill-opacity="0.65"/>
<path d="M91.588 78.2188H82.5898V81.2188H91.588V78.2188Z" fill="#69519D" fill-opacity="0.65"/>
<path d="M91.588 82.8262H82.5898V85.8262H91.588V82.8262Z" fill="#69519D" fill-opacity="0.65"/>
<path d="M91.588 87.5312H82.5898V90.5313H91.588V87.5312Z" fill="#69519D" fill-opacity="0.65"/>
<path d="M91.588 92.3184H82.5898V95.3184H91.588V92.3184Z" fill="#69519D" fill-opacity="0.65"/>
<path d="M91.588 96.9277H82.5898V99.9278H91.588V96.9277Z" fill="#69519D" fill-opacity="0.65"/>
<path d="M91.588 102.004H82.5898V105.004H91.588V102.004Z" fill="#69519D" fill-opacity="0.65"/>
<path d="M91.588 106.611H82.5898V109.611H91.588V106.611Z" fill="#69519D" fill-opacity="0.65"/>
<path d="M91.588 111.316H82.5898V114.316H91.588V111.316Z" fill="#69519D" fill-opacity="0.65"/>
<path d="M91.588 116.104H82.5898V119.104H91.588V116.104Z" fill="#69519D" fill-opacity="0.65"/>
<path d="M91.588 120.711H82.5898V123.711H91.588V120.711Z" fill="#69519D" fill-opacity="0.65"/>
<path d="M108.057 80.1875H97.832V83.1876H108.057V80.1875Z" fill="#69519D" fill-opacity="0.65"/>
<path d="M108.057 84.7949H97.832V87.795H108.057V84.7949Z" fill="#69519D" fill-opacity="0.65"/>
<path d="M108.057 89.5H97.832V92.5001H108.057V89.5Z" fill="#69519D" fill-opacity="0.65"/>
<path d="M108.057 94.2754H97.832V97.2754H108.057V94.2754Z" fill="#69519D" fill-opacity="0.65"/>
<path d="M108.057 98.8965H97.832V101.897H108.057V98.8965Z" fill="#69519D" fill-opacity="0.65"/>
<path d="M108.057 103.695H97.832V106.695H108.057V103.695Z" fill="#69519D" fill-opacity="0.65"/>
<path d="M108.057 108.316H97.832V111.316H108.057V108.316Z" fill="#69519D" fill-opacity="0.65"/>
<path d="M108.057 113.02H97.832V116.02H108.057V113.02Z" fill="#69519D" fill-opacity="0.65"/>
<path d="M108.057 117.795H97.832V120.795H108.057V117.795Z" fill="#69519D" fill-opacity="0.65"/>
<path d="M108.057 122.404H97.832V125.404H108.057V122.404Z" fill="#69519D" fill-opacity="0.65"/>
<path d="M108.057 127.697H97.832V130.697H108.057V127.697Z" fill="#69519D" fill-opacity="0.65"/>
<path d="M108.057 132.305H97.832V135.305H108.057V132.305Z" fill="#69519D" fill-opacity="0.65"/>
<path d="M108.057 137.01H97.832V140.01H108.057V137.01Z" fill="#69519D" fill-opacity="0.65"/>
<path d="M108.057 141.797H97.832V144.797H108.057V141.797Z" fill="#69519D" fill-opacity="0.65"/>
<path d="M108.057 146.404H97.832V149.404H108.057V146.404Z" fill="#69519D" fill-opacity="0.65"/>
<path d="M182.863 203H172.046C171.471 202.517 172.446 201.405 173.47 201.331C173.92 201.294 174.482 201.393 175.119 201.529C175.269 199.576 176.118 190.787 179.316 191.133C182.913 191.529 179.316 195.002 178.304 197.066C177.554 198.587 176.755 200.775 176.393 201.813C176.68 201.875 176.992 201.937 177.292 201.998C177.767 200.552 179.54 195.669 181.801 195.954C184.449 196.288 183.387 198.241 181.514 199.403C180.14 200.255 178.441 201.467 177.642 202.06C178.329 202.171 179.041 202.246 179.753 202.233C181.614 202.171 182.513 202.715 182.863 203Z" fill="#69519D" fill-opacity="0.9"/>
<path d="M59.5223 202.439C58.8727 201.44 56.9114 198.845 54.288 199.186C51.4397 199.564 57.4361 201.391 59.2724 202.439C58.8602 202.439 58.5104 202.415 58.2606 202.317C57.0363 201.891 54.9376 202.707 54.263 202.999H65.9433C65.8684 202.731 65.656 202.281 65.1063 201.952C64.919 201.842 64.5317 201.818 64.032 201.854C64.7316 201.05 65.2063 198.504 63.27 199.162C61.8583 199.637 61.8583 201.196 61.9957 202.122C61.6959 202.171 61.3961 202.22 61.0838 202.256C60.4967 199.369 58.4479 190.89 54.2755 190.67C50.0531 190.439 57.8608 199.454 60.4592 202.341C60.1469 202.402 59.8221 202.427 59.5223 202.439Z" fill="#69519D" fill-opacity="0.9"/>
<path d="M27.0238 202.999H-38.1993C-39.5466 200.298 -43.2277 193.015 -46.0547 182.9C-44.0698 183.257 -42.121 183.924 -40.3647 185.007C-31.9078 190.243 -33.0145 197.216 -22.5367 194.669C-12.0588 192.111 -3.42154 191.04 1.27003 194.669C5.9616 198.299 9.40209 196.859 15.2365 196.835C20.0844 196.799 27.0238 197.716 27.0238 202.999Z" fill="#69519D" fill-opacity="0.9"/>
<path d="M1.08373 141.459C0.626606 147.699 -5.53259 152.163 -12.0527 151.743C-13.9774 151.623 -15.9503 151.059 -17.8149 150.003C-25.9469 145.335 -30.5663 146.439 -40.9479 148.407C-43.7749 148.935 -46.4936 148.587 -49.0078 147.783C-47.8409 136.563 -44.1117 124.539 -36.1 112.562C-35.8714 112.214 -35.6308 111.878 -35.4023 111.53C-33.0324 108.098 -30.6385 105.086 -28.2205 102.41C-27.5709 104.102 -26.9093 105.842 -26.1875 107.558C-25.2252 109.85 -24.1545 112.094 -22.8192 114.098C-20.8464 117.086 -18.3081 119.522 -14.7714 120.795C-8.82872 122.931 -4.91907 125.619 -2.48908 128.655C0.626606 132.519 1.42057 136.935 1.08373 141.459Z" fill="#69519D" fill-opacity="0.7"/>
<path d="M60.4102 43.3692C60.4102 43.3692 62.6597 39.8652 68.049 40.2492C68.049 40.2492 75.8683 34.4051 84.2169 39.4692C84.2169 39.4692 93.0827 38.2091 99.6509 40.5612C104.03 42.1212 105.473 43.7533 105.473 43.7533L60.4102 43.3692Z" fill="#69519D" fill-opacity="0.15"/>
<path d="M163.98 50.6542C163.98 50.6542 166.386 46.3461 172.161 46.8261C172.161 46.8261 180.533 39.65 189.459 45.8661C189.459 45.8661 198.951 44.3301 205.976 47.1981C210.668 49.1181 212.207 51.1222 212.207 51.1222L163.98 50.6542Z" fill="#69519D" fill-opacity="0.15"/>
<path d="M74.9922 60.4924C74.9922 60.4924 78.4688 54.6723 86.7933 55.3203C86.7933 55.3203 98.8711 45.6241 111.755 54.0243C111.755 54.0243 125.445 51.9362 135.586 55.8243C142.346 58.4164 144.584 61.1284 144.584 61.1284L74.9922 60.4924Z" fill="#69519D" fill-opacity="0.15"/>
<path d="M291.085 173.309C290.989 182.087 289.004 191.98 284.276 203H211.629C213.542 194.127 231.923 195.278 238.539 194.578C245.156 193.878 245.023 180.236 256.488 180.379C267.952 180.521 275.915 183.759 283.242 177.045C285.263 175.195 288.065 174.032 291.085 173.309Z" fill="#69519D" fill-opacity="0.8"/>
<path d="M165.11 57.8456C165.11 57.8456 166.387 63.6683 172.043 69.127C177.88 74.4038 173.32 81.6821 168.576 87.6867C163.833 93.6913 172.225 97.5125 172.225 97.5125C172.225 97.5125 167.847 106.974 142.854 106.974C117.861 106.974 113.3 96.4207 113.3 96.4207C113.3 96.4207 114.577 93.5094 115.672 90.2341C116.766 86.9589 110.016 82.046 109.651 74.9497C109.469 68.0353 118.043 65.4879 119.685 57.1178C121.327 48.9297 165.11 57.8456 165.11 57.8456Z" fill="#8B383E"/>
<path d="M109.651 102.426C103.631 101.334 53.8274 105.155 53.8274 105.155C65.6854 100.424 88.4893 78.5893 99.9824 74.0404L93.7798 67.6719C93.7798 67.6719 56.7464 83.6842 44.5235 92.7821C37.956 97.6949 28.652 107.339 33.2128 113.889C37.7735 120.44 67.1449 125.534 101.989 129.538L109.651 102.426Z" fill="#FFC3BA"/>
<path d="M113.299 102.791C113.299 102.791 101.441 101.518 94.8731 101.518C88.3057 101.518 68.2384 104.065 68.2384 104.065C68.2384 104.065 67.691 121.897 75.718 130.813C75.718 130.813 92.5016 132.632 102.718 142.094L113.299 102.791Z" fill="#0D527C"/>
<path d="M182.437 106.975C195.207 112.979 195.207 138.089 192.835 186.308C192.835 186.308 195.572 213.966 195.937 226.703C196.302 239.44 193.748 290.752 193.748 290.752L185.903 292.572C185.903 292.572 179.883 244.171 178.241 228.522C176.599 212.874 178.059 196.498 178.059 196.498C178.059 196.498 176.417 182.669 174.592 159.924C172.768 137.18 182.437 106.975 182.437 106.975Z" fill="#FFC3BA"/>
<path d="M182.443 106.975C182.443 106.975 197.95 109.704 195.761 155.011C195.761 155.011 185.545 168.476 169.856 166.839C154.349 165.383 182.443 106.975 182.443 106.975Z" fill="#0D527C"/>
<path d="M167.473 206.869C167.473 206.869 142.845 220.88 114.568 206.505C114.568 206.505 93.0415 112.615 100.704 104.791C103.987 101.334 112.014 102.244 119.859 104.245C130.075 106.974 140.291 111.705 140.291 111.705C140.291 111.705 156.163 106.429 169.298 105.519C177.689 104.973 184.804 106.065 186.081 111.523C189.547 125.352 167.473 206.869 167.473 206.869Z" fill="#105E99"/>
<path d="M132.633 80.7713C132.633 80.7713 139.2 105.7 132.815 110.612C132.815 110.612 139.748 119.346 152.7 110.976C152.7 110.976 147.957 98.4212 154.524 81.3172C158.903 69.6719 132.633 80.7713 132.633 80.7713Z" fill="#F2ADA2"/>
<path d="M162.74 68.3998C162.74 68.3998 168.578 62.7591 169.308 69.4916C170.038 77.3157 162.923 80.409 161.646 77.8616C160.004 75.3142 162.74 68.3998 162.74 68.3998Z" fill="#FFC3BA"/>
<path d="M122.242 68.3985C122.242 68.3985 116.586 62.5759 115.674 69.3083C114.762 77.1325 121.877 80.2258 123.336 77.8603C124.613 75.3129 122.242 68.3985 122.242 68.3985Z" fill="#FFC3BA"/>
<path d="M142.853 96.4202C155.623 96.6021 162.92 88.232 163.102 63.1219C163.285 50.2029 156.717 42.1967 142.305 42.0148C127.893 41.8328 121.873 49.8389 121.691 62.758C121.508 89.6877 129.535 96.2382 142.853 96.4202Z" fill="#FFC3BA"/>
<path d="M125.891 71.8555C125.708 73.1292 126.803 74.4029 128.445 74.7669C130.087 75.1308 131.546 74.221 131.729 72.9473C131.911 71.6736 130.817 70.3999 129.175 70.0359C127.715 69.672 126.256 70.5818 125.891 71.8555Z" fill="#ED93A4"/>
<path d="M152.34 72.7665C152.34 74.0403 153.799 75.132 155.441 74.95C157.083 74.7681 158.36 73.6763 158.178 72.4026C158.178 71.1289 156.718 70.0372 155.076 70.2191C153.617 70.2191 152.34 71.3109 152.34 72.7665Z" fill="#ED93A4"/>
<path d="M131.551 58.7551C131.733 58.937 132.098 58.937 132.281 58.5731C134.105 56.7535 137.206 56.7535 137.206 56.7535C137.571 56.7535 137.936 56.5716 137.936 56.2076C137.936 55.8437 137.754 55.4798 137.389 55.4798C137.206 55.4798 133.74 55.2978 131.551 57.6633C131.186 58.0272 131.186 58.3911 131.551 58.7551Z" fill="#8B383E"/>
<path d="M150.328 56.9371C150.511 56.9371 150.511 56.9371 150.693 56.9371C150.693 56.9371 153.794 56.9371 155.619 58.7567C155.801 58.9387 156.349 58.9387 156.531 58.7567C156.713 58.5747 156.713 58.0289 156.531 57.8469C154.342 55.4814 150.876 55.6634 150.693 55.6634C150.328 55.6634 150.146 56.0273 150.146 56.3912C149.963 56.5732 150.146 56.7552 150.328 56.9371Z" fill="#8B383E"/>
<path d="M131.906 65.6711C131.906 67.3087 132.636 68.5824 133.548 68.5824C134.46 68.5824 135.19 67.3087 135.19 65.6711C135.19 64.0335 134.46 62.7598 133.548 62.7598C132.636 62.7598 131.906 64.0335 131.906 65.6711Z" fill="#1A4850"/>
<path d="M149.969 65.6691C149.969 67.3068 150.698 68.5805 151.611 68.5805C152.523 68.5805 153.252 67.3068 153.252 65.6691C153.252 64.0315 152.523 62.7578 151.611 62.7578C150.698 62.7578 149.969 64.0315 149.969 65.6691Z" fill="#1A4850"/>
<path d="M148.33 81.1367C148.33 81.1367 140.303 82.2284 136.289 80.0449C136.289 80.0449 138.843 84.048 143.221 83.6841C147.6 83.1382 148.33 81.1367 148.33 81.1367Z" fill="#1A4850"/>
<path d="M136.283 64.9407C136.283 64.9407 135.189 60.9376 133.547 61.3015C132.087 61.4835 130.81 64.9407 130.81 64.9407L128.621 63.667L130.81 64.0309C130.81 64.0309 132.087 60.5737 133.547 60.5737C135.918 60.3917 136.283 64.9407 136.283 64.9407Z" fill="#1A4850"/>
<path d="M148.871 65.4881C148.871 65.4881 150.148 61.667 151.608 61.8489C153.067 62.2128 154.344 65.4881 154.344 65.4881L156.716 64.2144L154.526 64.5783C154.526 64.5783 153.432 61.1211 151.79 61.1211C149.418 61.1211 148.871 65.4881 148.871 65.4881Z" fill="#1A4850"/>
<path d="M122.059 72.0376C122.059 72.0376 125.343 61.302 125.707 52.932C125.707 52.932 129.174 44.9258 142.309 44.7439C155.444 44.5619 159.092 53.8418 159.092 53.8418C159.092 53.8418 160.552 65.669 162.376 73.8571C162.376 73.8571 163.106 69.6721 165.112 66.5788C165.112 66.5788 169.308 42.1965 142.126 38.9212C115.126 35.646 119.505 66.7608 119.505 66.7608C119.505 66.7608 120.964 66.9427 122.059 72.0376Z" fill="#8B383E"/>
<path d="M141.939 74.5859C142.121 74.7678 142.486 74.9498 142.851 74.9498L143.216 73.6761C142.121 73.3122 141.756 72.5843 141.756 72.0385C141.756 71.3106 142.304 70.5828 142.668 70.4008C142.851 70.4008 143.216 70.5828 143.398 70.9467L144.493 70.2189C143.581 68.9452 142.668 68.9452 142.121 69.1271C141.027 69.4911 140.297 70.7648 140.297 72.0385C140.479 73.1302 141.027 74.04 141.939 74.5859Z" fill="#ED93A4"/>
<path d="M120.054 53.2968C120.054 53.2968 112.21 50.5674 112.575 48.2019C112.94 45.8365 123.521 32.9175 124.798 32.9175C126.075 32.9175 140.487 22 143.406 22C146.324 22 159.277 32.5536 161.831 33.8273C164.385 35.101 171.317 45.2906 173.142 48.2019C174.966 51.1133 164.203 53.8426 164.203 53.8426C164.203 53.8426 145.047 45.2906 120.054 53.2968Z" fill="#105E99"/>
<path d="M119.324 52.9329C119.324 52.9329 128.446 43.6531 143.77 44.199C158.912 44.7448 165.114 53.4788 165.114 53.4788V57.8458C165.114 57.8458 160.189 52.2051 142.858 51.6592C125.527 51.1133 119.689 57.1179 119.689 57.1179L119.324 52.9329Z" fill="#072228"/>
<path d="M121.879 55.6628C121.879 55.6628 130.453 60.5757 143.223 60.5757C155.993 60.5757 163.108 56.5726 163.108 56.5726C163.108 56.5726 156.176 49.6582 142.858 49.6582C129.541 49.4763 121.879 55.6628 121.879 55.6628Z" fill="#0E3944"/>
<path d="M137.748 34.0098L147.782 34.5556C147.782 34.5556 148.694 40.9242 141.762 43.2896C141.579 43.1077 136.106 40.3783 137.748 34.0098Z" fill="#F2A668"/>
<path d="M141.763 42.5608C140.85 42.015 137.202 39.4675 138.114 34.5547L147.053 35.1006C147.235 36.3743 146.871 40.7412 141.763 42.5608Z" fill="#FFB878"/>
<path d="M134.641 105.156C134.641 105.156 138.289 111.525 142.485 114.436C142.485 114.436 148.688 110.433 151.424 105.156L154.89 107.704C154.89 107.704 155.985 112.98 148.323 122.806L142.485 116.62L134.641 122.806C134.641 122.806 128.62 112.798 127.891 106.612L134.641 105.156Z" fill="#0D527C"/>
<path d="M143.216 115.709L140.297 205.414L141.391 115.709H143.216Z" fill="#0D527C"/>
<path d="M150.875 144.639L174.409 145.548V150.279L161.821 154.828L150.875 149.733V144.639Z" fill="#0D527C"/>
<path d="M161.821 152.825C162.324 152.825 162.732 152.418 162.732 151.916C162.732 151.415 162.324 151.008 161.821 151.008C161.318 151.008 160.91 151.415 160.91 151.916C160.91 152.418 161.318 152.825 161.821 152.825Z" fill="#0E3944"/>
<path d="M133.19 144.639L109.656 145.548V150.279L122.426 154.828L133.19 149.733V144.639Z" fill="#0D527C"/>
<path d="M122.427 152.825C122.93 152.825 123.337 152.418 123.337 151.916C123.337 151.415 122.93 151.008 122.427 151.008C121.923 151.008 121.516 151.415 121.516 151.916C121.516 152.418 121.923 152.825 122.427 152.825Z" fill="#0E3944"/>
<path d="M133.55 142.094L108.375 143.003V139.728L133.55 138.818V142.094Z" fill="#CFD8DC"/>
<path d="M156.537 128.811L172.044 129.538C172.044 129.538 173.321 139.364 162.74 143.003C162.74 143.003 153.983 138.636 156.537 128.811Z" fill="#F2A668"/>
<path d="M162.742 142.096C161.282 141.186 155.627 137.365 157.269 129.723L171.133 130.45C171.316 132.634 170.769 139.184 162.742 142.096Z" fill="#FFB878"/>
<path d="M160.92 106.973C160.92 106.973 166.575 104.426 173.508 104.426C180.44 104.426 184.271 108.065 184.271 108.065L186.278 111.522C186.278 111.522 180.258 106.245 175.15 106.973C170.042 107.701 160.738 109.884 160.738 109.884L158.184 108.793L160.92 106.973Z" fill="#0D527C"/>
<path d="M102.164 103.698C102.164 103.698 110.556 103.335 114.934 104.426C119.13 105.518 123.326 106.974 123.326 106.974H124.968L123.691 104.972C123.691 104.972 113.657 100.059 104.171 101.879L102.164 103.698Z" fill="#0D527C"/>
<path d="M127.161 56.207C127.161 56.207 127.161 56.3889 127.161 56.207C126.978 56.5709 126.796 56.9348 126.249 57.4807C125.519 58.0266 124.789 58.5724 124.242 58.9363C123.877 59.1183 123.512 59.3003 123.512 59.3003C123.512 59.3003 124.242 60.392 120.046 63.3033C118.769 64.2131 115.485 66.2147 115.485 66.2147C115.485 66.2147 111.472 70.0358 109.465 70.3997C107.823 70.7636 104.722 75.4945 97.0597 74.5847C96.6948 74.5847 96.33 74.4028 95.9651 74.4028C89.7625 73.1291 91.9516 68.3981 95.053 66.7605C102.168 63.1214 108.37 60.7559 113.843 58.9363C118.586 57.4807 122.6 56.3889 126.249 55.1152C126.249 55.1152 127.343 55.4791 127.161 56.207Z" fill="#FFC3BA"/>
<path d="M123.51 58.5722C122.781 58.9361 118.767 59.8459 117.855 60.2098C116.943 60.5737 112.747 62.3933 113.841 62.3933C114.936 62.3933 117.308 60.7557 118.402 60.5737C119.314 60.3918 121.868 59.3 122.963 59.118C123.328 59.118 123.51 59.482 122.598 60.7557C121.504 62.2113 118.402 63.485 118.402 63.485C118.402 63.485 115.483 65.6685 114.389 66.2144C113.112 66.7603 112.2 68.9438 110.74 69.3077C109.098 69.8536 108.186 70.2175 107.456 70.3994C106.727 70.3994 106.179 74.0386 96.3281 74.4025C96.693 74.4025 97.0579 74.5845 97.4227 74.5845C105.085 75.4943 108.186 70.7633 109.828 70.3994C111.835 70.0355 115.848 66.2144 115.848 66.2144C115.848 66.2144 119.132 64.2129 120.409 63.3031C124.605 60.3918 123.875 59.3 123.875 59.3C123.875 59.3 125.335 58.5722 126.612 57.4804C127.159 57.1165 127.341 56.7526 127.524 56.3887C126.794 57.2985 124.422 58.3902 123.51 58.5722Z" fill="#F2ADA2"/>
<path d="M126.248 55.1152C125.153 56.025 117.308 58.0266 117.126 58.2085C116.944 58.3905 112.565 59.8461 112.383 59.8461C112.565 59.6642 113.113 59.3003 113.842 58.9363C118.585 57.4807 122.781 56.3889 126.248 55.1152Z" fill="#F2ADA2"/>
<path d="M93.046 213.42L110.559 217.059L98.7013 273.83C98.7013 273.83 99.2486 274.376 101.438 274.922C104.174 275.468 104.357 275.104 104.357 275.104L122.052 190.129C122.052 190.129 121.505 189.401 119.316 189.038C118.769 188.856 118.221 188.856 117.857 188.856C116.762 188.674 116.215 189.038 116.215 189.038L111.471 211.236L93.9581 207.597C93.9581 207.597 93.2284 208.143 92.8636 210.327C92.6812 212.692 93.046 213.42 93.046 213.42Z" fill="#86979B"/>
<path d="M93.046 213.42L110.559 217.059L98.7013 273.83C98.7013 273.83 99.2486 274.376 101.438 274.922C104.174 275.468 104.357 275.104 104.357 275.104C101.803 275.286 100.161 273.83 100.161 273.83L117.856 188.856C116.762 188.674 116.215 189.038 116.215 189.038L111.471 211.236L93.9581 207.597C93.9581 207.597 93.2284 208.143 92.8636 210.327C92.6812 212.692 93.046 213.42 93.046 213.42Z" fill="#607275"/>
</g>
<defs>
<clipPath id="clip0_900_22068">
<rect width="249" height="192" rx="24" fill="white"/>
</clipPath>
</defs>
</svg>
