<?xml version="1.0" standalone="no"?>
<!DOCTYPE svg PUBLIC "-//W3C//DTD SVG 20010904//EN"
 "http://www.w3.org/TR/2001/REC-SVG-20010904/DTD/svg10.dtd">
<svg version="1.0" xmlns="http://www.w3.org/2000/svg"
 width="250.000000pt" height="250.000000pt" viewBox="0 0 250.000000 250.000000"
 preserveAspectRatio="xMidYMid meet">
<metadata>
Created by potrace 1.14, written by Peter Selinger 2001-2017
</metadata>
<g transform="translate(0.000000,250.000000) scale(0.100000,-0.100000)"
fill="#000000" stroke="none">
<path d="M1285 2494 c-166 -36 -259 -72 -362 -141 -75 -50 -173 -142 -220
-207 -21 -28 -40 -53 -44 -56 -17 -13 -91 -164 -113 -230 -30 -93 -36 -138
-41 -326 -5 -226 -57 -418 -180 -668 -30 -62 -55 -122 -55 -133 0 -21 3 -21
291 -21 160 0 293 -3 296 -5 9 -10 -51 -144 -162 -362 -107 -211 -112 -223
-111 -280 l1 -60 478 -3 c465 -2 477 -2 477 17 0 11 -33 68 -73 128 -98 145
-146 243 -157 324 -20 137 9 283 72 370 80 110 74 108 340 109 190 1 231 4
259 18 50 26 72 63 77 132 2 34 10 64 18 71 19 15 18 29 -3 44 -16 12 -14 15
20 31 20 10 37 21 37 24 0 3 -9 25 -20 48 -24 50 -25 72 -3 72 9 0 32 12 52
27 95 71 95 101 1 158 -73 45 -100 93 -101 186 -2 114 -9 105 75 104 85 -1 89
3 76 77 -41 215 -223 418 -450 500 -39 15 -72 24 -155 45 -26 7 -294 12 -320
7z"/>
</g>
</svg>
