<svg xmlns="http://www.w3.org/2000/svg" xmlns:xlink="http://www.w3.org/1999/xlink" style="display:none"><symbol id="arrow-down" viewBox="0 0 24 24"><path d="M12 16.55a3 3 0 01-2.11-.87L3.37 9.16a1 1 0 111.42-1.42l6.52 6.52a1 1 0 001.38 0l6.52-6.52a1 1 0 111.42 1.42l-6.52 6.52a3 3 0 01-2.11.87z"/></symbol><symbol id="arrow-left" viewBox="0 0 24 24"><path d="M15.55 20.92a1 1 0 01-.71-.29l-6.52-6.52a3 3 0 010-4.22l6.52-6.52a1 1 0 111.42 1.42l-6.52 6.52a1 1 0 000 1.38l6.52 6.52a1 1 0 010 1.42 1 1 0 01-.71.29z"/></symbol><symbol id="arrow-right" viewBox="0 0 24 24"><path d="M8.45 20.92a1 1 0 01-.71-.29 1 1 0 010-1.41l6.52-6.52a1 1 0 000-1.38L7.74 4.79a1 1 0 111.42-1.42l6.52 6.52a3 3 0 010 4.22l-6.52 6.52a1 1 0 01-.71.29z"/></symbol><symbol id="arrow-up" viewBox="0 0 24 24"><path d="M4.08 16.55a1 1 0 01-.71-.29 1 1 0 010-1.42l6.52-6.52a3 3 0 014.22 0l6.52 6.52a1 1 0 11-1.42 1.42l-6.52-6.52a1 1 0 00-1.38 0l-6.52 6.52a1 1 0 01-.71.29z"/></symbol><symbol id="blockquote"><path d="M24 2.434c-3.228-.523-5.626.095-7.193 1.852-1.567 1.757-2.35 4.346-2.35 7.766v9.69H24v-9.69h-4.912c-.258-1.71-.024-3.1.701-4.168.749-1.069 1.965-1.532 3.65-1.39L24 2.435zm-14.456 0c-3.228-.523-5.626.095-7.193 1.852C.784 6.043 0 8.632 0 12.052v9.69h9.544v-9.69H4.632c-.258-1.71-.024-3.1.701-4.168.749-1.069 1.965-1.532 3.65-1.39l.56-4.06z" fill="#fff"/></symbol><symbol id="calendar" viewBox="0 0 24 24"><path d="M16.75 3.56V2c0-.41-.34-.75-.75-.75s-.75.34-.75.75v1.5h-6.5V2c0-.41-.34-.75-.75-.75s-.75.34-.75.75v1.56c-2.7.25-4.01 1.86-4.21 4.25-.02.29.22.53.5.53h16.92c.29 0 .53-.25.5-.53-.2-2.39-1.51-4-4.21-4.25zM20 9.84H4c-.55 0-1 .45-1 1V17c0 3 1.5 5 5 5h8c3.5 0 5-2 5-5v-6.16c0-.55-.45-1-1-1zM9.21 18.21c-.05.04-.1.09-.15.12-.06.04-.12.07-.18.09-.06.03-.12.05-.18.06-.07.01-.13.02-.2.02-.13 0-.26-.03-.38-.08-.13-.05-.23-.12-.33-.21-.18-.19-.29-.45-.29-.71 0-.26.11-.52.29-.71.1-.09.2-.16.33-.21.18-.08.38-.1.58-.06.06.01.12.03.18.06.06.02.12.05.18.09l.15.12c.18.19.29.45.29.71 0 .26-.11.52-.29.71zm0-3.5c-.19.18-.45.29-.71.29-.26 0-.52-.11-.71-.29-.18-.19-.29-.45-.29-.71 0-.26.11-.52.29-.71.28-.28.72-.37 1.09-.21.13.05.24.12.33.21.18.19.29.45.29.71 0 .26-.11.52-.29.71zm3.5 3.5c-.19.18-.45.29-.71.29-.26 0-.52-.11-.71-.29-.18-.19-.29-.45-.29-.71 0-.26.11-.52.29-.71.37-.37 1.05-.37 1.42 0 .18.19.29.45.29.71 0 .26-.11.52-.29.71zm0-3.5l-.15.12c-.06.04-.12.07-.18.09-.06.03-.12.05-.18.06-.07.01-.13.02-.2.02-.26 0-.52-.11-.71-.29-.18-.19-.29-.45-.29-.71 0-.26.11-.52.29-.71.09-.09.2-.16.33-.21.37-.16.81-.07 1.09.21.18.19.29.45.29.71 0 .26-.11.52-.29.71zm3.5 3.5c-.19.18-.45.29-.71.29-.26 0-.52-.11-.71-.29-.18-.19-.29-.45-.29-.71 0-.26.11-.52.29-.71.37-.37 1.05-.37 1.42 0 .18.19.29.45.29.71 0 .26-.11.52-.29.71zm0-3.5l-.15.12c-.06.04-.12.07-.18.09-.06.03-.12.05-.18.06-.07.01-.14.02-.2.02-.26 0-.52-.11-.71-.29-.18-.19-.29-.45-.29-.71 0-.26.11-.52.29-.71.1-.09.2-.16.33-.21.18-.08.38-.1.58-.06.06.01.12.03.18.06.06.02.12.05.18.09l.15.12c.18.19.29.45.29.71 0 .26-.11.52-.29.71z"/></symbol><symbol id="call" viewBox="0 0 24 24"><path d="M11.05 14.95L9.2 16.8c-.39.39-1.01.39-1.41.01-.11-.11-.22-.21-.33-.32a28.414 28.414 0 01-2.79-3.27c-.82-1.14-1.48-2.28-1.96-3.41C2.24 8.67 2 7.58 2 6.54c0-.68.12-1.33.36-1.93.24-.61.62-1.17 1.15-1.67C4.15 2.31 4.85 2 5.59 2c.28 0 .56.06.81.18.26.12.49.3.67.56l2.32 3.27c.18.25.31.48.4.7.09.21.14.42.14.61 0 .24-.07.48-.21.71-.13.23-.32.47-.56.71l-.76.79c-.11.11-.16.24-.16.4 0 .08.01.15.03.23.03.08.06.14.08.2.18.33.49.76.93 1.28.45.52.93 1.05 1.45 1.58.1.1.21.2.31.3.4.39.41 1.03.01 1.43zM21.972 18.33c0 .28-.05.57-.15.85-.03.08-.06.16-.1.24-.17.36-.39.7-.68 1.02-.49.54-1.03.93-1.64 1.18-.01 0-.02.01-.03.01-.59.24-1.23.37-1.92.37-1.02 0-2.11-.24-3.26-.73s-2.3-1.15-3.44-1.98c-.39-.29-.78-.58-1.15-.89l3.27-3.27c.28.21.53.37.74.48.05.02.11.05.18.08.08.03.16.04.25.04.17 0 .3-.06.41-.17l.76-.75c.25-.25.49-.44.72-.56.23-.14.46-.21.71-.21.19 0 .39.04.61.13.22.09.45.22.7.39l3.31 2.35c.26.18.44.39.55.64.1.25.16.5.16.78z"/></symbol><symbol id="close-square" viewBox="0 0 24 24"><path d="M13.41 12l6.8-6.79a1 1 0 10-1.42-1.42L12 10.59l-6.79-6.8a1 1 0 00-1.42 1.42l6.8 6.79-6.8 6.79a1 1 0 000 1.42 1 1 0 001.42 0l6.79-6.8 6.79 6.8a1 1 0 001.42 0 1 1 0 000-1.42z"/></symbol><symbol id="document-download" viewBox="0 0 24 24"><path d="M20.5 10.19h-2.89c-2.37 0-4.3-1.93-4.3-4.3V3c0-.55-.45-1-1-1H8.07C4.99 2 2.5 4 2.5 7.57v8.86C2.5 20 4.99 22 8.07 22h7.86c3.08 0 5.57-2 5.57-5.57v-5.24c0-.55-.45-1-1-1zm-8.22 5.59l-2 2c-.07.07-.16.13-.25.16a.671.671 0 01-.56 0 .662.662 0 01-.22-.15c-.01-.01-.02-.01-.02-.02l-2-2a.754.754 0 010-1.06c.29-.29.77-.29 1.06 0l.71.73v-4.19c0-.41.34-.75.75-.75s.75.34.75.75v4.19l.72-.72c.29-.29.77-.29 1.06 0 .29.29.29.77 0 1.06z"/><path d="M17.43 8.81c.95.01 2.27.01 3.4.01.57 0 .87-.67.47-1.07-1.44-1.45-4.02-4.06-5.5-5.54-.41-.41-1.12-.13-1.12.44v3.49c0 1.46 1.24 2.67 2.75 2.67z"/></symbol><symbol id="document-text" viewBox="0 0 24 24"><path d="M15.8 2.21c-.41-.41-1.12-.13-1.12.44v3.49c0 1.46 1.24 2.67 2.75 2.67.95.01 2.27.01 3.4.01.57 0 .87-.67.47-1.07-1.44-1.45-4.02-4.06-5.5-5.54z"/><path d="M20.5 10.19h-2.89c-2.37 0-4.3-1.93-4.3-4.3V3c0-.55-.45-1-1-1H8.07C4.99 2 2.5 4 2.5 7.57v8.86C2.5 20 4.99 22 8.07 22h7.86c3.08 0 5.57-2 5.57-5.57v-5.24c0-.55-.45-1-1-1zm-9 7.56h-4c-.41 0-.75-.34-.75-.75s.34-.75.75-.75h4c.41 0 .75.34.75.75s-.34.75-.75.75zm2-4h-6c-.41 0-.75-.34-.75-.75s.34-.75.75-.75h6c.41 0 .75.34.75.75s-.34.75-.75.75z"/></symbol><symbol id="edit-ava" viewBox="0 0 16 16"><path d="M14 14.67H2a.51.51 0 01-.5-.5.5.5 0 01.5-.5h12a.5.5 0 01.5.5.51.51 0 01-.5.5zM12.68 2.32a2.42 2.42 0 00-3.89 0L8 3.13a.25.25 0 00-.07.26 5.43 5.43 0 003.69 3.69h.08a.24.24 0 00.18-.08l.8-.8a2.77 2.77 0 001-1.93 2.72 2.72 0 00-1-1.95zM10.41 7.69c-.2-.1-.38-.19-.56-.3a4 4 0 01-.43-.28 4 4 0 01-.37-.28l-.12-.1A5.69 5.69 0 018.25 6a.46.46 0 01-.1-.12 3.54 3.54 0 01-.28-.36 2.78 2.78 0 01-.26-.4c-.11-.18-.2-.36-.3-.54a.42.42 0 00-.67-.14L2.89 8.22a.85.85 0 00-.18.37l-.36 2.55a1.37 1.37 0 00.34 1.17 1.33 1.33 0 00.93.36h.24l2.56-.36a.73.73 0 00.37-.19l3.75-3.76a.4.4 0 00-.13-.67z"/></symbol><symbol id="exit" viewBox="0 0 24 24"><path d="M19.002 3h-14c-1.103 0-2 .897-2 2v4h2V5h14v14h-14v-4h-2v4c0 1.103.897 2 2 2h14c1.103 0 2-.897 2-2V5c0-1.103-.898-2-2-2z"/><path d="M11 16l5-4-5-4v3.001H3v2h8z"/></symbol><symbol id="eye-slash" viewBox="0 0 24 24"><path d="M21.27 9.18a14.13 14.13 0 00-.92-1.29 1 1 0 00-1.49-.09l-3 3a3.92 3.92 0 01.06 2.2 4 4 0 01-2.9 2.9 3.92 3.92 0 01-2.21-.06l-2.46 2.47A1 1 0 008.68 20a9.22 9.22 0 003.32.62 9.68 9.68 0 005.09-1.49 13.43 13.43 0 004.23-4.34 5.78 5.78 0 00-.05-5.61z"/><path d="M12 14.86A2.87 2.87 0 0014.86 12a.5.5 0 000-.17l-3 3a.5.5 0 00.14.03zM21.77 2.23a.77.77 0 00-1.09 0l-3.05 3.05A9.79 9.79 0 0012 3.43a9.77 9.77 0 00-5.09 1.49 13.35 13.35 0 00-4.16 4.23 5.77 5.77 0 000 5.69 14.54 14.54 0 002.43 2.9l-2.95 3a.77.77 0 000 1.09.79.79 0 00.54.22.76.76 0 00.54-.23L21.77 3.31a.74.74 0 000-1.08zM8 12a4 4 0 016.31-3.35l-.88.87a2.83 2.83 0 00-3.87 3.87l-.87.88A4 4 0 018 12z"/></symbol><symbol id="eye" viewBox="0 0 24 24"><path d="M21.25 9.15C18.94 5.52 15.56 3.43 12 3.43c-1.78 0-3.51.52-5.09 1.49-1.58.98-3 2.41-4.16 4.23-1 1.57-1 4.12 0 5.69 2.31 3.64 5.69 5.72 9.25 5.72 1.78 0 3.51-.52 5.09-1.49 1.58-.98 3-2.41 4.16-4.23 1-1.56 1-4.12 0-5.69zM12 16.04c-2.24 0-4.04-1.81-4.04-4.04S9.76 7.96 12 7.96s4.04 1.81 4.04 4.04-1.8 4.04-4.04 4.04z"/><path d="M11.998 9.14a2.855 2.855 0 000 5.71c1.57 0 2.86-1.28 2.86-2.85s-1.29-2.86-2.86-2.86z"/></symbol><symbol id="facebook" viewBox="0 0 24 24"><path d="M22 16.19c0 3.64-2.17 5.81-5.81 5.81H15c-.55 0-1-.45-1-1v-5.77c0-.27.22-.5.49-.5l1.76-.03c.14-.01.26-.11.29-.25l.35-1.91a.303.303 0 00-.3-.35l-2.13.03c-.28 0-.5-.22-.51-.49l-.04-2.45c0-.16.13-.3.3-.3l2.4-.04c.17 0 .3-.13.3-.3l-.04-2.4c0-.17-.13-.3-.3-.3l-2.7.04a2.996 2.996 0 00-2.95 3.05l.05 2.75c.01.28-.21.5-.49.51l-1.2.02c-.17 0-.3.13-.3.3l.03 1.9c0 .17.13.3.3.3l1.2-.02c.28 0 .5.22.51.49l.09 5.7c.01.56-.44 1.02-1 1.02h-2.3C4.17 22 2 19.83 2 16.18V7.81C2 4.17 4.17 2 7.81 2h8.38C19.83 2 22 4.17 22 7.81v8.38z"/></symbol><symbol id="frame" viewBox="0 0 24 24"><path d="M12 2C9.38 2 7.25 4.13 7.25 6.75c0 2.57 2.01 4.65 4.63 4.74.08-.01.16-.01.22 0h.07a4.738 4.738 0 004.58-4.74C16.75 4.13 14.62 2 12 2zM17.08 14.15c-2.79-1.86-7.34-1.86-10.15 0-1.27.85-1.97 2-1.97 3.23s.7 2.37 1.96 3.21C8.32 21.53 10.16 22 12 22c1.84 0 3.68-.47 5.08-1.41 1.26-.85 1.96-1.99 1.96-3.23-.01-1.23-.7-2.37-1.96-3.21z"/></symbol><symbol id="gallery" viewBox="0 0 24 24"><path d="M2.58 19.01l-.02.02c-.27-.59-.44-1.26-.51-2 .07.73.26 1.39.53 1.98zM9.001 10.38a2.38 2.38 0 100-4.76 2.38 2.38 0 000 4.76z"/><path d="M16.19 2H7.81C4.17 2 2 4.17 2 7.81v8.38c0 1.09.19 2.04.56 2.84.86 1.9 2.7 2.97 5.25 2.97h8.38c3.64 0 5.81-2.17 5.81-5.81V7.81C22 4.17 19.83 2 16.19 2zm4.18 10.5c-.78-.67-2.04-.67-2.82 0l-4.16 3.57c-.78.67-2.04.67-2.82 0l-.34-.28c-.71-.62-1.84-.68-2.64-.14l-3.74 2.51c-.22-.56-.35-1.21-.35-1.97V7.81c0-2.82 1.49-4.31 4.31-4.31h8.38c2.82 0 4.31 1.49 4.31 4.31v4.8l-.13-.11z"/></symbol><symbol id="global" viewBox="0 0 24 24"><path d="M12 1a11 11 0 1011 11A11 11 0 0012 1zm9 13.34a28.54 28.54 0 01-3.85 1 30.52 30.52 0 000-6.62 28.54 28.54 0 013.85 1 .64.64 0 00.2 0 8.94 8.94 0 010 4.63 1.23 1.23 0 00-.2-.01zm-18.13 0A9.34 9.34 0 012.53 12a9.9 9.9 0 01.3-2.32.65.65 0 00.2 0 28.54 28.54 0 013.85-1 30.52 30.52 0 000 6.62 28.54 28.54 0 01-3.85-1 1.23 1.23 0 00-.19.02zm5.58-5.89a29.08 29.08 0 017.1 0 29.08 29.08 0 010 7.1 29.08 29.08 0 01-7.1 0 29.08 29.08 0 010-7.1zm12.09-.51a30.22 30.22 0 00-3.62-.86 30.22 30.22 0 00-.86-3.62 9.55 9.55 0 014.48 4.48zm-6.22-5.11a.65.65 0 000 .2 28.54 28.54 0 011 3.85 30.52 30.52 0 00-6.62 0A28.54 28.54 0 019.66 3a1.23 1.23 0 000-.19A9.34 9.34 0 0112 2.53a9.9 9.9 0 012.32.3zm-6.53.71h.1a28 28 0 00-.79 3.54 28.71 28.71 0 00-3.64.86 9.52 9.52 0 014.33-4.4zM3.54 16.21v-.09a30.2 30.2 0 003.54.79 28.55 28.55 0 00.79 3.53h-.1a9.4 9.4 0 01-4.23-4.23zm6.14 4.95a1.23 1.23 0 000-.19 28.54 28.54 0 01-1-3.85 30.47 30.47 0 003.31.2 30.47 30.47 0 003.31-.2 28.54 28.54 0 01-1 3.85.65.65 0 000 .2 9.9 9.9 0 01-2.32.3 9.34 9.34 0 01-2.3-.31zm6.38-.62a28.71 28.71 0 00.86-3.64 28.36 28.36 0 003.52-.78v.09a9.47 9.47 0 01-4.38 4.33z"/></symbol><symbol id="library" viewBox="0 0 24 24"><path d="M11.25 6v13.91a1 1 0 01-1.37.93 25.61 25.61 0 00-5.81-1.68h-.31a2.06 2.06 0 01-1.76-2V5.25a2.17 2.17 0 012.17-2.17h.07a19.19 19.19 0 016.48 2 1 1 0 01.53.92zM19.83 3.08h-.06a7.76 7.76 0 00-.77.1 20.21 20.21 0 00-4 1.14 18.38 18.38 0 00-1.71.79 1 1 0 00-.54.89v13.91a1 1 0 001.37.93 25.61 25.61 0 015.81-1.68h.31a2.06 2.06 0 001.76-2V5.25a2.17 2.17 0 00-2.17-2.17zm-.56 10.65c0 .39-.28.56-.62.37l-1.06-.59a.49.49 0 00-.41 0l-1.06.59c-.34.19-.62 0-.62-.37v-3.07a.85.85 0 01.84-.84h2.1a.85.85 0 01.84.84v3.07z"/></symbol><symbol id="link" viewBox="0 0 24 24"><path d="M15.41 18.59a.73.73 0 010-1.46A5.12 5.12 0 1010.29 12a.73.73 0 01-1.46 0 6.59 6.59 0 116.58 6.58z"/><path d="M8.59 5.41a.73.73 0 010 1.46A5.12 5.12 0 1013.71 12a.73.73 0 111.46 0 6.59 6.59 0 11-6.58-6.59z"/></symbol><symbol id="location" viewBox="0 0 24 24"><path d="M20.621 8.45c-1.05-4.62-5.08-6.7-8.62-6.7h-.01c-3.53 0-7.57 2.07-8.62 6.69-1.17 5.16 1.99 9.53 4.85 12.28a5.436 5.436 0 003.78 1.53c1.36 0 2.72-.51 3.77-1.53 2.86-2.75 6.02-7.11 4.85-12.27zm-8.62 5.01a3.15 3.15 0 110-6.3 3.15 3.15 0 010 6.3z"/></symbol><symbol id="menu" viewBox="0 0 24 24"><path d="M21 7.75H3a.75.75 0 010-1.5h18a.75.75 0 010 1.5zM21 12.75H3a.75.75 0 010-1.5h18a.75.75 0 010 1.5zM21 17.75H3a.75.75 0 010-1.5h18a.75.75 0 010 1.5z"/></symbol><symbol id="microphone-2" viewBox="0 0 24 24"><path d="M19.12 9.12c-.39 0-.7.31-.7.7v1.58c0 3.54-2.88 6.42-6.42 6.42s-6.42-2.88-6.42-6.42V9.81c0-.39-.31-.7-.7-.7-.39 0-.7.31-.7.7v1.58c0 4.07 3.13 7.42 7.12 7.78v2.13c0 .39.31.7.7.7.39 0 .7-.31.7-.7v-2.13c3.98-.35 7.12-3.71 7.12-7.78V9.81a.707.707 0 00-.7-.69z"/><path d="M11.998 2c-2.44 0-4.42 1.98-4.42 4.42v5.12c0 2.44 1.98 4.42 4.42 4.42s4.42-1.98 4.42-4.42V6.42c0-2.44-1.98-4.42-4.42-4.42zm1.31 6.95c-.07.26-.3.43-.56.43-.05 0-.1-.01-.15-.02-.39-.11-.8-.11-1.19 0-.32.09-.63-.1-.71-.41-.09-.31.1-.63.41-.71.59-.16 1.21-.16 1.8 0 .3.08.48.4.4.71zm.53-1.94a.58.58 0 01-.55.38c-.07 0-.13-.01-.2-.03-.7-.26-1.48-.26-2.18 0a.59.59 0 01-.75-.35c-.11-.3.05-.64.35-.74a4.36 4.36 0 012.98 0c.3.11.46.44.35.74z"/></symbol><symbol id="non-icon" viewBox="0 0 24 24"><path d="M20.71 3.29A4.43 4.43 0 0017.58 2H6.42A4.4 4.4 0 002 6.42v11.16A4.4 4.4 0 006.42 22h11.16A4.4 4.4 0 0022 17.58V6.42a4.43 4.43 0 00-1.29-3.13zM6.42 3.4h11.16a3 3 0 011.59.44L12 11 4.83 3.84a3 3 0 011.59-.44zm-3 14.18V6.42a3 3 0 01.44-1.59L11 12l-7.16 7.17a3 3 0 01-.44-1.59zm14.18 3H6.42a3 3 0 01-1.59-.44L12 13l7.17 7.17a3 3 0 01-1.59.43zm3-3a3 3 0 01-.44 1.59L13 12l7.17-7.17a3 3 0 01.44 1.59z"/></symbol><symbol id="note" viewBox="0 0 24 24"><path d="M8.29 6.29c-.42 0-.75-.34-.75-.75V2.75a.749.749 0 111.5 0v2.78c0 .42-.33.76-.75.76zM15.71 6.29c-.42 0-.75-.34-.75-.75V2.75a.749.749 0 111.5 0v2.78c0 .42-.33.76-.75.76z"/><path d="M19.57 4.5c-.66-.49-1.61-.02-1.61.81v.1c0 1.17-.84 2.25-2.01 2.37-1.35.14-2.49-.92-2.49-2.24V4.5c0-.55-.45-1-1-1h-.92c-.55 0-1 .45-1 1v1.04c0 .79-.41 1.49-1.03 1.88-.09.06-.19.11-.29.16-.09.05-.19.09-.3.12-.12.04-.25.07-.39.08-.16.02-.32.02-.48 0-.14-.01-.27-.04-.39-.08a2.694 2.694 0 01-.59-.28c-.63-.44-1.03-1.2-1.03-2.01v-.1c0-.77-.82-1.23-1.47-.9-.01.01-.02.01-.03.02-.04.02-.07.04-.11.07-.03.03-.07.05-.1.08-.28.22-.53.47-.74.74-.11.12-.2.25-.28.38a3.498 3.498 0 00-.27.46c-.02.02-.03.03-.03.05-.06.12-.12.24-.16.37-.03.05-.04.09-.06.14-.06.15-.1.3-.14.45-.04.14-.07.29-.09.44a5.902 5.902 0 00-.06.76v8.76A4.87 4.87 0 007.37 22h9.26a4.87 4.87 0 004.87-4.87V8.37c0-1.59-.76-2.98-1.93-3.87zM12 17.42H7.36a.755.755 0 010-1.51H12c.42 0 .75.34.75.76 0 .41-.33.75-.75.75zm2.78-3.71H7.36a.755.755 0 010-1.51h7.42c.42 0 .76.34.76.76 0 .41-.34.75-.76.75z"/></symbol><symbol id="profile-2user" viewBox="0 0 24 24"><path d="M9 2C6.38 2 4.25 4.13 4.25 6.75c0 2.57 2.01 4.65 4.63 4.74.08-.01.16-.01.22 0h.07a4.738 4.738 0 004.58-4.74C13.75 4.13 11.62 2 9 2zM14.08 14.15c-2.79-1.86-7.34-1.86-10.15 0-1.27.85-1.97 2-1.97 3.23s.7 2.37 1.96 3.21C5.32 21.53 7.16 22 9 22c1.84 0 3.68-.47 5.08-1.41 1.26-.85 1.96-1.99 1.96-3.23-.01-1.23-.7-2.37-1.96-3.21zM19.99 7.34c.16 1.94-1.22 3.64-3.13 3.87h-.05c-.06 0-.12 0-.17.02-.97.05-1.86-.26-2.53-.83 1.03-.92 1.62-2.3 1.5-3.8a4.64 4.64 0 00-.77-2.18 3.592 3.592 0 015.15 2.92z"/><path d="M21.988 16.59c-.08.97-.7 1.81-1.74 2.38-1 .55-2.26.81-3.51.78.72-.65 1.14-1.46 1.22-2.32.1-1.24-.49-2.43-1.67-3.38-.67-.53-1.45-.95-2.3-1.26 2.21-.64 4.99-.21 6.7 1.17.92.74 1.39 1.67 1.3 2.63z"/></symbol><symbol id="profile-add" viewBox="0 0 24 24"><path d="M12 2C9.38 2 7.25 4.13 7.25 6.75c0 2.57 2.01 4.65 4.63 4.74.08-.01.16-.01.22 0h.07a4.738 4.738 0 004.58-4.74C16.75 4.13 14.62 2 12 2zM17.08 14.15c-2.79-1.86-7.34-1.86-10.15 0-1.27.85-1.97 2-1.97 3.23s.7 2.37 1.96 3.21C8.32 21.53 10.16 22 12 22c1.84 0 3.68-.47 5.08-1.41 1.26-.85 1.96-1.99 1.96-3.23-.01-1.23-.7-2.37-1.96-3.21zM14 18.13h-1.25v1.25c0 .41-.34.75-.75.75s-.75-.34-.75-.75v-1.25H10c-.41 0-.75-.34-.75-.75s.34-.75.75-.75h1.25v-1.25c0-.41.34-.75.75-.75s.75.34.75.75v1.25H14c.41 0 .75.34.75.75s-.34.75-.75.75z"/></symbol><symbol id="profile-circle" viewBox="0 0 24 24"><path d="M11.85 13.53h.29a4 4 0 10-.29 0zM12 7a2.53 2.53 0 01.14 5h-.28A2.53 2.53 0 0112 7z"/><path d="M22.75 12a10.75 10.75 0 10-18 7.9l.25.2.4.33.42.31.39.28.48.28.39.23.52.25.4.22c.18.08.36.14.55.21l.41.14.6.15c.13 0 .26.07.4.09s.47.08.71.11l.31.05c.35 0 .71.05 1.06.05s.71 0 1.06-.05h.28q.38 0 .75-.12l.36-.08c.21-.05.43-.1.64-.17l.37-.12.6-.22.35-.16a6.19 6.19 0 00.58-.28l.33-.18.55-.34.31-.21c.18-.12.34-.25.51-.38l.31-.26c.08-.07.17-.13.25-.21A10.71 10.71 0 0022.75 12zm-20 0a9.25 9.25 0 1116.31 6 5 5 0 00-1.67-1.78 10.52 10.52 0 00-10.78 0A5 5 0 004.94 18a9.21 9.21 0 01-2.19-6zm15.14 7.13l-.09.06a6.7 6.7 0 01-.6.45l-.17.11a6.42 6.42 0 01-.56.34l-.23.12-.53.26-.27.11-.54.2-.29.09-.56.14-.29.07q-.31.06-.63.09h-.23c-.3 0-.6.05-.9.05a8.69 8.69 0 01-.89-.05 2.3 2.3 0 01-.26 0q-.3 0-.6-.09L9.93 21l-.52-.14-.33-.1c-.17-.06-.33-.11-.49-.18l-.32-.13c-.16-.07-.31-.15-.46-.23l-.3-.15-.45-.27-.28-.18c-.14-.1-.28-.2-.41-.31l-.28-.21a3.19 3.19 0 011.37-1.67 9 9 0 019.1 0 3.25 3.25 0 011.37 1.68z"/></symbol><symbol id="qrcode" viewBox="0 0 32 32"><path d="M13 5H7a2 2 0 00-2 2v6a2 2 0 002 2h6a2 2 0 002-2V7a2 2 0 00-2-2zm0 8H7V7h6zM13 17H7a2 2 0 00-2 2v6a2 2 0 002 2h6a2 2 0 002-2v-6a2 2 0 00-2-2zm0 8H7v-6h6zM25 5h-6a2 2 0 00-2 2v6a2 2 0 002 2h6a2 2 0 002-2V7a2 2 0 00-2-2zm0 8h-6V7h6zM18 23a1 1 0 001-1v-4a1 1 0 00-2 0v4a1 1 0 001 1z"/><path d="M26 19h-3v-1a1 1 0 00-2 0v7h-3a1 1 0 000 2h4a1 1 0 001-1v-5h3a1 1 0 000-2zM26 23a1 1 0 00-1 1v2a1 1 0 002 0v-2a1 1 0 00-1-1z"/></symbol><symbol id="quote-up-square" viewBox="0 0 24 24"><path d="M16.19 2H7.81C4.17 2 2 4.17 2 7.81v8.37C2 19.83 4.17 22 7.81 22h8.37c3.64 0 5.81-2.17 5.81-5.81V7.81C22 4.17 19.83 2 16.19 2zm-4.58 9.84c0 3.08-.67 3.77-2.46 4.83-.12.07-.25.1-.38.1-.26 0-.51-.13-.65-.37a.758.758 0 01.26-1.03c1.21-.72 1.63-.98 1.71-2.79h-1.9c-1.09 0-1.94-.85-1.94-1.94V9.16c0-1.09.85-1.94 1.94-1.94h1.49c1.07 0 1.94.87 1.94 1.94v2.68h-.01zm6.14 0c0 3.08-.67 3.77-2.46 4.83-.12.07-.25.1-.38.1-.26 0-.51-.13-.65-.37a.758.758 0 01.26-1.03c1.21-.72 1.63-.98 1.71-2.79h-1.91c-1.09 0-1.94-.85-1.94-1.94V9.16c0-1.09.85-1.94 1.94-1.94h1.49c1.07 0 1.94.87 1.94 1.94v2.68z"/></symbol><symbol id="search-normal" viewBox="0 0 24 24"><path d="M11.5 21.75A10.25 10.25 0 1121.75 11.5 10.26 10.26 0 0111.5 21.75zm0-19a8.75 8.75 0 108.75 8.75 8.77 8.77 0 00-8.75-8.75zM22 22.75a.74.74 0 01-.53-.22l-2-2a.75.75 0 011.06-1.06l2 2a.75.75 0 010 1.06.74.74 0 01-.53.22z"/></symbol><symbol id="search-zoom" viewBox="0 0 21.5 21.5"><path d="M12.95 9.75H11.2v-1.8a.75.75 0 00-1.5 0v1.8H7.95a.75.75 0 000 1.5h1.8v1.7a.75.75 0 001.5 0V11.2h1.7a.75.75 0 000-1.5z"/><path d="M10.25 0A10.25 10.25 0 1020.5 10.25 10.26 10.26 0 0010.25 0zm0 19A8.75 8.75 0 1119 10.25 8.76 8.76 0 0110.25 19zM21.28 20.22l-2-2a.75.75 0 00-1.06 1.06l2 2a.75.75 0 001.06 0 .75.75 0 000-1.06z"/></symbol><symbol id="sms" viewBox="0 0 24 24"><path d="M17 3.5H7c-3 0-5 1.5-5 5v7c0 3.5 2 5 5 5h10c3 0 5-1.5 5-5v-7c0-3.5-2-5-5-5zm.47 6.09l-3.13 2.5c-.66.53-1.5.79-2.34.79-.84 0-1.69-.26-2.34-.79l-3.13-2.5a.77.77 0 01-.12-1.06c.26-.32.73-.38 1.05-.12l3.13 2.5c.76.61 2.05.61 2.81 0l3.13-2.5c.32-.26.8-.21 1.05.12.26.32.21.8-.11 1.06z"/></symbol><symbol id="sound-cloud" viewBox="0 0 22 22"><path d="M16.47 0h-11A5.53 5.53 0 000 5.52v11A5.52 5.52 0 005.51 22h11A5.53 5.53 0 0022 16.48v-11A5.55 5.55 0 0016.47 0zM3.22 14a.45.45 0 01-.22-.44v-1.94a.43.43 0 01.16-.35.54.54 0 01.38-.15.53.53 0 01.39.15.43.43 0 01.16.35v1.94a.56.56 0 01-.09.36.56.56 0 01-.32.15.67.67 0 01-.46-.07zm1.65.72a.32.32 0 01-.16-.29V9.86a.48.48 0 01.16-.35.61.61 0 01.78 0 .48.48 0 01.16.35v4.54a.32.32 0 01-.16.29.81.81 0 01-.78 0zm1.7.21a.32.32 0 01-.15-.29v-4.17a.46.46 0 01.16-.36A.61.61 0 017 10a.59.59 0 01.38.14.46.46 0 01.16.36v4.14a.32.32 0 01-.15.29A.71.71 0 017 15a.73.73 0 01-.43-.1zm2.11.1c-.37 0-.55-.12-.55-.37V7.92a.63.63 0 01.72-.64c.26.05.38.26.38.64v6.71c0 .25-.18.37-.55.37zm1.19-7.48v7.31a.16.16 0 000 .09.13.13 0 00.13.05h6.47a2.58 2.58 0 001.78-.66 2.11 2.11 0 000-3.21 2.58 2.58 0 00-1.78-.66 2.78 2.78 0 00-1 .17 3.7 3.7 0 00-.67-1.84 4.26 4.26 0 00-1.58-1.32A4.82 4.82 0 0011.09 7a4.92 4.92 0 00-1 .11c-.09.04-.22.18-.22.41z" fill-rule="evenodd"/></symbol><symbol id="teacher" viewBox="0 0 24 24"><path d="M16.831 15.64a1 1 0 011.55.84v1.29c0 1.27-.99 2.63-2.18 3.03l-3.19 1.06c-.56.19-1.47.19-2.02 0l-3.19-1.06c-1.2-.4-2.18-1.76-2.18-3.03v-1.3c0-.79.88-1.27 1.54-.84l2.06 1.34c.79.53 1.79.79 2.79.79s2-.26 2.79-.79l2.03-1.33z"/><path d="M19.98 6.46l-5.99-3.93c-1.08-.71-2.86-.71-3.94 0L4.03 6.46c-1.93 1.25-1.93 4.08 0 5.34l1.6 1.04 4.42 2.88c1.08.71 2.86.71 3.94 0l4.39-2.88 1.37-.9V15c0 .41.34.75.75.75s.75-.34.75-.75v-4.92c.4-1.29-.01-2.79-1.27-3.62z"/></symbol><symbol id="telegram" viewBox="0 0 24 24"><path fill-rule="evenodd" clip-rule="evenodd" d="M23.25 12c0 6.213-5.037 11.25-11.25 11.25S.75 18.213.75 12 5.787.75 12 .75 23.25 5.787 23.25 12zM12.403 9.055a529.123 529.123 0 00-6.56 2.826c-.533.212-.812.419-.838.621-.043.344.387.479.97.661.08.026.162.051.246.08.575.186 1.347.404 1.749.413.364.007.771-.143 1.22-.45 3.064-2.07 4.646-3.115 4.745-3.137.07-.016.168-.037.233.022.066.058.06.169.053.199-.043.18-1.725 1.746-2.597 2.556-.272.252-.464.43-.503.472-.088.091-.178.178-.265.262-.534.513-.934.9.023 1.53.46.303.827.553 1.193.802.4.273.8.545 1.317.884.132.087.257.176.38.263.466.333.885.63 1.403.584.3-.028.61-.31.768-1.153.373-1.993 1.106-6.31 1.275-8.09.01-.147.004-.295-.018-.442a.475.475 0 00-.162-.304c-.134-.11-.342-.133-.436-.131-.422.007-1.071.233-4.196 1.532z"/></symbol><symbol id="twitter" viewBox="0 0 24 24"><path d="M23.03 7.28l-2.827 2.828C19.638 16.659 14.113 21.75 7.5 21.75c-1.361 0-2.484-.216-3.335-.642-.687-.343-.969-.712-1.039-.817a.75.75 0 01.36-1.119c.025-.009 2.237-.858 3.666-2.475a10.273 10.273 0 01-2.318-2.284C3.549 12.67 2.19 9.64 3.012 5.116a.75.75 0 011.269-.397c.033.033 3.153 3.11 6.969 4.104V8.25a4.53 4.53 0 014.557-4.499A4.51 4.51 0 0119.648 6H22.5a.75.75 0 01.53 1.28z"/></symbol><symbol id="upload-simple" viewBox="0 0 32 32"><path d="M11.46 11L15 7.41V19a1 1 0 002 0V7.41L20.54 11A1 1 0 0022 11a1 1 0 000-1.42l-5.29-5.29a1 1 0 00-.33-.21.92.92 0 00-.76 0 1 1 0 00-.33.21L10 9.54A1 1 0 0011.46 11z"/><path d="M27 18a1 1 0 00-1 1v7H6v-7a1 1 0 00-2 0v7a2 2 0 002 2h20a2 2 0 002-2v-7a1 1 0 00-1-1z"/></symbol><symbol id="user-plus" viewBox="0 0 24 24"><path d="M19 8h-2v3h-3v2h3v3h2v-3h3v-2h-3zM4 8a3.91 3.91 0 004 4 3.91 3.91 0 004-4 3.91 3.91 0 00-4-4 3.91 3.91 0 00-4 4zm6 0a1.91 1.91 0 01-2 2 1.91 1.91 0 01-2-2 1.91 1.91 0 012-2 1.91 1.91 0 012 2zM4 18a3 3 0 013-3h2a3 3 0 013 3v1h2v-1a5 5 0 00-5-5H7a5 5 0 00-5 5v1h2z"/></symbol><symbol id="video-square" viewBox="0 0 24 24"><path d="M16.19 2H7.81C4.17 2 2 4.17 2 7.81v8.37C2 19.83 4.17 22 7.81 22h8.37c3.64 0 5.81-2.17 5.81-5.81V7.81C22 4.17 19.83 2 16.19 2zm-1.53 11.73l-1.28.74-1.28.74c-1.65.95-3 .17-3-1.73v-2.96c0-1.91 1.35-2.68 3-1.73l1.28.74 1.28.74c1.65.95 1.65 2.51 0 3.46z"/></symbol><symbol id="warning-2" viewBox="0 0 24 24"><path d="M19.512 5.85l-5.94-3.43c-.97-.56-2.17-.56-3.15 0l-5.93 3.43a3.15 3.15 0 00-1.57 2.73v6.84c0 1.12.6 2.16 1.57 2.73l5.94 3.43c.97.56 2.17.56 3.15 0l5.94-3.43a3.15 3.15 0 001.57-2.73V8.58a3.192 3.192 0 00-1.58-2.73zm-8.26 1.9c0-.41.34-.75.75-.75s.75.34.75.75V13c0 .41-.34.75-.75.75s-.75-.34-.75-.75V7.75zm1.67 8.88c-.05.12-.12.23-.21.33a.99.99 0 01-1.09.21c-.13-.05-.23-.12-.33-.21-.09-.1-.16-.21-.22-.33a.986.986 0 01-.07-.38c0-.26.1-.52.29-.71.1-.09.2-.16.33-.21.37-.16.81-.07 1.09.21.09.1.16.2.21.33.05.12.08.25.08.38s-.03.26-.08.38z"/></symbol><symbol id="youtube" viewBox="0 0 24 24"><path d="M17 4H7C4 4 2 6 2 9v6c0 3 2 5 5 5h10c3 0 5-2 5-5V9c0-3-2-5-5-5zm-3.11 9.03l-2.47 1.48c-1 .6-1.82.14-1.82-1.03v-2.97c0-1.17.82-1.63 1.82-1.03l2.47 1.48c.95.58.95 1.5 0 2.07z"/></symbol></svg>