<svg xmlns="http://www.w3.org/2000/svg" viewBox="0 0 16 16"><path d="M14,14.67H2a.51.51,0,0,1-.5-.5.5.5,0,0,1,.5-.5H14a.5.5,0,0,1,.5.5A.51.51,0,0,1,14,14.67Z"/><path d="M12.68,2.32a2.42,2.42,0,0,0-3.89,0L8,3.13a.25.25,0,0,0-.07.26,5.43,5.43,0,0,0,3.69,3.69h.08A.24.24,0,0,0,11.88,7l.8-.8a2.77,2.77,0,0,0,1-1.93A2.72,2.72,0,0,0,12.68,2.32Z"/><path d="M10.41,7.69c-.2-.1-.38-.19-.56-.3a4,4,0,0,1-.43-.28,4,4,0,0,1-.37-.28l-.12-.1A5.69,5.69,0,0,1,8.25,6a.46.46,0,0,1-.1-.12,3.54,3.54,0,0,1-.28-.36,2.78,2.78,0,0,1-.26-.4c-.11-.18-.2-.36-.3-.54a.42.42,0,0,0-.67-.14L2.89,8.22a.85.85,0,0,0-.18.37l-.36,2.55a1.37,1.37,0,0,0,.34,1.17,1.33,1.33,0,0,0,.93.36l.24,0,2.56-.36a.73.73,0,0,0,.37-.19l3.75-3.76A.4.4,0,0,0,10.41,7.69Z"/></svg>
