<svg xmlns="http://www.w3.org/2000/svg" viewBox="0 0 24 24"><path d="M21.27,9.18a14.13,14.13,0,0,0-.92-1.29,1,1,0,0,0-1.49-.09l-3,3A3.92,3.92,0,0,1,15.92,13a4,4,0,0,1-2.9,2.9,3.92,3.92,0,0,1-2.21-.06L8.35,18.31A1,1,0,0,0,8.68,20a9.22,9.22,0,0,0,3.32.62,9.68,9.68,0,0,0,5.09-1.49,13.43,13.43,0,0,0,4.23-4.34A5.78,5.78,0,0,0,21.27,9.18Z"/><path d="M12,14.86A2.87,2.87,0,0,0,14.86,12a.5.5,0,0,0,0-.17l-3,3A.5.5,0,0,0,12,14.86Z"/><path d="M21.77,2.23a.77.77,0,0,0-1.09,0L17.63,5.28A9.79,9.79,0,0,0,12,3.43,9.77,9.77,0,0,0,6.91,4.92,13.35,13.35,0,0,0,2.75,9.15a5.77,5.77,0,0,0,0,5.69,14.54,14.54,0,0,0,2.43,2.9l-2.95,3a.77.77,0,0,0,0,1.09.79.79,0,0,0,.54.22.76.76,0,0,0,.54-.23L21.77,3.31A.74.74,0,0,0,21.77,2.23ZM8,12a4,4,0,0,1,6.31-3.35l-.88.87a2.83,2.83,0,0,0-3.87,3.87l-.87.88A4,4,0,0,1,8,12Z"/></svg>
