<svg xmlns="http://www.w3.org/2000/svg" viewBox="0 0 24 24"><path d="M12,1A11,11,0,1,0,23,12,11,11,0,0,0,12,1Zm9,13.34a28.54,28.54,0,0,1-3.85,1,30.52,30.52,0,0,0,0-6.62,28.54,28.54,0,0,1,3.85,1,.64.64,0,0,0,.2,0,8.94,8.94,0,0,1,0,4.63A1.23,1.23,0,0,0,21,14.34Zm-18.13,0A9.34,9.34,0,0,1,2.53,12a9.9,9.9,0,0,1,.3-2.32.65.65,0,0,0,.2,0,28.54,28.54,0,0,1,3.85-1,30.52,30.52,0,0,0,0,6.62,28.54,28.54,0,0,1-3.85-1A1.23,1.23,0,0,0,2.84,14.32ZM8.45,8.45a29.08,29.08,0,0,1,7.1,0,29.08,29.08,0,0,1,0,7.1,29.08,29.08,0,0,1-7.1,0A29.08,29.08,0,0,1,8.45,8.45Zm12.09-.51a30.22,30.22,0,0,0-3.62-.86,30.22,30.22,0,0,0-.86-3.62A9.55,9.55,0,0,1,20.54,7.94ZM14.32,2.83a.65.65,0,0,0,0,.2,28.54,28.54,0,0,1,1,3.85,30.52,30.52,0,0,0-6.62,0A28.54,28.54,0,0,1,9.66,3a1.23,1.23,0,0,0,0-.19A9.34,9.34,0,0,1,12,2.53,9.9,9.9,0,0,1,14.32,2.83Zm-6.53.71.1,0A28,28,0,0,0,7.1,7.08a28.71,28.71,0,0,0-3.64.86A9.52,9.52,0,0,1,7.79,3.54ZM3.54,16.21s0-.06,0-.09a30.2,30.2,0,0,0,3.54.79,28.55,28.55,0,0,0,.79,3.53l-.1,0A9.4,9.4,0,0,1,3.54,16.21Zm6.14,4.95a1.23,1.23,0,0,0,0-.19,28.54,28.54,0,0,1-1-3.85,30.47,30.47,0,0,0,3.31.2,30.47,30.47,0,0,0,3.31-.2,28.54,28.54,0,0,1-1,3.85.65.65,0,0,0,0,.2,9.9,9.9,0,0,1-2.32.3A9.34,9.34,0,0,1,9.68,21.16Zm6.38-.62a28.71,28.71,0,0,0,.86-3.64,28.36,28.36,0,0,0,3.52-.78s0,.06,0,.09A9.47,9.47,0,0,1,16.06,20.54Z"/></svg>
