<svg xmlns="http://www.w3.org/2000/svg" viewBox="0 0 24 24"><path d="M11.25,6V19.91a1,1,0,0,1-1.37.93,25.61,25.61,0,0,0-5.81-1.68l-.31,0a2.06,2.06,0,0,1-1.76-2V5.25A2.17,2.17,0,0,1,4.17,3.08h.07a19.19,19.19,0,0,1,6.48,2A1,1,0,0,1,11.25,6Z"/><path d="M19.83,3.08h-.06a7.76,7.76,0,0,0-.77.1,20.21,20.21,0,0,0-4,1.14,18.38,18.38,0,0,0-1.71.79,1,1,0,0,0-.54.89V19.91a1,1,0,0,0,1.37.93,25.61,25.61,0,0,1,5.81-1.68l.31,0a2.06,2.06,0,0,0,1.76-2V5.25A2.17,2.17,0,0,0,19.83,3.08Zm-.56,10.65c0,.39-.28.56-.62.37l-1.06-.59a.49.49,0,0,0-.41,0l-1.06.59c-.34.19-.62,0-.62-.37V10.66a.85.85,0,0,1,.84-.84h2.1a.85.85,0,0,1,.84.84v3.07Z"/></svg>
