<svg xmlns="http://www.w3.org/2000/svg" viewBox="0 0 32 32"><path d="M13,5H7A2,2,0,0,0,5,7v6a2,2,0,0,0,2,2h6a2,2,0,0,0,2-2V7A2,2,0,0,0,13,5Zm0,8H7V7h6Z"/><path d="M13,17H7a2,2,0,0,0-2,2v6a2,2,0,0,0,2,2h6a2,2,0,0,0,2-2V19A2,2,0,0,0,13,17Zm0,8H7V19h6Z"/><path d="M25,5H19a2,2,0,0,0-2,2v6a2,2,0,0,0,2,2h6a2,2,0,0,0,2-2V7A2,2,0,0,0,25,5Zm0,8H19V7h6Z"/><path d="M18,23a1,1,0,0,0,1-1V18a1,1,0,0,0-2,0v4A1,1,0,0,0,18,23Z"/><path d="M26,19H23V18a1,1,0,0,0-2,0v7H18a1,1,0,0,0,0,2h4a1,1,0,0,0,1-1V21h3a1,1,0,0,0,0-2Z"/><path d="M26,23a1,1,0,0,0-1,1v2a1,1,0,0,0,2,0V24A1,1,0,0,0,26,23Z"/></svg>
