<svg xmlns="http://www.w3.org/2000/svg" viewBox="0 0 21.5 21.5"><path d="M14.2,11H12.45V9.2a.75.75,0,0,0-1.5,0V11H9.2a.75.75,0,0,0,0,1.5H11V14.2a.75.75,0,0,0,1.5,0V12.45H14.2a.75.75,0,0,0,0-1.5Z" transform="translate(-1.25 -1.25)"/><path d="M11.5,1.25A10.25,10.25,0,1,0,21.75,11.5,10.26,10.26,0,0,0,11.5,1.25Zm0,19a8.75,8.75,0,1,1,8.75-8.75A8.76,8.76,0,0,1,11.5,20.25Z" transform="translate(-1.25 -1.25)"/><path d="M22.53,21.47l-2-2a.75.75,0,0,0-1.06,1.06l2,2a.75.75,0,0,0,1.06,0A.75.75,0,0,0,22.53,21.47Z" transform="translate(-1.25 -1.25)"/></svg>