<svg xmlns="http://www.w3.org/2000/svg" viewBox="0 0 22 22"><path d="M17.47,1h-11A5.53,5.53,0,0,0,1,6.52v11A5.52,5.52,0,0,0,6.51,23h11A5.53,5.53,0,0,0,23,17.48v-11A5.55,5.55,0,0,0,17.47,1ZM4.22,15A.45.45,0,0,1,4,14.56V12.62a.43.43,0,0,1,.16-.35.54.54,0,0,1,.38-.15.53.53,0,0,1,.39.15.43.43,0,0,1,.16.35v1.94a.56.56,0,0,1-.09.36.56.56,0,0,1-.32.15A.67.67,0,0,1,4.22,15Zm1.65.72a.32.32,0,0,1-.16-.29V10.86a.48.48,0,0,1,.16-.35.61.61,0,0,1,.78,0,.48.48,0,0,1,.16.35V15.4a.32.32,0,0,1-.16.29.81.81,0,0,1-.78,0Zm1.7.21a.32.32,0,0,1-.15-.29V11.47a.46.46,0,0,1,.16-.36A.61.61,0,0,1,8,11a.59.59,0,0,1,.38.14.46.46,0,0,1,.16.36v4.14a.32.32,0,0,1-.15.29A.71.71,0,0,1,8,16,.73.73,0,0,1,7.57,15.9Zm2.11.1c-.37,0-.55-.12-.55-.37V8.92a.63.63,0,0,1,.72-.64c.26.05.38.26.38.64v6.71C10.23,15.88,10.05,16,9.68,16Zm1.19-7.48v7.31a.16.16,0,0,0,0,.09A.13.13,0,0,0,11,16h6.47a2.58,2.58,0,0,0,1.78-.66,2.11,2.11,0,0,0,0-3.21,2.58,2.58,0,0,0-1.78-.66,2.78,2.78,0,0,0-1,.17A3.7,3.7,0,0,0,15.8,9.8a4.26,4.26,0,0,0-1.58-1.32A4.82,4.82,0,0,0,12.09,8a4.92,4.92,0,0,0-1,.11C11,8.15,10.87,8.29,10.87,8.52Z" transform="translate(-1 -1)" fill-rule="evenodd"/></svg>