<svg viewBox="0 0 24 24" xmlns="http://www.w3.org/2000/svg">
<path fill-rule="evenodd" clip-rule="evenodd" d="M23.25 12C23.25 18.2128 18.2128 23.25 12 23.25C5.78719 23.25 0.75 18.2128 0.75 12C0.75 5.78719 5.78719 0.75 12 0.75C18.2128 0.75 23.25 5.78719 23.25 12ZM12.4031 9.05531C11.3091 9.51 9.12187 10.4522 5.8425 11.8809C5.31 12.0928 5.03062 12.3 5.00531 12.5025C4.96219 12.8456 5.39156 12.9806 5.97469 13.1634C6.05438 13.1888 6.13688 13.2141 6.22125 13.2422C6.79594 13.4288 7.56844 13.6472 7.96969 13.6556C8.33438 13.6631 8.74125 13.5131 9.19031 13.2056C12.2541 11.1366 13.8356 10.0912 13.935 10.0687C14.0053 10.0528 14.1028 10.0322 14.1684 10.0912C14.2341 10.1494 14.2275 10.26 14.2209 10.29C14.1778 10.4709 12.4959 12.0356 11.6241 12.8456C11.3522 13.0978 11.16 13.2769 11.1206 13.3181C11.0325 13.4091 10.9425 13.4963 10.8562 13.5797C10.3219 14.0934 9.9225 14.4797 10.8787 15.1097C11.3381 15.4125 11.7056 15.6628 12.0722 15.9122C12.4725 16.185 12.8719 16.4569 13.3894 16.7962C13.5206 16.8825 13.6462 16.9716 13.7691 17.0588C14.235 17.3916 14.6541 17.6897 15.1716 17.6428C15.4716 17.6147 15.7828 17.3325 15.9403 16.4897C16.3125 14.4966 17.0456 10.1803 17.2153 8.40094C17.2256 8.2532 17.2193 8.10477 17.1966 7.95844C17.1829 7.84025 17.1254 7.7315 17.0353 7.65375C16.9013 7.54406 16.6931 7.52063 16.5994 7.5225C16.1766 7.53 15.5278 7.75594 12.4031 9.05531Z"/>
</svg>
