<svg viewBox="0 0 24 24" xmlns="http://www.w3.org/2000/svg">
<path d="M23.0305 7.28008L20.2027 10.108C19.6381 16.6593 14.1131 21.7498 7.50017 21.7498C6.13851 21.7498 5.01635 21.5339 4.16477 21.1081C3.47753 20.7645 3.196 20.3957 3.12615 20.2908C3.06348 20.1968 3.02286 20.0898 3.00731 19.9779C2.99177 19.866 3.00171 19.7521 3.03639 19.6445C3.07107 19.537 3.12959 19.4387 3.20759 19.357C3.28558 19.2752 3.38104 19.2122 3.48682 19.1725C3.51094 19.1634 5.72258 18.314 7.152 16.6967C6.2629 16.0636 5.48038 15.2928 4.83388 14.4134C3.54876 12.6693 2.18957 9.64049 3.01226 5.11559C3.03674 4.98093 3.09761 4.85553 3.18827 4.75299C3.27893 4.65045 3.39592 4.57467 3.52656 4.53386C3.65721 4.49305 3.79653 4.48877 3.92943 4.52149C4.06234 4.5542 4.18376 4.62266 4.28054 4.71944C4.31359 4.7524 7.43448 7.82921 11.2497 8.82307L11.2502 8.2494C11.2583 7.04858 11.7428 5.90011 12.5973 5.05642C13.4518 4.21272 14.6064 3.74285 15.8072 3.75008C16.5873 3.76089 17.3512 3.97384 18.0244 4.36814C18.6976 4.76243 19.257 5.3246 19.648 5.99972L22.5002 5.99976C22.6485 5.99976 22.7935 6.04375 22.9168 6.12615C23.0402 6.20856 23.1363 6.32569 23.1931 6.46274C23.2499 6.59978 23.2647 6.75058 23.2358 6.89606C23.2068 7.04155 23.1354 7.17519 23.0305 7.28008Z"/>
</svg>
