<svg width="40" height="40" viewBox="0 0 40 40" fill="none" xmlns="http://www.w3.org/2000/svg">
<rect width="40" height="40" rx="16" fill="#2CA5E0"/>
<path d="M17.0286 28.7892C16.3136 28.7892 16.4351 28.5209 16.1885 27.8445L14.0859 20.9696L30.2708 11.4297" fill="#C8DAEA"/>
<path d="M17.0273 28.7876C17.5791 28.7876 17.8228 28.5369 18.1309 28.2394L21.0735 25.3964L17.4029 23.1973" fill="#A9C9DD"/>
<path d="M17.4022 23.1987L26.2964 29.7276C27.3115 30.284 28.0438 29.9958 28.2967 28.7914L31.9172 11.8407C32.2878 10.3642 31.3507 9.69429 30.3796 10.1323L9.12049 18.2769C7.66938 18.8552 7.67802 19.6596 8.85602 20.0179L14.3116 21.7098L26.9418 13.793C27.5381 13.4337 28.0854 13.6267 27.6363 14.0229" fill="url(#paint0_linear_899_3947)"/>
<defs>
<linearGradient id="paint0_linear_899_3947" x1="23.84" y1="18.74" x2="27.2471" y2="26.5532" gradientUnits="userSpaceOnUse">
<stop stop-color="#EFF7FC"/>
<stop offset="1" stop-color="white"/>
</linearGradient>
</defs>
</svg>
